<?xml version="1.0" standalone="no"?>
<!DOCTYPE svg PUBLIC "-//W3C//DTD SVG 20010904//EN"
 "http://www.w3.org/TR/2001/REC-SVG-20010904/DTD/svg10.dtd">
<svg version="1.0" xmlns="http://www.w3.org/2000/svg"
 width="256.000000pt" height="256.000000pt" viewBox="0 0 256.000000 256.000000"
 preserveAspectRatio="xMidYMid meet">
<metadata>
Created by potrace 1.16, written by Peter Selinger 2001-2019
</metadata>
<g transform="translate(0.000000,256.000000) scale(0.100000,-0.100000)"
fill="#000000" stroke="none">
<path d="M0 1280 l0 -1000 1280 0 1280 0 0 1000 0 1000 -1280 0 -1280 0 0
-1000z m1039 -72 l240 -243 246 245 245 245 92 -93 93 -92 -338 -338 -337
-337 -337 337 -338 338 90 90 c49 49 93 90 96 90 4 0 115 -109 248 -242z"/>
<path d="M1208 955 c-3 -3 -34 -8 -69 -11 -67 -5 -131 -23 -127 -35 5 -14 260
-279 268 -279 4 0 60 58 123 129 l116 128 -37 -3 c-20 -1 -40 0 -45 3 -8 5
-70 13 -134 16 -19 1 -43 13 -61 30 -15 15 -31 25 -34 22z"/>
</g>
</svg>
