<?xml version="1.0" standalone="no"?>
<!DOCTYPE svg PUBLIC "-//W3C//DTD SVG 20010904//EN"
 "http://www.w3.org/TR/2001/REC-SVG-20010904/DTD/svg10.dtd">
<svg version="1.0" xmlns="http://www.w3.org/2000/svg"
 width="256.000000pt" height="256.000000pt" viewBox="0 0 256.000000 256.000000"
 preserveAspectRatio="xMidYMid meet">
<metadata>
Created by potrace 1.16, written by Peter Selinger 2001-2019
</metadata>
<g transform="translate(0.000000,256.000000) scale(0.100000,-0.100000)"
fill="#000000" stroke="none">
<path d="M0 1280 l0 -1000 579 0 578 0 -14 73 c-9 39 -20 79 -26 87 -10 13 -9
13 6 0 9 -8 21 -37 28 -65 23 -101 16 -95 128 -95 114 0 110 -3 131 93 7 31
18 61 24 66 17 13 148 62 153 58 2 -3 -28 -17 -67 -33 -39 -15 -74 -32 -77
-37 -6 -10 -32 -116 -33 -134 0 -10 49 -13 211 -13 l211 0 -31 26 c-19 15 -39
49 -53 87 -20 56 -39 78 -193 234 l-170 173 -73 0 c-117 0 -183 39 -228 135
-17 35 -24 68 -24 109 l0 59 74 -71 c86 -84 108 -89 161 -40 25 23 38 45 42
71 6 37 3 41 -61 106 -64 64 -66 69 -44 74 64 18 136 -2 190 -51 57 -51 78
-101 78 -187 l0 -70 173 -178 c151 -155 179 -180 227 -198 71 -27 113 -59 134
-102 23 -50 20 -98 -9 -141 l-24 -36 279 0 280 0 0 1000 0 1000 -1280 0 -1280
0 0 -1000z m1409 493 c6 -21 13 -58 17 -81 5 -34 12 -46 33 -54 14 -6 53 -23
87 -38 l60 -27 60 43 c32 24 64 44 69 44 6 0 48 -37 93 -83 l82 -83 -46 -73
-47 -73 25 -71 25 -72 83 -22 c46 -12 87 -26 92 -31 5 -5 7 -60 6 -122 l-3
-114 -35 -8 c-141 -35 -136 -32 -164 -106 -14 -37 -26 -78 -26 -92 0 -23 -1
-23 -16 -8 -16 15 -15 21 6 75 12 32 27 70 32 86 9 23 22 31 82 48 39 11 77
22 84 25 7 2 12 21 12 49 0 41 -2 45 -25 45 -14 0 -25 -4 -25 -9 0 -9 -24 -12
-108 -13 -48 0 -53 -3 -59 -27 -3 -14 -21 -60 -40 -101 -19 -41 -32 -83 -29
-94 5 -18 4 -18 -12 -3 -15 16 -14 22 7 89 45 140 38 264 -22 388 -66 135
-210 238 -364 262 -83 13 -196 -6 -282 -49 -73 -35 -178 -141 -213 -214 -71
-148 -64 -334 18 -476 58 -100 193 -199 310 -227 32 -8 49 -15 38 -15 -28 -1
-148 36 -196 60 -66 34 -164 142 -204 227 -20 42 -39 79 -40 81 -2 2 -34 5
-71 6 -64 1 -66 1 -37 -11 17 -7 35 -19 41 -26 18 -21 63 -160 56 -172 -3 -6
-23 -34 -44 -62 -22 -28 -39 -56 -39 -62 0 -13 106 -129 131 -142 14 -8 33 0
84 35 53 35 71 43 84 34 15 -10 15 -10 -1 -5 -9 3 -43 -14 -80 -40 -34 -24
-70 -44 -80 -44 -17 0 -158 146 -158 164 0 6 18 36 40 67 22 32 40 65 39 76 0
10 -10 45 -22 78 l-22 59 -90 26 -90 26 -3 116 c-3 135 -10 125 105 153 l72
17 19 51 c35 94 35 88 -14 165 l-46 72 53 60 c28 33 67 71 85 85 38 29 43 28
121 -28 46 -32 45 -32 143 9 73 30 76 33 85 83 3 20 11 53 16 74 l10 37 119 0
119 0 10 -37z m-73 -330 c11 -37 21 -47 58 -59 20 -7 50 -23 66 -34 l30 -21
27 21 27 21 40 -40 c40 -41 40 -41 24 -69 -16 -27 -16 -32 2 -81 28 -71 24
-97 -5 -36 -22 47 -23 48 -24 20 -2 -51 -17 -62 -30 -22 -18 53 -94 132 -157
163 -194 95 -425 -70 -412 -296 4 -81 34 -144 96 -206 49 -50 42 -50 -20 -2
-37 29 -98 134 -98 170 0 11 -7 18 -20 18 -11 0 -23 6 -26 14 -3 8 -13 12 -25
9 -22 -6 -25 -19 -6 -26 7 -3 5 -6 -5 -6 -15 -1 -18 8 -18 53 0 51 1 54 29 59
26 5 32 14 51 73 21 62 21 69 7 93 -15 26 -14 28 20 69 38 46 48 50 75 26 16
-16 22 -15 75 8 32 14 66 28 76 31 10 4 17 16 17 30 0 33 7 37 67 37 42 0 55
-4 59 -17z m348 -349 c18 -7 22 -69 6 -94 -7 -11 -10 -2 -10 31 0 38 -4 48
-22 57 -17 8 -19 11 -6 11 9 1 23 -2 32 -5z m-214 -524 c-8 -5 -19 -10 -25
-10 -5 0 -3 5 5 10 8 5 20 10 25 10 6 0 3 -5 -5 -10z m-87 -27 c-7 -2 -19 -2
-25 0 -7 3 -2 5 12 5 14 0 19 -2 13 -5z"/>
<path d="M1460 753 c19 -21 87 -92 152 -158 93 -95 123 -133 146 -185 16 -36
44 -78 61 -95 28 -26 39 -30 91 -30 53 0 63 3 91 31 56 56 40 139 -34 184 -18
11 -33 16 -35 11 -5 -16 -79 6 -125 38 -26 18 -83 68 -126 112 -43 43 -83 79
-89 79 -6 0 -23 11 -38 25 -21 20 -37 25 -77 25 l-51 0 34 -37z m507 -295 c16
-15 23 -33 23 -60 0 -50 -28 -78 -77 -78 -73 0 -108 75 -62 134 27 34 82 36
116 4z"/>
<path d="M1860 438 c-25 -28 -25 -48 1 -82 38 -48 119 -22 119 39 0 58 -79 87
-120 43z"/>
</g>
</svg>
