<?xml version="1.0" standalone="no"?>
<!DOCTYPE svg PUBLIC "-//W3C//DTD SVG 20010904//EN"
 "http://www.w3.org/TR/2001/REC-SVG-20010904/DTD/svg10.dtd">
<svg version="1.0" xmlns="http://www.w3.org/2000/svg"
 width="256.000000pt" height="256.000000pt" viewBox="0 0 256.000000 256.000000"
 preserveAspectRatio="xMidYMid meet">
<metadata>
Created by potrace 1.16, written by Peter Selinger 2001-2019
</metadata>
<g transform="translate(0.000000,256.000000) scale(0.100000,-0.100000)"
fill="#000000" stroke="none">
<path d="M0 1280 l0 -1000 380 0 c209 0 380 3 380 8 0 4 -7 16 -15 26 -8 11
-15 39 -15 63 l0 43 395 0 395 0 0 -39 c0 -21 5 -52 11 -70 9 -26 16 -31 44
-31 l33 0 -21 39 c-17 32 -19 43 -10 62 l12 24 0 -28 c3 -94 101 -131 145 -55
18 29 19 50 17 223 -2 163 0 193 13 205 14 11 16 -8 16 -191 0 -185 -2 -208
-20 -242 l-20 -37 410 0 410 0 0 1000 0 1000 -1280 0 -1280 0 0 -1000z m1827
512 c-39 -43 -47 -86 -47 -262 l0 -171 -27 19 c-16 11 -60 36 -100 56 -197 98
-428 112 -650 37 l-83 -27 0 125 c0 143 12 180 69 218 34 23 34 23 444 23 393
0 409 -1 394 -18z m143 -9 c37 -22 50 -52 50 -120 0 -46 -3 -54 -16 -49 -9 3
-49 6 -90 6 l-74 0 2 58 c2 55 2 55 5 11 4 -43 6 -47 35 -53 17 -3 48 -6 69
-6 l39 0 0 46 c0 94 -50 131 -116 83 -21 -15 -19 -12 6 10 39 36 51 37 90 14z
m-1272 -150 l3 -53 50 0 c48 0 49 -1 49 -29 0 -29 -2 -30 -52 -33 l-53 -3 -3
-58 c-3 -57 -4 -58 -30 -55 -25 3 -27 6 -30 61 l-3 57 -49 0 c-49 0 -50 1 -50
30 0 29 1 30 50 30 l50 0 0 48 c0 56 5 64 40 60 23 -3 25 -8 28 -55z m743
-187 c163 -35 324 -129 467 -273 50 -52 92 -98 92 -102 0 -21 -91 -119 -174
-187 -100 -82 -249 -162 -356 -191 -99 -27 -292 -24 -387 5 -110 34 -259 113
-349 186 -77 62 -174 164 -174 184 0 5 36 48 81 95 217 233 524 341 800 283z
m-501 -872 c0 -63 -4 -104 -10 -104 -6 0 -10 44 -10 111 0 71 4 108 10 104 6
-3 10 -52 10 -111z m449 22 c-2 -2 -28 -6 -57 -10 -37 -5 -52 -4 -47 4 3 5 29
10 57 10 28 0 49 -2 47 -4z m-126 -13 c-7 -2 -19 -2 -25 0 -7 3 -2 5 12 5 14
0 19 -2 13 -5z"/>
<path d="M1037 1636 c-8 -20 2 -26 45 -26 31 0 38 3 38 20 0 17 -7 20 -39 20
-24 0 -41 -5 -44 -14z"/>
<path d="M1153 1635 c-3 -9 -3 -18 0 -21 8 -8 356 -16 384 -9 14 3 23 13 23
25 0 19 -7 20 -200 20 -172 0 -201 -2 -207 -15z"/>
<path d="M1612 1633 c2 -11 14 -19 31 -21 22 -3 27 1 27 17 0 17 -6 21 -31 21
-24 0 -30 -4 -27 -17z"/>
<path d="M1600 1521 c-24 -7 -23 -8 14 -20 32 -11 40 -11 47 0 5 8 9 17 9 22
0 9 -36 8 -70 -2z"/>
<path d="M1178 1387 c-95 -36 -165 -95 -210 -180 -20 -36 -23 -57 -23 -142 0
-84 4 -107 23 -146 35 -72 87 -125 150 -156 51 -25 68 -28 157 -28 89 0 106 3
157 28 67 33 121 90 157 166 37 80 37 192 0 271 -33 69 -97 133 -169 168 -65
32 -181 41 -242 19z m194 -59 c52 -15 131 -87 156 -141 24 -50 37 -127 22
-127 -5 0 -10 14 -10 30 0 17 -6 46 -14 65 -22 52 -102 132 -151 151 -53 20
-81 14 -36 -8 32 -15 30 -26 -4 -35 -73 -18 -80 -21 -55 -22 38 -2 112 -26
104 -34 -4 -4 0 -7 9 -7 9 0 26 -18 38 -41 63 -124 -21 -272 -155 -272 -81 0
-146 45 -166 114 -17 59 -10 66 11 12 41 -106 150 -142 247 -83 53 32 74 75
69 143 -6 96 -59 148 -159 155 l-62 5 22 -28 c44 -55 19 -125 -44 -125 -26 0
-39 8 -61 35 -48 60 -105 43 -118 -34 -12 -70 34 -184 92 -231 25 -20 25 -21
3 -8 -33 19 -87 100 -101 151 -15 55 -7 143 16 192 27 56 94 120 146 138 53
19 148 21 201 5z m168 -348 l-11 -25 6 25 c2 14 5 36 6 50 l2 25 4 -25 c2 -14
-1 -37 -7 -50z"/>
<path d="M761 904 c45 -55 209 -147 335 -190 90 -30 238 -37 339 -15 71 15
235 97 235 117 0 31 -73 19 -150 -24 -112 -63 -148 -75 -235 -76 -96 -1 -166
18 -250 70 -124 76 -181 107 -225 120 -58 18 -65 17 -49 -2z"/>
<path d="M750 373 c0 -11 10 -35 23 -54 l23 -34 363 -3 c289 -2 362 0 358 10
-3 7 -11 30 -18 51 -11 35 -15 37 -53 37 -23 0 -188 3 -368 7 -324 6 -328 6
-328 -14z"/>
</g>
</svg>
