<?xml version="1.0" standalone="no"?>
<!DOCTYPE svg PUBLIC "-//W3C//DTD SVG 20010904//EN"
 "http://www.w3.org/TR/2001/REC-SVG-20010904/DTD/svg10.dtd">
<svg version="1.0" xmlns="http://www.w3.org/2000/svg"
 width="256.000000pt" height="256.000000pt" viewBox="0 0 256.000000 256.000000"
 preserveAspectRatio="xMidYMid meet">
<metadata>
Created by potrace 1.16, written by Peter Selinger 2001-2019
</metadata>
<g transform="translate(0.000000,256.000000) scale(0.100000,-0.100000)"
fill="#000000" stroke="none">
<path d="M0 1280 l0 -1000 404 0 c450 0 442 -1 617 76 85 37 99 40 99 21 0
-18 -36 -50 -85 -75 l-40 -21 43 -1 c29 0 54 7 75 22 l32 22 -19 -22 -19 -22
274 1 c155 0 265 4 254 9 -11 5 -57 22 -102 40 -45 17 -90 38 -100 46 -10 8 8
3 39 -11 31 -13 92 -36 135 -52 l78 -27 438 -4 437 -3 0 1000 0 1001 -1280 0
-1280 0 0 -1000z m1105 520 c19 -61 -8 -127 -47 -117 -10 3 -22 -2 -28 -11 -7
-12 -9 -1 -10 41 0 48 4 62 25 82 29 30 51 32 60 5z m432 7 l33 -12 -47 -38
c-35 -28 -55 -37 -84 -37 l-38 0 11 33 c20 62 58 78 125 54z m-192 -69 c17
-32 49 -74 73 -94 34 -29 42 -42 42 -70 0 -25 4 -34 16 -34 14 0 15 -8 9 -47
-4 -27 -15 -62 -26 -79 -21 -35 -73 -64 -111 -63 -21 0 -22 1 -3 8 18 7 16 9
-11 15 -31 7 -123 0 -133 -9 -2 -3 12 -6 32 -6 21 -1 43 -2 50 -3 15 -1 25
-71 26 -186 l1 -84 38 36 c38 38 113 77 145 78 12 0 -2 -17 -40 -48 -75 -63
-110 -115 -123 -181 -12 -64 -13 -138 -2 -145 4 -2 20 10 34 27 50 63 96 86
229 112 68 13 125 22 127 21 8 -9 -71 -47 -143 -71 -96 -30 -166 -80 -197
-137 -21 -38 -23 -57 -23 -173 0 -105 3 -137 18 -165 13 -26 14 -30 2 -15 -27
35 -39 97 -37 205 1 58 3 116 5 129 2 23 -1 25 -50 25 -34 1 -55 -4 -58 -11
-2 -7 -13 -13 -24 -13 -19 0 -19 -1 -1 -47 37 -98 34 -223 -7 -293 -9 -16 -12
-18 -8 -5 4 11 11 47 16 80 27 161 -44 298 -184 359 -29 13 -63 28 -77 34 -23
10 -21 11 22 11 68 1 149 -33 209 -87 l52 -47 -5 80 c-8 109 -34 161 -133 262
-44 46 -76 83 -70 83 46 -1 139 -77 202 -165 12 -16 24 -28 26 -25 3 3 7 83 9
178 l3 172 -35 0 c-48 0 -102 39 -125 90 -18 39 -18 43 -2 70 9 15 17 37 17
48 0 50 67 162 97 162 7 0 22 18 33 41 30 57 56 51 95 -23z m515 -47 c-5 -10
-7 -21 -4 -23 4 -5 -49 -112 -67 -134 -7 -9 4 -26 38 -58 26 -25 51 -46 55
-46 5 0 8 -7 8 -15 0 -11 -13 -15 -54 -15 -52 0 -55 1 -61 30 -5 22 -14 32
-33 36 -15 4 -36 14 -47 24 -11 10 -30 23 -43 29 -12 7 -20 16 -17 21 3 5 1
11 -5 15 -17 11 -12 38 6 31 13 -5 15 -1 10 19 -4 17 1 43 14 73 20 45 22 46
36 27 9 -11 18 -32 21 -47 l5 -28 66 61 c62 56 67 59 74 39 4 -12 4 -30 -2
-39z m-970 9 c27 -35 46 -38 55 -10 9 28 25 25 25 -5 0 -15 7 -39 15 -54 17
-33 12 -41 -27 -41 -26 0 -32 -7 -64 -75 -40 -84 -47 -153 -20 -207 9 -17 14
-33 12 -36 -7 -6 -33 48 -45 96 -18 66 -38 54 -40 -25 -1 -37 -4 -69 -7 -72
-3 -3 -5 19 -4 49 4 126 6 120 -50 120 -45 0 -51 -3 -65 -30 -20 -39 -19 -62
5 -93 22 -27 26 -42 10 -32 -24 15 -51 87 -45 117 6 27 5 29 -13 19 -28 -15
-45 -64 -38 -108 5 -27 4 -34 -3 -23 -14 21 -14 100 1 156 12 43 11 47 -10 64
-27 22 -28 30 -3 30 10 0 24 7 31 15 9 11 35 15 99 16 47 0 94 3 103 7 9 4 30
25 47 46 l31 39 -20 22 c-21 22 -27 45 -11 45 4 0 18 -13 31 -30z m660 -66
c-16 -18 -50 -18 -50 0 0 8 12 24 28 36 l27 22 3 -22 c2 -11 -2 -28 -8 -36z
m-502 -96 c14 -14 16 -54 3 -62 -11 -7 -41 37 -41 59 0 18 21 20 38 3z m513
-21 c-13 -13 -26 -3 -16 12 3 6 11 8 17 5 6 -4 6 -10 -1 -17z m89 -74 c0 -3
-14 -28 -31 -55 -20 -31 -35 -46 -41 -40 -15 15 1 70 25 87 22 16 47 20 47 8z
m-591 -49 c32 -27 56 -90 45 -118 -6 -15 -9 -14 -32 6 l-25 23 7 -27 c3 -14 9
-33 12 -42 9 -24 -37 -21 -69 4 -47 37 -62 138 -25 164 31 22 52 20 87 -10z
m587 -20 c-9 -8 -11 -9 -6 -2 6 7 11 21 11 33 1 18 2 18 6 1 3 -10 -2 -25 -11
-32z m-106 -30 c0 -37 -6 -51 -29 -75 -16 -16 -37 -29 -46 -29 -15 0 -15 1 -1
16 9 8 16 20 16 25 0 12 -37 12 -45 -1 -4 -6 -10 -8 -15 -5 -5 3 -11 -3 -13
-12 -4 -15 -5 -14 -6 3 0 11 5 27 12 36 22 29 110 97 119 92 4 -3 8 -26 8 -50z
m450 31 c8 -9 10 -25 5 -42 -5 -18 -9 -23 -12 -13 -13 44 -15 46 -23 25 -7
-17 -9 -14 -9 13 -1 35 17 43 39 17z m-143 -89 c67 -1 75 -4 102 -31 17 -16
41 -59 54 -95 13 -36 28 -73 32 -82 4 -11 3 -18 -3 -18 -5 0 -18 19 -28 43
l-18 43 -70 1 c-39 0 -62 -2 -51 -4 11 -3 24 -9 29 -14 5 -5 -6 -4 -25 1 -66
19 -77 15 -73 -29 2 -30 -2 -40 -15 -44 -14 -3 -18 2 -17 23 1 16 4 26 9 23 4
-2 7 2 7 10 0 9 -10 15 -26 15 -19 0 -29 -9 -41 -34 -17 -34 -43 -53 -43 -31
1 7 7 23 15 37 31 54 4 100 -57 100 -38 0 -44 17 -17 47 36 38 78 54 124 47
22 -4 73 -7 112 -8z m-679 -59 c-2 -22 -8 -42 -15 -44 -16 -6 -26 33 -18 74 5
29 8 33 21 22 10 -8 14 -26 12 -52z m-575 -28 c28 -35 19 -40 -13 -7 -21 20
-37 28 -50 25 -13 -3 -20 0 -20 8 0 20 60 1 83 -26z m322 -9 c6 9 83 -65 85
-80 0 -3 -19 -4 -43 -2 -37 3 -50 -1 -93 -34 -27 -21 -42 -29 -34 -20 14 17
12 18 -30 12 -25 -3 -46 -11 -48 -16 -2 -6 -12 -10 -22 -10 -10 0 -22 -4 -25
-10 -3 -5 -25 -9 -48 -8 -86 2 -85 3 -103 -57 -13 -46 -13 -59 -3 -73 12 -16
12 -16 -5 0 -18 15 -18 19 -1 94 20 91 49 127 110 138 22 4 63 24 92 43 45 31
58 35 93 30 36 -5 41 -3 36 11 -4 11 1 9 13 -6 12 -14 22 -18 26 -12z m-374
-7 c13 -16 12 -17 -3 -4 -10 7 -18 15 -18 17 0 8 8 3 21 -13z m964 -159 c-3
-19 -11 -36 -17 -40 -8 -5 -9 -2 -5 9 3 9 2 27 -2 39 -7 18 -10 19 -14 8 -14
-41 -17 -42 -12 -6 2 21 14 50 27 63 l23 25 3 -33 c2 -18 1 -47 -3 -65z m402
64 c-3 -8 -6 -5 -6 6 -1 11 2 17 5 13 3 -3 4 -12 1 -19z m29 -6 c-4 -11 -18
-22 -31 -25 -32 -6 -32 1 0 13 14 5 25 17 25 26 0 10 3 15 6 11 3 -3 3 -14 0
-25z m-346 -13 c0 -12 -4 -17 -11 -13 -7 4 -9 0 -5 -14 4 -11 2 -23 -4 -27
-14 -9 -13 48 2 63 16 16 18 15 18 -9z m-778 -94 c-3 -40 1 -63 13 -81 16 -25
16 -25 -4 -15 -24 13 -37 84 -22 124 6 15 12 27 13 27 2 0 1 -25 0 -55z m279
26 c30 -30 35 -46 20 -69 -7 -11 -12 -12 -29 -1 -19 12 -52 68 -52 89 0 20 32
9 61 -19z m-140 -18 c13 -15 12 -15 -9 -4 -12 6 -28 9 -34 5 -7 -4 -8 -3 -4 4
10 17 31 15 47 -5z m998 -17 c17 -18 19 -26 10 -31 -7 -5 -10 -4 -6 2 9 15
-37 36 -62 28 -24 -7 -19 -22 13 -35 12 -5 15 -9 6 -9 -8 0 -26 8 -40 19 -24
20 -25 21 -6 35 29 22 59 18 85 -9z m-1298 -21 c5 4 9 -1 9 -11 0 -9 9 -32 21
-50 17 -27 19 -39 11 -62 -10 -26 -10 -26 -9 11 0 29 -6 44 -26 63 -18 16 -27
34 -26 52 1 17 3 21 6 9 2 -9 9 -15 14 -12z m1181 -64 c36 -32 33 -52 -4 -27
-13 8 -50 18 -83 21 -33 3 -54 2 -47 -1 7 -3 17 -15 24 -27 11 -21 10 -21 -13
-6 -34 23 -31 52 6 60 61 13 84 9 117 -20z m-196 -53 c11 -18 -6 -21 -24 -5
-10 10 -24 17 -30 17 -7 0 -12 4 -12 9 0 12 57 -6 66 -21z m19 -28 c3 -6 -4
-10 -17 -10 -18 0 -20 2 -8 10 19 12 18 12 25 0z m-826 -13 c-58 -26 -81 -65
-31 -52 15 3 37 18 49 33 12 15 22 22 23 15 0 -7 -10 -24 -23 -38 -19 -23 -29
-26 -71 -23 l-48 3 22 28 c24 31 53 46 85 46 17 -1 16 -3 -6 -12z m181 -8
c-64 -17 -80 -31 -95 -78 -11 -38 -14 -41 -14 -18 -1 38 25 86 52 97 12 5 38
9 57 8 l35 0 -35 -9z m959 -96 c-14 -77 -76 -152 -139 -168 -17 -4 -13 1 15
17 40 23 88 84 100 126 6 21 2 20 -72 -18 -43 -23 -95 -58 -116 -78 l-38 -37
7 30 c24 106 97 159 240 174 8 1 9 -13 3 -46z m-393 -22 c40 -18 84 -66 84
-93 0 -7 -9 0 -20 16 -27 41 -64 60 -91 45 -15 -8 -20 -18 -16 -35 10 -56 -14
-8 -28 54 -8 39 8 42 71 13z m-185 -348 c13 -16 12 -17 -3 -4 -17 13 -22 21
-14 21 2 0 10 -8 17 -17z"/>
<path d="M601 1433 c-1 -6 -4 -20 -7 -30 -5 -17 -5 -17 6 0 6 10 9 23 6 30 -3
9 -5 9 -5 0z"/>
<path d="M1710 1137 c0 -16 3 -17 15 -7 8 6 18 9 23 7 4 -3 14 -2 22 4 13 7
13 9 0 10 -8 1 -25 3 -37 4 -17 2 -23 -3 -23 -18z"/>
<path d="M965 323 c-102 -41 -105 -44 -41 -37 63 6 146 37 146 54 0 16 -40 10
-105 -17z"/>
</g>
</svg>
