<?xml version="1.0" standalone="no"?>
<!DOCTYPE svg PUBLIC "-//W3C//DTD SVG 20010904//EN"
 "http://www.w3.org/TR/2001/REC-SVG-20010904/DTD/svg10.dtd">
<svg version="1.0" xmlns="http://www.w3.org/2000/svg"
 width="256.000000pt" height="256.000000pt" viewBox="0 0 256.000000 256.000000"
 preserveAspectRatio="xMidYMid meet">
<metadata>
Created by potrace 1.16, written by Peter Selinger 2001-2019
</metadata>
<g transform="translate(0.000000,256.000000) scale(0.100000,-0.100000)"
fill="#000000" stroke="none">
<path d="M0 1280 l0 -1000 630 0 631 0 -21 28 c-46 62 -45 159 2 209 52 56 62
58 348 61 309 4 354 -2 399 -53 59 -67 65 -155 15 -215 l-26 -30 291 0 291 0
0 1000 0 1000 -1280 0 -1280 0 0 -1000z m2050 511 c0 -21 -353 -1047 -364
-1059 -10 -10 -37 7 -137 85 -136 106 -228 173 -239 173 -4 0 -15 -30 -24 -66
-9 -36 -30 -93 -47 -126 -17 -33 -29 -61 -27 -63 2 -2 43 33 93 78 49 45 83
73 75 61 -30 -43 -191 -187 -199 -178 -5 5 -16 85 -25 177 -10 93 -20 176 -23
185 -4 12 -3 14 5 7 14 -13 29 -110 38 -239 9 -122 17 -115 70 53 20 64 41
125 46 136 5 12 133 149 283 305 151 156 273 286 271 288 -5 4 -243 -157 -381
-258 -49 -36 -149 -107 -220 -157 l-131 -92 -69 18 c-151 40 -301 84 -319 93
-24 13 -16 19 79 61 44 19 181 79 305 135 270 120 575 254 760 333 131 56 180
69 180 50z m-1276 -777 c8 -20 -48 -71 -119 -110 l-50 -27 75 77 c41 42 78 76
81 76 4 0 10 -7 13 -16z m207 -25 c6 -12 7 -24 2 -28 -60 -53 -208 -174 -228
-187 -52 -34 -36 -2 44 85 89 97 146 151 161 151 5 0 14 -9 21 -21z m67 -193
c10 -23 5 -30 -82 -110 -51 -48 -96 -86 -99 -86 -3 0 -3 10 1 22 l5 22 -30
-22 c-63 -45 -45 -19 62 88 60 61 115 110 121 110 6 0 16 -11 22 -24z m35
-210 c6 -16 -71 -84 -118 -105 l-30 -13 25 29 c91 104 112 119 123 89z"/>
<path d="M1740 1006 c-12 -24 -37 -36 -73 -36 -14 0 -16 6 -11 28 6 26 5 26
-15 -5 -20 -32 -44 -42 -56 -24 -3 6 -15 8 -28 5 -31 -7 -77 -13 -115 -16 -38
-3 -42 3 88 -100 122 -96 136 -104 148 -81 13 24 82 246 78 250 -1 2 -8 -8
-16 -21z"/>
<path d="M1354 477 c-34 -30 -26 -59 21 -82 36 -17 46 -35 19 -35 -8 0 -24 5
-35 10 -15 8 -21 7 -25 -4 -5 -13 -11 -13 -46 0 -35 12 -39 12 -35 0 3 -8 1
-16 -5 -18 -5 -2 3 -18 20 -36 l30 -32 322 0 322 0 39 39 c26 26 39 48 39 66
0 26 -2 27 -45 23 -43 -5 -45 -4 -55 27 -12 37 -45 55 -100 55 l-40 0 0 -74
c0 -56 -4 -75 -15 -80 -13 -4 -15 8 -15 74 0 75 -1 80 -21 80 -20 0 -21 -4
-15 -47 l7 -48 -36 53 c-52 77 -65 71 -65 -33 0 -69 -3 -85 -15 -85 -8 0 -15
6 -15 14 0 10 -13 16 -37 18 -49 4 -57 28 -9 28 29 0 36 4 36 20 0 16 -7 20
-35 20 -24 0 -35 5 -35 15 0 11 11 15 40 15 29 0 40 4 40 15 0 12 -13 15 -60
15 l-60 0 0 -81 c0 -51 -4 -78 -10 -74 -6 3 -7 17 -4 29 4 18 -1 29 -22 45
-15 11 -33 21 -40 21 -8 0 -14 7 -14 15 0 10 11 15 35 15 39 0 46 14 16 30
-30 15 -47 12 -77 -13z m521 -67 c0 -31 -3 -35 -27 -38 -27 -3 -28 -1 -28 38
0 39 1 41 28 38 24 -3 27 -7 27 -38z m-192 -36 c16 -30 15 -32 -3 -37 -18 -4
-20 0 -20 36 0 45 1 45 23 1z"/>
</g>
</svg>
