<?xml version="1.0" standalone="no"?>
<!DOCTYPE svg PUBLIC "-//W3C//DTD SVG 20010904//EN"
 "http://www.w3.org/TR/2001/REC-SVG-20010904/DTD/svg10.dtd">
<svg version="1.0" xmlns="http://www.w3.org/2000/svg"
 width="256.000000pt" height="256.000000pt" viewBox="0 0 256.000000 256.000000"
 preserveAspectRatio="xMidYMid meet">
<metadata>
Created by potrace 1.16, written by Peter Selinger 2001-2019
</metadata>
<g transform="translate(0.000000,256.000000) scale(0.100000,-0.100000)"
fill="#000000" stroke="none">
<path d="M0 1280 l0 -1000 291 0 292 0 -34 23 c-25 17 -35 31 -37 56 -2 18 0
31 5 29 99 -49 194 -66 291 -50 36 6 68 9 71 7 14 -15 -24 -20 -137 -20 -109
0 -134 3 -174 22 -63 29 -66 5 -5 -34 40 -27 47 -28 170 -28 96 0 130 3 136
13 7 11 9 11 14 -2 4 -10 18 -16 35 -16 29 0 29 0 22 43 -5 23 -7 43 -6 44 1
1 21 -7 44 -18 96 -48 288 -48 384 0 l38 18 0 -24 c0 -13 -5 -33 -10 -44 -11
-19 -1 -19 580 -19 l590 0 0 1000 0 1000 -1280 0 -1280 0 0 -1000z m1956 553
c-3 -16 -15 -84 -26 -153 -33 -196 -25 -183 -73 -128 l-42 46 -160 -154 c-87
-85 -163 -154 -168 -154 -6 0 -50 38 -98 85 -49 47 -92 85 -96 85 -5 0 -44
-36 -88 -80 l-80 -80 -78 0 c-71 0 -77 1 -68 18 6 9 80 89 165 177 l155 160
90 -90 91 -90 112 112 112 113 -38 39 c-46 48 -57 41 131 86 173 42 166 41
159 8z m-956 -428 c-22 -23 -31 -25 -111 -25 -66 0 -91 -4 -103 -16 -23 -23
-20 -58 10 -93 l25 -31 544 -2 544 -3 30 -29 c34 -33 51 -79 51 -143 0 -51 -8
-73 -26 -73 -10 0 -14 14 -14 53 0 28 -3 62 -6 75 -6 20 -10 15 -35 -37 -16
-33 -34 -63 -40 -66 -8 -6 -8 -9 1 -15 6 -4 -21 -10 -62 -14 -80 -8 -143 -31
-171 -64 -26 -28 -46 -89 -47 -137 l0 -40 -117 3 c-161 3 -191 13 -383 120
-61 34 -158 101 -112 77 7 -4 -2 17 -21 47 -18 29 -44 74 -57 99 -13 25 -36
55 -52 65 -15 10 -26 24 -24 31 3 7 -1 10 -9 7 -7 -3 -19 4 -25 16 -6 12 -15
19 -18 15 -4 -4 -9 -59 -12 -123 -3 -72 -9 -117 -16 -119 -17 -6 -24 56 -23
202 0 151 11 190 58 222 30 20 46 23 139 23 l105 0 -23 -25z m815 11 c41 -17
55 -42 55 -95 0 -30 -4 -41 -15 -41 -10 0 -15 11 -15 35 0 50 -28 75 -85 75
-47 0 -58 12 -27 29 24 14 47 13 87 -3z m-490 -86 l29 -30 -65 0 -64 1 33 29
c18 17 34 30 35 30 2 0 16 -13 32 -30z m320 -9 c-3 -5 9 -12 27 -14 28 -3 26
-4 -11 -5 -38 -2 -42 0 -31 13 14 17 25 20 15 6z m-759 -396 c59 -17 97 -53
92 -87 -2 -16 -17 -30 -53 -48 -45 -23 -62 -25 -175 -25 -115 0 -130 2 -182
27 -52 24 -58 30 -58 57 0 35 25 55 92 76 59 19 222 19 284 0z m1160 -10 c14
-22 16 -41 10 -132 -4 -58 -9 -110 -12 -115 -3 -4 -77 -8 -166 -8 l-160 0 -32
33 c-56 55 -56 155 0 208 28 27 70 33 241 37 100 3 102 2 119 -23z m-1296
-200 c115 0 129 2 178 26 l52 26 0 -38 c0 -35 -3 -39 -47 -61 -43 -21 -62 -23
-183 -23 -124 0 -139 2 -185 25 -45 23 -50 29 -53 62 l-3 37 58 -27 c53 -25
68 -27 183 -27z m519 -56 c71 -15 115 -47 119 -86 4 -35 -20 -57 -73 -68 l-30
-6 30 16 c27 13 27 15 5 10 -84 -18 -157 -17 -226 4 -40 12 -80 18 -90 15 -14
-4 -15 -3 -6 4 11 8 11 10 -1 15 -10 4 -14 0 -13 -11 4 -26 68 -51 158 -62
l83 -9 -85 4 c-67 4 -96 11 -140 32 -48 24 -55 32 -58 60 -3 25 2 35 24 49 57
38 206 54 303 33z m-708 -39 c58 -30 184 -46 259 -34 34 6 63 7 65 3 17 -27
-211 -26 -297 1 -34 11 -64 20 -65 20 -1 0 0 -6 3 -14 3 -8 32 -26 65 -41 48
-21 76 -27 137 -28 42 0 94 5 115 12 43 15 60 9 27 -9 -39 -21 -159 -24 -230
-6 -92 24 -124 45 -128 84 -4 38 -3 38 49 12z m1416 -82 c-3 -7 -5 -2 -5 12 0
14 2 19 5 13 2 -7 2 -19 0 -25z m-1411 -45 c47 -27 55 -28 182 -28 72 0 132
-3 132 -7 0 -11 -130 -21 -199 -14 -38 3 -86 16 -113 29 -57 28 -66 12 -15
-27 37 -29 29 -34 -14 -9 -23 14 -29 25 -29 50 0 18 2 33 4 33 2 0 25 -12 52
-27z m604 -48 c108 0 132 3 174 23 27 12 49 22 50 22 1 0 0 -16 -2 -36 -4 -32
-10 -39 -51 -57 -36 -17 -69 -22 -156 -23 l-110 -2 105 7 c113 9 200 37 200
65 0 20 2 20 -51 -1 -31 -11 -78 -16 -159 -17 -99 -1 -122 2 -164 22 -57 26
-56 26 -56 8 0 -8 19 -27 43 -41 28 -18 34 -24 17 -20 -50 14 -70 34 -70 69
l0 33 53 -26 c48 -24 62 -26 177 -26z m103 48 c-7 -2 -21 -2 -30 0 -10 3 -4 5
12 5 17 0 24 -2 18 -5z m-626 -89 c-3 -3 -12 -4 -19 -1 -8 3 -5 6 6 6 11 1 17
-2 13 -5z m210 0 c-3 -3 -12 -4 -19 -1 -8 3 -5 6 6 6 11 1 17 -2 13 -5z m-74
-11 c-24 -2 -62 -2 -85 0 -24 2 -5 4 42 4 47 0 66 -2 43 -4z m284 -9 c-3 -3
-12 -4 -19 -1 -8 3 -5 6 6 6 11 1 17 -2 13 -5z"/>
<path d="M790 909 c25 -4 56 -7 70 -7 23 0 22 1 -5 8 -16 4 -48 8 -70 8 l-40
-1 45 -8z"/>
<path d="M546 849 c8 -14 91 -49 112 -48 9 0 1 5 -18 11 -31 9 -33 11 -15 19
18 7 17 8 -7 8 -15 1 -38 5 -53 11 -18 7 -24 7 -19 -1z"/>
<path d="M907 844 c-3 -4 -61 -10 -129 -14 l-123 -8 125 2 c74 1 133 7 145 14
15 9 16 11 4 12 -9 0 -18 -3 -22 -6z"/>
<path d="M693 793 c9 -2 23 -2 30 0 6 3 -1 5 -18 5 -16 0 -22 -2 -12 -5z"/>
<path d="M828 793 c12 -2 32 -2 45 0 12 2 2 4 -23 4 -25 0 -35 -2 -22 -4z"/>
<path d="M1731 834 c-26 -33 -26 -55 -3 -82 26 -32 63 -37 95 -12 34 27 36 68
4 98 -32 30 -71 28 -96 -4z"/>
<path d="M1975 813 c-22 -8 -50 -17 -62 -20 -13 -3 -41 -23 -63 -44 -46 -45
-78 -49 -128 -19 -29 18 -33 18 -39 4 -3 -9 3 -25 16 -37 20 -21 31 -22 174
-22 l152 0 3 35 c1 19 -1 54 -5 77 l-8 41 -40 -15z"/>
<path d="M520 732 c0 -20 51 -50 115 -67 85 -23 208 -16 274 17 45 23 74 59
35 44 -126 -49 -278 -46 -406 9 -11 4 -18 3 -18 -3z"/>
<path d="M1057 636 c-76 -16 -90 -31 -57 -57 64 -49 238 -64 320 -27 l35 17
-35 -7 c-72 -14 -223 -8 -272 11 -27 10 -48 22 -48 26 0 26 266 39 325 16 14
-6 17 -5 10 2 -29 30 -178 40 -278 19z"/>
<path d="M950 325 c0 -8 10 -21 22 -29 33 -23 353 -23 386 0 12 8 22 21 22 28
0 10 -15 9 -67 -6 -82 -23 -251 -20 -320 5 -36 14 -43 14 -43 2z"/>
</g>
</svg>
