<?xml version="1.0" standalone="no"?>
<!DOCTYPE svg PUBLIC "-//W3C//DTD SVG 20010904//EN"
 "http://www.w3.org/TR/2001/REC-SVG-20010904/DTD/svg10.dtd">
<svg version="1.0" xmlns="http://www.w3.org/2000/svg"
 width="256.000000pt" height="256.000000pt" viewBox="0 0 256.000000 256.000000"
 preserveAspectRatio="xMidYMid meet">
<metadata>
Created by potrace 1.16, written by Peter Selinger 2001-2019
</metadata>
<g transform="translate(0.000000,256.000000) scale(0.100000,-0.100000)"
fill="#000000" stroke="none">
<path d="M0 1280 l0 -1000 831 0 831 0 -48 33 c-72 48 -108 112 -112 202 -5
83 14 137 67 197 92 105 262 113 366 17 62 -57 88 -124 83 -214 -4 -90 -40
-154 -112 -203 l-48 -32 351 0 351 0 0 1000 0 1000 -1280 0 -1280 0 0 -1000z
m1798 465 c104 -31 181 -114 208 -227 14 -56 15 -78 6 -123 -19 -91 -40 -124
-172 -260 -250 -259 -286 -293 -340 -321 -49 -26 -65 -29 -145 -29 -103 0
-145 17 -206 82 -62 65 -62 70 -15 125 22 26 46 48 51 48 6 0 18 -12 27 -28
50 -84 129 -113 204 -74 48 25 415 394 439 441 12 24 16 49 13 83 -8 80 -63
137 -141 145 -78 9 -110 -10 -246 -142 l-126 -123 -45 8 c-25 5 -62 9 -82 10
-21 0 -38 5 -38 10 0 6 75 86 168 179 144 145 175 171 222 189 66 25 148 28
218 7z m-501 -480 c59 -18 135 -81 163 -136 11 -21 20 -40 20 -43 0 -5 -95
-76 -103 -76 -2 0 -16 18 -31 40 -47 71 -138 99 -211 65 -38 -19 -402 -391
-427 -438 -38 -69 -11 -172 58 -217 33 -23 131 -27 167 -9 12 6 78 67 147 135
l125 124 89 -13 90 -13 -172 -169 c-209 -206 -231 -220 -357 -220 -78 0 -97 4
-141 27 -60 32 -118 93 -148 157 -16 35 -21 65 -20 126 0 123 13 143 239 379
211 219 247 249 328 277 64 22 118 24 184 4z"/>
<path d="M1555 965 c-22 -7 -66 -27 -99 -44 -66 -35 -117 -40 -174 -15 -20 9
-45 17 -55 19 -9 2 -30 13 -46 24 -24 17 -31 18 -46 7 -18 -13 -17 -15 12 -53
18 -21 55 -52 83 -67 48 -26 59 -28 134 -24 113 6 160 32 253 138 l22 26 -22
1 c-12 0 -40 -5 -62 -12z"/>
<path d="M606 744 c-73 -74 -53 -265 37 -355 49 -49 104 -72 188 -77 113 -7
151 14 332 183 149 139 159 154 99 155 -40 0 -91 -28 -146 -80 -29 -27 -57
-50 -63 -50 -5 0 -22 -14 -39 -31 -31 -33 -82 -62 -126 -73 -68 -16 -176 43
-204 110 -22 51 -18 124 9 175 30 55 25 69 -22 69 -28 0 -45 -7 -65 -26z"/>
<path d="M1793 556 l-70 -73 -31 34 c-32 37 -57 40 -76 11 -9 -15 -2 -27 44
-73 30 -30 60 -55 66 -55 21 0 197 199 190 215 -13 35 -53 16 -123 -59z"/>
<path d="M1881 505 c-18 -8 -58 -37 -88 -65 -30 -27 -61 -50 -70 -50 -8 0 -35
17 -60 37 -41 34 -101 51 -125 36 -13 -7 21 -76 54 -110 46 -48 102 -66 191
-62 60 4 82 9 115 31 47 32 92 101 99 156 l5 37 -44 2 c-23 1 -58 -4 -77 -12z"/>
</g>
</svg>
