<?xml version="1.0" standalone="no"?>
<!DOCTYPE svg PUBLIC "-//W3C//DTD SVG 20010904//EN"
 "http://www.w3.org/TR/2001/REC-SVG-20010904/DTD/svg10.dtd">
<svg version="1.0" xmlns="http://www.w3.org/2000/svg"
 width="256.000000pt" height="256.000000pt" viewBox="0 0 256.000000 256.000000"
 preserveAspectRatio="xMidYMid meet">
<metadata>
Created by potrace 1.16, written by Peter Selinger 2001-2019
</metadata>
<g transform="translate(0.000000,256.000000) scale(0.100000,-0.100000)"
fill="#000000" stroke="none">
<path d="M0 1280 l0 -1000 1280 0 1280 0 0 1000 0 1000 -1280 0 -1280 0 0
-1000z m1333 469 c-25 -57 -28 -75 -28 -174 0 -130 12 -159 120 -301 88 -115
104 -150 117 -249 6 -47 14 -85 19 -85 5 0 15 13 24 30 11 22 15 62 15 160 0
79 5 140 11 153 17 33 69 97 79 97 4 0 2 -17 -6 -37 -7 -21 -13 -65 -14 -99 0
-54 6 -74 54 -172 30 -61 64 -141 75 -177 22 -70 26 -169 10 -215 -7 -21 -8
-19 -5 12 3 20 2 47 -2 60 l-6 23 -7 -25 c-6 -22 -7 -21 -8 10 -2 61 -29 146
-75 237 -52 101 -56 97 -20 -17 14 -45 24 -92 22 -106 -3 -23 -6 -20 -40 30
-21 31 -38 61 -38 68 0 6 -10 -4 -22 -22 -44 -64 -98 -55 -98 16 0 29 -5 36
-37 53 -21 10 -49 31 -62 45 -36 38 -40 32 -20 -26 19 -55 22 -105 10 -148 -7
-22 -9 -17 -20 31 -14 68 -68 182 -108 228 l-29 34 -1 -86 c-1 -113 -28 -174
-122 -270 -38 -40 -81 -90 -95 -111 -14 -21 -26 -36 -26 -32 0 19 39 78 91
137 33 37 59 71 59 77 0 5 9 30 21 56 26 59 23 131 -5 131 -13 0 -22 -12 -31
-40 -16 -55 -42 -93 -76 -111 -37 -19 -67 -18 -109 4 -19 11 -41 17 -48 14 -9
-2 -13 3 -12 14 7 59 -6 47 -55 -56 -35 -73 -55 -106 -55 -90 -1 24 -1 24 -13
5 -6 -11 -14 -42 -18 -70 l-6 -50 -2 54 c-2 74 22 160 75 266 35 73 44 101 44
144 0 29 -5 61 -10 72 -13 23 -2 24 28 3 36 -25 54 -72 60 -156 8 -122 51
-160 112 -100 49 49 56 100 30 223 -41 197 -17 316 92 443 41 48 179 168 186
161 2 -1 -9 -31 -25 -66z m149 -110 c-3 -20 6 -53 27 -99 30 -65 31 -70 17
-103 -21 -52 -33 -53 -58 -5 -27 52 -30 145 -5 201 19 45 25 47 19 6z m-544
-80 c-10 -30 -7 -126 6 -164 5 -15 4 -14 -5 3 -7 12 -16 22 -21 22 -5 0 -7
-10 -3 -22 6 -22 6 -22 -9 -4 -23 28 -19 83 9 144 26 57 40 70 23 21z m1157
-296 c-76 -116 -96 -164 -106 -248 l-7 -70 2 91 c2 79 6 97 31 142 31 54 127
181 134 176 1 -1 -23 -42 -54 -91z m-22 -98 c-9 -19 -18 -33 -21 -31 -4 5 26
66 33 66 3 0 -3 -16 -12 -35z m-26 -67 c-3 -8 -6 -5 -6 6 -1 11 2 17 5 13 3
-3 4 -12 1 -19z m-10 -85 c-2 -16 -4 -5 -4 22 0 28 2 40 4 28 2 -13 2 -35 0
-50z m-757 -226 c-11 -95 -11 -107 5 -141 22 -45 67 -76 112 -76 24 0 39 8 62
37 17 21 31 33 31 26 0 -14 -76 -83 -93 -83 -39 0 -95 26 -124 58 -26 29 -33
44 -33 78 0 24 -4 45 -9 48 -13 8 -100 -80 -107 -109 -3 -14 -10 -25 -14 -25
-5 0 -11 -8 -13 -17 -3 -11 -5 -7 -6 10 -2 45 24 92 88 160 33 36 69 84 81
107 12 23 24 39 27 36 3 -3 0 -52 -7 -109z m-870 27 c43 -61 30 -56 -15 7 -20
28 -32 48 -26 45 6 -4 25 -27 41 -52z m1219 12 c5 -6 7 -16 3 -22 -4 -7 -16 0
-29 17 -22 25 -22 27 -3 22 11 -3 24 -10 29 -17z m-58 -62 c16 -23 34 -55 39
-70 11 -28 11 -28 -10 -9 -21 19 -21 19 -11 -9 18 -47 12 -53 -9 -9 -10 24
-33 63 -49 87 -18 26 -28 51 -25 61 8 20 25 7 65 -51z m-794 -71 c-2 -16 -4
-3 -4 27 0 30 2 43 4 28 2 -16 2 -40 0 -55z m431 -48 c-16 -47 -45 -63 -34
-19 9 36 38 82 43 68 2 -6 -2 -28 -9 -49z"/>
</g>
</svg>
