<?xml version="1.0" standalone="no"?>
<!DOCTYPE svg PUBLIC "-//W3C//DTD SVG 20010904//EN"
 "http://www.w3.org/TR/2001/REC-SVG-20010904/DTD/svg10.dtd">
<svg version="1.0" xmlns="http://www.w3.org/2000/svg"
 width="256.000000pt" height="256.000000pt" viewBox="0 0 256.000000 256.000000"
 preserveAspectRatio="xMidYMid meet">
<metadata>
Created by potrace 1.16, written by Peter Selinger 2001-2019
</metadata>
<g transform="translate(0.000000,256.000000) scale(0.100000,-0.100000)"
fill="#000000" stroke="none">
<path d="M0 1280 l0 -1000 1280 0 1280 0 0 1000 0 1000 -1280 0 -1280 0 0
-1000z m592 528 c-20 -20 -14 -66 11 -83 29 -19 59 -20 117 -5 41 11 69 10
185 -5 56 -8 90 12 89 50 0 17 -4 38 -9 49 -16 37 31 -1 50 -40 21 -45 10 -76
-35 -102 -37 -21 -37 -26 -4 -40 33 -16 23 -30 -27 -38 -45 -8 -47 -10 -84
-119 -33 -98 -47 -115 -94 -115 -45 0 -81 24 -81 54 0 12 -11 54 -24 91 -24
70 -32 77 -88 89 -35 8 -36 21 -2 39 l26 14 -33 23 c-44 31 -49 39 -49 76 0
31 44 93 57 80 4 -4 1 -12 -5 -18z m1418 -2 c0 -8 -9 -67 -20 -133 -23 -132
-48 -219 -60 -206 -5 4 2 40 15 78 25 73 53 240 43 250 -7 7 -211 -141 -217
-156 -1 -6 5 -20 15 -32 10 -12 -12 7 -49 43 -37 35 -67 67 -67 71 0 9 129 57
215 79 86 23 125 25 125 6z m-357 -144 c33 -50 167 -184 222 -222 l44 -30 -14
-34 c-63 -149 -262 -383 -437 -512 -81 -59 -197 -128 -204 -121 -3 3 7 13 23
23 91 58 311 246 401 343 40 42 108 138 118 166 4 9 -5 10 -39 1 -30 -8 -54
-23 -73 -45 -28 -33 -93 -70 -125 -71 -9 0 -34 -16 -55 -36 -22 -20 -68 -56
-104 -81 -36 -25 -87 -69 -114 -97 -41 -44 -44 -45 -18 -11 45 61 63 103 60
138 -7 72 -88 36 -227 -98 l-96 -93 -28 23 c-15 13 -27 32 -27 41 0 26 103
215 173 318 68 100 211 255 298 322 65 49 169 114 185 114 6 0 23 -17 37 -38z
m-589 -414 c-39 -63 -105 -159 -100 -145 6 18 3 19 -97 19 -58 0 -104 -29
-168 -104 -37 -44 -39 -49 -18 -43 33 10 23 2 -30 -25 -49 -25 -48 -22 27 75
112 144 168 190 267 221 55 17 129 18 119 2z m226 -201 c0 -20 -42 -72 -129
-161 -100 -102 -237 -233 -193 -186 41 45 43 70 5 45 l-27 -18 31 39 c17 21
86 96 154 167 113 116 159 149 159 114z m771 -109 c-4 -13 -14 -54 -21 -93 -9
-47 -15 -63 -19 -48 -6 21 -8 20 -115 -23 -59 -24 -113 -44 -119 -44 -6 0 -41
-28 -76 -62 -63 -61 -63 -62 -24 -13 23 28 71 79 107 114 l65 65 -40 34 c-22
19 -37 37 -34 41 6 6 228 47 267 50 14 1 16 -3 9 -21z m-1098 -80 c8 -12 7
-21 -3 -33 -14 -16 -15 -16 -21 6 l-6 24 -13 -28 c-12 -24 -12 -30 1 -38 8 -5
9 -9 3 -9 -6 0 -17 7 -25 16 -11 13 -10 21 6 50 19 36 40 41 58 12z m534 -109
c-10 -114 -49 -184 -168 -302 -55 -55 -102 -98 -104 -96 -2 3 5 29 15 59 26
75 24 142 -6 243 -3 9 -1 17 4 17 5 0 9 -6 10 -12 0 -7 6 -46 13 -85 10 -57
10 -84 1 -124 -7 -29 -11 -53 -10 -54 2 -2 34 31 71 74 83 93 129 182 133 255
2 52 20 96 38 96 5 0 6 -31 3 -71z m-737 1 c-11 -20 -50 -47 -50 -34 0 4 -10
-8 -22 -26 -13 -18 -38 -45 -57 -59 l-34 -26 13 24 c20 39 124 141 143 141 15
0 16 -4 7 -20z m630 -15 c0 -2 -10 -9 -22 -15 -22 -11 -22 -10 -4 4 21 17 26
19 26 11z m-500 -33 c0 -38 20 -63 61 -76 18 -6 35 -18 37 -27 4 -21 -89 -122
-154 -169 -27 -19 -43 -27 -36 -18 12 15 9 19 -17 32 -16 9 -35 16 -41 16 -6
0 -23 14 -37 30 -13 17 -29 27 -35 24 -40 -25 96 151 143 186 54 39 79 39 79
2z m230 -37 c-25 -27 -45 -32 -56 -13 -4 7 -3 8 4 4 6 -4 21 -2 33 4 15 9 20
18 16 37 -4 23 -3 23 11 9 14 -14 14 -18 -8 -41z m210 35 c-8 -5 -19 -10 -25
-10 -5 0 -3 5 5 10 8 5 20 10 25 10 6 0 3 -5 -5 -10z m-270 -189 c0 -24 -132
-160 -138 -142 -2 7 20 37 49 67 29 30 49 54 45 54 -5 0 -1 9 9 20 23 25 35
25 35 1z"/>
<path d="M720 1458 c1 -43 13 -59 44 -56 40 4 45 39 6 45 -14 2 -26 8 -28 13
-5 14 -22 12 -22 -2z"/>
<path d="M810 1415 c0 -9 5 -15 11 -13 6 2 11 8 11 13 0 5 -5 11 -11 13 -6 2
-11 -4 -11 -13z"/>
<path d="M745 1380 c3 -5 8 -10 11 -10 2 0 4 5 4 10 0 6 -5 10 -11 10 -5 0 -7
-4 -4 -10z"/>
<path d="M1494 1481 c-32 -14 -84 -79 -86 -109 -4 -78 13 -126 58 -161 89 -70
232 -12 249 101 9 58 -6 106 -45 143 -26 25 -40 30 -93 32 -34 2 -71 -1 -83
-6z m116 -56 c57 -29 68 -102 24 -154 -21 -25 -33 -31 -66 -31 -50 0 -74 13
-94 52 -22 42 -11 90 27 122 35 30 67 33 109 11z"/>
<path d="M1587 1366 c-15 -14 -45 -31 -67 -39 -37 -12 -38 -14 -27 -37 16 -32
67 -47 106 -30 37 15 56 59 44 96 -12 37 -24 39 -56 10z"/>
</g>
</svg>
