<?xml version="1.0" standalone="no"?>
<!DOCTYPE svg PUBLIC "-//W3C//DTD SVG 20010904//EN"
 "http://www.w3.org/TR/2001/REC-SVG-20010904/DTD/svg10.dtd">
<svg version="1.0" xmlns="http://www.w3.org/2000/svg"
 width="256.000000pt" height="256.000000pt" viewBox="0 0 256.000000 256.000000"
 preserveAspectRatio="xMidYMid meet">
<metadata>
Created by potrace 1.16, written by Peter Selinger 2001-2019
</metadata>
<g transform="translate(0.000000,256.000000) scale(0.100000,-0.100000)"
fill="#000000" stroke="none">
<path d="M0 1280 l0 -1000 635 0 c567 0 635 2 635 16 0 8 -11 79 -25 157 -37
215 -152 905 -160 960 l-6 49 -62 -7 c-123 -13 -165 -25 -191 -55 -13 -16 -26
-35 -28 -41 -3 -9 -10 -9 -28 1 -44 23 -150 114 -143 121 5 4 49 24 99 43 91
35 237 69 351 81 l63 6 66 -91 c37 -49 71 -90 75 -90 5 0 39 41 76 91 l68 90
60 -6 c150 -17 339 -66 430 -113 l30 -15 -48 -42 c-26 -23 -65 -52 -86 -64
l-39 -21 -21 33 c-15 24 -33 37 -63 47 -61 18 -199 29 -204 15 -2 -5 -24 -129
-48 -275 -25 -146 -68 -396 -96 -556 -27 -161 -50 -301 -50 -313 l0 -21 635 0
635 0 0 1000 0 1000 -1280 0 -1280 0 0 -1000z m1555 474 c189 -27 476 -110
475 -137 -1 -7 -14 -27 -30 -46 l-29 -34 -68 31 c-288 132 -791 149 -1143 37
-47 -15 -103 -36 -125 -47 l-39 -21 -33 38 c-18 21 -30 41 -28 45 9 14 177 71
295 100 63 15 162 33 220 39 58 6 121 13 140 15 59 6 259 -5 365 -20z m196
-644 c-15 -58 -31 -117 -35 -132 l-6 -28 94 0 95 0 -86 -120 c-47 -66 -87
-120 -90 -120 -2 0 16 38 41 83 37 68 42 84 28 84 -42 1 -85 -66 -142 -222
-32 -91 -62 -157 -67 -151 -1 1 20 69 47 151 27 81 47 152 43 158 -3 6 -41 8
-94 5 l-88 -5 41 61 c67 99 242 346 244 343 1 -1 -10 -49 -25 -107z"/>
<path d="M1349 886 c-5 -5 -50 -16 -84 -20 -11 -2 -30 1 -42 5 -29 11 -29 17
2 -196 41 -281 47 -317 55 -308 7 8 49 260 71 426 10 81 10 104 -2 93z"/>
</g>
</svg>
