<?xml version="1.0" standalone="no"?>
<!DOCTYPE svg PUBLIC "-//W3C//DTD SVG 20010904//EN"
 "http://www.w3.org/TR/2001/REC-SVG-20010904/DTD/svg10.dtd">
<svg version="1.0" xmlns="http://www.w3.org/2000/svg"
 width="256.000000pt" height="256.000000pt" viewBox="0 0 256.000000 256.000000"
 preserveAspectRatio="xMidYMid meet">
<metadata>
Created by potrace 1.16, written by Peter Selinger 2001-2019
</metadata>
<g transform="translate(0.000000,256.000000) scale(0.100000,-0.100000)"
fill="#000000" stroke="none">
<path d="M0 1280 l0 -1000 1280 0 1280 0 0 1000 0 1000 -1280 0 -1280 0 0
-1000z m1830 -32 l0 -431 -137 6 c-75 4 -255 7 -400 7 l-263 0 1 23 c1 14 3
16 6 6 3 -14 35 -16 286 -14 155 1 326 2 380 3 l98 2 -3 73 c-3 65 -5 72 -23
69 -11 -1 -33 -4 -50 -6 -16 -2 -57 -10 -90 -19 -33 -9 -109 -18 -170 -21 -65
-4 -134 -14 -170 -25 -39 -12 -94 -19 -155 -20 -61 -1 -97 -6 -102 -14 -5 -8
-8 -7 -8 5 0 13 15 18 78 23 106 10 192 28 319 70 123 39 295 131 291 155 -4
20 -94 80 -120 80 -11 0 -45 -22 -76 -50 -63 -56 -175 -118 -272 -149 -69 -23
-220 -40 -220 -25 0 5 -3 18 -6 30 -5 20 -1 21 68 27 83 6 139 25 218 75 67
42 173 134 202 175 l22 31 -67 62 c-109 101 -272 174 -389 174 -26 0 -49 4
-52 9 -3 5 -3 30 0 55 l7 46 398 0 399 0 0 -432z m-810 289 l0 -33 80 -12
c103 -15 196 -59 264 -124 l51 -50 -69 -65 c-81 -77 -165 -120 -254 -129 l-62
-7 0 118 0 118 32 -7 c40 -8 74 -39 90 -83 7 -18 16 -33 21 -33 5 0 32 23 60
50 l52 51 -38 34 c-47 41 -113 65 -179 65 l-48 0 0 36 0 37 -47 -7 c-71 -9
-166 -60 -239 -128 -35 -33 -64 -64 -64 -68 0 -5 19 -41 42 -82 54 -94 120
-158 209 -202 40 -20 66 -36 60 -36 -26 0 -126 54 -176 96 -30 23 -62 42 -74
41 -16 -1 -18 -4 -8 -17 44 -57 125 -113 212 -147 41 -16 49 -21 25 -17 -74
14 -190 85 -270 166 -60 61 -144 192 -137 212 8 20 124 114 191 155 52 31 234
101 264 101 7 0 12 -13 12 -33z m0 -146 c0 -25 -4 -29 -39 -35 -42 -6 -101
-53 -101 -81 0 -24 55 -100 95 -131 23 -17 35 -35 35 -50 0 -32 -16 -30 -80 9
-53 32 -150 143 -150 172 0 45 147 145 212 145 24 0 28 -4 28 -29z m-315 -735
c53 -22 65 -58 63 -183 -1 -73 -3 -93 -7 -63 -5 36 -10 46 -28 48 -19 3 -22
-2 -26 -40 -2 -24 -4 -4 -5 43 -3 112 -20 139 -91 139 -48 0 -48 0 -55 -37 -3
-21 -6 -72 -7 -113 -1 -53 -4 -65 -8 -40 -4 26 -12 36 -28 38 -19 3 -22 -2
-26 -40 -2 -24 -4 26 -5 110 l-2 152 95 0 c60 0 108 -5 130 -14z m186 -16 c4
-14 20 -65 35 -113 15 -49 30 -85 34 -80 4 4 20 56 35 116 l28 107 44 0 c23 0
43 -3 43 -7 0 -5 -24 -70 -53 -147 l-54 -138 -51 -2 -52 -1 -16 49 c-9 27 -34
92 -55 144 -22 53 -39 97 -39 99 0 2 21 3 47 1 40 -3 48 -7 54 -28z m338 -117
c-1 -110 -3 -140 -10 -115 -7 22 -16 32 -29 32 -16 0 -20 -7 -21 -37 -3 -70
-17 64 -18 170 l-1 97 40 0 40 0 -1 -147z m278 130 c40 -19 72 -77 73 -131 0
-72 -55 -143 -109 -141 -26 1 -25 1 3 8 16 3 31 11 33 17 3 8 -27 11 -97 10
-73 -1 -100 -4 -100 -13 0 -7 11 -13 24 -13 42 0 37 -16 -5 -18 l-39 -3 0 151
0 150 91 0 c64 0 101 -5 126 -17z m193 -133 l0 -150 -34 0 c-31 0 -34 3 -40
38 -3 20 -6 88 -6 150 l0 112 40 0 40 0 0 -150z m320 19 c68 -180 66 -164 24
-163 -27 1 -39 7 -48 25 -10 22 -19 24 -84 27 l-73 3 -10 -31 c-9 -25 -16 -30
-45 -30 -19 0 -34 2 -34 4 0 5 86 240 100 274 9 21 16 23 66 20 l56 -3 48
-126z"/>
<path d="M904 415 c3 -9 6 -19 6 -21 0 -2 20 -4 45 -4 33 0 45 4 45 15 0 8 -3
15 -7 16 -5 0 -28 3 -52 5 -37 5 -43 3 -37 -11z"/>
<path d="M1370 520 l0 -90 40 0 c73 0 110 64 78 134 -12 27 -18 30 -80 41
l-38 6 0 -91z"/>
<path d="M1899 583 c-17 -43 -39 -105 -39 -109 0 -2 25 -4 56 -4 49 0 55 2 49
18 -4 9 -16 41 -27 70 -11 28 -21 52 -24 52 -2 0 -9 -12 -15 -27z"/>
<path d="M2010 410 c0 -15 7 -20 26 -20 20 0 25 4 20 16 -3 9 -6 18 -6 20 0 2
-9 4 -20 4 -13 0 -20 -7 -20 -20z"/>
</g>
</svg>
