<?xml version="1.0" standalone="no"?>
<!DOCTYPE svg PUBLIC "-//W3C//DTD SVG 20010904//EN"
 "http://www.w3.org/TR/2001/REC-SVG-20010904/DTD/svg10.dtd">
<svg version="1.0" xmlns="http://www.w3.org/2000/svg"
 width="256.000000pt" height="256.000000pt" viewBox="0 0 256.000000 256.000000"
 preserveAspectRatio="xMidYMid meet">
<metadata>
Created by potrace 1.16, written by Peter Selinger 2001-2019
</metadata>
<g transform="translate(0.000000,256.000000) scale(0.100000,-0.100000)"
fill="#000000" stroke="none">
<path d="M0 1280 l0 -1000 1280 0 1280 0 0 1000 0 1000 -1280 0 -1280 0 0
-1000z m1219 776 c-52 -30 -108 -58 -124 -62 -17 -4 22 20 85 54 143 76 167
80 39 8z m175 -185 c3 -5 -1 -11 -9 -15 -15 -6 -29 7 -18 18 9 9 21 8 27 -3z
m-741 -8 c-13 -2 -35 -2 -50 0 -16 2 -5 4 22 4 28 0 40 -2 28 -4z m77 -13 c8
-5 11 -10 5 -10 -5 0 -17 5 -25 10 -8 5 -10 10 -5 10 6 0 17 -5 25 -10z m595
0 c-3 -5 -13 -10 -21 -10 -8 0 -12 5 -9 10 3 6 13 10 21 10 8 0 12 -4 9 -10z
m165 0 c8 -5 12 -11 9 -14 -3 -3 -14 1 -25 9 -21 16 -8 20 16 5z m-245 -30
c-3 -5 -10 -10 -16 -10 -5 0 -9 5 -9 10 0 6 7 10 16 10 8 0 12 -4 9 -10z m392
-47 c-9 -8 -48 8 -42 18 4 5 14 5 26 -2 12 -6 18 -13 16 -16z m-467 7 c0 -5
-7 -10 -16 -10 -8 0 -12 5 -9 10 3 6 10 10 16 10 5 0 9 -4 9 -10z m-300 -14
c0 -3 -4 -8 -10 -11 -5 -3 -10 -1 -10 4 0 6 5 11 10 11 6 0 10 -2 10 -4z m65
-5 c10 -18 -17 -23 -33 -7 -15 15 -15 16 5 16 12 0 24 -4 28 -9z m165 0 c0
-11 -31 -24 -39 -16 -3 3 1 10 9 15 19 12 30 12 30 1z m443 -44 c125 -61 170
-72 244 -59 70 12 81 8 22 -8 -73 -20 -137 -7 -256 52 -144 71 -184 72 -331 4
-56 -25 -117 -49 -135 -52 -28 -4 -27 -3 8 9 22 8 69 29 105 47 151 76 200 77
343 7z m192 43 c3 -5 -3 -10 -14 -10 -12 0 -21 5 -21 10 0 6 6 10 14 10 8 0
18 -4 21 -10z m-728 -26 c-9 -9 -28 6 -21 18 4 6 10 6 17 -1 6 -6 8 -13 4 -17z
m516 -103 c37 -19 66 -36 63 -38 -2 -2 -28 8 -58 23 -74 38 -171 44 -253 16
-33 -11 -69 -24 -80 -27 l-20 -7 20 13 c107 69 216 75 328 20z m-833 -46 c18
-21 5 -47 -22 -43 -17 2 -22 9 -20 27 2 19 -1 22 -15 16 -10 -4 -36 -11 -59
-16 -35 -7 -85 -24 -158 -54 -31 -13 -9 13 27 32 86 45 224 66 247 38z m467
-138 c77 -34 137 -70 197 -117 112 -89 166 -108 213 -75 11 8 24 30 27 50 9
44 56 99 110 128 112 58 270 -1 304 -115 17 -56 22 -98 12 -98 -6 0 -10 11
-10 25 0 57 -74 152 -137 176 -88 33 -225 -20 -260 -102 -6 -15 -9 -30 -6 -33
12 -12 -28 -55 -58 -61 -52 -12 -118 14 -204 80 -67 51 -231 148 -325 193
l-25 12 25 -6 c14 -4 75 -29 137 -57z m947 42 c17 -24 12 -45 -14 -59 -25 -14
-49 -2 -56 26 -12 48 41 73 70 33z m91 -20 c0 -7 -8 -15 -17 -17 -18 -3 -25
18 -11 32 10 10 28 1 28 -15z m255 10 c-96 -10 -171 -31 -212 -61 -16 -10 -28
-15 -28 -9 0 16 62 49 121 65 30 8 88 14 129 14 l75 -1 -85 -8z m-1490 -35
c54 -18 120 -55 234 -131 223 -148 329 -192 468 -195 43 0 56 -3 43 -9 -34
-13 -97 -10 -183 11 -105 25 -156 51 -322 165 -74 51 -153 101 -176 113 -110
56 -273 70 -399 33 -76 -21 -99 -20 -44 3 119 50 250 53 379 10z m-590 -42 c0
-21 -4 -31 -11 -27 -6 4 -9 1 -7 -7 2 -8 -12 -27 -29 -42 l-33 -27 35 51 c39
58 39 58 25 97 -9 26 -9 27 5 9 8 -11 15 -35 15 -54z m1166 3 c20 -30 11 -62
-21 -77 -52 -23 -99 46 -59 86 23 24 61 20 80 -9z m992 -34 c8 -5 -15 -10 -60
-14 -40 -3 -91 -13 -113 -22 -53 -23 -190 -112 -294 -192 -45 -35 -76 -55 -68
-43 23 33 246 198 312 231 83 40 192 60 223 40z m-2318 -16 c19 -7 28 -13 20
-13 -8 0 -31 6 -50 13 -19 7 -28 13 -20 13 8 0 31 -6 50 -13z m724 -14 c82
-29 180 -93 334 -220 147 -120 218 -163 313 -187 114 -29 215 -6 329 77 l55
40 -40 -36 c-126 -116 -306 -136 -470 -53 -32 17 -127 85 -223 161 -9 7 -11 6
-6 -7 4 -11 1 -16 -10 -16 -9 0 -16 8 -16 18 0 29 -120 135 -136 119 -2 -2 14
-24 36 -49 58 -67 49 -70 -17 -7 -125 119 -180 133 -67 18 38 -39 60 -67 49
-61 -11 6 -31 22 -45 37 -35 38 -96 78 -156 102 -52 21 -141 25 -193 9 -17 -6
-22 -5 -16 4 8 13 -10 9 -70 -14 -16 -7 -43 -11 -60 -11 -19 1 -58 -14 -105
-41 -77 -44 -210 -90 -232 -81 -8 3 -6 6 5 6 40 2 147 46 222 91 120 72 182
100 249 116 79 18 195 12 270 -15z m1214 5 c2 -10 0 -22 -6 -28 -6 -6 -8 0 -4
17 4 24 2 26 -19 23 -30 -4 -39 -44 -12 -51 15 -4 15 -5 2 -6 -27 -2 -42 24
-29 49 14 27 63 24 68 -4z m-294 0 c61 -26 97 -107 75 -174 -16 -50 -31 -65
-18 -18 13 46 5 59 -9 17 -16 -47 -72 -111 -117 -134 -61 -31 -183 -35 -259
-8 -33 11 -64 25 -70 31 -5 5 13 1 40 -9 147 -56 310 -19 374 83 52 85 -12
215 -94 190 -62 -19 -89 -97 -44 -128 28 -20 16 -33 -19 -20 -63 22 -46 130
27 166 42 22 70 22 114 4z m-999 -78 c41 -19 29 -27 -31 -21 -46 5 -58 3 -66
-10 -11 -21 -32 -22 -24 -2 10 26 -77 5 -166 -40 -16 -8 -28 -10 -28 -4 0 5
37 28 82 49 69 34 92 40 145 40 34 0 74 -5 88 -12z m951 -20 c19 -23 19 -23
-1 -7 -11 9 -27 19 -35 22 -13 5 -13 6 1 6 9 1 24 -9 35 -21z m-948 -63 c34
-8 94 -31 132 -50 74 -37 95 -56 33 -29 -143 61 -168 68 -258 68 -113 1 -150
-16 -264 -119 -85 -77 -150 -116 -192 -114 -21 1 -21 2 6 8 52 13 92 39 172
112 145 131 225 158 371 124z m1597 -15 c-104 -9 -151 -24 -232 -76 -81 -51
-183 -152 -176 -172 4 -13 2 -14 -4 -4 -8 10 -20 5 -53 -23 -102 -85 -231
-129 -360 -123 -79 4 -96 8 -188 53 -56 27 -102 52 -102 57 0 5 12 2 28 -5
149 -76 185 -89 261 -94 154 -11 280 48 447 208 94 90 194 159 262 179 15 5
68 8 117 8 l90 -1 -90 -7z m-2010 -30 c-3 -5 -16 -15 -28 -21 -21 -10 -21 -9
2 10 25 23 36 27 26 11z m1305 -10 c0 -5 -5 -10 -11 -10 -5 0 -7 5 -4 10 3 6
8 10 11 10 2 0 4 -4 4 -10z m-570 -20 c8 -5 11 -10 5 -10 -5 0 -17 5 -25 10
-8 5 -10 10 -5 10 6 0 17 -5 25 -10z m118 -70 c31 -16 64 -34 72 -40 33 -23
-26 -4 -75 24 -66 39 -102 37 -211 -7 -51 -20 -104 -37 -118 -37 -14 0 -26 -4
-26 -10 0 -5 6 -10 14 -10 26 0 112 -52 223 -136 129 -96 205 -139 295 -165
35 -9 56 -18 47 -18 -31 -2 -125 31 -184 64 -33 18 -107 68 -165 110 -217 158
-355 198 -515 151 -11 -4 -4 1 15 11 28 14 64 17 185 18 l150 0 85 37 c47 20
100 37 118 37 18 1 58 -12 90 -29z m-28 -30 c0 -5 -2 -10 -4 -10 -3 0 -8 5
-11 10 -3 6 -1 10 4 10 6 0 11 -4 11 -10z m-42 -12 c8 -10 -1 -13 -39 -13 -47
0 -63 8 -36 18 24 10 65 7 75 -5z m139 -58 c31 -22 52 -40 47 -40 -11 0 -114
68 -114 75 0 11 14 3 67 -35z m1038 0 c-107 -9 -171 -32 -275 -101 -41 -27
-61 -38 -45 -24 50 43 164 108 214 121 25 7 80 12 121 12 l75 -1 -90 -7z m122
-6 c-3 -3 -12 -4 -19 -1 -8 3 -5 6 6 6 11 1 17 -2 13 -5z m-1307 -19 c-8 -9
-28 -15 -54 -14 l-41 2 42 6 c24 4 46 10 49 14 14 13 16 7 4 -8z m70 5 c0 -5
-5 -10 -11 -10 -5 0 -7 5 -4 10 3 6 8 10 11 10 2 0 4 -4 4 -10z m-490 -80 c11
-7 5 -8 -20 -4 -43 8 -51 14 -19 14 13 0 31 -5 39 -10z m1584 -10 c-61 -9
-115 -26 -166 -52 -21 -10 -38 -16 -38 -13 0 9 99 55 137 64 21 5 56 9 78 9
37 0 37 -1 -11 -8z m-1466 -85 c17 -26 32 -55 32 -64 0 -9 -9 2 -19 24 -10 23
-40 61 -67 85 -42 37 -44 41 -14 23 19 -12 50 -42 68 -68z m159 29 c37 -26 84
-59 104 -75 19 -15 66 -46 105 -68 38 -22 65 -41 61 -41 -19 0 -110 54 -214
127 -61 43 -120 83 -130 90 -10 6 -13 12 -6 12 6 1 42 -20 80 -45z m-298 -19
c30 -15 81 -70 81 -87 0 -5 -12 5 -26 22 -44 51 -97 73 -170 68 -35 -2 -58 0
-51 4 21 13 136 9 166 -7z m178 -132 c-3 -10 -5 -4 -5 12 0 17 2 24 5 18 2 -7
2 -21 0 -30z m631 10 c-10 -2 -26 -2 -35 0 -10 3 -2 5 17 5 19 0 27 -2 18 -5z
m145 0 c-7 -2 -19 -2 -25 0 -7 3 -2 5 12 5 14 0 19 -2 13 -5z"/>
<path d="M665 1580 c-4 -6 -3 -16 3 -22 6 -6 12 -6 17 2 4 6 3 16 -3 22 -6 6
-12 6 -17 -2z"/>
<path d="M2047 1494 c-12 -12 -8 -41 8 -54 20 -17 47 5 43 34 -3 21 -37 34
-51 20z"/>
<path d="M1472 1408 c-25 -25 -6 -68 30 -68 9 0 22 9 28 20 8 15 6 24 -10 40
-23 23 -31 25 -48 8z"/>
</g>
</svg>
