<?xml version="1.0" standalone="no"?>
<!DOCTYPE svg PUBLIC "-//W3C//DTD SVG 20010904//EN"
 "http://www.w3.org/TR/2001/REC-SVG-20010904/DTD/svg10.dtd">
<svg version="1.0" xmlns="http://www.w3.org/2000/svg"
 width="256.000000pt" height="256.000000pt" viewBox="0 0 256.000000 256.000000"
 preserveAspectRatio="xMidYMid meet">
<metadata>
Created by potrace 1.16, written by Peter Selinger 2001-2019
</metadata>
<g transform="translate(0.000000,256.000000) scale(0.100000,-0.100000)"
fill="#000000" stroke="none">
<path d="M0 1280 l0 -1000 573 1 572 0 -75 22 c-115 35 -212 91 -302 176 -180
169 -255 350 -246 596 8 206 74 353 227 506 92 92 179 144 316 190 62 21 88
24 220 24 138 0 156 -3 230 -28 263 -92 454 -308 509 -579 25 -119 18 -278
-14 -364 l-9 -24 -51 32 c-37 23 -49 36 -44 47 3 9 9 62 11 117 15 300 -153
550 -439 652 -97 34 -257 42 -344 17 -222 -63 -383 -210 -462 -423 -33 -90
-42 -257 -18 -352 53 -210 220 -390 428 -461 75 -26 219 -36 298 -21 36 7 56
7 59 1 1 -6 18 -30 37 -55 23 -30 30 -46 22 -49 -7 -2 -29 -8 -48 -14 -27 -7
-8 -9 90 -10 l125 -1 -50 29 c-53 30 -92 78 -121 146 -25 60 -16 178 18 236
56 94 140 143 248 143 83 0 144 -28 203 -94 122 -136 87 -352 -72 -435 l-46
-24 358 -1 357 0 0 1000 0 1000 -1280 0 -1280 0 0 -1000z m1395 315 c28 -7 44
-13 37 -14 -7 0 -11 -5 -7 -10 3 -5 1 -12 -5 -16 -5 -3 -10 2 -10 12 0 10 -3
14 -8 8 -16 -24 -69 -54 -78 -45 -6 6 -21 11 -35 12 -17 1 -26 8 -25 18 1 8
-5 14 -11 13 -7 -2 -12 3 -10 10 1 6 -4 11 -11 9 -8 -1 -11 2 -7 8 8 14 109
11 170 -5z m117 -34 c24 -10 52 -27 63 -36 11 -9 14 -14 8 -10 -16 8 -17 -7
-1 -23 9 -9 4 -12 -24 -12 -20 0 -40 -5 -43 -10 -5 -8 -11 -7 -20 0 -8 7 -18
9 -23 6 -6 -3 -17 5 -26 19 -16 24 -15 25 4 25 11 0 20 5 20 11 0 7 -10 9 -27
4 -23 -5 -25 -4 -14 9 7 8 19 12 27 9 8 -3 14 -1 14 5 0 6 -6 13 -12 15 -9 4
-9 6 -1 6 6 1 31 -8 55 -18z m98 -231 l0 -80 -120 0 -120 0 0 -60 0 -59 33 -5
c202 -29 292 -54 312 -86 26 -42 -138 -102 -305 -112 l-45 -3 -5 -115 c-4 -97
-7 -110 -17 -89 -8 20 -19 26 -45 27 -19 1 -47 6 -61 11 -24 9 -27 8 -28 -12
0 -21 -1 -21 -9 -2 -5 11 -9 57 -9 103 l-1 82 -44 0 c-60 0 -207 27 -256 46
-54 22 -69 49 -42 76 23 24 130 55 215 63 34 3 77 8 95 11 l33 5 -3 57 -3 57
-117 -3 -118 -4 0 86 0 86 330 0 330 0 0 -80z"/>
<path d="M1046 1094 c-43 -8 -100 -24 -125 -35 l-46 -20 23 -19 c37 -31 227
-60 392 -60 165 0 357 35 368 68 5 18 -73 50 -164 67 -122 24 -122 24 -126
-37 l-3 -53 -45 -3 c-25 -2 -64 -1 -87 3 l-43 6 0 50 c0 49 0 49 -32 48 -18 0
-68 -7 -112 -15z"/>
<path d="M588 788 c4 -16 6 -17 16 -3 9 13 11 11 12 -10 1 -14 -2 -23 -6 -20
-15 9 13 -63 35 -91 19 -24 22 -25 24 -8 6 57 -3 115 -17 113 -20 -3 -30 3
-28 18 0 11 -7 18 -20 19 -16 1 -20 -3 -16 -18z"/>
<path d="M1730 718 c0 -16 -11 -28 -33 -38 -78 -37 -74 -108 8 -147 73 -35 78
-38 83 -51 6 -20 -28 -26 -80 -12 -27 6 -51 11 -53 9 -2 -2 -6 -16 -10 -30 -6
-24 -2 -28 34 -43 23 -9 41 -18 41 -21 0 -5 -41 9 -71 25 -10 6 -19 19 -19 29
0 14 -11 20 -42 26 -24 4 -49 9 -55 11 -24 5 -13 -44 20 -87 44 -59 123 -99
192 -99 122 0 255 101 255 194 0 23 -3 24 -55 23 -46 -2 -55 -5 -55 -20 0 -32
-29 -75 -59 -88 -17 -8 -32 -20 -35 -29 -3 -11 -4 -11 -5 3 0 10 9 21 22 26
37 15 61 49 60 87 -1 47 -25 70 -90 91 -39 12 -53 22 -53 35 0 27 24 32 73 15
41 -14 44 -13 55 4 18 29 15 35 -28 48 -33 10 -40 16 -40 36 0 21 -5 25 -30
25 -24 0 -30 -4 -30 -22z"/>
<path d="M730 571 c0 -22 113 -129 186 -176 66 -44 115 -63 197 -81 102 -21
339 -16 363 9 3 3 -4 19 -16 35 l-22 30 -112 -5 c-182 -9 -309 28 -480 140
-100 66 -116 73 -116 48z"/>
</g>
</svg>
