<?xml version="1.0" standalone="no"?>
<!DOCTYPE svg PUBLIC "-//W3C//DTD SVG 20010904//EN"
 "http://www.w3.org/TR/2001/REC-SVG-20010904/DTD/svg10.dtd">
<svg version="1.0" xmlns="http://www.w3.org/2000/svg"
 width="256.000000pt" height="256.000000pt" viewBox="0 0 256.000000 256.000000"
 preserveAspectRatio="xMidYMid meet">
<metadata>
Created by potrace 1.16, written by Peter Selinger 2001-2019
</metadata>
<g transform="translate(0.000000,256.000000) scale(0.100000,-0.100000)"
fill="#000000" stroke="none">
<path d="M0 1280 l0 -1000 1280 0 1280 0 0 1000 0 1000 -1280 0 -1280 0 0
-1000z m1888 399 c86 -72 157 -136 157 -143 0 -11 -286 -276 -306 -284 -5 -2
-9 30 -9 72 0 41 -4 77 -9 81 -15 9 -135 -13 -195 -35 -98 -37 -196 -142 -196
-211 0 -21 14 -73 31 -116 18 -43 34 -98 37 -123 6 -62 -10 -42 -37 45 -12 39
-31 93 -41 120 -26 69 -26 178 1 257 49 147 161 242 334 285 l65 16 0 83 c0
46 2 84 5 84 3 0 76 -59 163 -131z m-280 59 c-3 -7 -36 -26 -74 -42 l-69 -31
-393 -5 -394 -5 -29 -33 -29 -32 0 -541 c0 -487 2 -544 17 -569 9 -16 27 -33
40 -39 16 -8 191 -11 543 -11 l520 0 32 29 33 29 2 337 c2 371 -4 334 66 386
l27 20 0 -371 c0 -312 -2 -377 -15 -408 -21 -49 -52 -81 -100 -103 -37 -17
-76 -19 -570 -19 -495 0 -533 2 -570 19 -47 22 -89 64 -106 106 -8 21 -13 192
-17 582 -4 499 -3 557 12 596 18 48 44 77 91 101 26 14 95 16 508 16 368 0
478 -3 475 -12z m-330 -274 c47 -13 15 -29 -61 -31 -101 -2 -171 -24 -248 -76
-108 -72 -159 -166 -174 -320 -8 -78 -25 -81 -25 -4 0 203 149 388 342 426 53
11 135 13 166 5z m-190 -167 c3 -20 -4 -35 -22 -52 -29 -27 -34 -73 -13 -115
10 -20 19 -24 44 -22 23 3 34 -2 42 -17 13 -23 -8 -51 -39 -51 -11 0 -25 -16
-39 -45 -17 -36 -26 -45 -46 -45 -33 0 -33 27 0 40 24 9 55 56 55 84 0 8 -21
26 -46 41 -45 27 -45 27 -29 52 27 40 35 81 23 108 -14 32 5 57 41 53 20 -2
27 -9 29 -31z m505 -29 c61 -88 81 -211 56 -330 -14 -65 -63 -165 -81 -165
-10 0 -7 12 9 46 72 147 68 294 -12 437 -19 34 -32 64 -28 67 9 10 17 2 56
-55z m-163 -190 c11 -53 20 -114 20 -135 -1 -34 -5 -27 -35 57 -37 100 -44
168 -23 217 l12 28 3 -35 c2 -19 13 -79 23 -132z m-499 101 c19 -27 20 -34 8
-55 -11 -21 -10 -28 10 -55 25 -33 22 -59 -6 -59 -10 0 -42 -11 -70 -25 -29
-13 -53 -23 -53 -22 0 2 23 20 50 41 45 34 50 42 50 76 0 30 -6 43 -27 58 -25
18 -26 22 -15 46 15 34 26 33 53 -5z m321 -62 c25 -51 65 -194 56 -202 -2 -2
-13 5 -26 15 -17 14 -28 42 -42 112 -11 51 -27 108 -36 127 -27 61 13 16 48
-52z m267 23 c-7 -20 -9 -60 -5 -106 3 -42 1 -96 -5 -125 -19 -86 -31 -43 -27
93 2 99 7 130 21 152 23 35 30 29 16 -14z m-442 -283 c51 -34 30 -31 -23 4
-27 17 -40 28 -29 25 11 -4 34 -17 52 -29z m138 -20 c21 -12 24 -16 10 -14
-20 3 -115 55 -115 63 0 5 67 -26 105 -49z m325 13 c-6 -11 -13 -20 -16 -20
-2 0 0 9 6 20 6 11 13 20 16 20 2 0 0 -9 -6 -20z"/>
<path d="M556 648 c-10 -140 4 -211 48 -247 9 -7 13 -17 10 -22 -3 -5 -2 -9 3
-10 4 0 17 -3 28 -7 11 -4 268 -7 572 -7 542 0 552 0 579 21 69 51 83 95 76
247 -4 92 -6 104 -17 84 -7 -13 -14 -64 -17 -113 -6 -103 -24 -146 -71 -171
-29 -15 -83 -17 -532 -20 -275 -2 -515 -1 -533 3 -39 8 -89 52 -96 85 -3 13
-8 78 -12 144 -4 66 -10 111 -12 100 -5 -20 -5 -20 -12 0 -4 12 -10 -24 -14
-87z"/>
</g>
</svg>
