<?xml version="1.0" standalone="no"?>
<!DOCTYPE svg PUBLIC "-//W3C//DTD SVG 20010904//EN"
 "http://www.w3.org/TR/2001/REC-SVG-20010904/DTD/svg10.dtd">
<svg version="1.0" xmlns="http://www.w3.org/2000/svg"
 width="256.000000pt" height="256.000000pt" viewBox="0 0 256.000000 256.000000"
 preserveAspectRatio="xMidYMid meet">
<metadata>
Created by potrace 1.16, written by Peter Selinger 2001-2019
</metadata>
<g transform="translate(0.000000,256.000000) scale(0.100000,-0.100000)"
fill="#000000" stroke="none">
<path d="M0 1280 l0 -1000 605 0 605 0 0 33 c0 73 99 97 128 32 17 -36 14 -45
-3 -13 -19 34 -47 43 -82 26 -21 -10 -29 -22 -31 -46 l-3 -32 237 0 c231 0
236 0 231 20 -3 11 -1 18 4 14 5 -3 9 -12 9 -19 0 -12 68 -14 430 -15 l430 0
0 1000 0 1000 -1280 0 -1280 0 0 -1000z m868 503 c3 -25 9 -34 35 -42 27 -10
36 -8 58 8 l26 20 37 -30 c42 -35 43 -40 15 -78 -28 -38 -11 -79 35 -83 30 -3
31 -5 34 -55 l3 -53 -53 0 c-51 0 -54 -1 -122 -67 -38 -38 -62 -56 -53 -41
l17 27 -37 -15 c-46 -20 -88 -12 -144 26 -53 36 -74 37 -90 8 -6 -13 -20 -32
-30 -44 -19 -20 -19 -21 2 -47 24 -31 36 -33 60 -11 13 12 28 15 53 10 45 -9
66 -30 66 -67 0 -25 4 -29 29 -29 26 0 30 4 34 33 4 31 4 31 5 -6 l2 -38 -42
3 c-42 3 -43 4 -46 40 -3 32 -8 38 -37 48 -29 10 -39 8 -64 -6 -29 -17 -31
-17 -52 1 -38 36 -43 54 -19 80 20 21 21 27 10 59 -10 30 -16 36 -41 36 -28 0
-29 2 -29 45 0 25 0 48 0 53 -1 4 14 9 32 12 46 7 60 48 31 89 l-22 28 33 32
c33 32 33 32 63 15 26 -15 34 -16 62 -5 24 10 31 20 31 41 0 37 7 41 60 38 43
-3 45 -5 48 -35z m459 5 c64 -60 -21 -162 -90 -108 -20 16 -27 30 -27 56 0 66
69 97 117 52z m212 -80 c88 -30 188 -101 180 -127 -2 -6 -28 5 -57 25 -75 50
-149 83 -205 90 -48 7 -63 16 -52 33 7 12 64 3 134 -21z m392 -37 c74 -74 -5
-206 -102 -172 -18 6 -36 11 -41 11 -5 0 -35 -27 -66 -60 -36 -38 -61 -57 -69
-52 -8 5 7 28 47 72 l59 65 -6 52 c-5 50 -4 54 27 83 45 42 109 43 151 1z
m-641 -57 c0 -15 -6 -24 -15 -24 -16 0 -19 17 -9 44 9 22 24 10 24 -20z m185
-48 c62 -11 75 -16 75 -32 0 -19 -19 -18 -65 6 -22 11 -45 20 -52 20 -7 0 -13
8 -13 18 0 10 3 13 8 6 4 -6 25 -14 47 -18z m-117 -137 c3 -44 4 -46 54 -67
l52 -22 38 25 c21 14 41 25 45 25 4 0 29 -21 55 -47 l48 -47 -25 -32 c-29 -38
-31 -61 -10 -91 15 -21 14 -21 -58 -25 l-72 -3 -50 45 c-83 77 -179 89 -272
34 -23 -13 -51 -38 -63 -54 -21 -29 -24 -30 -78 -24 -83 8 -82 8 -70 48 10 31
8 38 -16 67 l-27 32 54 55 55 55 39 -32 39 -31 47 20 c40 18 47 25 52 58 11
65 9 63 87 60 l73 -3 3 -46z m545 -56 c52 -112 83 -240 56 -231 -6 2 -20 36
-29 75 -10 39 -35 102 -54 141 -39 78 -43 92 -23 92 8 0 30 -35 50 -77z m-142
-24 c4 -8 12 -39 19 -69 7 -30 15 -61 17 -67 3 -7 -2 -13 -11 -13 -10 0 -16 9
-16 23 0 22 -18 89 -35 131 -10 23 14 18 26 -5z m243 -250 c45 -21 56 -99 17
-124 -7 -3 -8 0 -5 9 4 10 -2 17 -20 22 -27 6 -60 -11 -50 -27 9 -15 -13 -10
-26 6 -7 8 -21 15 -31 15 -22 0 -25 18 -5 26 8 3 17 16 20 29 4 14 19 31 34
39 33 19 35 19 66 5z m-1360 -32 c32 -42 32 -57 0 -81 -25 -18 -26 -18 -16 0
5 11 7 25 5 32 -7 19 -50 33 -79 26 -31 -8 -32 -47 -2 -68 12 -9 18 -16 13
-16 -19 0 -55 45 -55 69 0 36 37 71 76 71 26 0 39 -8 58 -33z m316 13 c0 -5
-7 -10 -14 -10 -11 0 -16 -15 -18 -52 -4 -65 -23 -65 -23 0 0 41 -3 47 -22 50
-43 6 -23 22 27 22 28 0 50 -4 50 -10z m108 -19 c2 -13 -1 -28 -7 -34 -6 -6
-5 -17 6 -34 23 -34 5 -43 -21 -10 -26 32 -34 34 -38 7 -7 -45 -23 -21 -26 38
l-3 63 43 -3 c37 -3 44 -7 46 -27z m111 -22 c11 -29 21 -58 21 -65 0 -19 -16
-18 -24 1 -3 8 -17 15 -31 15 -16 0 -25 -6 -25 -15 0 -8 -7 -15 -15 -15 -13 0
-12 7 4 48 10 26 21 55 24 65 11 29 23 19 46 -34z m71 -15 c0 -48 -3 -65 -12
-62 -8 3 -14 28 -16 66 -2 51 0 62 13 62 12 0 15 -13 15 -66z m75 29 l25 -38
0 38 c0 26 4 37 15 37 12 0 15 -13 15 -59 0 -33 -4 -62 -9 -65 -5 -3 -23 11
-40 32 l-30 37 -1 -37 c0 -21 -4 -38 -10 -38 -6 0 -10 28 -10 65 0 36 4 65 10
65 5 0 21 -17 35 -37z m105 -28 c0 -37 -4 -65 -10 -65 -6 0 -10 28 -10 65 0
37 4 65 10 65 6 0 10 -28 10 -65z m80 27 l25 -37 3 38 c5 62 22 41 22 -28 0
-36 -4 -65 -9 -65 -5 0 -19 16 -32 35 -13 19 -26 35 -29 35 -3 0 -5 -14 -5
-32 0 -17 -6 -33 -12 -35 -10 -4 -13 13 -13 61 0 77 12 84 50 28z m168 21 c2
-9 -5 -11 -27 -7 -26 6 -31 3 -37 -20 -8 -35 1 -56 26 -56 23 0 26 10 8 28 -9
9 -7 12 10 12 17 0 22 -6 22 -25 0 -22 -24 -45 -49 -45 -35 0 -57 90 -29 118
16 16 70 12 76 -5z m82 -93 c0 -11 -4 -20 -9 -20 -5 0 -7 9 -4 20 3 11 7 20 9
20 2 0 4 -9 4 -20z m-1144 -97 c13 -59 38 -130 65 -185 32 -64 39 -94 8 -35
-21 39 -32 49 -23 20 3 -10 -2 -6 -11 10 -9 15 -13 32 -10 37 3 6 2 10 -3 10
-12 0 -52 114 -52 147 0 32 18 29 26 -4z m501 -14 c55 -50 98 -69 160 -69 58
0 117 26 161 69 30 31 37 33 107 34 41 1 75 -2 75 -6 0 -4 -7 -19 -16 -33 -16
-23 -15 -26 11 -64 24 -34 26 -42 14 -57 -29 -39 -63 -73 -73 -73 -5 0 7 17
27 38 20 21 37 44 37 51 0 7 -11 27 -26 43 -14 17 -23 37 -20 44 9 23 -20 36
-61 28 -21 -5 -40 -8 -43 -9 -3 0 -18 -10 -35 -21 -99 -70 -173 -77 -285 -25
-40 19 -93 35 -117 37 -38 3 -45 0 -52 -19 -5 -12 -18 -31 -30 -41 -29 -26
-27 -36 19 -81 34 -34 43 -38 58 -27 60 42 66 43 123 14 51 -26 54 -29 57 -69
3 -39 5 -42 35 -46 31 -4 31 -4 -5 -5 l-38 -2 0 43 c0 43 0 43 -55 66 l-55 23
-34 -21 c-18 -12 -39 -21 -47 -21 -7 0 -32 21 -55 48 l-42 47 30 37 30 38 -22
35 -22 35 73 0 c70 0 73 -1 116 -41z m679 -56 c10 -49 13 -52 39 -59 19 -5 35
-1 54 14 l28 20 31 -25 c35 -27 41 -53 17 -73 -17 -14 -19 -43 -5 -71 8 -13
21 -19 45 -19 l35 0 0 -55 0 -55 -35 0 c-28 0 -38 -5 -45 -22 -5 -14 -9 -17
-9 -8 -1 24 20 40 51 40 25 0 28 4 28 33 l0 33 -52 -4 c-29 -2 -59 -4 -65 -4
-7 -1 -13 -12 -13 -26 0 -39 -30 -92 -69 -118 -96 -65 -231 6 -231 123 0 41
-13 63 -25 43 -8 -13 -116 -8 -111 5 3 11 27 11 66 2 21 -6 37 4 98 61 72 67
72 67 78 130 l7 62 38 0 c34 0 39 -3 45 -27z m-336 -98 c0 -6 -50 -31 -80 -39
-14 -4 -5 5 20 18 45 25 60 30 60 21z m55 -20 c39 -32 28 -32 -15 0 -19 14
-30 25 -24 25 5 0 23 -11 39 -25z m-641 -86 c-51 -53 -74 -66 -74 -42 1 18 99
97 109 88 2 -3 -13 -24 -35 -46z m486 11 c0 -37 -2 -40 -27 -39 -24 2 -25 2
-5 6 18 4 22 11 22 39 0 19 2 34 5 34 3 0 5 -18 5 -40z m-610 -55 c37 -19 50
-44 49 -92 l-2 -38 -6 40 c-9 53 -17 64 -57 81 -61 26 -122 -15 -125 -83 -2
-25 -2 -25 -6 -5 -10 54 39 111 95 112 13 0 36 -7 52 -15z m310 -35 c13 -9 13
-10 0 -9 -8 0 -24 4 -35 9 l-20 9 20 0 c11 0 27 -4 35 -9z m230 -105 c0 -14
-4 -25 -10 -25 -5 0 -10 11 -10 25 0 14 5 25 10 25 6 0 10 -11 10 -25z m-627
-44 c-4 -6 -53 41 -53 50 0 4 13 -4 28 -19 15 -15 26 -29 25 -31z m107 24
c-13 -14 -27 -25 -32 -25 -9 0 42 49 51 50 3 0 -6 -11 -19 -25z m-57 -32 c-7
-2 -19 -2 -25 0 -7 3 -2 5 12 5 14 0 19 -2 13 -5z m404 -19 c-3 -3 -12 -4 -19
-1 -8 3 -5 6 6 6 11 1 17 -2 13 -5z m40 -10 c-3 -3 -12 -4 -19 -1 -8 3 -5 6 6
6 11 1 17 -2 13 -5z m478 -14 c-27 -12 -43 -12 -25 0 8 5 22 9 30 9 10 0 8 -3
-5 -9z"/>
<path d="M750 1641 c-44 -23 -84 -94 -76 -135 24 -118 157 -165 233 -82 59 64
56 135 -7 198 -31 31 -45 38 -76 38 -22 0 -55 -8 -74 -19z"/>
<path d="M1010 1050 c0 -22 1 -23 24 -14 23 9 20 34 -4 34 -13 0 -20 -7 -20
-20z"/>
<path d="M1140 1026 c0 -9 5 -16 10 -16 6 0 10 4 10 9 0 6 -4 13 -10 16 -5 3
-10 -1 -10 -9z"/>
<path d="M1700 663 c-23 -9 -60 -45 -76 -75 -54 -104 67 -221 179 -175 49 21
77 69 77 131 0 43 -4 53 -39 87 -34 34 -44 39 -82 38 -24 0 -51 -3 -59 -6z"/>
</g>
</svg>
