<?xml version="1.0" standalone="no"?>
<!DOCTYPE svg PUBLIC "-//W3C//DTD SVG 20010904//EN"
 "http://www.w3.org/TR/2001/REC-SVG-20010904/DTD/svg10.dtd">
<svg version="1.0" xmlns="http://www.w3.org/2000/svg"
 width="256.000000pt" height="256.000000pt" viewBox="0 0 256.000000 256.000000"
 preserveAspectRatio="xMidYMid meet">
<metadata>
Created by potrace 1.16, written by Peter Selinger 2001-2019
</metadata>
<g transform="translate(0.000000,256.000000) scale(0.100000,-0.100000)"
fill="#000000" stroke="none">
<path d="M0 1280 l0 -1000 615 0 c338 0 615 2 615 5 0 2 -9 27 -19 54 -43 107
-54 171 -41 236 15 75 40 125 92 181 40 43 116 86 173 98 23 5 16 -1 -28 -26
-95 -54 -123 -83 -164 -165 -34 -69 -38 -85 -37 -153 0 -41 8 -110 18 -152
l17 -78 240 0 239 0 0 29 c0 17 4 33 10 36 5 3 10 26 10 50 0 38 -3 44 -27 50
-16 3 -37 15 -49 26 -21 20 -21 20 -92 -7 -50 -18 -73 -32 -79 -48 -6 -19 -7
-19 -12 8 -12 59 -71 57 -71 -3 0 -20 -2 -23 -10 -11 -14 21 -12 36 6 54 18
19 65 21 82 4 9 -9 28 -5 82 17 64 26 70 31 70 57 0 16 4 38 10 48 16 31 -30
78 -76 77 -37 -1 -54 13 -54 49 0 28 19 44 52 44 29 0 54 -31 44 -56 -3 -8 7
-28 23 -46 26 -29 30 -31 67 -21 22 5 49 7 59 3 30 -11 65 25 65 66 0 57 65
80 91 32 15 -28 -13 -68 -49 -68 -16 -1 -33 -10 -44 -24 -15 -21 -15 -27 -2
-64 17 -52 7 -85 -40 -127 -29 -26 -33 -35 -29 -65 3 -25 12 -39 26 -45 13 -6
23 -21 25 -37 l3 -28 375 0 374 0 0 1000 0 1000 -1280 0 -1280 0 0 -1000z
m1289 436 c35 -26 56 -36 58 -29 7 19 72 -18 127 -71 43 -43 46 -44 40 -18 -4
15 -13 43 -20 62 l-14 35 40 -43 c21 -24 47 -64 56 -90 25 -69 37 -76 30 -17
-6 48 -6 49 9 24 28 -51 35 -110 20 -174 -8 -33 -14 -72 -15 -87 0 -16 -3 -28
-7 -28 -16 0 -41 33 -36 47 4 11 1 14 -13 11 -10 -2 -39 6 -63 19 -24 13 -50
23 -57 23 -8 0 -26 -19 -40 -42 -15 -24 -31 -45 -36 -46 -4 -2 -5 -9 -1 -15 3
-7 3 -9 -2 -5 -4 4 -14 3 -22 -3 -10 -9 -17 -8 -29 2 -13 10 -17 10 -25 -2 -7
-12 -9 -12 -9 0 0 43 -159 245 -178 226 -2 -2 -23 5 -46 17 -30 16 -59 22
-108 21 -37 0 -65 4 -62 9 9 13 -23 21 -61 14 -21 -4 -50 -21 -70 -41 -19 -19
-41 -35 -49 -35 -8 0 -24 -12 -35 -26 -19 -24 -19 -28 -5 -56 13 -25 19 -28
43 -23 19 4 34 1 44 -9 8 -8 17 -13 19 -10 3 2 8 -17 12 -44 12 -90 72 -152
154 -160 62 -5 113 11 160 52 l37 31 -26 -35 c-53 -72 -155 -92 -240 -47 -42
23 -69 25 -69 7 0 -14 78 -71 99 -73 15 -1 17 -5 10 -18 -14 -26 -11 -65 6
-79 15 -12 152 -49 189 -51 19 -1 18 -2 -6 -12 -20 -10 -24 -16 -17 -29 15
-27 1 -42 -54 -60 -73 -24 -129 -31 -180 -24 -46 7 -59 17 -115 80 -32 36 -34
37 -47 20 -13 -17 -14 -16 -8 16 6 33 5 34 -12 20 -10 -8 -29 -37 -42 -65
l-23 -50 3 133 3 133 -19 -37 c-10 -20 -22 -64 -26 -97 l-7 -62 -13 59 c-16
74 -9 127 35 237 28 73 54 180 54 226 0 7 -7 10 -17 6 -13 -5 -12 1 7 35 13
23 27 42 32 42 4 0 8 5 8 10 0 7 -7 7 -21 0 -44 -24 -31 3 29 60 41 39 77 63
102 70 58 16 49 23 -22 18 l-63 -5 65 31 c60 29 73 31 172 31 98 0 105 1 80
14 -15 8 -47 20 -72 27 l-45 12 50 1 c99 1 208 -32 284 -86 24 -17 24 -17 11
7 -7 14 -24 40 -37 58 l-25 34 33 -18 c19 -9 58 -35 88 -58z m-252 -246 c36
-21 61 -56 68 -91 4 -19 -1 -17 -27 15 -54 66 -134 83 -213 47 -51 -23 -104
-36 -90 -22 6 5 36 23 69 40 71 38 143 42 193 11z m-52 -66 c42 -43 -28 -75
-76 -35 -24 21 -24 21 -5 36 26 20 60 19 81 -1z m564 -116 c42 -23 109 -64
150 -91 41 -27 117 -67 170 -88 118 -48 156 -83 147 -137 -7 -44 -21 -61 -38
-44 -9 9 -9 12 0 12 7 0 12 9 12 20 0 23 -12 25 -42 9 -17 -9 -18 -13 -7 -21
20 -13 -50 -1 -226 39 -241 55 -318 66 -480 67 -116 1 -163 -3 -207 -17 -62
-19 -87 -22 -72 -8 17 16 168 61 254 76 96 17 177 19 233 6 36 -9 38 -8 23 8
-9 10 -16 31 -16 47 0 21 -7 32 -25 41 -17 8 -25 8 -25 0 0 -6 -2 -8 -5 -5 -6
6 30 95 47 115 15 19 23 17 107 -29z m-656 -77 c-2 -3 -16 8 -31 24 l-27 28
31 -24 c17 -13 30 -26 27 -28z m177 24 c0 -6 -56 -35 -67 -35 -4 1 8 9 27 20
39 22 40 22 40 15z m345 -230 c66 -8 134 -19 150 -25 l30 -10 -35 5 c-187 24
-339 36 -410 33 -47 -3 -74 -2 -60 2 43 13 200 11 325 -5z m-720 -196 c18 -4
20 -13 23 -89 2 -47 0 -110 -4 -140 l-7 -55 -13 70 c-7 39 -20 90 -28 114 -17
45 -21 103 -9 114 4 4 9 3 12 -2 3 -5 15 -10 26 -12z m365 -19 c-8 -5 -19 -10
-25 -10 -5 0 -3 5 5 10 8 5 20 10 25 10 6 0 3 -5 -5 -10z m-43 -16 c-3 -3 -12
-4 -19 -1 -8 3 -5 6 6 6 11 1 17 -2 13 -5z m-64 -11 c-13 -2 -33 -2 -45 0 -13
2 -3 4 22 4 25 0 35 -2 23 -4z"/>
<path d="M1470 1171 c-18 -34 24 -70 93 -81 32 -5 65 -6 73 -3 33 13 -85 103
-135 103 -11 0 -25 -9 -31 -19z"/>
<path d="M1863 743 c-7 -2 -13 -18 -13 -34 0 -24 4 -29 25 -29 29 0 43 25 28
48 -11 18 -23 22 -40 15z"/>
<path d="M1544 726 c-10 -26 4 -48 28 -44 17 2 23 10 23 28 0 18 -6 26 -23 28
-13 2 -25 -3 -28 -12z"/>
<path d="M1693 590 c-28 -17 -33 -25 -33 -58 0 -50 24 -72 76 -72 45 0 56 6
73 37 16 32 14 57 -10 87 -25 32 -61 34 -106 6z"/>
<path d="M1742 328 c-7 -7 -12 -20 -12 -30 0 -14 8 -18 35 -18 27 0 35 4 35
18 0 20 -18 42 -35 42 -6 0 -16 -5 -23 -12z"/>
</g>
</svg>
