<?xml version="1.0" standalone="no"?>
<!DOCTYPE svg PUBLIC "-//W3C//DTD SVG 20010904//EN"
 "http://www.w3.org/TR/2001/REC-SVG-20010904/DTD/svg10.dtd">
<svg version="1.0" xmlns="http://www.w3.org/2000/svg"
 width="256.000000pt" height="256.000000pt" viewBox="0 0 256.000000 256.000000"
 preserveAspectRatio="xMidYMid meet">
<metadata>
Created by potrace 1.16, written by Peter Selinger 2001-2019
</metadata>
<g transform="translate(0.000000,256.000000) scale(0.100000,-0.100000)"
fill="#000000" stroke="none">
<path d="M0 1280 l0 -1000 544 0 c426 0 545 3 549 13 4 9 6 9 6 0 1 -10 154
-13 731 -13 l730 0 0 1000 0 1000 -1280 0 -1280 0 0 -1000z m1304 550 c23 -57
21 -105 -6 -132 l-21 -21 -19 23 c-10 13 -18 38 -18 61 0 37 27 109 41 109 4
0 14 -18 23 -40z m-124 -65 c0 -16 -30 -29 -42 -17 -4 4 -5 23 -2 42 l7 33 19
-22 c10 -13 18 -29 18 -36z m250 8 c0 -18 -6 -23 -25 -23 -30 0 -33 24 -8 52
19 21 33 9 33 -29z m-372 5 c7 -7 12 -29 12 -49 0 -28 -5 -38 -20 -42 -26 -7
-43 23 -34 60 11 47 20 53 42 31z m476 -4 c9 -24 7 -74 -3 -74 -5 0 -7 8 -4
19 3 10 0 22 -6 25 -7 5 -11 -4 -11 -24 0 -18 -4 -29 -10 -25 -14 9 -13 68 2
83 16 16 25 15 32 -4z m126 -70 c0 -44 -24 -91 -50 -99 -59 -19 -54 70 8 122
32 27 42 22 42 -23z m-711 9 c51 -47 50 -112 -1 -100 -29 8 -48 44 -48 92 0
42 10 44 49 8z m471 -6 c0 -23 -30 -56 -45 -51 -21 8 -19 30 5 54 21 21 40 19
40 -3z m-246 -6 c10 -11 16 -26 14 -33 -3 -7 13 -39 34 -72 32 -50 49 -96 34
-96 -2 0 -18 30 -35 66 -17 37 -45 82 -61 101 -17 18 -30 38 -30 43 0 17 26
11 44 -9z m-334 -56 c35 -18 60 -52 60 -82 0 -27 -19 -29 -59 -8 -28 14 -36
25 -51 78 -10 32 4 36 50 12z m442 -19 c4 -6 2 -19 -4 -30 -10 -19 -11 -19
-24 5 -7 13 -13 32 -14 43 0 16 2 17 18 5 9 -8 20 -18 24 -23z m178 -1 c0 -12
-7 -26 -16 -29 -27 -10 -35 4 -19 35 18 33 35 30 35 -6z m72 -66 c6 -4 7 -12
3 -20 -13 -20 -24 18 -22 76 l1 50 3 -50 c3 -27 9 -53 15 -56z m238 86 c0 -48
-71 -115 -107 -101 -31 12 6 73 60 100 40 20 47 20 47 1z m-642 -31 c-5 -26
-38 -31 -38 -7 0 24 21 46 33 34 5 -5 7 -17 5 -27z m196 -65 l-47 -84 12 -61
c14 -79 14 -115 -3 -137 -33 -43 -56 55 -37 157 6 33 14 62 19 65 4 3 18 26
31 51 31 57 62 102 67 97 2 -2 -17 -42 -42 -88z m-240 -132 c24 -23 70 -67
103 -98 37 -34 65 -71 73 -93 14 -45 25 -46 40 -3 16 48 59 101 117 146 29 23
80 75 115 116 34 41 66 75 70 75 17 0 7 -31 -21 -62 -15 -18 -41 -53 -56 -78
-15 -25 -51 -66 -79 -91 -30 -27 -63 -70 -79 -102 -26 -54 -36 -117 -18 -117
5 0 33 12 61 27 48 25 67 28 199 34 80 4 166 10 191 14 43 6 44 5 20 -8 -31
-18 -147 -43 -258 -56 -92 -12 -113 -20 -159 -64 -46 -43 -67 -113 -60 -197
12 -147 67 -207 231 -255 33 -9 87 -31 120 -48 33 -18 79 -40 101 -50 37 -16
37 -17 9 -13 -17 3 -57 20 -90 39 -32 19 -105 49 -162 66 -90 28 -109 38 -152
80 -42 40 -50 44 -50 27 -1 -29 -27 32 -45 104 l-14 55 2 -72 c1 -40 -2 -75
-6 -79 -4 -4 -7 6 -8 22 0 32 -17 80 -18 54 -1 -12 -3 -12 -9 -2 -6 8 -15 -9
-26 -49 -12 -44 -20 -59 -28 -51 -7 7 -23 0 -54 -23 -40 -31 -95 -53 -224 -89
-30 -9 -77 -31 -104 -51 -27 -19 -59 -35 -70 -34 l-21 0 20 9 c12 4 43 22 69
39 27 16 92 45 145 62 125 41 161 60 199 103 38 43 52 91 52 177 0 154 -60
218 -220 238 -101 12 -280 54 -280 65 0 5 27 6 63 2 34 -4 119 -11 188 -16
106 -6 135 -12 179 -34 28 -14 56 -26 61 -26 16 0 9 63 -11 109 -11 23 -51 75
-89 115 -75 78 -101 118 -82 124 6 2 12 32 13 75 l2 72 3 -73 c4 -71 5 -74 47
-115z m96 148 c0 -29 -25 -44 -43 -26 -9 9 -6 16 13 31 31 24 30 25 30 -5z
m-205 -40 c7 -28 6 -29 -8 -10 -8 11 -18 31 -22 45 -6 22 -6 23 8 10 9 -8 19
-28 22 -45z m441 19 c23 -35 6 -52 -30 -29 -25 17 -33 35 -19 48 13 14 33 6
49 -19z m64 -31 c0 -47 -5 -64 -25 -88 -23 -28 -24 -29 -25 -8 0 12 9 38 21
57 19 33 19 37 5 58 -21 30 -20 38 4 38 18 0 20 -7 20 -57z m378 49 c20 -13
-23 -62 -54 -62 -47 0 -39 54 9 63 12 2 24 5 27 5 3 1 11 -2 18 -6z m-1088
-17 c18 -21 5 -45 -24 -45 -18 0 -30 9 -41 30 l-16 30 35 0 c18 0 39 -7 46
-15z m347 -1 c3 -9 2 -24 -4 -33 -6 -9 -8 -31 -5 -50 3 -24 1 -32 -7 -27 -14
9 -15 126 -1 126 6 0 13 -7 17 -16z m-249 -50 c12 -4 22 -12 22 -20 0 -7 -6
-12 -12 -10 -7 3 -25 7 -40 10 -16 4 -28 11 -28 16 0 11 24 13 58 4z m342 -26
c-1 -33 -42 -80 -63 -72 -21 8 -21 17 -2 54 22 43 65 55 65 18z m419 -13 c-23
-39 -49 -46 -49 -15 0 17 37 44 67 50 1 0 -7 -16 -18 -35z m87 24 c13 -22 -11
-28 -36 -9 l-25 20 27 0 c15 0 30 -5 34 -11z m-758 -11 c13 -13 17 -48 5 -48
-10 0 -53 42 -53 52 0 12 34 10 48 -4z m426 -10 c20 -29 20 -52 0 -69 -14 -11
-19 -10 -35 10 -22 27 -24 52 -7 69 17 17 25 15 42 -10z m-706 -14 c27 -19 30
-64 5 -64 -10 0 -23 4 -29 8 -13 9 -44 54 -44 64 0 14 45 9 68 -8z m1119 8
c10 -6 10 -12 -1 -28 -11 -15 -17 -16 -27 -7 -6 6 -9 19 -6 27 7 18 16 20 34
8z m147 -1 c10 -16 -34 -61 -60 -61 -13 0 -24 4 -24 10 0 5 6 7 13 4 8 -3 25
4 38 15 24 20 24 20 2 21 -12 0 -25 -4 -28 -10 -3 -5 -11 -10 -16 -10 -16 0 1
21 25 30 28 12 44 12 50 1z m-1144 -16 c0 -9 -7 -18 -16 -22 -18 -7 -39 11
-30 26 11 17 46 13 46 -4z m110 -26 c0 -4 -13 -7 -30 -6 -33 2 -40 13 -12 19
21 5 42 -1 42 -13z m805 -18 c-6 -5 -42 -16 -81 -24 -70 -15 -144 -50 -144
-68 0 -5 -9 -9 -20 -9 -27 0 -25 11 8 42 38 36 79 55 137 63 28 4 59 11 70 15
23 9 44 -5 30 -19z m45 9 c0 -5 -5 -10 -11 -10 -5 0 -7 5 -4 10 3 6 8 10 11
10 2 0 4 -4 4 -10z m-737 -38 c41 -19 85 -57 76 -67 -3 -2 -35 11 -72 29 -38
19 -98 39 -137 46 -39 7 -70 14 -70 17 0 13 164 -8 203 -25z m-216 -73 c-4
-32 -1 -38 27 -55 25 -15 28 -19 13 -22 -29 -6 -40 3 -66 50 -17 33 -22 53
-17 73 7 27 7 27 27 9 16 -15 20 -27 16 -55z m983 23 c0 -47 -63 -126 -84
-105 -9 10 15 33 35 33 15 0 17 6 12 34 -6 35 12 80 28 71 5 -4 9 -18 9 -33z
m-1136 14 c31 -13 76 -59 76 -78 0 -14 -28 -21 -55 -14 -25 6 -105 80 -105 97
0 14 46 11 84 -5z m1319 -18 c-24 -42 -80 -80 -112 -76 -34 4 -36 20 -6 57 26
30 67 48 113 50 l24 1 -19 -32z m-1069 -5 c19 -38 23 -75 9 -80 -14 -5 -40 33
-53 76 -7 27 -6 31 10 31 11 0 26 -12 34 -27z m796 2 c0 -20 -28 -45 -51 -45
-27 0 -24 25 7 49 27 21 44 20 44 -4z m-706 -12 c8 -19 -8 -38 -23 -29 -16 10
-13 46 3 46 8 0 17 -8 20 -17z m591 8 c3 -5 1 -13 -5 -16 -15 -9 -43 3 -35 15
8 13 32 13 40 1z m-438 -90 c13 -25 21 -46 19 -48 -5 -5 -109 58 -118 71 -15
22 -7 27 35 24 39 -3 44 -7 64 -47z m363 44 c0 -19 -106 -92 -117 -81 -11 11
34 71 57 77 32 9 60 11 60 4z m68 -11 c-3 -19 -34 -41 -43 -32 -4 3 -2 16 5
27 13 25 43 28 38 5z m-564 -10 c10 -26 7 -34 -14 -34 -13 0 -20 7 -20 18 0
33 23 44 34 16z m642 -10 c-24 -17 -49 -18 -44 -2 5 13 49 28 58 21 3 -3 -4
-11 -14 -19z m-1047 -18 c9 -10 7 -16 -6 -27 -15 -11 -16 -11 -5 1 10 12 8 16
-10 27 -17 9 -19 12 -7 13 9 0 22 -6 28 -14z m-57 -3 c-6 -2 -9 -10 -6 -15 4
-7 2 -8 -4 -4 -18 11 -14 26 6 25 10 0 12 -3 4 -6z m1405 -8 c0 -8 -4 -12 -9
-9 -4 3 -8 9 -8 15 0 5 4 9 8 9 5 0 9 -7 9 -15z m73 11 c0 -2 -8 -10 -17 -17
-16 -13 -17 -12 -4 4 13 16 21 21 21 13z m-1370 -73 l-25 -18 30 -6 30 -7 -32
-1 c-18 0 -33 3 -33 8 0 13 29 41 43 41 6 0 0 -8 -13 -17z m1246 2 c18 -14 17
-15 -8 -4 -32 14 -72 4 -48 -11 12 -8 10 -10 -7 -10 -25 0 -29 10 -11 28 16
16 50 15 74 -3z m-117 -55 c-6 -4 -8 -13 -5 -19 4 -6 5 -11 2 -11 -3 0 -10 9
-16 20 -14 27 -3 45 16 29 11 -9 12 -14 3 -19z m129 23 c-10 -2 -26 -2 -35 0
-10 3 -2 5 17 5 19 0 27 -2 18 -5z m-1165 -30 l-17 -26 29 7 c22 5 26 4 15 -4
-20 -13 -50 -13 -50 2 0 11 28 48 37 48 2 0 -4 -12 -14 -27z m157 3 c0 -7 -8
-20 -17 -27 -15 -11 -16 -11 -5 1 17 20 15 30 -7 30 -24 0 -56 -41 -40 -51 7
-4 5 -8 -5 -12 -23 -9 -20 15 5 47 22 28 69 36 69 12z m751 5 c-13 -8 -13 -12
-1 -28 13 -17 13 -17 -4 -1 -19 16 -15 38 7 38 8 0 7 -4 -2 -9z m58 -17 c12
-15 21 -32 21 -38 0 -6 -9 3 -19 20 -11 18 -25 34 -33 37 -8 3 -9 6 -1 6 6 1
21 -11 32 -25z m-669 5 c0 -6 -15 -26 -34 -45 -36 -36 -96 -49 -96 -20 0 17
56 66 73 65 7 0 2 -5 -10 -11 -13 -6 -23 -16 -23 -22 0 -6 5 -5 12 2 7 7 19
12 28 12 11 -1 9 -6 -9 -20 -28 -24 -20 -26 14 -4 27 18 33 39 13 47 -7 3 -3
6 10 6 12 1 22 -4 22 -10z m498 4 c-26 -6 -22 -28 8 -52 15 -12 21 -21 15 -21
-16 0 -61 49 -61 66 0 9 10 14 28 13 16 -1 20 -3 10 -6z m72 -43 c16 -29 12
-40 -12 -39 -17 1 -19 2 -5 6 23 6 22 12 -10 46 -25 26 -25 28 -6 18 13 -6 27
-20 33 -31z m234 -125 c10 -27 7 -40 -14 -63 -16 -17 -25 -20 -39 -12 -10 5
-21 7 -24 4 -11 -11 -46 7 -52 27 -8 25 18 67 48 78 26 10 71 -10 81 -34z
m-954 -106 c0 -5 -16 -9 -35 -9 -39 0 -46 16 -12 29 22 9 47 -2 47 -20z m60 0
c0 -5 -9 -9 -20 -9 -22 0 -27 16 -7 23 15 5 27 -1 27 -14z m693 6 c1 -5 -10
-11 -25 -13 -16 -2 -28 1 -28 7 0 20 49 26 53 6z m-868 -21 c0 -12 -8 -20 -22
-22 -25 -4 -31 16 -11 36 17 17 33 10 33 -14z m234 17 c9 -6 10 -10 2 -16 -15
-8 -41 1 -41 15 0 12 20 13 39 1z m704 -6 c-4 -15 -36 -12 -41 3 -3 9 3 13 19
10 13 -1 23 -7 22 -13z m-632 -5 c24 -14 25 -40 0 -40 -22 0 -45 25 -36 40 8
13 12 13 36 0z m409 -11 c0 -12 -50 -32 -59 -23 -8 8 39 45 50 38 5 -3 9 -10
9 -15z m80 11 c0 -11 -48 -25 -56 -17 -4 3 -3 10 1 16 8 14 55 14 55 1z m240
-5 c18 -21 10 -25 -33 -18 -30 4 -35 8 -26 19 15 18 43 18 59 -1z m-1129 -46
c-17 -14 -27 -17 -35 -9 -13 13 9 30 39 30 19 -1 18 -2 -4 -21z m269 1 c0 -5
-4 -10 -10 -10 -5 0 -10 5 -10 10 0 6 5 10 10 10 6 0 10 -4 10 -10z m964 4
c26 -10 7 -25 -22 -18 -39 9 -51 24 -20 24 15 0 33 -3 42 -6z m-224 -35 c0 -6
-4 -7 -10 -4 -5 3 -10 11 -10 16 0 6 5 7 10 4 6 -3 10 -11 10 -16z m288 8 c8
-10 6 -13 -9 -13 -19 0 -24 7 -12 19 8 9 9 9 21 -6z m-210 -15 c2 -7 -6 -12
-17 -12 -21 0 -27 11 -14 24 9 9 26 2 31 -12z m-1188 4 c0 -2 -8 -10 -17 -17
-16 -13 -17 -12 -4 4 13 16 21 21 21 13z m200 -5 c0 -17 -18 -21 -24 -6 -3 9
0 15 9 15 8 0 15 -4 15 -9z m140 -11 c0 -5 -5 -10 -11 -10 -5 0 -7 5 -4 10 3
6 8 10 11 10 2 0 4 -4 4 -10z m362 -106 c-1 -52 -6 -102 -10 -111 -5 -9 -8 19
-6 69 l2 83 -7 -77 c-4 -43 -10 -81 -14 -85 -12 -11 7 200 19 219 13 21 17 -7
16 -98z m126 -45 c17 -23 32 -48 32 -56 0 -20 -117 155 -125 187 -3 14 9 0 27
-32 18 -31 48 -75 66 -99z m492 127 c0 -2 -7 -6 -15 -10 -8 -3 -15 -1 -15 4 0
6 7 10 15 10 8 0 15 -2 15 -4z m-90 -27 c0 -5 -7 -9 -15 -9 -15 0 -20 12 -9
23 8 8 24 -1 24 -14z m-630 7 c0 -2 -8 -10 -17 -17 -16 -13 -17 -12 -4 4 13
16 21 21 21 13z m20 -26 c-6 -12 -34 -46 -61 -76 -44 -49 -65 -85 -39 -69 6 4
5 -5 -2 -19 -12 -28 -28 -35 -28 -12 0 32 23 72 75 128 30 33 55 64 55 70 0 6
3 9 6 6 3 -4 0 -16 -6 -28z m-74 -15 c-11 -8 -25 -15 -30 -15 -6 1 0 7 14 15
32 19 40 18 16 0z m309 -13 c-3 -3 -11 0 -18 7 -9 10 -8 11 6 5 10 -3 15 -9
12 -12z m-61 -62 c21 -24 17 -22 -11 6 -24 24 -43 49 -43 56 0 7 6 4 12 -7 6
-11 25 -36 42 -55z m-174 37 c0 -2 -12 -14 -27 -28 l-28 -24 24 28 c23 25 31
32 31 24z m508 -142 c8 -11 1 -6 -16 12 -18 18 -32 40 -32 50 0 12 5 9 16 -12
8 -16 23 -39 32 -50z m-384 30 c-4 -8 -8 -15 -10 -15 -2 0 -4 7 -4 15 0 8 4
15 10 15 5 0 7 -7 4 -15z m125 -42 c-1 -41 -2 -44 -8 -18 -7 28 -4 65 5 65 2
0 3 -21 3 -47z m-289 7 c0 -5 -5 -10 -11 -10 -5 0 -7 5 -4 10 3 6 8 10 11 10
2 0 4 -4 4 -10z m470 -55 c0 -5 -5 -3 -10 5 -5 8 -10 20 -10 25 0 6 5 3 10 -5
5 -8 10 -19 10 -25z"/>
<path d="M1270 1768 c1 -50 2 -52 16 -33 8 11 13 29 10 40 -3 11 -6 26 -6 33
0 6 -4 12 -10 12 -5 0 -10 -24 -10 -52z"/>
<path d="M1030 1733 c0 -18 5 -33 10 -33 13 0 13 30 0 50 -7 11 -10 7 -10 -17z"/>
<path d="M920 1687 c0 -7 7 -22 15 -33 13 -17 14 -16 4 14 -11 33 -19 41 -19
19z"/>
<path d="M957 1659 c4 -13 8 -18 11 -10 2 7 -1 18 -6 23 -8 8 -9 4 -5 -13z"/>
<path d="M844 1601 c16 -17 32 -29 34 -26 7 7 -18 34 -42 47 -16 8 -14 3 8
-21z"/>
<path d="M1715 1612 c-11 -9 -26 -25 -34 -35 -12 -15 -11 -16 18 -6 27 10 51
35 51 53 0 11 -15 6 -35 -12z"/>
<path d="M1382 1541 c4 -13 18 -16 19 -4 0 4 -5 9 -11 12 -7 2 -11 -2 -8 -8z"/>
<path d="M1800 1530 c0 -5 6 -10 14 -10 8 0 18 5 21 10 3 6 -3 10 -14 10 -12
0 -21 -4 -21 -10z"/>
<path d="M719 1527 c15 -19 41 -23 41 -7 0 6 -4 10 -9 10 -5 0 -18 3 -28 7
-16 6 -16 5 -4 -10z"/>
<path d="M1149 1439 c-16 -30 3 -45 25 -20 10 11 15 25 11 30 -10 17 -23 13
-36 -10z"/>
<path d="M640 1420 c12 -23 50 -27 50 -6 0 7 -10 16 -22 20 -36 9 -39 7 -28
-14z"/>
<path d="M1766 1294 c-4 -14 -5 -29 -2 -31 3 -3 8 7 12 21 3 15 4 29 1 32 -2
3 -8 -7 -11 -22z"/>
<path d="M606 1307 c11 -29 104 -82 104 -59 0 18 -73 72 -99 72 -6 0 -8 -6 -5
-13z"/>
<path d="M1917 1301 c-61 -35 -77 -51 -54 -51 24 0 68 24 91 49 29 32 16 33
-37 2z"/>
<path d="M1655 1290 c-10 -11 -14 -20 -8 -20 5 0 18 9 28 20 10 11 14 20 8 20
-5 0 -18 -9 -28 -20z"/>
<path d="M1066 1241 c-4 -5 3 -15 15 -21 18 -10 20 -9 17 6 -4 20 -23 30 -32
15z"/>
<path d="M1762 908 c-14 -14 -16 -38 -4 -38 5 0 14 11 20 25 12 26 4 33 -16
13z"/>
<path d="M1813 895 c7 -13 14 -20 15 -14 5 14 -6 39 -17 39 -5 0 -4 -11 2 -25z"/>
</g>
</svg>
