<?xml version="1.0" standalone="no"?>
<!DOCTYPE svg PUBLIC "-//W3C//DTD SVG 20010904//EN"
 "http://www.w3.org/TR/2001/REC-SVG-20010904/DTD/svg10.dtd">
<svg version="1.0" xmlns="http://www.w3.org/2000/svg"
 width="256.000000pt" height="256.000000pt" viewBox="0 0 256.000000 256.000000"
 preserveAspectRatio="xMidYMid meet">
<metadata>
Created by potrace 1.16, written by Peter Selinger 2001-2019
</metadata>
<g transform="translate(0.000000,256.000000) scale(0.100000,-0.100000)"
fill="#000000" stroke="none">
<path d="M0 1280 l0 -1000 1280 0 1280 0 0 1000 0 1000 -1280 0 -1280 0 0
-1000z m1520 415 c76 -25 230 -116 230 -135 0 -4 -7 -11 -16 -14 -8 -3 -13 -2
-10 3 3 5 -2 15 -12 22 -15 12 -16 12 -5 -2 10 -13 4 -24 -41 -68 -43 -43 -54
-49 -60 -36 -3 9 -4 21 0 26 3 5 0 9 -7 9 -6 0 -9 -8 -6 -20 3 -13 0 -20 -9
-20 -8 0 -14 -4 -14 -10 0 -5 8 -10 17 -10 15 0 15 -3 -4 -21 -17 -17 -24 -19
-42 -10 -11 7 -21 9 -21 7 0 -3 9 -10 21 -17 17 -9 25 -7 45 12 13 12 21 27
17 33 -3 6 -2 8 2 3 5 -4 33 16 62 45 29 29 53 48 53 42 0 -5 -35 -45 -79 -88
l-78 -78 -54 36 c-249 164 -588 3 -641 -303 -49 -289 208 -559 488 -513 160
26 294 143 330 286 l6 26 -196 0 -196 0 0 125 0 125 329 0 330 0 7 -47 c4 -25
4 -87 1 -137 -35 -558 -639 -832 -1103 -501 -122 87 -228 253 -260 406 -20 95
-19 256 1 334 104 395 525 620 915 490z"/>
<path d="M1170 1704 c-94 -19 -223 -71 -213 -87 3 -6 1 -7 -5 -3 -10 6 -92
-40 -92 -51 0 -2 5 -1 12 3 7 4 8 3 4 -5 -4 -6 -12 -9 -17 -6 -19 12 -187
-180 -177 -203 2 -4 44 -46 93 -94 l91 -87 32 63 c77 150 229 246 386 246 63
0 144 -18 186 -40 34 -18 80 -22 80 -7 0 8 4 7 10 -3 7 -11 8 -5 5 19 -3 23 1
38 11 46 18 13 9 45 -13 45 -8 0 -23 -5 -34 -10 -12 -7 -19 -7 -19 -1 0 5 -8
9 -17 9 -28 -1 -47 6 -63 23 -8 9 -31 21 -51 28 -20 6 -47 24 -60 38 -13 15
-17 23 -9 17 8 -6 28 -9 43 -7 16 2 35 -1 43 -8 11 -9 14 -8 14 2 0 10 3 10 8
3 9 -15 45 -2 48 18 1 11 -4 14 -19 10 -14 -3 -18 -1 -13 6 4 7 17 12 29 13
21 0 21 1 -3 11 -27 11 -249 20 -290 12z m80 -13 c0 -5 8 -8 17 -7 11 1 19
-10 24 -33 4 -18 13 -37 21 -42 10 -7 10 -9 0 -9 -7 0 -15 7 -18 15 -4 8 -10
15 -16 15 -5 0 -7 -4 -4 -9 3 -5 -1 -12 -10 -15 -11 -4 -15 -2 -11 8 4 9 0 13
-11 11 -9 -1 -20 5 -24 14 -6 14 -7 13 -7 -2 -1 -24 -22 -17 -32 11 -6 16 -5
20 6 16 8 -3 20 4 27 15 13 21 38 29 38 12z m120 5 c0 -11 -19 -15 -25 -6 -3
5 1 10 9 10 9 0 16 -2 16 -4z m-193 -12 c-3 -3 -12 -4 -19 -1 -8 3 -5 6 6 6
11 1 17 -2 13 -5z m247 -1 c-5 -5 -11 -12 -15 -16 -3 -4 -12 -1 -19 8 -11 13
-9 15 15 15 16 0 24 -3 19 -7z m-254 -73 c0 -5 -2 -10 -4 -10 -3 0 -8 5 -11
10 -3 6 -1 10 4 10 6 0 11 -4 11 -10z m-56 -46 c3 -7 -2 -10 -15 -7 -22 6 -26
20 -4 20 8 0 16 -6 19 -13z m-44 -25 c0 -5 -6 -6 -13 -3 -8 3 -14 11 -14 19 0
11 4 12 14 4 7 -6 13 -15 13 -20z m35 -19 c-3 -5 -12 -10 -18 -10 -7 0 -6 4 3
10 19 12 23 12 15 0z m25 -35 c20 -25 4 -29 -21 -6 -18 16 -19 21 -7 21 9 0
21 -7 28 -15z m70 5 c0 -5 -5 -10 -11 -10 -5 0 -7 5 -4 10 3 6 8 10 11 10 2 0
4 -4 4 -10z m185 0 c3 -5 -1 -10 -10 -10 -9 0 -13 5 -10 10 3 6 8 10 10 10 2
0 7 -4 10 -10z m-360 -28 c-3 -3 -11 0 -18 7 -9 10 -8 11 6 5 10 -3 15 -9 12
-12z m18 -33 c-8 -8 -13 -7 -18 2 -5 8 -4 10 3 5 7 -4 12 -2 12 5 0 7 3 9 7 6
4 -4 2 -12 -4 -18z"/>
<path d="M1537 1658 c30 -12 50 -25 46 -31 -3 -6 -1 -7 6 -3 6 4 33 -4 59 -19
26 -14 38 -19 27 -9 -25 21 -159 84 -177 83 -7 0 11 -10 39 -21z"/>
<path d="M1375 1610 c-3 -5 -1 -10 4 -10 6 0 11 5 11 10 0 6 -2 10 -4 10 -3 0
-8 -4 -11 -10z"/>
<path d="M1605 1529 c-4 -6 -5 -12 -2 -15 2 -3 7 2 10 11 7 17 1 20 -8 4z"/>
<path d="M772 800 c-50 -38 -93 -73 -95 -78 -3 -4 4 -19 14 -32 18 -22 19 -22
10 -3 -6 12 -11 24 -11 26 0 3 41 38 90 78 50 40 90 74 90 76 0 8 -14 -2 -98
-67z"/>
<path d="M1896 825 c-5 -14 -9 -15 -20 -6 -8 7 -16 8 -18 2 -1 -5 -12 -11 -23
-13 -11 -1 -22 -5 -25 -8 -15 -16 -60 -28 -66 -19 -3 6 -20 9 -36 7 -21 -4
-27 -1 -24 9 10 24 -1 13 -29 -29 -25 -39 -128 -148 -140 -148 -3 0 -10 0 -16
0 -5 0 -7 -4 -4 -10 3 -5 0 -7 -8 -4 -8 3 -21 -1 -28 -8 -8 -7 -20 -13 -26
-14 -7 -1 -23 -2 -35 -3 -19 -1 -20 -3 -8 -11 11 -7 7 -8 -15 -4 -17 3 -54 1
-83 -4 -29 -5 -55 -6 -58 -1 -3 5 -10 9 -15 9 -6 0 -7 -4 -4 -10 9 -15 -5 -12
-22 5 -9 10 -23 13 -35 9 -14 -4 -18 -2 -14 5 4 6 2 11 -3 11 -6 0 -11 -4 -11
-9 0 -13 -41 0 -47 15 -2 7 -13 11 -24 9 -10 -2 -18 1 -16 8 1 6 -9 13 -23 15
-14 2 -30 10 -37 19 -18 23 -143 6 -143 -20 0 -5 -8 -3 -17 5 -10 8 -27 14
-38 13 -11 0 -32 3 -47 7 -26 6 -27 5 -16 -15 26 -50 174 -183 243 -219 120
-62 204 -83 335 -82 129 0 191 14 299 69 82 41 134 82 189 148 75 92 148 255
124 279 -6 6 -12 3 -16 -7z"/>
</g>
</svg>
