<?xml version="1.0" standalone="no"?>
<!DOCTYPE svg PUBLIC "-//W3C//DTD SVG 20010904//EN"
 "http://www.w3.org/TR/2001/REC-SVG-20010904/DTD/svg10.dtd">
<svg version="1.0" xmlns="http://www.w3.org/2000/svg"
 width="256.000000pt" height="256.000000pt" viewBox="0 0 256.000000 256.000000"
 preserveAspectRatio="xMidYMid meet">
<metadata>
Created by potrace 1.16, written by Peter Selinger 2001-2019
</metadata>
<g transform="translate(0.000000,256.000000) scale(0.100000,-0.100000)"
fill="#000000" stroke="none">
<path d="M0 1280 l0 -1000 1280 0 1280 0 0 1000 0 1000 -1280 0 -1280 0 0
-1000z m1240 110 l0 -320 -315 0 -315 0 0 320 0 320 315 0 315 0 0 -320z m708
0 l4 -320 -316 0 -316 0 0 320 0 320 313 0 312 0 3 -320z m-708 -719 c0 -171
-3 -311 -7 -313 -5 -2 -91 -1 -193 2 l-185 6 178 2 177 2 0 88 c0 48 -3 131
-7 185 -5 85 -8 97 -25 97 -10 0 -18 5 -18 11 0 5 -4 7 -10 4 -5 -3 -10 -1
-10 4 0 6 -7 11 -15 11 -8 0 -15 3 -15 8 0 4 -24 18 -52 31 -61 28 -104 63
-150 123 -10 13 -39 18 -140 23 l-128 7 -1 -263 c-1 -145 -5 -275 -9 -289 -4
-14 -8 108 -9 273 l-1 297 310 0 310 0 0 -309z m708 -3 l-3 -313 -312 -3 -313
-2 0 315 0 315 315 0 316 0 -3 -312z"/>
<path d="M642 1173 l-2 -83 83 1 c71 0 78 2 52 11 -16 6 -33 16 -37 22 -4 6
-11 11 -15 12 -4 0 -20 6 -34 13 -20 10 -25 18 -21 34 3 13 1 18 -6 13 -7 -4
-12 6 -15 26 -2 18 -5 -4 -5 -49z"/>
<path d="M1351 1593 c0 -52 4 -80 8 -68 7 18 8 18 18 2 5 -10 20 -19 33 -20
30 -2 155 -125 174 -171 8 -19 27 -45 41 -58 15 -13 35 -39 45 -58 20 -39 75
-100 90 -100 14 0 12 -17 -2 -23 -7 -3 26 -6 73 -6 l85 -1 3 295 3 295 -286 0
-286 0 1 -87z"/>
<path d="M1905 657 c-6 -15 -15 -18 -36 -13 -17 3 -29 1 -29 -5 0 -6 5 -7 12
-3 7 4 8 3 4 -4 -4 -7 -18 -12 -30 -12 -13 0 -30 -9 -37 -20 -8 -11 -25 -23
-38 -25 -14 -2 -28 -10 -33 -17 -4 -7 -8 -8 -8 -3 0 6 -4 4 -9 -4 -5 -7 -25
-15 -46 -18 -20 -2 -44 -10 -52 -18 -8 -8 -23 -15 -34 -15 -11 0 -30 -5 -42
-12 -12 -7 -28 -13 -36 -14 -8 -2 -17 -7 -20 -13 -3 -5 -20 -12 -36 -16 -51
-12 -84 -29 -88 -46 -6 -23 42 -28 336 -29 l247 -1 -1 133 c0 136 -9 192 -24
155z"/>
</g>
</svg>
