<?xml version="1.0" standalone="no"?>
<!DOCTYPE svg PUBLIC "-//W3C//DTD SVG 20010904//EN"
 "http://www.w3.org/TR/2001/REC-SVG-20010904/DTD/svg10.dtd">
<svg version="1.0" xmlns="http://www.w3.org/2000/svg"
 width="256.000000pt" height="256.000000pt" viewBox="0 0 256.000000 256.000000"
 preserveAspectRatio="xMidYMid meet">
<metadata>
Created by potrace 1.16, written by Peter Selinger 2001-2019
</metadata>
<g transform="translate(0.000000,256.000000) scale(0.100000,-0.100000)"
fill="#000000" stroke="none">
<path d="M0 1280 l0 -1000 1280 0 1280 0 0 1000 0 1000 -1280 0 -1280 0 0
-1000z m1411 480 c100 -33 162 -81 206 -158 33 -60 37 -75 37 -139 1 -80 -14
-109 -75 -151 l-34 -23 -8 33 c-26 100 -63 132 -151 126 -28 -1 -52 0 -54 5
-1 4 1 7 4 6 13 -2 22 25 14 40 -5 9 -14 30 -20 48 -26 69 -94 99 -189 84 -29
-5 -60 -15 -68 -24 -15 -15 -15 -19 1 -55 19 -41 15 -82 -7 -82 -7 0 -21 7
-31 15 -28 21 -122 19 -171 -4 -44 -20 -95 -73 -95 -99 -1 -32 -20 -163 -25
-172 -3 -5 -18 -2 -34 6 -42 21 -77 9 -110 -40 -39 -56 -81 -95 -81 -74 0 46
54 218 91 288 153 295 517 464 800 370z m330 -135 c35 -19 29 -40 -10 -30 -38
10 -56 26 -39 36 17 11 14 11 49 -6z m42 -99 c10 -8 14 -17 8 -20 -8 -5 -41
18 -41 30 0 8 15 3 33 -10z m105 -59 c2 -10 -3 -17 -12 -17 -18 0 -29 16 -21
31 9 14 29 6 33 -14z m-578 -23 c0 -10 -16 -32 -35 -51 -60 -58 -70 -86 -70
-198 0 -90 3 -106 28 -158 42 -84 126 -171 201 -206 193 -92 394 -51 560 115
55 55 56 56 56 28 0 -16 -7 -51 -16 -79 -9 -27 -18 -55 -20 -62 -2 -7 -19 -15
-39 -19 -19 -3 -38 -10 -41 -15 -7 -12 18 -11 51 1 24 9 26 8 19 -12 -3 -13
-18 -45 -31 -71 -33 -65 -69 -80 -193 -81 -109 0 -144 13 -258 95 -63 46 -125
70 -140 54 -13 -13 141 -147 203 -177 33 -15 53 -28 45 -28 -22 0 -113 44
-163 79 -23 16 -71 58 -106 94 -35 35 -71 63 -80 62 -9 -1 -10 0 -3 2 18 6 15
15 -16 52 -25 30 -31 32 -50 22 -12 -7 -22 -8 -22 -2 0 5 -3 16 -6 25 -4 11
-1 16 10 16 9 0 16 7 16 15 0 18 -12 19 -28 3 -9 -9 -12 -9 -12 0 0 7 6 15 14
18 10 4 8 18 -10 70 -42 116 -29 271 28 339 62 75 108 104 108 69z m530 6 c0
-5 -7 -10 -15 -10 -8 0 -15 5 -15 10 0 6 7 10 15 10 8 0 15 -4 15 -10z m90
-30 c0 -5 -2 -10 -4 -10 -3 0 -8 5 -11 10 -3 6 -1 10 4 10 6 0 11 -4 11 -10z
m-818 -5 c3 -3 -4 -24 -16 -48 -11 -24 -22 -68 -24 -104 -5 -73 -17 -82 -25
-19 -8 56 1 110 22 133 10 10 16 24 13 31 -4 12 19 17 30 7z m778 -4 c0 -14
-18 -23 -30 -16 -6 4 -8 11 -5 16 8 12 35 12 35 0z m-74 -12 c10 -17 -13 -36
-27 -22 -12 12 -4 33 11 33 5 0 12 -5 16 -11z m118 -15 c25 -9 19 -24 -9 -24
-24 0 -32 10 -18 23 8 8 8 8 27 1z m-73 -27 c-1 -12 -15 -9 -19 4 -3 6 1 10 8
8 6 -3 11 -8 11 -12z m-41 -26 c0 -14 -18 -23 -30 -16 -6 4 -8 11 -5 16 8 12
35 12 35 0z m-70 -11 c0 -5 -7 -10 -15 -10 -8 0 -15 5 -15 10 0 6 7 10 15 10
8 0 15 -4 15 -10z m140 -5 c0 -8 -7 -15 -15 -15 -16 0 -20 12 -8 23 11 12 23
8 23 -8z m85 -5 c3 -5 1 -10 -4 -10 -6 0 -11 5 -11 10 0 6 2 10 4 10 3 0 8 -4
11 -10z m-1124 -51 c-5 -13 -10 -19 -10 -12 -1 15 10 45 15 40 3 -2 0 -15 -5
-28z m989 16 c0 -8 -7 -15 -15 -15 -16 0 -20 12 -8 23 11 12 23 8 23 -8z m100
5 c0 -5 -7 -10 -16 -10 -8 0 -12 5 -9 10 3 6 10 10 16 10 5 0 9 -4 9 -10z
m-570 -25 c0 -8 -7 -15 -15 -15 -8 0 -15 7 -15 15 0 8 7 15 15 15 8 0 15 -7
15 -15z m635 5 c3 -5 -1 -10 -9 -10 -9 0 -16 5 -16 10 0 6 4 10 9 10 6 0 13
-4 16 -10z m-495 -10 c0 -5 -4 -10 -10 -10 -5 0 -10 5 -10 10 0 6 5 10 10 10
6 0 10 -4 10 -10z m-85 -20 c3 -6 -1 -13 -10 -16 -19 -8 -30 0 -20 15 8 14 22
14 30 1z m545 0 c0 -5 -7 -10 -15 -10 -8 0 -15 5 -15 10 0 6 7 10 15 10 8 0
15 -4 15 -10z m-969 -23 c18 -12 44 -38 56 -56 21 -31 22 -36 7 -52 -14 -16
-19 -16 -52 -2 -21 9 -48 12 -66 9 -36 -7 -96 -62 -96 -87 0 -31 -18 -30 -29
1 -5 17 -15 30 -20 30 -6 0 -11 -2 -11 -4 0 -12 29 -55 58 -86 17 -19 32 -39
32 -44 0 -5 -12 5 -26 22 -15 18 -31 32 -37 32 -5 0 -20 12 -33 27 -13 15 -26
25 -28 22 -7 -7 17 -59 27 -59 4 0 2 -6 -5 -13 -10 -11 -16 -7 -31 22 -24 45
-23 44 -36 36 -7 -4 -4 -14 9 -27 28 -31 12 -45 -17 -15 -14 14 -23 30 -19 35
12 19 150 94 154 83 6 -17 24 -13 49 11 56 52 -1 46 -105 -11 -116 -65 -191
-111 -219 -135 l-26 -23 21 -21 c17 -17 18 -22 7 -22 -16 0 -28 23 -39 76 -7
29 -4 32 81 82 49 29 116 77 150 107 34 31 77 62 95 70 50 22 110 19 149 -8z
m917 1 c-6 -18 -28 -21 -28 -4 0 9 7 16 16 16 9 0 14 -5 12 -12z m-568 -13 c0
-8 -6 -15 -14 -15 -17 0 -28 14 -19 24 12 12 33 6 33 -9z m438 -35 c47 -33 73
-37 92 -15 14 17 40 20 40 4 0 -6 -8 -24 -17 -41 -18 -29 -18 -29 7 -48 38
-28 17 -35 -33 -11 l-45 22 -48 -31 c-69 -43 -114 -41 -193 10 -34 22 -61 46
-59 53 6 17 94 75 132 86 42 13 73 6 124 -29z m232 30 c0 -5 -4 -10 -9 -10 -6
0 -13 5 -16 10 -3 6 1 10 9 10 9 0 16 -4 16 -10z m-556 -32 c8 -5 7 -11 -1
-19 -10 -10 -14 -7 -22 12 -5 13 -6 28 -3 34 3 5 8 2 10 -5 3 -8 10 -18 16
-22z m-66 11 c-2 -6 -8 -10 -13 -10 -5 0 -11 4 -13 10 -2 6 4 11 13 11 9 0 15
-5 13 -11z m-68 -30 c0 -5 -7 -9 -15 -9 -15 0 -20 12 -9 23 8 8 24 -1 24 -14z
m670 7 c0 -3 -4 -8 -10 -11 -5 -3 -10 -1 -10 4 0 6 5 11 10 11 6 0 10 -2 10
-4z m-572 -34 c3 -9 -2 -13 -14 -10 -9 1 -19 9 -22 16 -3 9 2 13 14 10 9 -1
19 -9 22 -16z m-118 -22 c0 -5 -2 -10 -4 -10 -3 0 -8 5 -11 10 -3 6 -1 10 4
10 6 0 11 -4 11 -10z m144 -18 c3 -5 -1 -9 -9 -9 -8 0 -12 4 -9 9 3 4 7 8 9 8
2 0 6 -4 9 -8z m-471 -42 c-3 -11 -9 -17 -14 -15 -10 7 -1 35 11 35 5 0 6 -9
3 -20z m177 -15 c0 -2 -7 -5 -15 -9 -9 -3 -15 0 -15 9 0 9 6 12 15 9 8 -4 15
-7 15 -9z m-50 -5 c0 -5 -5 -10 -11 -10 -5 0 -7 5 -4 10 3 6 8 10 11 10 2 0 4
-4 4 -10z m-190 -10 c0 -5 -4 -10 -10 -10 -5 0 -10 5 -10 10 0 6 5 10 10 10 6
0 10 -4 10 -10z m160 0 c0 -5 -5 -10 -11 -10 -5 0 -7 5 -4 10 3 6 8 10 11 10
2 0 4 -4 4 -10z m-200 -10 c0 -5 -4 -10 -10 -10 -5 0 -10 5 -10 10 0 6 5 10
10 10 6 0 10 -4 10 -10z m120 6 c0 -3 -4 -8 -10 -11 -5 -3 -10 -1 -10 4 0 6 5
11 10 11 6 0 10 -2 10 -4z m180 -6 c0 -5 -4 -10 -10 -10 -5 0 -10 5 -10 10 0
6 5 10 10 10 6 0 10 -4 10 -10z m-140 -10 c0 -5 -5 -10 -11 -10 -5 0 -7 5 -4
10 3 6 8 10 11 10 2 0 4 -4 4 -10z m113 -50 c-7 -8 -23 24 -22 45 0 15 3 13
13 -10 7 -16 11 -32 9 -35z m457 53 c0 -14 -19 -38 -25 -32 -8 8 5 39 16 39 5
0 9 -3 9 -7z m-976 -16 c-2 -7 5 -23 17 -36 11 -12 18 -25 15 -29 -4 -3 -19 7
-35 23 -20 22 -25 33 -17 42 14 16 27 16 20 0z m296 3 c0 -5 -4 -10 -10 -10
-5 0 -10 5 -10 10 0 6 5 10 10 10 6 0 10 -4 10 -10z m150 0 c0 -5 -5 -10 -11
-10 -5 0 -7 5 -4 10 3 6 8 10 11 10 2 0 4 -4 4 -10z m-396 -16 c23 -22 20 -37
-4 -24 -11 6 -20 17 -20 25 0 19 5 19 24 -1z m214 -5 c19 -30 8 -34 -12 -4 -9
14 -13 25 -9 25 5 0 14 -9 21 -21z m222 1 c0 -5 -5 -10 -11 -10 -5 0 -7 5 -4
10 3 6 8 10 11 10 2 0 4 -4 4 -10z m-300 -10 c0 -5 -4 -10 -10 -10 -5 0 -10 5
-10 10 0 6 5 10 10 10 6 0 10 -4 10 -10z m120 0 c0 -5 -5 -10 -11 -10 -5 0 -7
5 -4 10 3 6 8 10 11 10 2 0 4 -4 4 -10z m80 0 c0 -5 -4 -10 -10 -10 -5 0 -10
5 -10 10 0 6 5 10 10 10 6 0 10 -4 10 -10z m70 0 c0 -5 -5 -10 -11 -10 -5 0
-7 5 -4 10 3 6 8 10 11 10 2 0 4 -4 4 -10z m-462 -47 c21 -21 -3 -15 -32 8
-14 11 -24 25 -20 30 3 5 13 2 22 -8 9 -9 23 -23 30 -30z m359 15 c2 -18 0
-20 -7 -8 -12 18 -13 30 -2 30 4 0 9 -10 9 -22z m73 12 c0 -5 -2 -10 -4 -10
-3 0 -8 5 -11 10 -3 6 -1 10 4 10 6 0 11 -4 11 -10z m70 0 c0 -5 -2 -10 -4
-10 -3 0 -8 5 -11 10 -3 6 -1 10 4 10 6 0 11 -4 11 -10z m-397 -15 c4 -8 2
-17 -2 -20 -5 -2 -11 4 -14 15 -6 23 8 27 16 5z m72 5 c3 -5 -1 -10 -9 -10 -9
0 -16 5 -16 10 0 6 4 10 9 10 6 0 13 -4 16 -10z m225 6 c0 -3 -4 -8 -10 -11
-5 -3 -10 -1 -10 4 0 6 5 11 10 11 6 0 10 -2 10 -4z m65 -6 c3 -5 1 -10 -4
-10 -6 0 -11 5 -11 10 0 6 2 10 4 10 3 0 8 -4 11 -10z m75 -10 c0 -5 -2 -10
-4 -10 -3 0 -8 5 -11 10 -3 6 -1 10 4 10 6 0 11 -4 11 -10z m-100 -4 c0 -3 -4
-8 -10 -11 -5 -3 -10 -1 -10 4 0 6 5 11 10 11 6 0 10 -2 10 -4z m70 -6 c0 -5
-2 -10 -4 -10 -3 0 -8 5 -11 10 -3 6 -1 10 4 10 6 0 11 -4 11 -10z m-105 -10
c3 -5 1 -10 -4 -10 -6 0 -11 5 -11 10 0 6 2 10 4 10 3 0 8 -4 11 -10z m75 0
c0 -5 -2 -10 -4 -10 -3 0 -8 5 -11 10 -3 6 -1 10 4 10 6 0 11 -4 11 -10z m130
-4 c0 -3 -4 -8 -10 -11 -5 -3 -10 -1 -10 4 0 6 5 11 10 11 6 0 10 -2 10 -4z
m-630 -16 c0 -5 -4 -10 -10 -10 -5 0 -10 5 -10 10 0 6 5 10 10 10 6 0 10 -4
10 -10z m364 -36 c30 -10 71 -38 110 -73 135 -125 172 -153 240 -185 84 -40
192 -66 274 -66 77 0 201 32 271 70 l56 31 -43 -40 c-68 -63 -149 -86 -302
-86 -95 0 -138 4 -180 19 -88 29 -180 89 -281 181 -118 107 -161 129 -254 129
-80 1 -131 -19 -208 -77 -53 -41 -57 -43 -57 -23 0 27 112 106 180 127 44 13
145 9 194 -7z m175 -39 c0 -5 -6 -1 -14 9 -8 11 -15 24 -15 30 0 5 7 1 15 -10
8 -10 14 -23 14 -29z m64 -25 c3 -11 1 -20 -4 -20 -5 0 -9 9 -9 20 0 11 2 20
4 20 2 0 6 -9 9 -20z m182 -90 c3 -5 1 -10 -4 -10 -6 0 -11 5 -11 10 0 6 2 10
4 10 3 0 8 -4 11 -10z m-426 -42 c-1 -18 -5 -44 -9 -58 -7 -21 -8 -18 -10 20
-1 38 -3 42 -10 22 -8 -18 -13 -21 -28 -13 -11 6 -24 6 -35 0 -9 -6 -17 -8
-17 -5 0 6 92 66 102 66 4 0 8 -15 7 -32z m-149 -49 c-10 -4 -18 1 -23 15 -4
11 -16 30 -25 41 -9 11 1 4 23 -15 31 -27 37 -36 25 -41z m237 46 c55 -33 56
-42 2 -14 -46 23 -58 17 -59 -31 0 -14 -5 -32 -10 -40 -7 -11 -10 3 -10 48 0
73 8 77 77 37z m418 -5 c-3 -5 -10 -10 -16 -10 -5 0 -9 5 -9 10 0 6 7 10 16
10 8 0 12 -4 9 -10z m-335 -52 c0 -6 -6 -5 -15 2 -8 7 -15 14 -15 16 0 2 7 1
15 -2 8 -4 15 -11 15 -16z m560 -168 c-8 -6 -24 -16 -35 -22 -20 -11 -20 -11
-1 11 11 11 26 21 35 21 14 0 14 -2 1 -10z"/>
<path d="M1201 921 c-9 -6 -10 -11 -2 -15 13 -8 31 1 31 15 0 11 -11 11 -29 0z"/>
<path d="M1815 764 c-27 -7 -83 -16 -122 -20 -40 -4 -73 -10 -73 -13 1 -14 93
-77 123 -84 41 -9 134 1 168 19 30 15 63 60 54 74 -3 5 -1 11 5 15 42 26 -71
33 -155 9z m111 -33 c0 -14 -4 -17 -12 -10 -6 5 -24 7 -40 5 -75 -12 -118 -15
-99 -6 11 5 39 9 62 9 23 1 45 6 48 11 11 18 41 11 41 -9z m-26 -36 c0 -8 -2
-15 -4 -15 -2 0 -6 7 -10 15 -3 8 -1 15 4 15 6 0 10 -7 10 -15z"/>
<path d="M1750 1040 c-9 -6 -10 -10 -3 -10 6 0 15 5 18 10 8 12 4 12 -15 0z"/>
<path d="M1698 1023 c6 -2 18 -2 25 0 6 3 1 5 -13 5 -14 0 -19 -2 -12 -5z"/>
</g>
</svg>
