<?xml version="1.0" standalone="no"?>
<!DOCTYPE svg PUBLIC "-//W3C//DTD SVG 20010904//EN"
 "http://www.w3.org/TR/2001/REC-SVG-20010904/DTD/svg10.dtd">
<svg version="1.0" xmlns="http://www.w3.org/2000/svg"
 width="256.000000pt" height="256.000000pt" viewBox="0 0 256.000000 256.000000"
 preserveAspectRatio="xMidYMid meet">
<metadata>
Created by potrace 1.16, written by Peter Selinger 2001-2019
</metadata>
<g transform="translate(0.000000,256.000000) scale(0.100000,-0.100000)"
fill="#000000" stroke="none">
<path d="M0 1280 l0 -1000 1280 0 1280 0 0 1000 0 1000 -1280 0 -1280 0 0
-1000z m1473 285 c48 0 87 -3 87 -6 0 -3 -12 -16 -26 -30 -14 -13 -80 -90
-147 -171 -72 -90 -127 -148 -138 -148 -10 0 -55 45 -107 108 -49 59 -114 137
-145 173 -32 36 -57 68 -57 70 0 2 38 3 85 1 l85 -3 0 135 c0 76 4 136 9 136
5 0 11 -6 14 -12 3 -10 35 -13 115 -13 103 0 113 2 120 20 4 11 9 -42 12 -120
l5 -140 88 0z m-423 -234 c21 -40 16 -41 -162 -34 -168 5 -174 5 -200 -16 -43
-35 -37 -91 13 -116 23 -13 112 -15 554 -15 448 0 532 -2 559 -15 55 -26 80
-91 69 -182 -7 -64 -33 -75 -33 -15 -1 63 -17 125 -37 139 -16 13 -21 11 -44
-17 -33 -39 -109 -87 -148 -93 -16 -3 -35 -8 -41 -12 -6 -4 -47 -13 -92 -20
-78 -12 -132 -7 -148 15 -10 14 -113 80 -124 80 -6 0 -23 -6 -37 -14 -58 -30
-205 -42 -256 -21 -18 8 -33 12 -33 10 0 -3 -11 0 -25 5 -14 5 -38 12 -53 15
-15 2 -28 9 -30 15 -2 5 -9 10 -16 10 -7 0 -34 16 -60 36 -25 21 -50 34 -54
30 -4 -4 -10 -95 -13 -203 -4 -123 -11 -199 -18 -206 -16 -16 -16 532 1 567
13 30 50 57 93 67 16 4 96 7 177 8 136 1 148 0 158 -18z m661 9 c21 -6 44 -21
53 -35 18 -27 22 -95 6 -95 -5 0 -10 7 -10 15 0 9 -11 27 -25 40 -23 24 -29
25 -165 25 -77 0 -140 3 -140 8 0 4 7 18 16 30 14 20 23 22 122 22 59 0 123
-5 143 -10z m-469 -371 c3 -28 8 -33 46 -44 54 -16 72 -31 72 -60 0 -41 -24
-50 -81 -31 -83 26 -129 16 -129 -29 0 -25 31 -41 129 -65 65 -17 101 -57 101
-113 0 -30 -7 -53 -21 -71 -24 -30 -69 -56 -96 -55 -11 0 -6 5 12 11 42 15 76
49 73 73 -4 24 -31 22 -60 -5 -29 -27 -76 -32 -142 -15 -44 12 -62 13 -72 4
-18 -15 -2 -36 41 -55 16 -7 24 -13 17 -14 -17 0 -80 29 -87 40 -5 8 22 80 30
80 2 0 25 -11 51 -25 58 -31 116 -33 144 -5 11 11 20 24 20 30 0 16 -41 36
-116 59 -56 16 -79 29 -104 58 -28 31 -31 42 -27 76 6 47 38 83 95 108 32 14
42 24 42 42 0 30 7 37 36 37 18 0 23 -6 26 -31z m692 -125 c12 -12 16 -38 16
-115 0 -145 8 -139 -166 -139 -164 0 -195 9 -213 61 -18 53 -13 112 12 150 35
52 57 59 204 59 106 0 135 -3 147 -16z"/>
<path d="M1130 1386 c0 -13 109 -156 118 -156 9 0 96 120 90 125 -1 2 -45 5
-97 8 -63 3 -96 9 -102 19 -5 7 -9 9 -9 4z"/>
<path d="M1637 762 c-25 -27 -22 -78 5 -96 46 -33 108 -4 108 49 0 55 -77 87
-113 47z m66 -37 c-4 -15 -36 -12 -41 3 -3 9 3 13 19 10 13 -1 23 -7 22 -13z"/>
<path d="M1847 699 c-15 -4 -27 -5 -27 -3 0 2 -25 -10 -55 -26 -31 -17 -69
-30 -85 -30 -33 0 -49 -18 -29 -31 16 -10 229 -12 253 -3 16 6 21 41 10 81 -6
22 -20 25 -67 12z"/>
</g>
</svg>
