<?xml version="1.0" standalone="no"?>
<!DOCTYPE svg PUBLIC "-//W3C//DTD SVG 20010904//EN"
 "http://www.w3.org/TR/2001/REC-SVG-20010904/DTD/svg10.dtd">
<svg version="1.0" xmlns="http://www.w3.org/2000/svg"
 width="256.000000pt" height="256.000000pt" viewBox="0 0 256.000000 256.000000"
 preserveAspectRatio="xMidYMid meet">
<metadata>
Created by potrace 1.16, written by Peter Selinger 2001-2019
</metadata>
<g transform="translate(0.000000,256.000000) scale(0.100000,-0.100000)"
fill="#000000" stroke="none">
<path d="M0 1280 l0 -999 1280 0 1280 0 0 999 0 1000 -1280 0 -1280 0 0 -1000z
m1369 500 c265 -34 485 -198 594 -446 81 -185 78 -444 -8 -632 -53 -117 -176
-255 -274 -310 -58 -33 -51 -22 17 26 71 50 139 122 192 203 73 113 42 140
-34 29 -66 -96 -78 -100 -16 -5 129 199 146 462 42 680 -88 184 -239 305 -445
357 -119 30 -270 22 -385 -20 -200 -74 -346 -223 -408 -416 -38 -116 -44 -271
-16 -383 24 -96 61 -177 108 -239 19 -24 34 -47 34 -49 0 -12 -59 64 -91 115
-18 30 -37 57 -41 58 -5 2 -6 8 -2 13 3 5 0 9 -5 9 -23 0 -10 -67 22 -121 48
-79 51 -87 23 -54 -33 39 -90 154 -111 227 -25 86 -34 209 -23 301 44 373 336
642 723 666 11 0 58 -4 104 -9z m4 -240 c53 -20 113 -72 137 -120 16 -31 19
-165 4 -180 -8 -8 -13 -1 -19 26 -17 93 -54 124 -116 100 -50 -20 -139 -21
-186 -1 -77 32 -118 9 -129 -75 -10 -75 -27 -47 -27 43 1 86 16 121 70 166 72
60 174 75 266 41z m-163 -231 c48 -8 84 -7 138 2 69 11 75 11 93 -7 11 -11 23
-40 27 -64 7 -39 11 -45 30 -42 44 6 48 -94 6 -129 -8 -7 -31 -45 -50 -86 -29
-61 -42 -77 -82 -100 -105 -62 -210 -24 -264 96 -16 35 -41 80 -54 101 -35 52
-31 104 8 108 24 3 28 9 34 50 8 55 20 82 37 82 7 0 41 -5 77 -11z m66 -509
c26 0 62 11 98 28 l56 29 0 -42 c0 -48 -8 -57 -90 -102 l-56 -31 -39 20 c-102
51 -132 85 -119 134 6 21 6 21 57 -7 33 -18 67 -29 93 -29z m-186 -50 c12 -24
43 -55 79 -81 63 -45 66 -50 75 -144 6 -64 3 -64 -14 2 -10 39 -13 42 -53 48
-90 13 -166 38 -198 66 -18 15 -35 27 -37 24 -2 -2 -16 0 -31 5 -37 10 -65
-12 -96 -75 -18 -37 -24 -44 -25 -27 0 34 24 84 56 114 21 19 166 89 221 107
2 1 12 -17 23 -39z m510 -4 c45 -19 92 -42 105 -50 27 -18 65 -93 64 -127 -1
-22 -2 -21 -15 8 -8 20 -24 35 -39 39 -35 9 -56 -1 -48 -23 3 -10 -3 -7 -16 9
-24 30 -75 44 -117 34 -31 -8 -74 -52 -74 -77 0 -10 -5 -21 -12 -25 -7 -5 -9
0 -6 14 5 18 3 20 -19 11 -13 -5 -37 -9 -53 -9 -26 0 -31 -5 -44 -47 -18 -59
-20 -41 -5 45 11 63 13 66 98 148 47 46 89 84 93 84 3 0 43 -16 88 -34z"/>
</g>
</svg>
