<?xml version="1.0" standalone="no"?>
<!DOCTYPE svg PUBLIC "-//W3C//DTD SVG 20010904//EN"
 "http://www.w3.org/TR/2001/REC-SVG-20010904/DTD/svg10.dtd">
<svg version="1.0" xmlns="http://www.w3.org/2000/svg"
 width="256.000000pt" height="256.000000pt" viewBox="0 0 256.000000 256.000000"
 preserveAspectRatio="xMidYMid meet">
<metadata>
Created by potrace 1.16, written by Peter Selinger 2001-2019
</metadata>
<g transform="translate(0.000000,256.000000) scale(0.100000,-0.100000)"
fill="#000000" stroke="none">
<path d="M0 1280 l0 -1000 558 0 c623 1 605 -1 647 70 17 31 19 50 17 150 -2
63 -5 123 -8 133 -5 16 -8 16 -36 -4 -23 -17 -32 -19 -38 -9 -10 17 -17 3 -25
-53 -10 -66 -18 -52 -10 17 7 50 10 55 36 61 l29 7 0 79 0 79 35 0 35 0 0
-220 0 -220 -41 -45 -42 -45 121 0 120 0 -29 31 c-16 17 -33 47 -39 67 -5 20
-10 128 -10 240 l0 203 38 -3 37 -4 5 -79 c3 -56 9 -80 18 -79 6 1 23 2 37 3
30 1 35 31 5 31 -18 0 -20 7 -20 65 l0 65 33 0 c22 0 44 -11 71 -33 l38 -33
-25 -50 c-19 -37 -23 -54 -15 -62 8 -8 0 -20 -26 -45 -20 -19 -36 -32 -36 -28
0 11 15 27 39 44 21 14 22 17 8 23 -9 3 -29 -3 -46 -15 -37 -26 -57 -27 -71
-1 -6 11 -19 20 -29 20 -24 0 -31 -36 -31 -162 0 -110 11 -143 57 -174 27 -18
57 -19 591 -22 l562 -3 0 1001 0 1000 -1280 0 -1280 0 0 -1000z m1163 535 c18
-8 43 -32 57 -52 25 -36 25 -41 28 -256 2 -121 0 -223 -5 -227 -4 -4 -23 -6
-40 -3 l-33 5 0 82 c0 84 -9 106 -41 106 -32 0 -39 77 -9 103 13 11 20 29 20
52 0 63 -57 95 -107 60 -20 -14 -23 -14 -33 5 -6 11 -24 27 -41 36 l-31 16 23
25 c52 57 149 78 212 48z m380 4 c12 -6 36 -25 54 -42 l32 -30 -42 -37 c-39
-35 -43 -36 -64 -23 -26 17 -63 11 -87 -13 -23 -22 -20 -77 4 -99 32 -29 25
-105 -10 -105 -28 0 -33 -15 -38 -104 -2 -45 -5 -82 -5 -83 -1 0 -17 -3 -36
-5 l-34 -3 2 225 c2 253 8 278 71 312 39 20 119 24 153 7z m-588 -143 c15 -10
35 -37 45 -61 10 -24 28 -49 39 -55 14 -7 21 -21 21 -40 0 -50 17 -80 45 -80
23 0 25 -3 25 -49 0 -27 3 -63 6 -80 6 -29 5 -31 -23 -31 -22 0 -43 14 -88 61
-33 33 -91 81 -130 107 -38 26 -71 50 -73 55 -7 14 -22 7 -22 -12 0 -11 22
-33 58 -56 31 -21 90 -71 130 -112 68 -69 72 -75 72 -118 0 -25 -2 -45 -4 -45
-2 0 -25 10 -52 21 -72 32 -133 80 -134 106 0 57 -101 108 -108 55 -4 -28 -8
-29 -106 -35 l-78 -4 4 48 c6 58 28 94 74 121 22 13 34 28 34 41 0 74 58 157
123 176 43 14 111 7 142 -13z m816 1 c50 -27 99 -106 99 -161 0 -25 7 -34 32
-46 45 -21 67 -57 75 -118 l6 -54 -49 7 c-27 3 -59 8 -71 11 -18 3 -23 0 -23
-15 0 -15 10 -23 43 -31 74 -19 97 -32 136 -76 107 -122 67 -319 -81 -395 -52
-27 -55 -9 -4 24 69 43 100 96 103 176 2 36 0 60 -3 53 -3 -6 -10 -10 -15 -6
-5 3 -9 -1 -9 -8 0 -16 -37 -41 -50 -33 -6 3 -7 0 -5 -7 7 -17 -53 -48 -93
-49 l-27 -1 25 -7 25 -8 -30 -7 c-16 -4 -47 -22 -69 -41 l-38 -35 53 -1 54 -2
-55 -7 c-53 -6 -56 -5 -85 26 -16 18 -52 51 -78 73 -39 33 -56 41 -88 41 -37
0 -39 2 -39 30 l0 30 125 0 c124 0 126 0 135 -24 19 -52 109 -64 150 -21 55
58 15 145 -66 145 -37 0 -47 -5 -66 -30 l-22 -30 -128 0 -128 0 0 25 c0 15 6
25 14 25 7 0 45 14 84 31 56 25 74 38 86 64 22 46 21 62 -4 40 -11 -10 -20
-24 -20 -31 0 -7 -24 -20 -52 -30 -29 -9 -65 -23 -80 -31 l-28 -14 0 43 c0 41
5 48 73 115 62 61 78 71 117 76 50 6 70 26 70 70 0 46 -17 67 -53 67 -47 0
-77 -24 -77 -63 0 -26 -14 -46 -82 -114 -55 -55 -90 -83 -105 -83 -22 0 -23 3
-23 84 l0 85 27 3 c25 3 29 8 36 53 6 37 14 53 29 60 12 6 28 30 37 55 13 37
24 49 61 68 56 28 96 28 151 -1z m-672 -36 c13 -24 -8 -55 -35 -49 -20 3 -30
29 -20 54 8 20 43 17 55 -5z m411 4 c18 -22 8 -50 -19 -50 -32 0 -49 28 -32
49 17 20 35 20 51 1z m214 -151 c35 -14 11 -64 -31 -64 -27 0 -31 30 -7 54 18
18 17 18 38 10z m-899 -193 c0 -30 -29 -51 -46 -34 -10 10 -10 18 -1 38 15 33
47 30 47 -4z m-91 -37 c9 -8 16 -20 16 -25 0 -5 11 -14 25 -21 19 -8 29 -8 47
4 22 14 26 14 53 -9 17 -13 57 -38 90 -55 63 -32 95 -55 95 -70 0 -4 -61 -8
-136 -8 l-135 0 -26 30 c-62 74 -175 5 -142 -88 13 -39 35 -52 85 -52 29 0 43
7 70 35 l33 35 120 0 121 0 0 -30 c0 -27 -3 -30 -29 -30 -48 0 -79 -17 -142
-76 -56 -54 -60 -56 -88 -44 -40 16 -69 5 -88 -36 -19 -40 -37 -42 -92 -14
-191 97 -166 399 37 460 43 13 69 11 86 -6z m722 -204 c1 -91 0 -156 -3 -145
-2 11 -12 30 -21 43 l-18 23 -24 -22 c-33 -28 -63 -39 -108 -39 -48 0 -121 22
-132 40 -6 10 -13 5 -29 -21 l-21 -34 0 147 c0 80 3 154 6 162 6 14 28 16 178
14 l171 -3 1 -165z m-712 18 c24 -34 4 -60 -42 -56 -32 3 -37 7 -40 32 -6 47
53 65 82 24z m1146 8 c6 -8 10 -25 8 -38 -6 -41 -98 -34 -98 8 0 37 65 59 90
30z m-840 -188 c0 -37 -5 -46 -33 -66 -72 -50 -72 -51 -72 -100 0 -42 -2 -47
-24 -50 -14 -2 -34 -16 -45 -30 -44 -54 -46 -56 -24 -14 21 39 21 44 7 55 -8
7 -21 21 -28 32 -10 16 -11 17 -7 2 3 -10 2 -16 -3 -13 -4 3 -17 -1 -27 -9
-24 -18 -58 -19 -92 -1 -15 7 -41 16 -58 19 -30 6 -32 4 -38 -31 -3 -21 -1
-54 5 -75 19 -71 104 -143 159 -135 21 3 30 0 30 -9 0 -31 -95 -1 -143 45 -45
42 -70 100 -71 164 -1 31 1 59 4 61 7 7 112 -21 124 -33 29 -29 99 12 112 66
9 34 127 147 163 155 57 14 61 12 61 -33z m597 -21 c42 -42 53 -61 53 -85 0
-33 -8 -40 -27 -21 -5 5 -22 11 -37 13 -15 2 -50 19 -77 40 -42 31 -49 41 -49
71 0 34 1 35 42 35 36 0 47 -6 95 -53z m-267 18 c0 -10 -10 -15 -32 -14 -22 1
-26 3 -13 6 11 3 24 9 30 14 13 12 15 11 15 -6z m-138 -13 c4 -4 -26 -6 -67
-4 -41 2 -75 7 -75 10 0 9 133 3 142 -6z m206 1 c-10 -2 -28 -2 -40 0 -13 2
-5 4 17 4 22 1 32 -1 23 -4z m433 -60 c13 -16 12 -17 -3 -4 -17 13 -22 21 -14
21 2 0 10 -8 17 -17z m-1091 -28 c0 -27 -24 -49 -45 -41 -20 7 -19 53 2 64 24
14 43 4 43 -23z m340 -40 c0 -50 -3 -65 -15 -65 -16 0 -33 -27 -51 -85 -8 -24
-13 -32 -13 -19 -1 12 6 40 14 63 12 36 12 43 0 47 -8 3 -18 3 -24 0 -5 -4
-13 -1 -17 5 -4 7 -11 -1 -18 -22 -9 -29 -19 -36 -60 -49 -37 -12 -52 -24 -67
-50 -22 -42 -24 -35 -4 13 14 35 20 39 77 51 39 9 52 38 33 75 -8 17 -15 32
-15 35 0 3 19 18 43 35 28 20 54 30 80 31 l37 0 0 -65z m710 2 c0 -46 51 -72
93 -48 25 14 28 14 48 -6 19 -18 20 -25 10 -56 -7 -19 -9 -47 -5 -61 5 -22 12
-26 41 -26 33 0 34 -1 31 -37 -2 -32 -7 -39 -28 -41 -14 -2 -31 -11 -37 -20
-11 -13 -13 -13 -13 -1 0 8 4 19 10 25 7 7 -2 9 -26 6 -25 -3 -38 -11 -44 -26
-11 -28 -48 -62 -85 -76 -42 -16 -89 -4 -131 32 -29 26 -37 29 -45 17 -11 -17
-1 -91 14 -100 5 -4 0 -12 -12 -19 -19 -9 -26 -9 -42 6 -21 19 -25 44 -8 61 7
7 8 24 4 43 -5 24 -16 35 -42 46 -30 13 -34 19 -31 47 2 27 8 33 31 35 38 5
54 40 37 81 -11 26 -10 35 5 57 13 20 22 24 38 19 55 -17 68 -17 87 0 11 10
20 29 20 42 0 20 5 23 40 23 35 0 40 -3 40 -23z m-772 -299 c2 -16 -1 -28 -6
-28 -5 0 -7 12 -4 26 4 24 2 26 -21 22 -15 -3 -24 -1 -21 4 3 5 16 8 27 6 16
-2 23 -11 25 -30z m59 0 c-3 -7 -5 -2 -5 12 0 14 2 19 5 13 2 -7 2 -19 0 -25z
m-257 -46 c6 -24 28 -62 48 -85 36 -42 36 -42 3 -12 -38 34 -71 98 -70 135 1
28 3 23 19 -38z m1107 6 c-3 -8 -6 -5 -6 6 -1 11 2 17 5 13 3 -3 4 -12 1 -19z
m22 -37 c8 -15 4 -24 -22 -47 l-32 -29 27 30 c21 23 24 34 17 48 -6 9 -8 17
-5 17 3 0 10 -8 15 -19z"/>
<path d="M510 1009 c0 -30 8 -65 20 -88 44 -88 130 -147 153 -105 24 42 58 66
88 62 43 -7 37 27 -9 51 -12 7 -21 15 -18 19 2 4 -13 6 -35 4 -34 -4 -44 1
-74 31 -19 19 -35 43 -35 54 0 13 -2 15 -9 5 -7 -11 -15 -11 -45 2 l-36 15 0
-50z"/>
<path d="M1738 614 c-15 -8 -35 -28 -43 -44 -54 -105 61 -212 162 -150 43 26
56 54 50 109 -9 84 -93 127 -169 85z"/>
<path d="M2010 506 c0 -2 7 -6 15 -10 8 -3 15 -1 15 4 0 6 -7 10 -15 10 -8 0
-15 -2 -15 -4z"/>
</g>
</svg>
