<?xml version="1.0" standalone="no"?>
<!DOCTYPE svg PUBLIC "-//W3C//DTD SVG 20010904//EN"
 "http://www.w3.org/TR/2001/REC-SVG-20010904/DTD/svg10.dtd">
<svg version="1.0" xmlns="http://www.w3.org/2000/svg"
 width="256.000000pt" height="256.000000pt" viewBox="0 0 256.000000 256.000000"
 preserveAspectRatio="xMidYMid meet">
<metadata>
Created by potrace 1.16, written by Peter Selinger 2001-2019
</metadata>
<g transform="translate(0.000000,256.000000) scale(0.100000,-0.100000)"
fill="#000000" stroke="none">
<path d="M0 1280 l0 -1000 943 0 c789 1 937 3 912 14 -33 14 -355 342 -355
361 0 18 64 88 110 120 l41 29 145 -145 c155 -154 208 -213 202 -229 -1 -5
-33 13 -71 40 -37 28 -73 50 -80 50 -14 1 -57 39 -74 66 -6 10 -16 18 -23 16
-6 -1 -9 2 -6 7 7 10 -18 34 -27 25 -3 -4 -34 12 -68 35 -34 22 -67 41 -73 41
-15 0 -56 -42 -56 -57 0 -10 283 -313 318 -341 19 -15 86 -16 112 -2 11 6 26
23 34 38 9 16 15 21 16 11 0 -16 -31 -48 -65 -67 -15 -9 61 -11 303 -12 l322
0 0 1000 0 1000 -1280 0 -1280 0 0 -1000z m1151 480 c195 -37 373 -212 414
-407 19 -88 19 -154 0 -228 -51 -198 -193 -341 -388 -391 -77 -20 -225 -15
-277 10 -19 9 -26 13 -15 10 117 -37 281 -26 390 24 70 33 158 99 150 112 -3
5 0 12 6 15 5 4 8 13 5 21 -3 7 2 18 12 23 9 5 14 13 10 17 -4 4 -22 -8 -40
-25 -38 -38 -95 -80 -85 -64 4 7 -18 -3 -49 -22 -73 -44 -185 -70 -265 -61
-33 4 -107 23 -166 42 -58 19 -107 33 -108 32 -11 -13 23 -52 67 -77 29 -17
48 -31 41 -31 -6 0 -45 22 -86 50 -247 165 -307 501 -132 739 122 166 322 247
516 211z m789 -355 c110 -57 120 -233 18 -307 -30 -21 -47 -24 -183 -29 -82
-3 -153 -3 -158 -1 -4 2 -4 8 -1 14 5 7 45 9 123 4 139 -7 186 2 224 44 37 41
34 52 -11 49 -54 -4 -61 4 -59 62 2 46 -1 53 -31 80 -44 39 -76 37 -119 -6
-30 -30 -35 -40 -29 -68 9 -46 50 -79 95 -76 36 3 61 -5 61 -19 0 -4 -12 -7
-27 -8 -68 -3 -198 -26 -205 -37 -5 -7 -6 22 -2 63 5 69 -9 176 -31 233 -7 16
4 17 149 17 120 0 164 -4 186 -15z m-117 -96 c40 -21 49 -56 21 -83 -18 -19
-65 -21 -82 -4 -18 18 -14 56 8 78 23 23 25 24 53 9z m-273 -444 l24 -25 -54
-55 -54 -55 -25 24 -24 25 49 55 c27 30 52 55 55 55 3 1 16 -10 29 -24z m457
-477 c-3 -8 -6 -5 -6 6 -1 11 2 17 5 13 3 -3 4 -12 1 -19z"/>
<path d="M992 1660 c-121 -18 -256 -120 -314 -238 -32 -64 -33 -71 -33 -187 0
-115 1 -123 32 -186 81 -166 266 -261 448 -231 140 23 250 104 312 228 31 64
37 88 41 158 9 170 -60 305 -201 397 -80 52 -186 74 -285 59z m159 -102 c49
-14 112 -67 129 -108 10 -25 18 -30 46 -30 35 0 46 -11 58 -64 6 -26 5 -28 -8
-17 -14 12 -16 10 -18 -8 -1 -11 -3 -33 -4 -48 -1 -16 -5 -65 -9 -110 -7 -75
-6 -83 10 -83 14 0 15 -3 5 -15 -10 -13 -52 -15 -254 -15 -239 0 -243 0 -292
25 -90 46 -95 52 -101 138 -8 103 12 159 68 187 40 21 79 26 79 11 0 -5 -6
-12 -12 -15 -7 -4 -2 -3 12 0 14 4 70 9 125 13 86 5 94 7 58 13 -57 11 -132
44 -139 63 -8 20 13 45 51 61 38 17 145 18 196 2z m-232 -604 c59 -31 87 -39
141 -42 58 -4 74 0 127 26 33 17 73 41 89 54 68 55 68 55 56 32 -31 -59 -126
-117 -218 -133 -131 -24 -286 46 -341 154 -14 28 -13 28 28 -11 24 -23 77 -59
118 -80z"/>
<path d="M738 1254 c-5 -4 -8 -28 -7 -53 l1 -46 9 40 c10 43 9 71 -3 59z"/>
<path d="M1450 771 c0 -18 18 -21 30 -6 10 13 9 15 -9 15 -11 0 -21 -4 -21 -9z"/>
<path d="M1810 555 c13 -14 26 -25 28 -25 3 0 -5 11 -18 25 -13 14 -26 25 -28
25 -3 0 5 -11 18 -25z"/>
</g>
</svg>
