<?xml version="1.0" standalone="no"?>
<!DOCTYPE svg PUBLIC "-//W3C//DTD SVG 20010904//EN"
 "http://www.w3.org/TR/2001/REC-SVG-20010904/DTD/svg10.dtd">
<svg version="1.0" xmlns="http://www.w3.org/2000/svg"
 width="256.000000pt" height="256.000000pt" viewBox="0 0 256.000000 256.000000"
 preserveAspectRatio="xMidYMid meet">
<metadata>
Created by potrace 1.16, written by Peter Selinger 2001-2019
</metadata>
<g transform="translate(0.000000,256.000000) scale(0.100000,-0.100000)"
fill="#000000" stroke="none">
<path d="M0 1280 l0 -1000 618 0 c558 1 614 2 582 16 -19 8 -43 23 -53 32 -18
16 -62 92 -55 95 2 1 73 0 158 -3 109 -4 147 -8 127 -14 -16 -5 -80 -7 -143
-4 -124 5 -130 2 -92 -47 27 -35 75 -55 132 -55 79 0 135 34 161 98 17 39 39
45 25 6 -18 -47 -49 -81 -92 -102 l-43 -21 618 -1 617 0 0 1000 0 1000 -1280
0 -1280 0 0 -1000z m1349 474 c29 -21 51 -72 51 -121 0 -36 3 -39 49 -59 l49
-22 -5 -89 c-6 -95 4 -146 38 -194 14 -20 16 -33 10 -57 -11 -35 -5 -70 15
-93 8 -9 12 -18 9 -21 -6 -6 50 4 96 16 25 7 26 5 33 -40 3 -26 6 -64 6 -86 0
-57 29 -186 51 -230 21 -42 24 -58 8 -58 -30 0 -99 230 -99 331 0 22 -5 29
-20 30 -23 2 -22 1 -75 17 -50 15 -58 3 -82 -128 l-8 -45 -65 -1 c-36 -1 -82
2 -103 6 -20 4 -39 4 -42 0 -2 -4 -23 -4 -47 0 -23 5 -46 6 -52 5 -65 -21
-197 -22 -223 -2 -7 5 -13 6 -13 2 0 -4 -6 -2 -14 4 -11 9 -16 2 -25 -36 -7
-27 -22 -68 -33 -93 -11 -25 -21 -52 -22 -60 -3 -14 -56 -29 -56 -15 0 3 9 23
20 45 34 66 49 146 65 334 10 124 21 200 35 241 39 115 128 213 226 251 43 16
44 18 44 61 0 55 12 79 53 103 39 24 95 26 126 4z m486 -3 c0 -9 -12 -14 -33
-15 -30 -1 -41 11 -25 28 12 12 58 2 58 -13z m-151 -7 c25 -10 19 -20 -26 -47
-24 -14 -58 -41 -77 -61 -40 -42 -61 -35 -61 21 0 53 45 93 103 93 25 0 52 -3
61 -6z m370 -15 c31 -25 46 -74 33 -111 -5 -16 -12 -28 -15 -28 -4 0 -20 18
-35 40 -16 22 -48 52 -73 66 -64 37 -59 54 16 54 33 0 55 -6 74 -21z m-147
-55 c83 -30 152 -137 153 -234 0 -76 -14 -121 -53 -161 -17 -20 -25 -26 -16
-15 22 28 35 55 43 91 7 26 3 24 -24 -17 -18 -27 -37 -51 -43 -55 -6 -4 -2 7
10 23 64 93 55 193 -27 275 -107 107 -265 78 -335 -60 -22 -45 -23 -136 -1
-178 9 -18 15 -36 14 -41 -6 -19 45 -74 80 -89 21 -9 64 -19 97 -24 l60 -8
-65 3 c-37 1 -80 9 -99 19 -19 9 -36 17 -37 17 -2 0 -10 -13 -19 -30 -9 -16
-22 -30 -30 -30 -19 0 -19 19 0 44 20 26 19 50 -2 67 -54 45 -79 181 -48 256
60 142 194 200 342 147z m-26 -90 c85 -43 116 -169 61 -244 -73 -99 -210 -94
-279 9 -30 45 -32 130 -3 176 46 75 141 100 221 59z m-1163 -178 c39 -67 72
-125 72 -129 0 -4 -18 -7 -40 -7 -36 0 -40 -2 -40 -25 0 -22 -3 -24 -18 -16
-41 22 -102 39 -102 28 0 -6 -6 -3 -12 6 -7 9 -30 17 -50 19 l-36 3 71 122
c40 68 74 123 77 122 3 0 38 -55 78 -123z m651 -780 c32 -21 -27 -26 -284 -26
-148 1 -289 1 -312 0 -46 0 -70 -22 -75 -70 -3 -24 0 -25 62 -31 l65 -6 -75 1
-75 1 1 43 c1 33 7 50 30 73 l29 30 310 -3 c170 -2 316 -7 324 -12z m490 -22
c23 -29 28 -64 9 -64 -6 0 -9 3 -5 6 7 8 -24 41 -60 66 l-28 18 32 0 c22 0 38
-8 52 -26z m-324 -103 c27 -6 -18 -9 -140 -9 -109 0 -172 3 -160 8 26 11 247
11 300 1z m208 -8 c-18 -2 -48 -2 -65 0 -18 2 -4 4 32 4 36 0 50 -2 33 -4z"/>
<path d="M1246 1691 c-10 -11 -16 -31 -14 -48 3 -26 6 -28 48 -28 43 0 45 1
48 31 5 56 -47 84 -82 45z"/>
<path d="M1631 1213 c-10 -26 -10 -27 4 -9 8 11 15 23 15 28 0 15 -7 8 -19
-19z"/>
<path d="M1781 1500 c-17 -114 -10 -125 77 -116 37 4 69 9 72 12 8 9 -32 34
-54 34 -36 0 -45 14 -53 79 -4 36 -13 66 -19 68 -6 2 -15 -29 -23 -77z"/>
</g>
</svg>
