<?xml version="1.0" standalone="no"?>
<!DOCTYPE svg PUBLIC "-//W3C//DTD SVG 20010904//EN"
 "http://www.w3.org/TR/2001/REC-SVG-20010904/DTD/svg10.dtd">
<svg version="1.0" xmlns="http://www.w3.org/2000/svg"
 width="256.000000pt" height="256.000000pt" viewBox="0 0 256.000000 256.000000"
 preserveAspectRatio="xMidYMid meet">
<metadata>
Created by potrace 1.16, written by Peter Selinger 2001-2019
</metadata>
<g transform="translate(0.000000,256.000000) scale(0.100000,-0.100000)"
fill="#000000" stroke="none">
<path d="M0 1280 l0 -1000 1280 0 1280 0 0 1000 0 1000 -1280 0 -1280 0 0
-1000z m1740 235 c152 -77 272 -301 285 -535 l4 -75 -9 62 c-10 74 -25 104
-45 97 -8 -4 -15 -1 -15 5 0 6 -5 11 -11 11 -5 0 -7 -4 -4 -10 3 -5 -3 -15
-15 -22 -18 -12 -20 -24 -21 -118 -1 -58 -4 -116 -9 -130 -4 -14 -5 11 -2 56
12 198 -74 435 -191 528 -34 27 -47 31 -102 31 -56 0 -68 -4 -102 -31 -21 -17
-58 -55 -82 -85 -25 -30 -42 -46 -38 -37 4 12 -5 29 -28 54 l-35 36 30 38 c59
74 130 128 200 151 45 15 133 3 190 -26z m-1037 -425 c-28 -109 -35 -253 -15
-312 17 -49 64 -88 105 -88 70 0 120 53 255 267 45 70 93 142 106 158 l25 30
-3 -27 c-2 -15 9 -49 24 -76 l27 -50 -75 -128 c-92 -160 -104 -177 -161 -238
-86 -91 -209 -122 -307 -77 -46 21 -66 42 -35 36 11 -2 26 4 33 13 11 13 11
15 -4 9 -9 -3 -18 -2 -20 3 -2 5 -16 12 -32 16 -23 6 -27 4 -21 -7 7 -12 6
-12 -7 -1 -24 19 -56 101 -67 173 -12 74 -14 180 -2 139 5 -17 13 -24 25 -22
12 2 16 -1 10 -9 -4 -8 -3 -10 4 -5 7 4 12 20 12 37 0 18 5 29 14 29 7 0 21
24 31 57 10 32 29 66 41 76 13 9 31 35 40 57 10 22 19 39 20 37 1 -1 -9 -45
-23 -97z m718 45 l10 -20 -16 20 c-9 11 -21 29 -26 40 l-10 20 16 -20 c9 -11
21 -29 26 -40z m50 -80 l10 -20 -16 20 c-9 11 -21 29 -26 40 l-10 20 16 -20
c9 -11 21 -29 26 -40z m-934 -57 c-3 -7 -5 -2 -5 12 0 14 2 19 5 13 2 -7 2
-19 0 -25z m1003 -48 c6 -11 8 -20 6 -20 -3 0 -10 9 -16 20 -6 11 -8 20 -6 20
3 0 10 -9 16 -20z m487 -157 c-3 -10 -5 -4 -5 12 0 17 2 24 5 18 2 -7 2 -21 0
-30z m-252 -103 c47 0 71 14 95 53 11 18 20 26 20 18 0 -7 -15 -28 -34 -47
-58 -58 -134 -42 -198 42 -14 18 -2 11 30 -18 41 -39 58 -48 87 -48z"/>
<path d="M587 645 c3 -8 9 -12 14 -9 12 7 11 11 -5 17 -10 4 -13 1 -9 -8z"/>
<path d="M701 591 c-11 -11 -22 -17 -25 -13 -3 3 -6 1 -6 -5 0 -18 61 -35 76
-22 7 6 18 8 24 4 5 -3 13 1 16 9 3 9 11 13 17 9 6 -4 7 -1 3 6 -5 7 -15 10
-23 6 -9 -3 -26 1 -39 10 -22 14 -25 14 -43 -4z m37 -32 c-3 -8 -7 -3 -11 10
-4 17 -3 21 5 13 5 -5 8 -16 6 -23z"/>
</g>
</svg>
