<?xml version="1.0" standalone="no"?>
<!DOCTYPE svg PUBLIC "-//W3C//DTD SVG 20010904//EN"
 "http://www.w3.org/TR/2001/REC-SVG-20010904/DTD/svg10.dtd">
<svg version="1.0" xmlns="http://www.w3.org/2000/svg"
 width="256.000000pt" height="256.000000pt" viewBox="0 0 256.000000 256.000000"
 preserveAspectRatio="xMidYMid meet">
<metadata>
Created by potrace 1.16, written by Peter Selinger 2001-2019
</metadata>
<g transform="translate(0.000000,256.000000) scale(0.100000,-0.100000)"
fill="#000000" stroke="none">
<path d="M0 1280 l0 -1000 405 0 c387 0 405 1 405 18 0 28 32 52 68 52 18 0
32 -4 32 -8 0 -5 -13 -7 -28 -4 -30 4 -62 -18 -62 -43 0 -10 21 -13 85 -13
l85 0 0 34 c0 19 5 34 10 34 6 0 10 -16 10 -35 l0 -35 58 0 c54 0 58 2 72 33
13 28 20 32 55 32 35 0 42 -4 55 -32 12 -27 21 -33 48 -33 30 0 32 2 32 36 l0
35 43 -3 c39 -3 42 -5 42 -33 0 -29 2 -30 47 -33 46 -3 48 -2 65 32 21 45 38
46 53 1 11 -33 14 -35 56 -35 44 0 44 0 44 35 0 19 5 35 10 35 6 0 10 -16 10
-35 l0 -35 430 0 430 0 0 1000 0 1000 -1280 0 -1280 0 0 -1000z m1428 553
c213 -53 380 -290 358 -508 -8 -76 -25 -137 -36 -130 -4 3 -10 2 -13 -2 -2 -5
-2 -2 0 6 46 181 9 339 -110 467 -145 157 -369 197 -567 102 -60 -29 -135
-100 -180 -171 -29 -46 -39 -55 -44 -41 -9 25 49 117 109 172 125 114 299 151
483 105z m-43 -157 c16 -33 29 -84 36 -141 6 -49 24 -125 40 -168 26 -71 40
-131 19 -82 -8 18 -9 18 -10 -5 -2 -20 -5 -16 -16 18 -7 24 -26 78 -43 120
-16 43 -36 122 -45 176 -9 54 -24 115 -32 134 -14 35 -14 35 6 17 11 -10 31
-41 45 -69z m-250 14 c15 -17 16 -24 7 -45 -6 -14 -16 -25 -21 -25 -5 0 -16
-20 -25 -45 -12 -37 -13 -52 -4 -73 20 -46 39 -62 74 -62 24 0 34 -5 39 -20 8
-27 -11 -50 -40 -50 -28 0 -65 -43 -65 -76 0 -12 -4 -25 -9 -28 -4 -3 -6 6 -3
19 4 21 1 24 -14 18 -11 -3 -22 -11 -26 -17 -5 -8 -8 -7 -8 1 0 7 13 19 29 28
35 18 61 52 61 79 0 25 -38 66 -61 66 -27 0 -45 28 -31 48 7 10 22 36 34 60
19 35 20 46 10 62 -17 28 -15 57 6 69 24 14 26 14 47 -9z m395 -61 c-16 -55
-11 -165 11 -256 11 -47 18 -88 15 -91 -4 -3 -6 2 -6 12 0 9 -4 14 -10 11 -6
-4 -7 1 -3 11 4 11 2 15 -4 11 -6 -4 -20 19 -34 56 -33 87 -32 165 5 235 30
60 41 64 26 11z m-556 -91 c11 -15 12 -26 6 -39 -6 -10 -10 -36 -10 -58 0 -31
4 -41 20 -46 11 -3 20 -11 20 -17 0 -7 -5 -6 -15 2 -8 6 -19 9 -25 5 -6 -4
-10 9 -10 34 0 28 -7 48 -20 61 -19 19 -27 60 -13 73 12 13 32 7 47 -15z m330
-25 c35 -43 72 -131 80 -188 6 -38 5 -39 -4 -8 -19 61 -34 51 -28 -18 8 -82
-6 -49 -32 77 -10 50 -28 110 -39 132 -26 52 -16 54 23 5z m336 -34 c-8 -28
-10 -75 -6 -131 5 -58 3 -88 -4 -88 -5 0 -10 5 -10 11 0 5 -4 8 -9 5 -15 -10
-24 107 -11 155 12 44 41 102 48 95 2 -2 -2 -24 -8 -47z m-691 -133 c-13 -11
-89 -55 -89 -51 0 7 73 55 84 55 5 0 7 -2 5 -4z m306 -180 c19 -8 35 -17 35
-19 0 -5 -82 22 -89 29 -9 9 22 3 54 -10z m222 -448 c13 -21 113 -250 113
-260 0 -22 -39 -5 -50 22 -12 29 -14 30 -85 30 -71 0 -73 -1 -85 -30 -12 -28
-50 -44 -50 -21 0 6 25 69 57 140 42 98 61 131 74 131 10 0 21 -6 26 -12z
m-608 -117 c69 -160 65 -149 44 -148 -10 1 -26 17 -36 36 l-19 34 -66 -6 c-62
-6 -82 -16 -94 -47 -2 -4 -13 -10 -25 -14 -21 -7 -20 -3 16 81 21 48 48 109
59 136 17 38 26 47 45 47 22 0 30 -13 76 -119z m181 52 l0 -67 68 67 c53 52
74 67 97 67 l29 0 -52 -53 c-29 -29 -52 -57 -52 -63 0 -6 23 -41 50 -77 28
-36 50 -69 50 -72 0 -3 -9 -5 -20 -5 -12 0 -37 24 -68 65 l-49 64 -27 -27
c-18 -20 -26 -39 -26 -63 0 -28 -4 -35 -20 -35 -19 0 -20 7 -20 133 0 126 1
133 20 133 18 0 20 -7 20 -67z m660 -30 c0 -86 3 -99 22 -120 28 -30 74 -30
105 -1 21 20 23 30 23 120 0 96 0 98 23 98 23 0 24 -2 20 -82 -6 -123 -11
-145 -40 -168 -19 -14 -40 -20 -80 -20 -47 0 -59 4 -84 29 -28 29 -29 32 -29
135 0 99 1 106 20 106 19 0 20 -7 20 -97z"/>
<path d="M1427 610 l-25 -55 45 -3 c25 -2 48 -1 51 3 3 3 -6 29 -20 58 l-26
52 -25 -55z"/>
<path d="M762 607 c-12 -28 -22 -55 -22 -59 0 -9 94 -11 103 -2 6 6 -43 114
-53 114 -3 0 -15 -24 -28 -53z"/>
<path d="M1156 318 c-21 -29 -12 -38 40 -38 36 0 44 3 44 18 0 43 -58 57 -84
20z"/>
<path d="M1340 320 c0 -18 5 -21 33 -18 20 2 32 8 32 18 0 10 -12 16 -32 18
-28 3 -33 0 -33 -18z"/>
<path d="M1540 311 c-14 -27 -9 -34 18 -29 19 3 19 5 8 27 l-13 24 -13 -22z"/>
<path d="M1353 283 c9 -2 25 -2 35 0 9 3 1 5 -18 5 -19 0 -27 -2 -17 -5z"/>
</g>
</svg>
