<?xml version="1.0" standalone="no"?>
<!DOCTYPE svg PUBLIC "-//W3C//DTD SVG 20010904//EN"
 "http://www.w3.org/TR/2001/REC-SVG-20010904/DTD/svg10.dtd">
<svg version="1.0" xmlns="http://www.w3.org/2000/svg"
 width="256.000000pt" height="256.000000pt" viewBox="0 0 256.000000 256.000000"
 preserveAspectRatio="xMidYMid meet">
<metadata>
Created by potrace 1.16, written by Peter Selinger 2001-2019
</metadata>
<g transform="translate(0.000000,256.000000) scale(0.100000,-0.100000)"
fill="#000000" stroke="none">
<path d="M0 1280 l0 -1000 1280 0 1280 0 0 1000 0 1000 -1280 0 -1280 0 0
-1000z m1339 525 c16 -8 36 -31 46 -51 33 -71 -5 -147 -83 -165 -52 -11 -93 6
-122 54 -64 104 49 219 159 162z m471 -47 c0 -24 -7 -49 -16 -60 -16 -16 -15
-18 1 -24 24 -10 35 12 35 74 0 60 4 62 75 28 59 -27 110 -81 120 -127 8 -34
-1 -45 -45 -55 -14 -3 -34 -9 -45 -14 -47 -20 -63 -21 -74 -3 -18 32 -20 9 -4
-41 14 -41 14 -49 2 -57 -25 -16 -33 -9 -14 11 18 20 18 21 -1 13 -10 -4 -30
-13 -44 -20 -40 -21 -88 -16 -115 12 -35 34 -32 59 13 86 l37 22 -31 9 c-17 4
-37 15 -44 23 -18 21 -29 19 -23 -5 4 -14 0 -20 -11 -20 -9 0 -16 -5 -16 -11
0 -6 9 -8 20 -4 11 3 27 2 36 -3 14 -8 12 -12 -16 -26 -41 -20 -64 -20 -84 0
-23 22 -20 57 9 114 21 42 34 53 96 84 40 20 87 36 105 36 33 0 34 -1 34 -42z
m-690 -78 c0 -16 -32 -25 -198 -56 -140 -26 -153 -31 -159 -52 -14 -55 -106
-72 -142 -26 -69 87 53 186 129 104 l27 -29 154 34 c171 37 189 40 189 25z
m-21 -176 c-40 -40 -77 -70 -82 -67 -5 3 26 41 69 84 44 44 81 74 83 68 2 -6
-29 -44 -70 -85z m939 65 c-2 -21 -12 -37 -28 -48 l-25 -15 20 24 20 23 -20
-8 c-11 -4 -30 -10 -42 -12 -13 -3 -23 -9 -23 -13 0 -15 -33 -21 -42 -8 -18
30 -9 40 33 36 35 -3 43 0 61 24 27 39 50 37 46 -3z m-740 -157 c2 -137 2
-142 -18 -142 -19 0 -20 6 -20 146 0 133 1 145 18 142 15 -3 17 -19 20 -146z
m-474 63 c21 -25 33 -45 29 -45 -5 0 -29 20 -53 45 -29 29 -39 45 -28 45 8 0
32 -20 52 -45z m1124 -6 c13 -20 14 -20 35 -3 12 10 9 4 -8 -14 -29 -33 -30
-33 -33 -10 -2 13 -9 29 -14 36 -6 6 -6 12 -2 12 5 0 15 -9 22 -21z m-80 -66
c12 -17 13 -16 8 5 -6 31 30 51 39 22 8 -24 -11 -60 -31 -60 -21 0 -53 40 -53
65 0 22 -1 22 37 -32z m-873 12 c36 -35 33 -56 -7 -49 -18 3 -52 7 -76 8 -48
2 -61 -16 -42 -56 11 -22 10 -22 -4 -4 -61 76 60 171 129 101z m603 -92 c-104
-119 -123 -137 -138 -128 -20 13 -6 33 99 140 70 72 107 103 114 96 7 -7 -18
-42 -75 -108z m262 -88 c17 -47 25 -84 19 -89 -12 -13 -11 -15 -53 106 -22 61
-34 112 -30 120 9 14 21 -12 64 -137z m-792 16 c31 -27 41 -42 36 -55 -6 -15
-13 -11 -50 25 -40 39 -56 70 -36 69 4 -1 26 -18 50 -39z m-208 21 c0 -4 -29
-36 -64 -71 -87 -86 -111 -75 -27 12 57 60 91 82 91 59z m530 -86 c97 -64 107
-226 19 -301 l-24 -20 21 25 c30 36 44 65 44 95 0 37 -26 43 -51 11 -27 -34
-45 -34 -22 0 l17 26 -60 -6 c-32 -3 -75 -8 -94 -10 -19 -2 -41 -5 -49 -5 -8
-1 -11 -7 -7 -17 10 -25 -13 -5 -29 27 -9 16 -22 29 -31 29 -40 0 -27 -85 23
-143 l36 -42 -41 41 c-94 96 -70 243 50 303 60 31 140 25 198 -13z m-704 -80
c36 -36 44 -78 24 -130 -12 -33 -66 -66 -105 -65 -27 1 -26 2 9 9 39 7 86 48
86 74 0 7 -18 22 -40 35 -31 17 -52 21 -97 19 l-58 -3 1 -38 c1 -20 10 -47 20
-60 l18 -22 -23 21 c-27 26 -39 100 -21 133 17 33 70 61 114 61 30 0 45 -7 72
-34z m1350 0 c84 -84 8 -217 -106 -186 -53 14 -80 51 -80 107 0 38 5 50 34 79
28 28 42 34 76 34 34 0 48 -6 76 -34z m-998 -78 c3 -17 -9 -18 -142 -18 -120
0 -146 3 -146 14 0 19 37 23 175 22 96 -1 110 -3 113 -18z m770 5 c-3 -16 -19
-18 -146 -21 -118 -2 -142 0 -142 12 0 22 15 24 158 25 122 1 133 -1 130 -16z
m-18 -168 c-30 -30 -59 -55 -65 -55 -9 1 105 110 115 110 2 0 -20 -25 -50 -55z
m-712 -51 c-45 -46 -60 -28 -17 21 23 26 35 33 43 25 7 -7 0 -21 -26 -46z
m-287 29 c13 -16 12 -17 -3 -4 -10 7 -18 15 -18 17 0 8 8 3 21 -13z m709 -18
c19 -19 31 -35 26 -35 -10 0 -76 54 -76 63 0 15 17 6 50 -28z m-490 -55 c11
-11 19 -32 19 -47 -1 -21 -2 -23 -6 -8 -14 56 -92 76 -133 35 -15 -15 -20 -16
-20 -6 0 43 104 62 140 26z m584 0 c-28 -12 -45 -28 -52 -47 -7 -18 -11 -22
-11 -10 -2 42 36 76 84 76 12 0 4 -7 -21 -19z m-289 -102 c-4 -62 -9 -115 -11
-117 -2 -2 -10 -1 -19 2 -12 5 -15 26 -15 117 l0 110 26 0 27 0 -8 -112z m383
77 c-3 -3 -9 2 -12 12 -6 14 -5 15 5 6 7 -7 10 -15 7 -18z m57 -166 c22 -23
31 -37 20 -31 -26 13 -82 72 -69 72 6 0 28 -19 49 -41z m-235 8 c0 -2 -19 -21
-42 -42 l-43 -40 40 43 c36 39 45 47 45 39z m-752 -54 c12 -10 24 -31 27 -48
l7 -30 -20 31 c-37 58 -120 51 -133 -11 l-7 -30 -1 28 c-2 61 80 99 127 60z
m1153 -33 l24 -20 -39 16 c-36 14 -43 14 -73 0 -27 -13 -33 -13 -33 -2 0 31
87 35 121 6z m-588 -39 c31 -12 67 -50 67 -70 0 -11 -5 -9 -16 7 -9 14 -22 21
-32 18 -10 -3 -35 -1 -56 4 -38 8 -42 7 -78 -29 -41 -42 -46 -39 -23 15 21 51
83 75 138 55z m74 -113 c-3 -8 -6 -5 -6 6 -1 11 2 17 5 13 3 -3 4 -12 1 -19z"/>
<path d="M1731 1721 c-1 -27 2 -32 11 -23 8 8 8 17 0 34 -10 22 -11 21 -11
-11z"/>
<path d="M1883 1718 c-5 -7 -15 -27 -22 -45 -13 -31 -50 -53 -92 -53 -10 0
-21 -5 -25 -12 -5 -8 8 -10 50 -5 64 6 79 19 96 81 12 41 9 55 -7 34z"/>
<path d="M1630 1713 c0 -8 81 -63 94 -63 3 0 6 7 6 15 0 8 -7 15 -16 15 -9 0
-32 9 -50 21 -19 11 -34 17 -34 12z"/>
<path d="M1920 1661 c0 -6 5 -13 10 -16 14 -9 52 4 45 16 -8 12 -55 12 -55 0z"/>
<path d="M1585 1650 c3 -5 10 -10 16 -10 5 0 9 5 9 10 0 6 -7 10 -16 10 -8 0
-12 -4 -9 -10z"/>
<path d="M1745 1548 c-11 -6 -21 -11 -21 -12 -9 -7 -13 -46 -5 -46 6 0 11 7
11 15 0 9 9 15 23 15 23 0 47 17 47 32 0 11 -32 9 -55 -4z"/>
<path d="M1953 1029 c-8 -8 -33 -14 -75 -18 -16 -2 -7 -33 17 -56 18 -19 35
-25 65 -25 53 0 75 12 88 50 11 29 9 31 -25 45 -42 18 -55 19 -70 4z"/>
</g>
</svg>
