<?xml version="1.0" standalone="no"?>
<!DOCTYPE svg PUBLIC "-//W3C//DTD SVG 20010904//EN"
 "http://www.w3.org/TR/2001/REC-SVG-20010904/DTD/svg10.dtd">
<svg version="1.0" xmlns="http://www.w3.org/2000/svg"
 width="256.000000pt" height="256.000000pt" viewBox="0 0 256.000000 256.000000"
 preserveAspectRatio="xMidYMid meet">
<metadata>
Created by potrace 1.16, written by Peter Selinger 2001-2019
</metadata>
<g transform="translate(0.000000,256.000000) scale(0.100000,-0.100000)"
fill="#000000" stroke="none">
<path d="M0 1280 l0 -1000 1280 0 1280 0 0 1000 0 1000 -1280 0 -1280 0 0
-1000z m1968 439 l-30 -90 -24 21 -23 22 -218 -200 c-120 -110 -230 -210 -244
-221 l-26 -20 -171 120 c-95 67 -176 119 -182 117 -5 -1 -62 -50 -127 -108
-77 -68 -103 -88 -75 -56 64 74 51 76 -29 5 -207 -185 -181 -150 44 59 l184
170 173 -124 c95 -68 176 -124 180 -124 9 0 69 55 317 288 l143 134 -23 18
c-12 10 -19 21 -16 24 5 6 150 52 171 55 4 1 -7 -40 -24 -90z m-1408 -644 l0
-705 750 0 750 0 0 -30 c0 -16 -4 -30 -10 -30 -5 0 -10 11 -10 25 l0 25 -745
0 -745 0 0 219 c0 213 -1 219 -20 214 -18 -5 -20 -16 -23 -117 -1 -61 -4 162
-5 497 l-2 607 30 0 30 0 0 -705z m1330 360 l0 -75 35 0 35 0 0 -275 0 -275
-35 0 -35 0 0 -60 c0 -33 -3 -60 -7 -60 -5 0 -6 27 -5 60 l4 60 -41 0 -41 0 0
275 0 275 35 0 35 0 0 75 c0 43 4 75 10 75 6 0 10 -32 10 -75z m-830 -180 l0
-85 35 0 35 0 -2 -182 -3 -182 -35 0 -35 -1 -5 -85 -4 -85 -6 85 -5 85 -32 3
-33 3 0 180 0 179 30 0 30 0 0 85 c0 69 3 85 15 85 12 0 15 -16 15 -85z m562
-157 l3 -73 30 0 30 -1 0 -192 c0 -105 -3 -192 -7 -192 -4 0 -8 74 -10 164 -2
91 -5 167 -8 170 -13 12 -81 12 -97 0 -15 -10 -19 -36 -24 -181 l-5 -168 -2
203 -2 202 33 -2 32 -3 3 73 c2 39 7 72 12 72 5 0 10 -33 12 -72z m-832 -139
l0 -69 30 0 30 0 -2 -92 c-1 -51 -3 -70 -5 -43 -2 28 -5 65 -8 83 -6 32 -6 32
-65 32 -58 0 -60 -1 -60 -27 0 -33 -5 -28 -13 15 -6 31 -6 32 28 32 l35 0 0
68 c0 38 3 72 6 75 16 16 24 -9 24 -74z m550 -17 l0 -67 33 0 c24 0 32 -4 31
-17 0 -10 -2 -39 -4 -65 l-3 -48 -6 50 -6 50 -53 -1 c-29 -1 -56 -5 -60 -9 -4
-4 -10 -39 -13 -78 l-6 -72 -1 92 -2 92 32 3 32 3 -3 68 c-2 55 0 67 13 67 13
0 16 -13 16 -68z m-1 -404 c1 -39 -3 -68 -9 -68 -6 0 -10 35 -9 88 1 103 17
85 18 -20z m281 27 c0 -43 -4 -75 -10 -75 -6 0 -10 32 -10 75 0 43 4 75 10 75
6 0 10 -32 10 -75z m-843 -62 c-2 -16 -4 -5 -4 22 0 28 2 40 4 28 2 -13 2 -35
0 -50z"/>
<path d="M1350 1296 c0 -3 9 -10 20 -16 11 -6 20 -8 20 -6 0 3 -9 10 -20 16
-11 6 -20 8 -20 6z"/>
<path d="M1437 1293 c-4 -3 -7 -11 -7 -17 0 -6 5 -5 12 2 6 6 9 14 7 17 -3 3
-9 2 -12 -2z"/>
<path d="M1838 1039 c-15 -8 -18 -26 -18 -114 l0 -105 67 0 66 0 -7 102 c-3
56 -11 107 -16 112 -14 14 -72 17 -92 5z"/>
<path d="M997 873 c-8 -38 10 -51 61 -46 49 6 57 31 17 57 -39 26 -72 21 -78
-11z"/>
</g>
</svg>
