<?xml version="1.0" standalone="no"?>
<!DOCTYPE svg PUBLIC "-//W3C//DTD SVG 20010904//EN"
 "http://www.w3.org/TR/2001/REC-SVG-20010904/DTD/svg10.dtd">
<svg version="1.0" xmlns="http://www.w3.org/2000/svg"
 width="256.000000pt" height="256.000000pt" viewBox="0 0 256.000000 256.000000"
 preserveAspectRatio="xMidYMid meet">
<metadata>
Created by potrace 1.16, written by Peter Selinger 2001-2019
</metadata>
<g transform="translate(0.000000,256.000000) scale(0.100000,-0.100000)"
fill="#000000" stroke="none">
<path d="M0 1280 l0 -1000 496 0 c447 0 496 2 490 16 -8 20 9 51 31 58 25 8
43 52 43 103 0 24 5 43 11 43 7 0 9 -21 5 -62 -8 -87 -8 -89 0 -126 l6 -32 74
0 c99 0 114 14 114 105 0 37 4 65 10 65 6 0 10 -28 10 -65 0 -91 15 -105 114
-105 l74 0 6 32 c8 38 8 44 0 116 -4 34 -2 58 5 65 8 8 11 -2 11 -36 0 -57 15
-91 46 -106 22 -10 29 -26 25 -59 -2 -9 103 -12 494 -12 l495 0 0 1000 0 1000
-1280 0 -1280 0 0 -1000z m1312 553 c24 -21 23 -49 -2 -70 -16 -14 -20 -30
-20 -80 0 -35 -4 -63 -10 -63 -6 0 -10 28 -10 63 0 50 -4 66 -20 80 -24 21
-26 44 -3 69 20 22 41 23 65 1z m-247 -30 c12 -11 15 -24 10 -42 -7 -29 -7
-42 1 -123 5 -49 3 -58 -10 -58 -12 0 -16 11 -16 49 0 63 -7 80 -36 91 -32 12
-42 55 -19 80 22 24 48 25 70 3z m486 7 c28 -15 25 -65 -4 -85 -31 -20 -47
-56 -47 -105 0 -22 -4 -40 -10 -40 -15 0 -12 94 4 115 12 17 12 22 -5 44 -25
31 -24 46 3 65 26 19 33 19 59 6z m-137 -118 c7 -11 -26 -82 -37 -82 -9 0 -1
66 9 82 7 10 22 10 28 0z m-238 -37 c9 -49 -3 -56 -21 -12 -19 45 -19 47 0 47
8 0 17 -14 21 -35z m-341 -95 c11 -12 15 -28 12 -42 -4 -15 0 -30 14 -44 27
-29 6 -43 -24 -16 -12 11 -28 17 -35 15 -20 -8 -62 25 -62 49 0 51 61 76 95
38z m595 -10 c89 -26 182 -84 243 -150 139 -152 174 -399 82 -587 -160 -327
-574 -401 -841 -151 -178 167 -214 469 -80 671 133 200 365 284 596 217z m379
-1 c13 -24 13 -29 -2 -53 -12 -18 -26 -26 -47 -26 -16 0 -32 -4 -35 -10 -10
-16 -35 -12 -35 5 0 9 7 18 15 21 10 4 12 15 9 34 -5 21 -1 31 18 44 31 22 59
17 77 -15z m221 -219 c23 -23 24 -33 9 -61 -8 -15 -20 -19 -57 -18 -26 0 -71
-2 -99 -6 -65 -9 -74 10 -10 20 52 9 77 22 77 40 0 13 36 45 52 45 5 0 17 -9
28 -20z m-1421 -27 c12 -27 20 -33 45 -33 41 0 76 -10 76 -21 0 -12 -47 -11
-92 1 -27 8 -44 8 -59 0 -44 -24 -92 43 -57 78 7 7 26 12 43 10 23 -2 33 -11
44 -35z m72 -133 c16 0 29 -5 29 -11 0 -16 -83 -7 -88 10 -3 10 0 12 12 8 10
-4 31 -7 47 -7z m1257 -12 c-5 -14 -51 -23 -74 -14 -27 10 -4 26 37 26 28 0
39 -4 37 -12z m-1375 -88 c18 -15 40 -20 81 -20 31 0 56 -4 56 -10 0 -6 -28
-10 -63 -10 -51 0 -64 -3 -75 -20 -14 -22 -51 -27 -70 -8 -17 17 -15 54 4 72
21 21 36 20 67 -4z m1498 10 c22 -12 26 -59 7 -78 -18 -18 -53 -14 -73 8 -14
16 -31 20 -82 20 -35 0 -63 4 -63 10 0 6 27 10 61 10 46 0 67 5 86 20 29 23
37 24 64 10z m-1363 -142 c-3 -7 -22 -14 -44 -16 -37 -2 -38 -1 -20 13 24 18
69 20 64 3z m1232 -17 c13 -25 13 -42 -1 -18 -6 10 -22 17 -39 17 -17 0 -30 5
-30 10 0 19 59 11 70 -9z m-1205 -91 c4 -6 -10 -10 -34 -10 -27 0 -46 -6 -56
-17 -50 -59 -57 -64 -82 -61 -36 4 -50 29 -35 64 12 25 16 26 60 21 27 -3 55
-1 63 4 19 12 76 11 84 -1z m1205 0 c13 -7 27 -7 43 1 47 21 91 -26 67 -71
-18 -34 -71 -24 -90 17 -16 34 -34 43 -88 43 -20 0 -31 4 -27 10 8 13 71 13
95 0z m-1060 -210 c-6 -10 -15 -22 -21 -25 -6 -4 -7 -19 -4 -36 9 -39 -9 -59
-51 -59 -27 0 -37 5 -46 25 -14 32 12 75 45 75 13 0 34 11 47 25 26 27 46 24
30 -5z m845 0 c10 -11 31 -20 46 -20 39 0 66 -41 51 -75 -9 -20 -19 -25 -46
-25 -42 0 -60 21 -53 59 4 21 1 34 -13 46 -11 10 -20 22 -20 27 0 14 16 9 35
-12z m-535 -205 c0 -34 -4 -45 -16 -45 -10 0 -14 6 -10 18 3 9 8 29 12 45 9
39 14 33 14 -18z m230 -42 c0 -2 -7 -3 -15 -3 -11 0 -15 12 -14 48 l0 47 15
-45 c7 -25 14 -46 14 -47z"/>
<path d="M1260 1800 c0 -13 7 -20 20 -20 13 0 20 7 20 20 0 13 -7 20 -20 20
-13 0 -20 -7 -20 -20z"/>
<path d="M1010 1770 c0 -16 5 -21 23 -18 12 2 22 10 22 18 0 8 -10 16 -22 18
-18 3 -23 -2 -23 -18z"/>
<path d="M1504 1775 c-4 -10 -1 -21 7 -26 20 -12 34 -5 34 17 0 24 -33 31 -41
9z"/>
<path d="M774 1535 c-4 -9 -2 -21 4 -27 15 -15 44 -1 40 19 -4 23 -36 29 -44
8z"/>
<path d="M1145 1473 c-79 -29 -138 -68 -194 -129 -60 -66 -85 -111 -106 -191
-56 -213 49 -434 250 -529 149 -72 316 -55 447 44 114 86 176 194 186 324 15
197 -89 378 -265 461 -60 28 -80 32 -168 34 -77 3 -112 -1 -150 -14z m83 -140
c3 -51 4 -53 33 -53 29 0 29 1 29 55 0 52 1 55 25 55 24 0 25 -3 25 -55 l0
-55 43 -6 c95 -16 139 -114 81 -183 l-26 -31 26 -11 c28 -13 56 -64 56 -103 0
-74 -47 -120 -135 -133 l-45 -6 0 -53 c0 -51 -1 -54 -25 -54 -24 0 -25 3 -25
56 l0 55 -32 -3 c-32 -3 -33 -4 -36 -56 -3 -48 -5 -53 -25 -50 -19 3 -22 9
-23 53 l-1 50 -57 3 -57 3 3 32 c3 28 7 32 36 35 32 3 32 4 32 55 0 29 -3 103
-7 165 l-6 112 -32 0 c-27 0 -34 5 -39 25 -10 39 0 45 65 45 l59 0 0 48 c0 55
5 64 35 60 17 -3 20 -11 23 -55z"/>
<path d="M1230 1140 l0 -60 49 0 c63 0 106 30 96 69 -9 38 -32 51 -92 51 l-53
0 0 -60z"/>
<path d="M1228 951 l-3 -71 65 0 c81 0 110 17 110 64 0 48 -27 67 -104 73
l-64 6 -4 -72z"/>
<path d="M1731 833 c-24 -10 -72 -64 -65 -74 3 -5 2 -8 -3 -7 -4 1 -31 -21
-59 -49 -57 -57 -120 -92 -209 -118 -47 -14 -78 -16 -149 -11 -50 4 -108 7
-129 6 -21 0 -48 6 -60 15 -12 8 -28 15 -37 15 -21 0 58 -44 115 -63 215 -74
484 34 585 233 17 33 29 60 28 59 -2 0 -9 -3 -17 -6z"/>
<path d="M860 820 c-7 -31 -6 -39 6 -44 20 -8 25 9 9 30 -8 10 -15 17 -15 14z"/>
<path d="M1744 1535 c-4 -9 -2 -21 4 -27 15 -15 44 -1 40 19 -4 23 -36 29 -44
8z"/>
<path d="M1980 1305 c-10 -11 -10 -19 -2 -27 15 -15 44 -2 40 19 -4 23 -22 27
-38 8z"/>
<path d="M547 1313 c-15 -14 -7 -43 12 -43 23 0 34 23 18 39 -13 13 -21 14
-30 4z"/>
<path d="M512 1038 c2 -13 10 -23 18 -23 8 0 16 10 18 23 3 17 -2 22 -18 22
-16 0 -21 -5 -18 -22z"/>
<path d="M2013 1044 c-3 -8 -1 -20 6 -27 14 -14 47 15 37 32 -10 16 -36 13
-43 -5z"/>
<path d="M547 805 c-21 -20 -10 -47 17 -43 15 2 21 10 21 27 0 30 -17 37 -38
16z"/>
<path d="M1982 811 c-21 -13 -10 -46 16 -49 27 -4 40 22 22 43 -14 17 -20 18
-38 6z"/>
<path d="M774 555 c-4 -9 -2 -21 4 -27 15 -15 44 -1 40 19 -4 23 -36 29 -44 8z"/>
<path d="M1746 564 c-20 -20 -9 -46 18 -42 25 4 34 43 12 51 -9 4 -22 -1 -30
-9z"/>
<path d="M1020 325 c-16 -19 -5 -47 17 -43 22 4 29 43 9 51 -8 3 -20 -1 -26
-8z"/>
<path d="M1510 325 c-15 -18 -6 -45 13 -45 8 0 20 7 27 15 10 12 10 18 0 30
-16 19 -24 19 -40 0z"/>
<path d="M1265 290 c-3 -5 3 -10 15 -10 12 0 18 5 15 10 -3 6 -10 10 -15 10
-5 0 -12 -4 -15 -10z"/>
</g>
</svg>
