<?xml version="1.0" standalone="no"?>
<!DOCTYPE svg PUBLIC "-//W3C//DTD SVG 20010904//EN"
 "http://www.w3.org/TR/2001/REC-SVG-20010904/DTD/svg10.dtd">
<svg version="1.0" xmlns="http://www.w3.org/2000/svg"
 width="256.000000pt" height="256.000000pt" viewBox="0 0 256.000000 256.000000"
 preserveAspectRatio="xMidYMid meet">
<metadata>
Created by potrace 1.16, written by Peter Selinger 2001-2019
</metadata>
<g transform="translate(0.000000,256.000000) scale(0.100000,-0.100000)"
fill="#000000" stroke="none">
<path d="M0 1280 l0 -999 818 1 c449 0 806 3 793 7 -14 4 -27 13 -29 21 -4 12
-2 13 9 3 55 -45 420 -41 432 5 4 15 5 15 6 -1 0 -10 -9 -22 -22 -27 -14 -5
84 -9 266 -9 l287 -1 0 1000 0 1000 -1280 0 -1280 0 0 -1000z m1846 518 l38
-42 -25 -6 c-19 -5 -25 -13 -27 -42 -3 -31 -6 -35 -24 -30 -11 3 -24 -1 -29
-9 -6 -10 -9 -5 -9 18 0 48 -9 63 -38 63 -25 0 -25 1 18 45 24 25 47 45 51 45
4 0 24 -19 45 -42z m-1048 -71 l-3 -92 38 -5 38 -5 -58 -57 -58 -57 -59 60
-60 59 42 0 42 0 0 94 0 95 33 3 c17 2 36 2 40 0 4 -2 7 -45 5 -95z m526 9
c26 -35 46 -66 46 -70 0 -3 -16 -6 -37 -6 l-36 0 6 -257 c6 -230 -3 -895 -11
-800 -2 20 -8 37 -13 37 -6 0 -8 -3 -6 -8 3 -4 1 -16 -3 -27 -8 -24 -21 496
-20 815 l2 235 -36 3 -35 3 17 27 c19 32 76 111 79 112 1 0 22 -29 47 -64z
m-661 -316 c87 -9 191 -3 292 16 l35 6 0 -55 0 -54 -62 -14 c-78 -17 -274 -18
-350 0 l-58 12 0 56 c0 53 1 55 24 49 14 -3 67 -10 119 -16z m1050 0 c92 -11
236 -3 305 16 22 6 23 5 20 -47 l-3 -53 -45 -15 c-59 -18 -285 -20 -362 -3
l-58 13 0 56 c0 53 1 55 23 49 13 -3 67 -10 120 -16z m-323 -153 c4 -54 8 -62
25 -62 16 0 21 -8 23 -42 3 -38 6 -43 28 -43 24 0 25 -3 22 -47 -3 -45 -5 -48
-32 -51 -17 -2 -49 -1 -73 3 l-43 6 4 122 c2 67 5 132 5 145 1 13 6 20 11 17
6 -3 10 2 10 11 0 42 15 -4 20 -59z m-402 -29 l-3 -52 -50 -14 c-65 -18 -281
-18 -355 0 l-55 13 -3 49 -3 48 33 -5 c140 -25 201 -29 288 -18 49 6 100 16
112 21 37 14 39 12 36 -42z m728 21 c88 -12 149 -8 292 18 l33 5 -3 -48 c-3
-48 -4 -48 -48 -62 -61 -19 -267 -21 -352 -3 l-68 13 0 50 c0 50 0 50 28 44
15 -3 68 -11 118 -17z m-1015 -153 c70 -6 226 11 272 29 16 7 18 2 15 -46 -3
-49 -5 -53 -33 -61 -96 -26 -293 -26 -392 1 l-43 12 0 48 0 48 53 -12 c29 -7
87 -15 128 -19z m1027 3 c79 -10 137 -7 273 17 l35 6 -5 -48 -6 -49 -55 -13
c-60 -14 -311 -10 -365 5 -27 9 -30 14 -33 58 l-3 48 38 -7 c21 -3 76 -11 121
-17z m-515 -86 c3 -5 2 -55 -3 -113 -4 -58 -8 -94 -9 -79 -3 51 -57 70 -64 22
-3 -20 -4 -15 -6 15 -1 40 -3 42 -31 42 -30 0 -30 1 -30 53 0 30 3 57 7 60 9
10 131 9 136 0z m-604 -53 c98 -18 280 -11 364 16 15 5 17 -2 17 -45 0 -49 -1
-50 -37 -61 -61 -18 -259 -24 -341 -10 -80 13 -92 26 -92 91 0 24 3 29 18 25
9 -3 41 -10 71 -16z m1196 -5 c77 0 159 4 183 8 37 8 42 7 42 -10 0 -11 -3
-14 -8 -7 -5 8 -29 7 -87 -3 -77 -14 -266 -12 -322 3 -20 6 -23 3 -23 -24 0
-32 15 -40 100 -55 22 -4 22 -4 -5 -6 -16 0 -46 4 -67 9 -34 10 -36 13 -40 56
l-3 46 45 -9 c25 -4 108 -8 185 -8z m152 -91 c-3 -3 -12 -4 -19 -1 -8 3 -5 6
6 6 11 1 17 -2 13 -5z m-104 -11 c-23 -2 -64 -2 -90 0 -26 2 -7 3 42 3 50 0
71 -1 48 -3z m-1236 -43 c104 -17 266 -10 356 16 16 5 18 0 15 -42 -3 -48 -4
-48 -48 -63 -62 -19 -308 -19 -370 0 -44 15 -45 15 -48 63 -3 43 -1 47 16 41
11 -3 46 -10 79 -15z m1042 -1 c71 -14 301 -7 344 10 l27 11 0 -50 0 -49 -52
-11 c-29 -7 -64 -10 -78 -7 -20 3 -18 5 10 6 19 0 52 6 73 12 34 9 37 13 37
46 0 28 -3 34 -15 29 -64 -24 -271 -29 -382 -10 -31 6 -33 5 -33 -24 0 -29 3
-31 56 -42 31 -7 95 -15 142 -20 86 -7 86 -7 22 -8 -58 -1 -216 20 -226 31 -2
2 -7 25 -11 52 -5 41 -4 47 9 42 9 -3 43 -11 77 -18z m-1059 -148 c86 -20 289
-11 373 15 16 5 18 0 15 -43 l-3 -48 -50 -13 c-55 -14 -279 -17 -333 -5 -20 5
31 8 130 8 90 0 180 4 201 8 33 7 37 11 37 39 0 29 -2 30 -32 24 -81 -15 -246
-17 -320 -4 l-78 14 0 -32 c0 -18 6 -35 13 -37 7 -4 6 -6 -4 -6 -11 -1 -18 11
-23 37 -9 57 -8 64 12 58 9 -3 37 -10 62 -15z m1050 0 c65 -15 255 -13 323 3
l57 13 0 -48 c0 -40 -3 -49 -17 -48 -11 0 -13 3 -5 6 6 2 12 21 12 40 0 28 -3
34 -16 29 -67 -26 -259 -31 -376 -10 -37 6 -38 6 -38 -24 0 -17 6 -33 13 -35
7 -3 5 -6 -5 -6 -14 -1 -18 7 -18 33 0 19 -3 42 -7 51 -5 14 -2 16 13 12 10
-4 39 -11 64 -16z m312 -95 c-35 -11 -278 -11 -314 1 -17 5 42 8 157 8 118 0
175 -3 157 -9z m-1295 -57 c76 -8 205 -1 291 17 l32 7 0 -45 0 -45 -57 -12
c-83 -16 -98 -12 -23 7 60 16 65 19 62 42 -2 14 -5 26 -6 27 -1 1 -35 -3 -76
-9 -81 -11 -265 -5 -318 11 l-33 10 3 -36 c4 -45 18 -50 178 -62 114 -8 114
-8 30 -8 -47 -1 -114 4 -150 11 l-65 11 -6 48 -5 49 30 -7 c17 -3 68 -10 113
-16z m1056 2 c88 -6 228 0 280 14 27 7 27 6 27 -39 0 -45 -1 -45 -42 -58 -89
-25 -408 -9 -408 22 0 4 21 1 48 -8 53 -17 305 -21 357 -5 25 8 30 15 33 46 3
37 3 37 -25 26 -72 -28 -413 -17 -413 14 0 5 12 6 28 2 15 -4 67 -10 115 -14z
m-738 -130 c-17 -16 -161 -41 -238 -41 -40 0 -100 5 -133 11 -32 7 -65 12 -71
12 -7 0 -13 5 -13 10 0 5 10 6 23 2 46 -15 310 -16 367 -1 70 18 76 18 65 7z
m825 -21 c58 0 131 6 163 14 l57 13 -1 -26 c-1 -18 -3 -20 -6 -8 -3 11 -11 16
-19 13 -75 -29 -262 -31 -371 -5 -75 18 -66 28 10 13 34 -8 109 -14 167 -14z
m-1255 -78 c-3 -3 -11 0 -18 7 -9 10 -8 11 6 5 10 -3 15 -9 12 -12z"/>
<path d="M2008 1081 c-3 -9 -114 -26 -253 -40 l-60 -6 70 -8 c65 -7 198 3 238
19 9 3 17 15 17 25 0 20 -6 25 -12 10z"/>
<path d="M546 922 c-3 -3 -6 -8 -6 -12 0 -8 139 -34 146 -27 3 2 -15 8 -38 11
-24 4 -55 13 -70 20 -15 8 -29 12 -32 8z"/>
<path d="M540 784 c0 -31 2 -33 50 -43 67 -14 252 -14 323 0 54 11 57 13 57
42 0 26 -3 29 -22 23 -52 -16 -273 -18 -340 -4 l-68 15 0 -33z"/>
</g>
</svg>
