<?xml version="1.0" standalone="no"?>
<!DOCTYPE svg PUBLIC "-//W3C//DTD SVG 20010904//EN"
 "http://www.w3.org/TR/2001/REC-SVG-20010904/DTD/svg10.dtd">
<svg version="1.0" xmlns="http://www.w3.org/2000/svg"
 width="256.000000pt" height="256.000000pt" viewBox="0 0 256.000000 256.000000"
 preserveAspectRatio="xMidYMid meet">
<metadata>
Created by potrace 1.16, written by Peter Selinger 2001-2019
</metadata>
<g transform="translate(0.000000,256.000000) scale(0.100000,-0.100000)"
fill="#000000" stroke="none">
<path d="M0 1280 l0 -1000 510 0 c281 0 510 3 510 6 0 3 -33 45 -73 92 -123
146 -210 266 -195 271 33 11 474 98 478 94 2 -2 -11 -34 -30 -70 -19 -37 -36
-70 -38 -74 -7 -17 92 -21 172 -6 198 36 332 157 381 342 22 85 18 170 -11
267 -4 13 -1 16 10 12 8 -3 23 -27 32 -52 10 -26 23 -51 28 -55 6 -4 31 -5 56
-1 25 4 51 7 58 7 6 0 12 8 12 18 0 16 -23 135 -36 184 -12 48 27 -34 48 -100
29 -91 31 -250 4 -340 -34 -116 -94 -214 -180 -300 -87 -86 -156 -128 -271
-167 -61 -20 -89 -23 -222 -23 -97 0 -153 -3 -153 -10 -1 -5 -5 -29 -9 -53
l-8 -42 743 0 744 0 0 1000 0 1000 -1280 0 -1280 0 0 -1000z m1572 463 c46
-49 122 -135 167 -193 l83 -105 -33 -7 c-113 -25 -430 -99 -443 -104 -12 -5
-9 10 14 65 17 40 28 75 26 80 -9 15 -104 20 -168 10 -247 -39 -422 -276 -387
-523 5 -39 21 -94 34 -124 13 -29 20 -50 16 -47 -15 9 -79 172 -86 219 -10 63
-30 78 -58 42 -20 -24 -25 -26 -50 -17 -16 6 -30 11 -32 11 -2 0 -7 -30 -11
-67 -7 -57 -9 -63 -15 -38 -14 60 -9 172 11 249 49 191 184 364 350 444 126
62 191 75 337 70 137 -5 126 -11 139 75 3 26 9 47 13 47 4 0 46 -39 93 -87z
m-362 -373 c0 -6 -25 -26 -56 -46 -101 -64 -156 -134 -185 -234 -7 -25 -19
-56 -26 -70 -12 -23 -13 -20 -13 36 0 77 20 136 68 199 39 52 125 111 171 118
14 2 29 5 34 6 4 0 7 -4 7 -9z m400 -218 c30 -109 3 -258 -64 -345 -38 -50
-118 -102 -142 -93 -14 5 -2 21 58 79 63 61 79 83 103 144 25 64 27 81 23 166
-4 98 3 115 22 49z"/>
<path d="M793 632 c-9 -6 -6 -18 14 -47 57 -85 240 -302 247 -294 2 2 7 29 12
59 l9 55 125 0 c108 1 240 19 227 31 -2 3 -21 7 -41 9 -69 9 -146 56 -146 90
0 8 -17 16 -42 20 -24 4 -52 12 -63 18 -11 6 -47 11 -80 13 -54 2 -97 7 -160
20 -11 2 -35 7 -54 10 -23 5 -29 9 -20 15 11 7 11 9 -1 9 -8 0 -21 -4 -27 -8z"/>
</g>
</svg>
