<?xml version="1.0" standalone="no"?>
<!DOCTYPE svg PUBLIC "-//W3C//DTD SVG 20010904//EN"
 "http://www.w3.org/TR/2001/REC-SVG-20010904/DTD/svg10.dtd">
<svg version="1.0" xmlns="http://www.w3.org/2000/svg"
 width="256.000000pt" height="256.000000pt" viewBox="0 0 256.000000 256.000000"
 preserveAspectRatio="xMidYMid meet">
<metadata>
Created by potrace 1.16, written by Peter Selinger 2001-2019
</metadata>
<g transform="translate(0.000000,256.000000) scale(0.100000,-0.100000)"
fill="#000000" stroke="none">
<path d="M0 1280 l0 -1000 1280 0 1280 0 0 1000 0 1000 -1280 0 -1280 0 0
-1000z m561 -202 l-4 -698 751 0 752 0 0 -35 c0 -19 -4 -35 -10 -35 -5 0 -10
11 -10 25 l0 25 -742 2 -743 3 -5 225 c-3 124 -7 212 -8 195 -2 -31 -20 -68
-24 -50 -1 6 -5 -39 -8 -100 -3 -60 -7 173 -8 518 l-2 628 33 -3 32 -3 -4
-697z m1434 567 c27 -26 34 -80 15 -116 -17 -31 -68 -52 -107 -44 -21 4 -33 3
-29 -3 3 -5 -9 -29 -26 -53 -46 -64 -306 -386 -316 -393 -5 -3 -7 -27 -5 -53
3 -33 0 -54 -10 -68 -14 -19 -15 -18 -10 9 l6 29 -22 -22 c-40 -40 -101 -16
-101 40 0 22 -4 27 -17 22 -10 -4 -14 -2 -10 4 4 6 -31 46 -76 90 l-83 79 -47
-5 c-47 -6 -47 -6 -138 -131 -50 -69 -97 -133 -104 -143 -9 -13 -28 -19 -66
-21 -43 -2 -56 -8 -76 -30 -30 -35 -32 -7 -3 34 24 33 62 44 107 31 30 -9 34
-7 55 22 l22 32 -22 -19 c-22 -19 -22 -19 -22 1 0 12 25 53 55 92 103 134 108
143 94 190 -16 54 0 94 48 116 42 20 75 14 110 -21 21 -21 24 -33 21 -70 -3
-43 -2 -46 72 -119 l75 -75 53 7 53 6 161 201 c88 111 171 210 184 221 20 18
21 22 8 39 -8 11 -14 35 -14 54 0 79 109 124 165 67z m-26 -377 c-1 -94 -4
-139 -9 -118 -4 19 -8 30 -9 24 -1 -7 -29 -10 -78 -9 -43 1 -88 -1 -100 -3
l-23 -4 -1 -227 c0 -124 -4 -246 -8 -271 -5 -28 -9 63 -10 241 l-1 286 25 27
c13 14 52 63 86 107 56 74 83 97 117 98 9 1 12 -35 11 -151z m-800 -355 c-1
-98 -5 -225 -9 -283 -5 -80 -7 -38 -8 178 -1 182 2 282 8 282 6 0 10 -65 9
-177z m-270 -92 c-2 -6 -10 2 -17 17 -11 25 -11 25 4 10 9 -9 15 -21 13 -27z
m18 7 c-3 -8 -6 -5 -6 6 -1 11 2 17 5 13 3 -3 4 -12 1 -19z m543 -95 c0 -48
-3 -64 -10 -53 -13 20 -13 120 0 120 6 0 10 -29 10 -67z m-583 -225 c-2 -29
-3 -8 -3 47 0 55 1 79 3 53 2 -26 2 -71 0 -100z"/>
<path d="M1888 1595 c-9 -21 -8 -28 7 -45 24 -27 51 -25 70 4 23 34 5 66 -36
66 -22 0 -32 -6 -41 -25z"/>
<path d="M1123 1290 c-25 -10 -31 -48 -11 -68 20 -20 66 -15 78 9 9 16 8 26
-5 45 -17 26 -27 28 -62 14z"/>
<path d="M1370 1036 c0 -2 8 -10 18 -17 15 -13 16 -12 3 4 -13 16 -21 21 -21
13z"/>
<path d="M1416 994 c-9 -8 -16 -22 -16 -29 0 -7 7 -21 16 -29 30 -30 74 -13
74 29 0 42 -44 59 -74 29z"/>
</g>
</svg>
