<?xml version="1.0" standalone="no"?>
<!DOCTYPE svg PUBLIC "-//W3C//DTD SVG 20010904//EN"
 "http://www.w3.org/TR/2001/REC-SVG-20010904/DTD/svg10.dtd">
<svg version="1.0" xmlns="http://www.w3.org/2000/svg"
 width="256.000000pt" height="256.000000pt" viewBox="0 0 256.000000 256.000000"
 preserveAspectRatio="xMidYMid meet">
<metadata>
Created by potrace 1.16, written by Peter Selinger 2001-2019
</metadata>
<g transform="translate(0.000000,256.000000) scale(0.100000,-0.100000)"
fill="#000000" stroke="none">
<path d="M0 1280 l0 -1000 1280 0 1280 0 0 1000 0 1000 -1280 0 -1280 0 0
-1000z m1323 196 c59 -37 105 -72 102 -76 -5 -9 -213 -140 -221 -140 -2 0 -4
18 -4 40 l0 40 -102 0 c-57 0 -98 4 -91 8 6 4 12 14 14 22 5 22 -11 74 -24 82
-7 4 20 8 58 8 39 0 87 3 108 6 35 6 37 8 37 46 0 22 4 38 8 36 5 -1 56 -34
115 -72z m653 -365 c69 -42 66 -137 -6 -174 -33 -17 -77 -18 -708 -15 l-674 3
-29 33 c-31 34 -39 85 -19 122 27 50 19 49 735 50 638 0 671 -1 701 -19z
m-508 -391 l107 0 -84 -50 c-46 -28 -89 -50 -95 -51 -6 0 -2 -5 9 -10 14 -6
-1 -8 -46 -4 -45 3 -71 1 -84 -8 -16 -13 -13 -16 35 -46 29 -18 50 -34 47 -37
-6 -6 -227 126 -227 136 0 12 32 36 130 98 l95 59 3 -43 3 -44 107 0z"/>
<path d="M573 1030 c-29 -12 -29 -31 -2 -56 19 -17 36 -19 142 -17 122 2 146
8 121 31 -8 7 -14 10 -14 7 0 -3 -9 -1 -20 5 -11 6 -39 13 -62 16 -24 3 -59
10 -78 15 -42 11 -58 11 -87 -1z"/>
</g>
</svg>
