<?xml version="1.0" standalone="no"?>
<!DOCTYPE svg PUBLIC "-//W3C//DTD SVG 20010904//EN"
 "http://www.w3.org/TR/2001/REC-SVG-20010904/DTD/svg10.dtd">
<svg version="1.0" xmlns="http://www.w3.org/2000/svg"
 width="256.000000pt" height="256.000000pt" viewBox="0 0 256.000000 256.000000"
 preserveAspectRatio="xMidYMid meet">
<metadata>
Created by potrace 1.16, written by Peter Selinger 2001-2019
</metadata>
<g transform="translate(0.000000,256.000000) scale(0.100000,-0.100000)"
fill="#000000" stroke="none">
<path d="M0 1280 l0 -1000 1280 0 1280 0 0 1000 0 1000 -1280 0 -1280 0 0
-1000z m1380 514 c22 -9 40 -20 40 -24 0 -4 24 -10 53 -13 120 -14 318 -151
413 -287 63 -90 90 -146 110 -226 9 -38 25 -88 36 -112 16 -34 19 -58 17 -121
-3 -49 -9 -84 -19 -95 -7 -10 -22 -50 -32 -88 -10 -39 -28 -94 -42 -122 -31
-67 -131 -203 -149 -203 -14 0 26 61 73 113 27 30 100 214 100 253 0 18 10 45
21 60 18 25 21 40 17 106 -3 58 -8 80 -21 90 -9 7 -17 25 -17 42 0 67 -78 241
-138 308 -20 23 -44 49 -52 58 -76 86 -219 168 -333 192 -40 8 -74 21 -81 31
-10 13 -29 17 -96 17 -73 0 -85 -3 -99 -22 -10 -13 -26 -20 -41 -19 -36 2 -92
-18 -195 -70 -72 -37 -107 -63 -177 -134 -49 -48 -88 -92 -88 -97 0 -6 -11
-26 -24 -46 -29 -43 -79 -186 -74 -214 2 -11 -6 -26 -16 -34 -17 -12 -20 -27
-20 -105 -1 -75 2 -93 18 -111 11 -12 17 -24 13 -27 -7 -8 18 -93 53 -175 78
-185 248 -332 465 -403 45 -15 46 -16 11 -11 -114 18 -231 76 -326 161 -97 88
-205 274 -225 389 -4 22 -15 48 -23 58 -11 12 -17 45 -20 101 -4 69 -1 92 16
127 11 24 29 80 41 124 34 122 107 231 228 336 43 38 81 69 86 69 4 0 24 11
45 23 50 32 146 67 182 67 16 0 32 5 36 11 23 38 162 52 234 23z m-460 -90
c-19 -9 -62 -18 -95 -21 -104 -9 -179 -72 -191 -159 -9 -68 -14 -85 -24 -79
-5 3 -11 -5 -13 -17 -2 -13 -5 8 -6 45 -1 78 13 118 60 172 52 58 97 75 209
74 94 0 95 0 60 -15z m915 -3 c83 -38 135 -118 134 -206 -1 -40 -3 -45 -9 -25
-7 22 -8 20 -10 -15 -2 -36 -3 -34 -14 25 -7 36 -19 79 -28 95 -34 64 -102
105 -175 105 -28 1 -63 9 -83 20 l-35 19 90 0 c66 1 100 -4 130 -18z m-413
-32 c56 -12 178 -67 178 -80 0 -9 -114 -154 -129 -163 -5 -4 -38 3 -73 15 -72
24 -170 22 -248 -6 -24 -8 -49 -13 -56 -11 -7 3 -39 40 -73 84 -45 60 -57 83
-48 90 25 20 99 53 150 67 64 17 227 19 299 4z m-445 -176 c79 -109 66 -105
-27 10 -14 17 -18 15 -80 -40 -35 -32 -61 -49 -57 -39 6 16 5 17 -8 6 -8 -7
-15 -8 -15 -2 0 9 125 132 134 132 3 0 26 -30 53 -67z m743 -2 c39 -37 70 -73
70 -80 0 -6 -16 7 -36 29 -20 22 -54 55 -76 72 -38 29 -40 30 -53 12 -7 -11
-21 -28 -30 -39 -16 -19 -17 -19 -3 5 32 55 43 70 50 70 5 0 40 -31 78 -69z
m-65 -19 c-5 -13 -3 -13 12 -1 11 9 14 10 9 2 -5 -9 -1 -13 10 -13 14 0 15 -3
7 -11 -9 -9 -18 -8 -37 5 -28 18 -36 49 -10 39 8 -3 13 -12 9 -21z m-848 -184
c43 -33 80 -63 82 -64 2 -2 -4 -30 -13 -62 -22 -78 -21 -212 2 -278 16 -46 17
-53 3 -61 -9 -6 -43 -27 -76 -48 -62 -38 -46 -17 28 38 20 15 37 31 37 35 0 4
-23 25 -51 46 l-52 38 5 -51 c3 -28 4 -51 2 -51 -2 0 -11 15 -20 33 -9 17 -26
38 -37 46 -12 8 -29 23 -39 33 -19 19 -19 18 -13 -19 9 -53 36 -154 47 -176 5
-10 14 -14 20 -11 7 4 8 3 4 -4 -14 -23 -27 -11 -52 44 -73 165 -72 348 3 517
14 31 29 57 34 57 4 0 43 -28 86 -62z m1071 -5 c38 -86 52 -153 52 -257 0 -90
-26 -209 -59 -275 l-21 -40 -94 60 -93 61 18 60 c25 79 25 195 -1 268 -17 50
-17 55 -2 66 9 7 48 37 85 68 38 31 72 56 76 56 5 0 22 -30 39 -67z m-489 -6
c64 -42 87 -119 58 -190 -8 -18 -39 -54 -70 -80 -45 -39 -57 -55 -57 -78 0
-28 -2 -29 -45 -29 -44 0 -45 1 -45 31 0 32 27 99 39 99 4 0 26 18 49 40 48
46 55 87 22 120 -46 46 -111 34 -136 -25 -13 -33 -17 -35 -60 -35 l-47 0 6 40
c7 52 37 93 89 120 57 28 142 23 197 -13z m-71 -449 c7 -7 12 -24 12 -38 0
-33 -17 -50 -51 -50 -32 0 -59 23 -59 50 0 41 68 68 98 38z m281 -113 c-34
-36 -66 -65 -70 -65 -11 0 113 129 125 129 4 1 -20 -28 -55 -64z m-324 -118
c53 0 99 7 138 20 l58 20 28 -41 c34 -51 77 -127 59 -104 -7 9 -31 41 -52 70
l-39 55 -51 -20 c-65 -25 -199 -27 -271 -3 l-50 16 -44 -47 -43 -48 41 62 41
61 52 -20 c38 -15 75 -21 133 -21z m421 -196 c-8 -12 -116 -64 -122 -58 -7 6
68 49 79 45 5 -2 13 5 18 15 6 9 15 15 20 12 5 -4 7 -10 5 -14z m-166 -71 c0
-5 -5 -10 -11 -10 -5 0 -7 5 -4 10 3 6 8 10 11 10 2 0 4 -4 4 -10z"/>
<path d="M820 446 c0 -2 8 -10 18 -17 15 -13 16 -12 3 4 -13 16 -21 21 -21 13z"/>
<path d="M1890 1636 c0 -2 8 -10 18 -17 15 -13 16 -12 3 4 -13 16 -21 21 -21
13z"/>
<path d="M1733 873 c-23 -8 -44 -20 -47 -28 -3 -8 24 -32 72 -64 l77 -51 18
39 c9 22 20 53 23 70 6 29 6 29 -31 21 -20 -4 -43 -17 -51 -27 -14 -17 -15
-15 -10 20 2 20 2 36 -2 36 -4 -1 -26 -8 -49 -16z"/>
<path d="M1250 969 c0 -8 -3 -24 -6 -36 -6 -20 -3 -23 24 -23 22 0 31 6 36 23
8 31 8 34 -6 34 -7 0 -21 4 -30 8 -12 5 -18 3 -18 -6z"/>
<path d="M1244 816 c-12 -32 0 -61 28 -64 22 -3 29 2 34 22 3 14 4 33 0 41 -7
19 -55 20 -62 1z"/>
</g>
</svg>
