<?xml version="1.0" standalone="no"?>
<!DOCTYPE svg PUBLIC "-//W3C//DTD SVG 20010904//EN"
 "http://www.w3.org/TR/2001/REC-SVG-20010904/DTD/svg10.dtd">
<svg version="1.0" xmlns="http://www.w3.org/2000/svg"
 width="256.000000pt" height="256.000000pt" viewBox="0 0 256.000000 256.000000"
 preserveAspectRatio="xMidYMid meet">
<metadata>
Created by potrace 1.16, written by Peter Selinger 2001-2019
</metadata>
<g transform="translate(0.000000,256.000000) scale(0.100000,-0.100000)"
fill="#000000" stroke="none">
<path d="M0 1278 l0 -1001 463 6 c254 4 692 10 972 13 286 4 518 11 528 16 25
13 46 67 40 100 -3 14 -15 35 -27 46 -20 19 -44 20 -686 25 -710 5 -704 6
-730 -42 -15 -29 -12 -88 6 -119 l16 -27 -21 25 c-49 58 -33 142 32 173 32 15
101 17 692 17 727 0 697 3 730 -66 27 -56 11 -109 -45 -147 -23 -16 -10 -17
283 -17 l307 0 0 1000 0 1000 -1280 0 -1280 0 0 -1002z m1318 514 c27 -35 1
-92 -43 -92 -54 0 -74 83 -26 106 27 14 50 9 69 -14z m199 -87 c243 -122 340
-442 210 -700 -27 -55 -121 -150 -181 -184 -60 -34 -137 -57 -224 -66 -47 -4
-62 -3 -60 6 2 8 -14 16 -44 20 -88 13 -79 24 20 24 140 1 238 44 354 157 220
213 158 591 -122 743 -87 46 -46 47 47 0z m188 -115 c3 -5 -1 -10 -9 -10 -9 0
-16 5 -16 10 0 6 4 10 9 10 6 0 13 -4 16 -10z m-105 -444 c0 -20 -19 -31 -32
-18 -6 6 -7 15 -4 21 10 16 36 13 36 -3z m170 -210 c0 -20 -19 -31 -32 -18 -6
6 -7 15 -4 21 10 16 36 13 36 -3z m-90 -29 c0 -2 -12 -14 -27 -28 l-28 -24 24
28 c23 25 31 32 31 24z m-206 -473 c19 -18 21 -65 4 -82 -15 -15 -122 -16
-150 -1 -11 6 -104 15 -207 20 -298 13 -274 11 -211 19 37 5 -1 7 -115 9 -170
1 -209 7 -183 28 26 20 48 21 445 22 352 1 403 -1 417 -15z"/>
<path d="M1288 773 c7 -3 16 -2 19 1 4 3 -2 6 -13 5 -11 0 -14 -3 -6 -6z"/>
</g>
</svg>
