<?xml version="1.0" standalone="no"?>
<!DOCTYPE svg PUBLIC "-//W3C//DTD SVG 20010904//EN"
 "http://www.w3.org/TR/2001/REC-SVG-20010904/DTD/svg10.dtd">
<svg version="1.0" xmlns="http://www.w3.org/2000/svg"
 width="256.000000pt" height="256.000000pt" viewBox="0 0 256.000000 256.000000"
 preserveAspectRatio="xMidYMid meet">
<metadata>
Created by potrace 1.16, written by Peter Selinger 2001-2019
</metadata>
<g transform="translate(0.000000,256.000000) scale(0.100000,-0.100000)"
fill="#000000" stroke="none">
<path d="M0 1280 l0 -1000 485 0 486 0 19 46 c28 64 210 563 210 575 0 5 -86
10 -191 11 l-191 3 123 155 c339 429 613 769 616 766 2 -2 -1 -14 -6 -27 -17
-39 -231 -639 -231 -647 0 -4 94 -6 210 -4 115 1 210 0 210 -4 0 -4 -19 -28
-42 -53 -106 -116 -466 -537 -607 -709 -46 -56 -86 -102 -88 -102 -2 0 14 26
35 58 22 31 59 86 82 122 24 36 67 94 95 130 28 36 96 124 150 195 53 72 136
169 183 217 47 48 84 90 81 92 -7 8 -81 -15 -100 -31 -8 -7 -30 -41 -47 -76
-41 -80 -161 -213 -185 -204 -9 3 -17 17 -18 29 0 13 -4 31 -8 42 -5 14 -21
-14 -66 -115 -32 -74 -94 -205 -137 -292 -43 -87 -76 -162 -73 -167 4 -6 102
-10 246 -10 l240 0 -40 38 c-61 58 -66 145 -11 214 38 49 75 58 232 58 125 0
147 -3 176 -20 37 -23 69 -71 78 -118 8 -40 -17 -111 -48 -138 l-21 -19 21 30
c12 17 25 45 28 63 7 34 10 32 -56 36 -21 1 -26 -4 -31 -34 -4 -24 -7 -8 -8
48 -1 80 -1 82 -26 82 -23 0 -25 -4 -25 -47 l0 -48 -32 48 c-23 36 -36 47 -52
45 -19 -3 -22 -11 -27 -93 -3 -49 -6 -71 -7 -49 -2 41 -2 41 -34 35 -43 -9
-47 -29 -6 -34 l33 -4 -37 -1 -38 -2 0 75 c0 67 -2 75 -19 75 -16 0 -19 -11
-26 -82 -4 -46 -10 -76 -14 -68 -3 9 -22 17 -44 19 l-38 3 14 -34 c24 -59 63
-73 220 -76 80 -2 150 0 167 7 18 6 28 6 25 1 -4 -6 128 -10 359 -10 l366 0 0
1000 0 1000 -1280 0 -1280 0 0 -1000z m1320 390 c-8 -15 -21 -20 -53 -20 -62
0 -160 -26 -229 -60 -102 -51 -169 -107 -247 -205 -19 -25 -20 -26 -8 -4 18
30 11 45 -12 26 -40 -32 37 59 98 115 108 100 267 166 404 167 55 1 57 0 47
-19z m495 -90 c-68 -69 -68 -81 3 -115 23 -11 41 -23 42 -26 0 -3 -44 -23 -97
-44 -54 -21 -131 -53 -172 -72 -40 -18 -78 -33 -84 -33 -5 0 35 36 91 80 55
43 104 84 107 91 4 6 -10 28 -31 50 -37 38 -37 39 -14 39 14 0 66 22 115 49
50 27 92 47 94 45 3 -3 -22 -31 -54 -64z m-843 -837 c-11 -16 -45 -56 -76 -90
-31 -33 -56 -66 -56 -71 0 -5 16 -22 35 -36 42 -33 44 -46 7 -46 -15 0 -60
-16 -101 -35 -40 -19 -75 -35 -78 -35 -3 0 15 23 41 50 27 29 46 58 44 68 -2
9 -25 29 -51 43 l-48 26 48 20 c26 11 93 45 148 77 55 31 101 56 103 56 2 0
-6 -12 -16 -27z m738 -347 c8 -11 10 -17 3 -13 -7 4 -13 0 -16 -10 -3 -10 -5
-3 -6 16 0 19 0 32 2 30 1 -2 9 -13 17 -23z"/>
<path d="M1001 1050 c-46 -45 -80 -84 -77 -87 3 -3 42 -2 88 1 l83 7 3 58 c2
31 -1 67 -6 80 -8 22 -12 19 -91 -59z"/>
</g>
</svg>
