<?xml version="1.0" standalone="no"?>
<!DOCTYPE svg PUBLIC "-//W3C//DTD SVG 20010904//EN"
 "http://www.w3.org/TR/2001/REC-SVG-20010904/DTD/svg10.dtd">
<svg version="1.0" xmlns="http://www.w3.org/2000/svg"
 width="256.000000pt" height="256.000000pt" viewBox="0 0 256.000000 256.000000"
 preserveAspectRatio="xMidYMid meet">
<metadata>
Created by potrace 1.16, written by Peter Selinger 2001-2019
</metadata>
<g transform="translate(0.000000,256.000000) scale(0.100000,-0.100000)"
fill="#000000" stroke="none">
<path d="M0 1280 l0 -1000 1280 0 1280 0 0 1000 0 1000 -1280 0 -1280 0 0
-1000z m1809 337 c123 -68 223 -126 223 -131 0 -10 -325 -385 -333 -386 -4 0
-13 39 -20 86 -7 47 -18 88 -25 91 -18 7 -192 -37 -251 -63 -66 -29 -147 -104
-185 -172 -17 -29 -43 -59 -59 -67 -34 -18 -53 -19 -21 -1 13 7 41 44 61 82
34 62 37 73 25 89 -8 10 -14 15 -14 11 0 -5 -6 -3 -13 3 -10 8 -19 4 -36 -20
-16 -21 -28 -28 -42 -24 -10 3 -27 7 -38 10 -15 4 -21 -3 -31 -39 -7 -24 -13
-72 -14 -105 0 -34 -5 -61 -10 -61 -15 0 3 176 25 242 61 185 231 322 458 370
53 11 97 22 99 23 2 2 -8 44 -21 94 -17 61 -21 91 -14 91 7 0 113 -56 236
-123z m-1279 -92 l0 -194 78 -4 77 -3 -87 -2 -88 -2 0 73 c0 39 -3 129 -7 200
-5 114 -4 127 10 127 15 0 17 -20 17 -195z m393 138 c-21 -81 -30 -95 -38 -60
-4 15 -10 27 -14 27 -3 0 -19 -18 -35 -40 -16 -22 -44 -54 -63 -72 l-34 -33
-25 33 c-14 17 -31 32 -37 32 -6 0 -33 -21 -59 -47 -66 -65 -63 -33 4 46 l52
61 31 -30 c17 -16 34 -30 37 -30 4 0 28 25 54 56 45 53 47 57 30 70 -17 12
-17 13 10 20 16 3 43 10 59 14 17 5 33 9 37 9 3 1 -1 -25 -9 -56z m449 16 c29
-7 73 -21 98 -31 l45 -20 -102 -23 c-205 -47 -329 -137 -406 -294 -27 -56 -43
-80 -45 -67 -2 10 0 21 5 25 4 3 16 28 26 55 13 37 14 51 5 57 -8 5 -7 13 4
31 15 22 15 25 1 34 -13 8 -14 14 -4 32 11 21 6 20 -61 -13 -62 -31 -68 -33
-43 -11 48 39 174 102 253 126 40 12 71 24 69 26 -7 7 -169 -27 -217 -45 -45
-17 -48 -17 -58 -1 -8 14 -6 22 11 38 81 74 275 111 419 81z m-492 -180 c-19
-12 -42 -26 -51 -33 -8 -6 1 4 20 21 20 18 43 33 51 33 8 0 -1 -10 -20 -21z
m60 -169 c0 -6 -32 -9 -77 -9 -61 1 -70 3 -43 9 53 11 120 11 120 0z m600
-207 c0 -74 -27 -181 -62 -253 -37 -77 -129 -172 -208 -217 -67 -39 -188 -79
-264 -88 -31 -4 -58 -10 -60 -14 -3 -3 4 -42 15 -86 10 -44 19 -83 19 -87 0
-5 -105 45 -234 109 -204 102 -233 119 -225 135 13 23 318 382 328 386 5 2 17
-40 26 -93 12 -64 22 -95 31 -95 29 0 190 42 232 60 76 34 139 88 187 161 50
74 59 81 139 109 75 27 76 26 76 -27z m251 -181 c-25 -48 -68 -86 -136 -118
-41 -20 -60 -38 -93 -89 -23 -35 -62 -81 -87 -103 -42 -37 -182 -118 -190
-110 -2 2 25 18 61 37 80 42 181 148 215 226 22 50 27 55 57 55 62 0 144 60
175 127 6 13 12 21 14 19 3 -2 -5 -22 -16 -44z m243 -164 c-16 -48 -18 -51
-27 -30 -13 28 -18 28 -51 -3 -15 -14 -35 -25 -45 -25 -10 0 -31 -10 -46 -21
-39 -31 -196 -125 -222 -133 -22 -7 -23 -4 -23 38 0 50 8 57 28 26 7 -11 19
-20 28 -20 9 0 52 27 97 59 45 32 110 73 145 90 55 28 61 34 52 51 -9 17 -6
19 32 22 24 2 45 2 47 1 1 -1 -5 -26 -15 -55z m-35 -135 l-2 -38 -6 35 -7 35
-11 -40 c-6 -22 -14 -49 -16 -60 -3 -11 -5 5 -6 36 -1 60 3 69 31 69 14 0 18
-7 17 -37z m-110 -85 c-1 -24 -3 -34 -6 -23 -10 44 -12 48 -28 35 -7 -6 -16
-24 -18 -38 -3 -19 -4 -15 -6 14 -1 47 3 54 36 54 21 0 23 -4 22 -42z m-130
-55 c-1 -27 -4 -38 -6 -25 -4 23 -5 23 -24 6 -18 -17 -19 -16 -19 18 0 39 6
48 32 48 15 0 18 -8 17 -47z m-119 -83 c10 -19 21 -20 210 -20 127 0 200 -4
200 -10 0 -6 -74 -10 -201 -10 -207 0 -216 2 -232 43 -9 24 10 22 23 -3z"/>
<path d="M1725 1250 c-10 -16 -16 -90 -7 -90 7 0 82 84 82 92 0 9 -69 7 -75
-2z"/>
<path d="M1474 1129 c-41 -10 -42 -10 -46 -62 -3 -29 -7 -59 -10 -67 -3 -8 -3
-12 -1 -7 3 4 12 7 21 7 15 0 15 -2 2 -10 -13 -8 -12 -10 4 -10 12 0 16 -5 12
-15 -3 -8 0 -15 6 -15 7 0 7 -4 0 -12 -5 -7 -6 -22 -2 -33 5 -15 11 -5 28 45
18 56 40 192 30 189 -2 -1 -22 -5 -44 -10z"/>
<path d="M1310 840 c-102 -105 -238 -163 -416 -176 -71 -6 -84 -4 -101 12 -47
45 -93 84 -93 78 0 -4 -6 -1 -14 5 -10 9 -28 -6 -85 -69 l-72 -80 212 -105
c117 -58 214 -103 216 -101 2 2 -3 29 -12 60 -27 93 -26 95 100 128 61 16 137
41 170 57 71 33 138 88 131 107 -3 7 4 16 16 19 14 5 17 10 10 17 -7 7 -7 19
-1 35 6 18 5 25 -6 29 -12 5 -12 9 2 30 22 35 15 29 -57 -46z"/>
</g>
</svg>
