<?xml version="1.0" standalone="no"?>
<!DOCTYPE svg PUBLIC "-//W3C//DTD SVG 20010904//EN"
 "http://www.w3.org/TR/2001/REC-SVG-20010904/DTD/svg10.dtd">
<svg version="1.0" xmlns="http://www.w3.org/2000/svg"
 width="256.000000pt" height="256.000000pt" viewBox="0 0 256.000000 256.000000"
 preserveAspectRatio="xMidYMid meet">
<metadata>
Created by potrace 1.16, written by Peter Selinger 2001-2019
</metadata>
<g transform="translate(0.000000,256.000000) scale(0.100000,-0.100000)"
fill="#000000" stroke="none">
<path d="M0 1280 l0 -1000 1280 0 1280 0 0 1000 0 1000 -1280 0 -1280 0 0
-1000z m1470 509 c122 -30 230 -91 328 -183 107 -102 169 -196 210 -317 72
-219 59 -425 -40 -612 -34 -62 -145 -187 -167 -187 -8 0 4 13 25 29 49 35 119
141 150 227 39 106 36 114 -43 115 -19 0 -33 5 -33 12 0 7 -15 -23 -34 -65
-52 -119 -79 -158 -160 -236 -116 -110 -232 -160 -396 -169 -202 -11 -390 73
-520 233 -49 60 -120 199 -120 235 0 12 -9 16 -39 14 -30 -2 -46 4 -66 23
l-28 25 8 -48 c9 -61 49 -176 83 -235 14 -25 20 -40 14 -35 -26 24 -94 169
-112 240 -24 94 -26 230 -6 337 45 237 208 444 431 549 165 77 335 93 515 48z
m340 -1323 c0 -2 -8 -10 -17 -17 -16 -13 -17 -12 -4 4 13 16 21 21 21 13z"/>
<path d="M1245 1739 c-4 -6 -5 -12 -2 -15 2 -3 7 2 10 11 7 17 1 20 -8 4z"/>
<path d="M1120 1611 c-157 -42 -304 -161 -372 -301 -20 -41 -41 -93 -47 -115
-19 -69 -25 -205 -11 -283 36 -217 227 -419 446 -476 128 -33 310 -11 427 51
73 39 205 174 245 250 92 175 94 382 6 563 -28 56 -58 96 -118 156 -87 87
-162 133 -263 159 -78 20 -231 18 -313 -4z m227 -213 c78 -116 113 -193 120
-262 5 -48 3 -55 -15 -60 -11 -4 -48 -25 -82 -47 -34 -22 -59 -35 -55 -29 3 5
1 10 -4 10 -29 0 1 65 69 152 36 46 2 44 -43 -3 l-42 -44 -3 100 c-2 54 -5
101 -7 104 -13 12 -20 -19 -24 -100 l-3 -89 -34 30 c-19 16 -39 30 -44 30 -17
0 -11 -26 11 -46 28 -24 59 -92 58 -124 -1 -18 -3 -20 -6 -7 -4 15 -11 17 -36
11 -43 -9 -44 -10 -16 -42 13 -15 6 -10 -17 11 -22 20 -43 37 -47 37 -17 0 -4
-30 30 -71 65 -78 70 -86 52 -71 -9 6 -35 36 -59 66 -24 30 -47 53 -52 50 -4
-3 -8 -25 -8 -49 0 -54 -14 -66 -29 -23 -25 72 1 231 54 326 34 60 154 232
163 232 4 0 35 -42 69 -92z m277 -25 c37 -74 41 -108 17 -132 -12 -12 -28 -21
-36 -21 -21 0 -55 36 -55 58 0 18 28 120 37 135 8 13 12 8 37 -40z m-679 -361
c-3 -17 -17 -35 -31 -43 -22 -11 -30 -11 -52 2 -15 8 -32 25 -38 38 l-12 24
-6 -24 c-2 -13 -4 -1 -2 27 2 36 13 68 36 110 l34 58 39 -81 c29 -62 37 -89
32 -111z m719 -6 c-24 -146 -77 -250 -148 -288 -12 -6 0 10 25 35 48 48 77
103 55 105 -6 1 -35 2 -65 3 -53 3 -53 3 -110 -57 -31 -32 -64 -70 -74 -84
-17 -23 -17 -23 0 10 10 19 58 74 107 123 49 48 85 87 80 87 -15 0 -109 -57
-123 -74 -7 -9 -18 -16 -23 -16 -7 0 -7 5 0 13 7 7 7 18 2 27 -7 11 -11 11
-24 1 -14 -11 -16 -11 -16 4 0 15 -2 15 -16 4 -27 -22 -56 -90 -61 -146 -4
-32 -10 -50 -15 -45 -13 13 7 123 30 168 24 45 90 111 147 145 43 26 175 68
216 68 l26 1 -13 -84z m-570 -132 c3 -8 2 -12 -4 -9 -6 3 -10 10 -10 16 0 14
7 11 14 -7z m255 -71 c-40 -47 -42 -49 -34 -33 10 19 47 60 53 60 3 0 -5 -12
-19 -27z m-48 -200 c-12 -20 -14 -14 -5 12 4 9 9 14 11 11 3 -2 0 -13 -6 -23z"/>
<path d="M767 1522 c-24 -27 -23 -82 2 -82 10 0 24 7 31 15 10 12 10 15 -4 15
-11 0 -16 9 -16 30 0 36 22 40 44 8 18 -25 21 -17 6 13 -13 24 -42 25 -63 1z"/>
<path d="M1732 1528 c-29 -29 6 -83 50 -76 27 4 38 49 17 74 -14 17 -51 18
-67 2z m55 -33 c10 -31 9 -35 -7 -35 -33 0 -63 44 -43 63 17 18 40 5 50 -28z"/>
<path d="M568 1059 c-21 -12 -24 -49 -6 -67 36 -36 91 10 63 53 -15 24 -34 28
-57 14z"/>
<path d="M1931 1046 c-25 -30 27 -84 62 -65 20 11 23 49 5 67 -16 16 -53 15
-67 -2z"/>
</g>
</svg>
