<?xml version="1.0" standalone="no"?>
<!DOCTYPE svg PUBLIC "-//W3C//DTD SVG 20010904//EN"
 "http://www.w3.org/TR/2001/REC-SVG-20010904/DTD/svg10.dtd">
<svg version="1.0" xmlns="http://www.w3.org/2000/svg"
 width="256.000000pt" height="256.000000pt" viewBox="0 0 256.000000 256.000000"
 preserveAspectRatio="xMidYMid meet">
<metadata>
Created by potrace 1.16, written by Peter Selinger 2001-2019
</metadata>
<g transform="translate(0.000000,256.000000) scale(0.100000,-0.100000)"
fill="#000000" stroke="none">
<path d="M0 1280 l0 -1000 444 0 443 0 108 230 c60 126 111 230 115 230 4 0
12 -11 18 -25 10 -23 2 -47 -74 -218 -47 -105 -88 -198 -91 -205 -4 -9 21 -12
107 -12 l112 0 -3 208 -4 207 24 -3 c14 -1 27 -5 30 -8 3 -3 6 -94 6 -202 l0
-197 108 -3 c66 -2 107 1 107 7 0 6 -38 92 -85 193 -86 182 -101 225 -77 220
6 -1 12 6 12 15 0 32 19 -1 106 -183 47 -98 93 -195 102 -214 l17 -35 518 -3
517 -2 0 1000 0 1000 -1280 0 -1280 0 0 -1000z m1424 488 c7 -13 24 -25 41
-29 30 -6 28 -9 -20 -24 -8 -2 -18 -19 -23 -37 l-10 -33 -12 33 c-9 24 -20 35
-41 39 -34 6 -29 23 7 23 19 0 26 6 31 30 6 33 10 33 27 -2z m-244 -20 c0 -50
-105 -155 -244 -243 -73 -47 -230 -122 -271 -129 -28 -6 -27 -5 5 7 45 18 180
86 180 91 0 2 -40 -14 -89 -35 -49 -21 -102 -41 -118 -44 -15 -3 13 11 62 32
182 78 395 229 395 281 0 10 -12 13 -47 10 -28 -2 -48 1 -50 8 -5 14 88 42
140 43 32 1 37 -2 37 -21z m-267 -2 c37 -15 100 -82 94 -99 -4 -13 -135 -107
-149 -107 -4 0 -5 8 -2 18 5 14 4 14 -4 2 -9 -12 -14 -12 -32 5 -18 16 -25 17
-52 7 -17 -6 -35 -9 -39 -6 -12 7 -11 45 2 83 17 49 5 46 -24 -7 -18 -31 -27
-40 -27 -27 0 17 -2 17 -10 5 -16 -24 -12 7 4 38 43 83 154 124 239 88z m949
-103 c134 -146 225 -448 133 -442 -5 0 -4 3 3 6 19 7 15 92 -9 164 -23 71 -54
129 -110 206 -64 86 -82 84 -55 -5 25 -76 96 -217 140 -275 20 -26 33 -47 30
-47 -18 0 -48 27 -88 78 l-45 59 -46 -11 c-46 -11 -47 -12 -41 -44 2 -18 16
-58 31 -90 22 -49 22 -53 5 -32 -59 72 -181 377 -155 387 6 2 37 19 70 37 76
42 104 44 137 9z m-822 -123 c0 -19 -30 -84 -48 -103 -19 -21 -84 -57 -104
-57 -7 0 5 9 27 21 59 31 75 49 69 73 -3 14 3 32 16 49 22 28 40 35 40 17z
m644 -215 l27 -60 -29 28 c-15 15 -34 27 -40 27 -16 0 -78 -40 -121 -77 -19
-17 -58 -43 -88 -59 -59 -31 -60 -32 -28 -108 21 -49 27 -48 217 37 80 36 149
62 153 59 3 -4 -72 -44 -167 -90 l-173 -83 -19 23 c-23 28 -119 226 -139 288
-8 24 -13 49 -11 55 3 5 80 49 172 96 l167 87 26 -82 c15 -44 39 -108 53 -141z
m-1077 79 c-3 -3 -12 -4 -19 -1 -8 3 -5 6 6 6 11 1 17 -2 13 -5z m653 -184
c12 -36 38 -95 56 -132 19 -37 34 -72 34 -78 0 -17 -26 -11 -46 11 -12 13 -14
19 -5 17 21 -5 23 17 4 40 -16 19 -23 20 -78 11 -33 -5 -90 -18 -127 -30 -75
-23 -81 -34 -52 -90 8 -17 13 -36 11 -42 -5 -15 -68 110 -92 181 -9 29 -14 56
-10 60 15 15 270 129 276 123 3 -3 16 -35 29 -71z m-540 -29 c0 -5 -7 -14 -16
-21 -12 -11 -18 -10 -31 3 -23 22 0 52 28 36 10 -5 19 -13 19 -18z m1201 -2
c-35 -16 -65 -28 -65 -27 -1 2 -8 12 -16 22 -14 18 -14 18 5 7 17 -11 29 -9
70 8 75 30 79 24 6 -10z m-977 -153 c9 -27 16 -50 16 -51 0 0 -12 -2 -26 -3
-42 -3 -114 -39 -114 -57 0 -32 29 -85 47 -85 10 0 46 13 81 30 34 16 62 26
62 21 0 -4 -34 -23 -75 -43 -87 -42 -86 -42 -133 62 -51 113 -53 104 35 149
43 21 81 36 84 33 4 -4 14 -29 23 -56z m328 -58 c26 -13 48 -61 48 -103 0 -27
-8 -44 -29 -66 -25 -25 -37 -29 -81 -29 -44 0 -56 4 -81 29 -23 24 -29 38 -29
74 0 91 87 139 172 95z m708 -28 c-13 -13 -17 -13 -31 0 -14 14 -14 17 0 30
14 14 17 14 31 0 13 -13 13 -17 0 -30z m-1222 -48 c13 -31 25 -62 28 -68 3 -6
-18 -21 -47 -32 -75 -32 -94 -26 -27 8 46 24 55 33 51 49 -10 39 -29 45 -78
26 -34 -12 -45 -22 -45 -38 -1 -20 -2 -19 -16 6 -8 16 -14 33 -12 39 4 10 104
67 118 68 3 0 15 -26 28 -58z m-187 -53 c5 -20 21 -53 35 -74 26 -39 26 -65
-1 -65 -18 0 -55 57 -80 124 l-19 49 25 20 c23 19 24 19 27 1 2 -11 8 -35 13
-55z m1195 -40 c10 -11 38 -26 63 -34 25 -7 37 -14 25 -14 -55 -2 -86 -23
-109 -74 l-22 -51 -7 35 c-8 45 -41 76 -91 87 l-39 8 40 12 c54 16 84 50 92
104 l5 43 13 -48 c7 -27 20 -57 30 -68z"/>
<path d="M1175 928 c-50 -29 -58 -75 -20 -113 15 -16 36 -25 55 -25 33 0 80
38 80 64 0 28 -22 64 -47 75 -30 14 -43 13 -68 -1z m63 -60 c2 -19 -2 -28 -17
-33 -27 -8 -41 1 -41 29 0 29 9 38 35 34 13 -2 21 -12 23 -30z"/>
<path d="M540 817 c0 -13 30 -80 41 -94 23 -27 29 0 8 35 -24 41 -49 70 -49
59z"/>
<path d="M1197 605 c-4 -38 -7 -127 -7 -197 0 -107 2 -128 15 -128 13 0 15 23
14 148 0 81 -4 170 -8 197 l-7 50 -7 -70z"/>
<path d="M1000 480 c-63 -127 -88 -186 -80 -194 7 -7 15 -6 25 4 16 17 157
361 150 368 -2 3 -45 -78 -95 -178z"/>
<path d="M1340 591 c0 -15 98 -243 120 -279 19 -31 40 -43 40 -22 0 13 -149
310 -155 310 -3 0 -5 -4 -5 -9z"/>
</g>
</svg>
