<?xml version="1.0" standalone="no"?>
<!DOCTYPE svg PUBLIC "-//W3C//DTD SVG 20010904//EN"
 "http://www.w3.org/TR/2001/REC-SVG-20010904/DTD/svg10.dtd">
<svg version="1.0" xmlns="http://www.w3.org/2000/svg"
 width="256.000000pt" height="256.000000pt" viewBox="0 0 256.000000 256.000000"
 preserveAspectRatio="xMidYMid meet">
<metadata>
Created by potrace 1.16, written by Peter Selinger 2001-2019
</metadata>
<g transform="translate(0.000000,256.000000) scale(0.100000,-0.100000)"
fill="#000000" stroke="none">
<path d="M0 1280 l0 -1000 1280 0 1280 0 0 1000 0 1000 -1280 0 -1280 0 0
-1000z m1347 464 c33 -20 45 -50 42 -100 -2 -27 2 -48 9 -53 8 -5 7 -19 -4
-56 -41 -133 20 -266 152 -331 35 -16 42 -23 27 -24 -12 0 -24 -4 -27 -9 -7
-11 32 -38 67 -46 20 -6 25 -2 29 19 4 19 0 26 -16 29 -12 2 -2 5 20 6 l41 1
8 -122 c12 -212 33 -277 124 -383 52 -60 64 -98 39 -123 -9 -9 -151 -12 -580
-12 -551 0 -568 1 -578 19 -18 35 -11 59 41 123 96 120 108 157 119 393 9 193
24 265 76 347 39 61 113 127 176 156 l58 27 0 46 c0 96 94 145 177 93z m366
-65 c49 -13 115 -73 138 -124 24 -52 23 -119 -2 -175 -27 -60 -45 -79 -104
-106 -64 -30 -117 -30 -181 0 -176 82 -154 335 35 402 45 16 66 17 114 3z
m-1115 -323 c2 -10 -7 -39 -21 -65 -40 -74 -57 -147 -58 -250 -1 -78 -3 -90
-10 -63 -15 52 -32 28 -26 -37 4 -45 3 -51 -5 -31 -6 14 -13 73 -15 131 -6
118 7 179 58 282 24 47 34 58 52 55 12 -2 23 -11 25 -22z m1429 -15 c59 -87
89 -236 73 -353 -13 -90 -20 -98 -20 -22 0 56 -1 58 -14 33 -7 -15 -18 -39
-23 -54 -6 -18 -7 7 -5 78 5 115 -10 187 -54 266 -27 48 -31 77 -11 84 20 9
31 2 54 -32z m-1314 -103 c7 -11 3 -30 -16 -69 -29 -58 -37 -152 -16 -206 13
-34 -3 -20 -25 22 -16 30 -16 30 -16 5 0 -14 4 -40 9 -58 6 -18 6 -30 1 -27
-4 2 -16 34 -25 70 -26 95 -13 183 38 258 20 29 34 31 50 5z m1185 0 c6 -7 20
-42 32 -78 23 -67 24 -166 3 -204 -6 -12 -8 2 -5 44 4 50 2 60 -12 60 -10 0
-16 -9 -17 -22 -1 -13 -5 1 -10 30 -5 29 -19 76 -30 103 -17 40 -19 52 -9 64
15 18 34 19 48 3z m-447 -806 c-11 -21 -38 -55 -60 -75 -84 -76 -198 -56 -265
47 -44 67 -47 66 159 66 l185 0 -19 -38z"/>
<path d="M1256 1687 c-26 -19 -18 -71 12 -75 13 -2 30 2 38 8 20 18 17 57 -5
70 -25 13 -24 13 -45 -3z"/>
<path d="M1631 1028 c0 -9 -10 -20 -22 -23 -11 -4 -33 -19 -48 -33 -86 -81
-125 -111 -154 -117 -18 -4 -43 -13 -57 -20 -14 -8 -37 -16 -52 -19 -15 -3
-33 -13 -42 -21 -8 -8 -21 -15 -29 -15 -18 0 -34 -18 -39 -45 -2 -15 -14 -22
-48 -27 -78 -11 -287 -18 -260 -9 27 10 26 10 -6 16 -16 3 -36 -10 -73 -48
-28 -28 -51 -57 -51 -64 0 -10 104 -13 503 -15 276 0 482 -4 457 -8 -45 -7
-45 -8 0 -16 86 -14 120 -15 120 -4 0 20 -21 53 -62 98 -51 56 -85 132 -104
229 -23 123 -32 159 -33 141z"/>
<path d="M1303 574 c7 -7 228 -6 235 1 3 3 -50 5 -118 5 -68 0 -121 -3 -117
-6z"/>
<path d="M1634 1587 c-2 -7 -3 -67 -2 -132 l3 -120 25 0 c25 0 25 0 28 110 2
61 0 120 -3 133 -6 24 -42 31 -51 9z"/>
<path d="M1780 1401 c-24 -10 -59 -33 -77 -52 l-33 -33 -80 27 c-100 34 -105
34 -84 -2 45 -76 174 -100 252 -48 37 24 82 88 82 117 0 13 -7 12 -60 -9z"/>
<path d="M1135 438 c11 -38 77 -94 119 -102 50 -9 122 25 154 74 l24 35 -59 6
c-32 4 -100 7 -151 8 -92 1 -93 1 -87 -21z"/>
</g>
</svg>
