<?xml version="1.0" standalone="no"?>
<!DOCTYPE svg PUBLIC "-//W3C//DTD SVG 20010904//EN"
 "http://www.w3.org/TR/2001/REC-SVG-20010904/DTD/svg10.dtd">
<svg version="1.0" xmlns="http://www.w3.org/2000/svg"
 width="256.000000pt" height="256.000000pt" viewBox="0 0 256.000000 256.000000"
 preserveAspectRatio="xMidYMid meet">
<metadata>
Created by potrace 1.16, written by Peter Selinger 2001-2019
</metadata>
<g transform="translate(0.000000,256.000000) scale(0.100000,-0.100000)"
fill="#000000" stroke="none">
<path d="M0 1280 l0 -1000 1280 0 1280 0 0 1000 0 1000 -1280 0 -1280 0 0
-1000z m1710 190 c22 -22 26 -69 10 -100 -6 -11 -26 -24 -46 -29 -35 -10
-1065 -6 -1111 4 -23 5 -53 51 -53 80 0 9 11 27 25 40 l24 25 566 0 c552 0
565 0 585 -20z m280 -365 c62 -63 63 -65 49 -91 -7 -15 -38 -48 -68 -75 -45
-40 -57 -46 -73 -38 -35 19 -32 39 11 83 22 23 41 46 41 52 0 5 -18 28 -40 49
-42 41 -47 54 -28 73 22 22 43 12 108 -53z m-279 -24 c36 -36 37 -70 5 -108
l-24 -28 -564 3 c-611 4 -600 3 -614 59 -9 33 12 73 46 90 19 10 155 13 573
13 l549 0 29 -29z m-4 -383 c33 -31 32 -90 -3 -117 -26 -21 -35 -21 -575 -21
-386 0 -555 3 -573 11 -30 14 -51 60 -42 94 14 54 14 54 615 55 l555 0 23 -22z"/>
<path d="M1946 957 c-41 -23 -58 -47 -34 -47 8 0 29 16 48 35 40 41 38 42 -14
12z"/>
<path d="M544 1015 c1 -11 7 -19 14 -17 6 1 12 -2 12 -8 0 -5 5 -10 11 -10 8
0 8 5 -1 15 -7 8 -16 13 -20 10 -5 -3 -10 3 -13 12 -3 14 -4 13 -3 -2z"/>
<path d="M553 685 c-27 -19 -31 -66 -7 -90 14 -14 74 -15 569 -13 528 3 554 4
574 22 50 46 10 69 -110 66 -30 -1 -133 3 -229 8 -96 6 -310 13 -475 17 -267
6 -302 5 -322 -10z"/>
</g>
</svg>
