<?xml version="1.0" standalone="no"?>
<!DOCTYPE svg PUBLIC "-//W3C//DTD SVG 20010904//EN"
 "http://www.w3.org/TR/2001/REC-SVG-20010904/DTD/svg10.dtd">
<svg version="1.0" xmlns="http://www.w3.org/2000/svg"
 width="256.000000pt" height="256.000000pt" viewBox="0 0 256.000000 256.000000"
 preserveAspectRatio="xMidYMid meet">
<metadata>
Created by potrace 1.16, written by Peter Selinger 2001-2019
</metadata>
<g transform="translate(0.000000,256.000000) scale(0.100000,-0.100000)"
fill="#000000" stroke="none">
<path d="M0 1280 l0 -1000 1280 0 1280 0 0 1000 0 1000 -1280 0 -1280 0 0
-1000z m1070 268 l209 -213 213 213 213 212 115 -117 c147 -150 181 -189 155
-175 -11 6 -76 67 -144 136 l-124 125 -204 -197 c-112 -108 -212 -198 -221
-200 -18 -3 -231 192 -356 325 -63 67 -70 72 -88 59 -11 -8 -75 -69 -143 -135
-68 -67 -127 -121 -131 -121 -5 0 59 68 141 150 82 83 151 150 153 150 1 0 97
-96 212 -212z m0 -120 l211 -213 207 213 c114 117 212 212 219 212 6 0 48 -39
93 -87 l81 -87 -143 -144 c-79 -79 -169 -169 -201 -200 -33 -31 -63 -65 -69
-76 -9 -16 19 -47 196 -225 113 -114 206 -214 206 -222 0 -8 -36 -50 -80 -94
l-81 -80 -211 212 c-116 117 -214 213 -217 213 -3 0 -101 -95 -218 -212 l-212
-212 -80 79 c-45 43 -81 85 -81 93 0 8 84 101 188 206 103 105 196 201 206
214 l19 22 -212 214 -213 214 82 86 c46 47 86 86 91 86 4 0 103 -96 219 -212z"/>
<path d="M1500 835 c-19 -8 -56 -19 -81 -26 l-46 -12 26 -31 c14 -17 90 -96
168 -176 l142 -145 76 75 76 75 -119 115 c-147 144 -166 154 -242 125z"/>
<path d="M822 717 l-123 -123 76 -74 76 -73 105 104 c149 147 229 238 218 249
-12 12 -149 40 -194 40 -32 0 -48 -12 -158 -123z"/>
</g>
</svg>
