<?xml version="1.0" standalone="no"?>
<!DOCTYPE svg PUBLIC "-//W3C//DTD SVG 20010904//EN"
 "http://www.w3.org/TR/2001/REC-SVG-20010904/DTD/svg10.dtd">
<svg version="1.0" xmlns="http://www.w3.org/2000/svg"
 width="256.000000pt" height="256.000000pt" viewBox="0 0 256.000000 256.000000"
 preserveAspectRatio="xMidYMid meet">
<metadata>
Created by potrace 1.16, written by Peter Selinger 2001-2019
</metadata>
<g transform="translate(0.000000,256.000000) scale(0.100000,-0.100000)"
fill="#000000" stroke="none">
<path d="M0 1280 l0 -1000 1280 0 1280 0 0 1000 0 1000 -1280 0 -1280 0 0
-1000z m2086 447 l24 -28 0 -633 c0 -625 0 -634 -20 -657 l-21 -24 16 32 c12
25 15 67 14 200 -1 142 -13 313 -18 248 -1 -17 -3 -18 -11 -5 -6 10 -10 -46
-12 -170 -1 -102 -5 51 -8 338 l-5 524 -24 19 c-22 18 -49 19 -735 19 -391 0
-721 -3 -732 -6 -42 -11 -44 -35 -46 -512 -2 -251 -4 -368 -5 -259 -3 152 -6
198 -16 194 -15 -5 -29 -235 -25 -433 3 -123 6 -145 22 -163 19 -21 23 -21
650 -23 403 -1 570 -4 461 -8 -93 -4 -377 -5 -630 -3 l-460 4 -25 25 -25 24
-3 634 c-2 613 -2 634 17 657 l19 24 649 6 c356 3 710 5 786 5 l139 -1 24 -28z
m-693 -267 c61 -23 133 -88 174 -157 26 -45 45 -165 27 -176 -5 -3 -10 19 -11
49 -6 136 -133 260 -277 271 -90 8 -161 -16 -225 -73 -67 -60 -93 -111 -99
-196 -5 -68 -15 -87 -25 -46 -19 71 30 196 104 262 92 83 219 108 332 66z
m573 -42 c-3 -13 -6 -39 -6 -58 -1 -35 -1 -35 -17 -13 -15 22 -15 22 -60 -37
-24 -33 -49 -63 -55 -66 -11 -7 -37 19 -58 55 -7 13 -17 8 -54 -34 -29 -33
-48 -47 -54 -40 -7 7 7 30 44 70 l54 60 32 -38 33 -39 31 39 c46 58 48 62 29
83 -19 21 -23 18 50 33 36 8 37 7 31 -15z m-1137 -2 c28 -15 61 -56 61 -76 0
-7 -11 2 -25 19 -55 64 -156 63 -195 -2 -24 -38 -25 -80 -5 -137 15 -43 15
-43 -5 -25 -41 37 -48 130 -14 179 36 53 123 72 183 42z m561 -22 l35 -19 -42
-3 c-24 -2 -43 -7 -43 -13 0 -5 -24 -9 -52 -9 -31 0 -71 -9 -95 -20 -24 -10
-43 -17 -43 -15 0 3 19 18 42 35 22 16 36 30 30 30 -23 0 -61 -20 -95 -49 -29
-26 -36 -28 -41 -15 -8 20 46 69 99 89 53 20 159 14 205 -11z m-597 -92 c-33
-40 -53 -51 -53 -29 0 19 74 91 79 76 2 -6 -10 -27 -26 -47z m618 1 c-5 -11
-28 -41 -50 -68 -26 -31 -41 -60 -41 -77 0 -33 -26 -49 -57 -37 -30 11 -32 63
-3 79 10 6 23 9 27 8 4 -1 35 25 67 60 58 61 78 73 57 35z m599 -283 c0 -7
-245 -10 -715 -10 -470 0 -715 3 -715 10 0 7 245 10 715 10 470 0 715 -3 715
-10z m-980 -60 c-6 -11 -13 -20 -16 -20 -2 0 0 9 6 20 6 11 13 20 16 20 2 0 0
-9 -6 -20z m478 -2 c7 -7 12 -18 12 -25 0 -10 -6 -10 -25 3 -14 9 -25 20 -25
25 0 13 24 11 38 -3z m-430 -31 c2 -10 -4 -20 -13 -23 -21 -9 -28 0 -20 26 8
24 28 22 33 -3z m386 -3 c4 -10 1 -14 -6 -12 -15 5 -23 28 -10 28 5 0 13 -7
16 -16z m358 9 c-40 -2 -103 -2 -140 0 -37 2 -4 3 73 3 77 0 107 -2 67 -3z
m88 -28 c0 -10 -10 -15 -30 -15 -20 0 -30 5 -30 15 0 10 10 15 30 15 20 0 30
-5 30 -15z m-1113 -140 c1 -55 -1 -94 -3 -88 -7 17 -44 -2 -44 -23 0 -8 -4
-12 -10 -9 -11 7 -14 208 -3 219 4 4 19 6 33 4 25 -3 25 -4 27 -103z m577 61
c41 -31 54 -52 71 -117 10 -38 10 -52 -1 -79 -19 -44 -26 -34 -12 17 9 37 7
48 -12 88 -23 48 -73 88 -122 100 -69 17 -166 -60 -175 -138 -4 -30 0 -56 11
-78 20 -40 15 -48 -10 -16 -15 18 -18 36 -16 84 3 54 8 67 40 103 20 24 50 49
66 56 46 21 118 12 160 -20z m434 -13 c14 -23 14 -23 -37 -23 -54 0 -62 8 -35
35 22 21 53 16 72 -12z m-470 -33 c29 -27 28 -38 -3 -32 -21 4 -26 0 -31 -27
-7 -34 -17 -45 -53 -56 -20 -6 -23 -4 -18 9 4 11 -2 25 -17 39 -26 25 -22 57
11 76 30 18 87 13 111 -9z m-419 -34 c7 -8 11 -32 9 -53 -3 -35 -5 -38 -33
-38 -28 0 -30 2 -33 44 -4 56 28 82 57 47z m746 4 c-3 -5 -18 -10 -33 -10 -21
0 -24 2 -12 10 20 13 53 13 45 0z m-992 -67 c5 -48 2 -53 -34 -53 -24 0 -29 4
-29 26 0 36 17 64 39 64 14 0 20 -9 24 -37z m1215 30 c-10 -2 -26 -2 -35 0
-10 3 -2 5 17 5 19 0 27 -2 18 -5z m-205 -70 c-18 -2 -48 -2 -65 0 -18 2 -4 4
32 4 36 0 50 -2 33 -4z m230 0 c-24 -2 -62 -2 -85 0 -24 2 -5 4 42 4 47 0 66
-2 43 -4z m-132 -87 c-6 -8 -21 -12 -32 -9 -23 6 -15 19 16 25 26 6 30 2 16
-16z m-881 -119 c30 -2 -38 -4 -152 -5 -114 -1 -209 1 -211 6 -5 6 230 6 363
-1z m1002 -4 c-51 -2 -132 -2 -180 0 -48 1 -6 3 93 3 99 0 138 -2 87 -3z"/>
<path d="M534 1686 c-10 -26 4 -48 28 -44 17 2 23 10 23 28 0 18 -6 26 -23 28
-13 2 -25 -3 -28 -12z"/>
<path d="M647 1694 c-13 -13 -7 -52 9 -58 22 -9 46 13 42 38 -3 21 -37 34 -51
20z"/>
<path d="M743 1684 c-15 -39 38 -67 60 -32 8 12 7 21 -2 32 -17 21 -50 20 -58
0z"/>
</g>
</svg>
