<?xml version="1.0" standalone="no"?>
<!DOCTYPE svg PUBLIC "-//W3C//DTD SVG 20010904//EN"
 "http://www.w3.org/TR/2001/REC-SVG-20010904/DTD/svg10.dtd">
<svg version="1.0" xmlns="http://www.w3.org/2000/svg"
 width="256.000000pt" height="256.000000pt" viewBox="0 0 256.000000 256.000000"
 preserveAspectRatio="xMidYMid meet">
<metadata>
Created by potrace 1.16, written by Peter Selinger 2001-2019
</metadata>
<g transform="translate(0.000000,256.000000) scale(0.100000,-0.100000)"
fill="#000000" stroke="none">
<path d="M0 1280 l0 -1000 1280 0 1280 0 0 1000 0 1000 -1280 0 -1280 0 0
-1000z m1948 178 c1 -153 1 -278 -1 -278 -3 0 -48 45 -102 100 l-98 99 -280
-274 c-153 -151 -286 -275 -295 -275 -11 0 1 18 33 52 28 29 43 47 35 41 -8
-6 -44 -10 -80 -11 -70 0 -76 -7 -42 -47 17 -20 17 -20 -5 -2 -12 11 -29 34
-37 52 -35 72 -38 67 254 360 l271 271 -40 32 c-66 53 -161 144 -161 153 0 6
114 8 273 7 l272 -3 3 -277z m-608 122 c11 -21 20 -48 20 -60 0 -20 -5 -20
-295 -20 -282 0 -296 -1 -315 -20 -19 -19 -20 -33 -20 -480 l0 -461 25 -24 24
-25 431 0 432 0 29 29 29 29 0 296 c0 162 4 297 9 300 4 3 32 -6 60 -20 l52
-26 -3 -297 -3 -298 -29 -41 c-16 -23 -46 -50 -70 -62 -41 -19 -58 -20 -507
-18 l-464 3 472 5 c459 5 472 6 500 26 57 43 73 79 73 170 l0 83 -27 -14 c-15
-8 -30 -12 -35 -9 -4 3 -8 -19 -8 -48 0 -70 -28 -106 -90 -119 -57 -11 -787
-10 -836 1 -70 16 -78 32 -86 193 -3 78 -7 152 -7 165 -1 13 -5 20 -11 17 -5
-3 -10 -1 -10 4 0 6 -6 11 -14 11 -8 0 -16 8 -18 18 -3 9 -8 -69 -12 -175 -4
-105 -5 -202 -2 -215 7 -22 6 -22 -6 -3 -17 26 -25 940 -9 995 13 45 67 97
117 115 29 11 106 14 311 15 l273 0 20 -40z m-649 -1157 c13 -16 12 -17 -3 -4
-10 7 -18 15 -18 17 0 8 8 3 21 -13z"/>
</g>
</svg>
