<?xml version="1.0" standalone="no"?>
<!DOCTYPE svg PUBLIC "-//W3C//DTD SVG 20010904//EN"
 "http://www.w3.org/TR/2001/REC-SVG-20010904/DTD/svg10.dtd">
<svg version="1.0" xmlns="http://www.w3.org/2000/svg"
 width="256.000000pt" height="256.000000pt" viewBox="0 0 256.000000 256.000000"
 preserveAspectRatio="xMidYMid meet">
<metadata>
Created by potrace 1.16, written by Peter Selinger 2001-2019
</metadata>
<g transform="translate(0.000000,256.000000) scale(0.100000,-0.100000)"
fill="#000000" stroke="none">
<path d="M0 1280 l0 -1000 1280 0 1280 0 0 1000 0 1000 -1280 0 -1280 0 0
-1000z m1346 515 c100 -98 168 -222 180 -330 4 -32 1 -100 -6 -154 -15 -114
-4 -183 37 -232 35 -41 98 -42 135 -1 29 32 48 81 48 128 0 19 4 34 9 34 4 0
27 -41 51 -92 68 -148 68 -284 -1 -393 -16 -25 -36 -45 -45 -45 -15 0 -15 2 0
25 40 61 58 208 35 286 l-12 38 -35 -30 c-41 -36 -72 -49 -118 -49 -58 0 -110
34 -144 93 -26 46 -30 62 -30 131 0 43 5 107 12 142 22 120 -24 260 -119 363
l-42 46 -1 -66 c0 -118 -41 -212 -147 -344 -86 -106 -121 -172 -130 -242 -3
-28 -9 -57 -13 -63 -22 -36 -135 47 -146 106 -3 19 -10 34 -14 34 -14 0 -72
-121 -86 -183 l-14 -62 4 50 c3 28 8 59 12 69 5 13 4 17 -4 12 -19 -11 -35
-86 -35 -161 0 -79 21 -155 60 -212 22 -32 22 -35 4 -19 -11 11 -32 42 -45 70
-73 158 -57 302 52 470 29 43 57 96 64 117 20 68 30 49 43 -77 6 -57 34 -124
52 -124 5 0 16 26 25 58 18 60 58 125 154 247 30 39 64 95 75 125 29 77 36
189 15 268 -9 35 -16 65 -16 67 0 13 84 -49 136 -100z m-277 -118 c31 -64 28
-123 -11 -198 -18 -35 -37 -63 -43 -63 -5 -1 -17 18 -25 41 -13 39 -13 48 9
120 14 43 26 93 29 111 6 43 16 40 41 -11z m279 -10 c2 -10 -3 -17 -12 -17
-10 0 -16 9 -16 21 0 24 23 21 28 -4z m14 -33 c4 -3 0 -17 -8 -32 -8 -15 -14
-39 -14 -53 0 -34 -21 -62 -42 -54 -18 7 -12 26 21 68 8 9 10 17 4 17 -5 0 -8
14 -5 30 4 28 28 41 44 24z m25 -44 c-3 -13 0 -20 9 -20 8 0 14 -7 14 -15 0
-9 -9 -15 -25 -15 -14 0 -25 6 -25 13 0 25 13 57 22 57 6 0 8 -9 5 -20z m286
-45 c33 -67 33 -92 6 -170 -18 -51 -20 -74 -15 -150 4 -59 3 -95 -4 -105 -9
-12 -10 -11 -5 6 8 29 -7 65 -22 56 -9 -6 -10 -17 -3 -42 14 -50 5 -47 -15 5
-19 51 -17 96 10 165 14 37 15 54 6 105 -11 60 -5 185 8 185 4 0 19 -25 34
-55z m-317 -102 c-22 -88 -21 -105 11 -181 14 -34 23 -66 19 -70 -12 -11 -31
22 -51 85 -10 32 -20 52 -22 46 -6 -17 14 -76 49 -145 15 -32 24 -58 19 -58
-5 0 -17 21 -27 46 -15 39 -21 45 -41 41 -15 -3 -22 0 -20 7 27 64 26 63 -68
-54 -38 -47 -94 -112 -126 -145 -32 -33 -69 -80 -83 -105 -14 -25 -26 -39 -26
-32 0 30 32 84 82 139 91 100 231 274 224 280 -5 6 -79 -70 -226 -232 -98
-108 -138 -223 -112 -318 6 -20 7 -37 2 -37 -5 0 -13 24 -19 53 -10 45 -8 61
12 128 20 65 38 94 113 190 49 62 115 141 147 177 31 35 57 68 57 73 0 5 8 17
18 27 9 9 28 52 41 95 17 52 28 74 35 67 7 -7 4 -32 -8 -77z m78 72 c6 -17 -1
-39 -23 -74 -15 -24 -16 -27 -24 -96 -5 -41 -22 -48 -22 -8 1 12 -3 19 -7 17
-4 -3 -8 2 -8 10 0 9 6 16 13 16 9 0 13 11 11 33 -3 31 31 117 47 117 4 0 9
-7 13 -15z m-135 -34 c19 -12 -6 -81 -30 -81 -24 0 -34 19 -15 26 9 3 13 10
10 15 -6 11 4 49 14 49 4 0 13 -4 21 -9z m151 -62 c0 -5 -7 -9 -15 -9 -15 0
-20 12 -9 23 8 8 24 -1 24 -14z m-189 -29 c5 0 9 -6 9 -14 0 -15 -47 -19 -56
-5 -9 14 7 31 23 25 8 -3 19 -6 24 -6z m179 -24 c-13 -13 -35 7 -25 24 5 8 11
8 21 -1 10 -8 12 -15 4 -23z m-190 -30 c0 -21 -11 -25 -34 -13 -11 7 -23 13
-25 14 -1 1 0 6 3 11 8 13 56 2 56 -12z m184 -13 c-3 -16 -8 -35 -11 -43 -7
-17 -9 -27 -12 -55 -2 -16 -5 -14 -17 12 -12 27 -11 36 1 60 8 15 15 34 15 41
0 6 7 12 15 12 12 0 14 -7 9 -27z m-219 -17 c18 -13 18 -14 -3 -25 -27 -14
-42 -7 -42 20 0 22 18 25 45 5z m-74 -39 c-8 -8 -11 -7 -11 4 0 20 13 34 18
19 3 -7 -1 -17 -7 -23z m29 -15 c0 -13 -12 -22 -22 -16 -10 6 -1 24 13 24 5 0
9 -4 9 -8z m-40 -11 c0 -5 3 -18 7 -28 6 -17 5 -17 -15 1 -26 22 -28 36 -7 36
8 0 15 -4 15 -9z m305 -28 c-2 -16 -4 -38 -4 -50 -1 -13 -6 -23 -11 -23 -6 0
-8 11 -5 25 3 14 7 36 10 50 7 34 15 32 10 -2z m-326 -22 c7 -5 10 -14 7 -20
-11 -17 -24 -13 -36 9 -12 22 3 27 29 11z m237 -53 c23 -45 12 -43 -13 3 -12
21 -17 37 -12 33 5 -3 16 -19 25 -36z m-256 2 c0 -4 -10 -15 -22 -26 -20 -18
-21 -18 -15 -1 4 10 7 25 7 33 0 8 6 11 15 8 8 -4 15 -9 15 -14z m353 -63 c9
-24 41 -72 71 -108 50 -60 86 -117 86 -136 0 -4 -10 8 -21 27 -12 19 -44 59
-71 89 -62 68 -117 171 -90 171 4 0 15 -19 25 -43z m-581 -9 c-16 -16 -37 4
-28 28 6 16 8 16 23 1 13 -13 14 -19 5 -29z m444 -7 c-8 -52 10 -144 40 -204
l25 -49 19 22 19 22 25 -26 c32 -35 39 -66 23 -113 -10 -30 -17 -37 -34 -35
-12 2 -24 -2 -28 -8 -7 -11 -51 -13 -110 -3 -32 5 -36 8 -20 14 12 5 5 6 -18
3 -34 -6 -42 -3 -73 27 -19 18 -34 29 -34 23 0 -5 -5 -2 -10 6 -5 8 -10 36
-10 61 0 50 23 94 85 159 18 19 47 59 65 88 17 28 34 52 37 52 3 0 3 -17 -1
-39z m-411 -11 c-3 -4 1 -10 7 -13 10 -3 10 -7 1 -17 -9 -9 -14 -8 -23 9 -12
23 -5 45 11 35 5 -3 7 -9 4 -14z m-62 -20 c4 -17 3 -19 -9 -9 -8 6 -14 18 -14
26 0 20 16 8 23 -17z m137 -43 c0 -6 -3 -7 -7 -4 -3 4 -12 2 -20 -4 -16 -14
-47 7 -36 24 4 6 9 3 14 -9 7 -18 8 -18 15 4 5 18 9 20 20 11 8 -6 14 -16 14
-22z m791 15 c-21 -40 -92 -82 -139 -82 -27 0 -72 34 -60 45 3 3 11 -1 18 -10
26 -31 118 -6 164 44 23 26 30 27 17 3z m-858 -49 c20 -9 37 -20 37 -24 0 -12
-76 17 -111 41 -40 29 -37 47 4 20 17 -12 49 -29 70 -37z m518 20 c13 -16 12
-17 -3 -4 -17 13 -22 21 -14 21 2 0 10 -8 17 -17z m-334 -31 c-9 -9 -25 -38
-36 -62 -11 -25 -21 -38 -21 -30 0 20 60 123 67 116 4 -3 -1 -14 -10 -24z
m683 5 c0 -14 -109 -77 -133 -77 -8 0 -20 7 -27 15 -15 18 -7 19 20 3 17 -11
27 -7 77 29 67 49 63 47 63 30z m-905 -32 c39 -19 61 -35 50 -35 -27 0 -97 33
-114 53 -18 22 -18 22 64 -18z m896 -54 c-6 -4 -9 -15 -5 -24 8 -21 -9 -22
-26 -2 -7 8 -16 12 -21 9 -5 -3 -9 -3 -9 -1 0 12 65 45 69 35 2 -5 -2 -14 -8
-17z m-947 4 c-4 -8 -10 -15 -15 -15 -5 0 -9 7 -9 15 0 8 7 15 15 15 9 0 12
-6 9 -15z m25 -26 c-27 -21 -39 -24 -39 -9 0 6 7 10 15 10 8 0 15 7 15 15 0 9
6 12 16 8 14 -5 13 -9 -7 -24z m49 -24 c-22 -22 -38 -24 -38 -4 0 5 7 9 16 9
11 0 14 6 9 21 -6 19 -5 20 15 9 l21 -11 -23 -24z m785 1 c3 -8 3 -17 0 -20
-7 -7 -33 13 -33 25 0 15 27 10 33 -5z m-66 -28 c-3 -7 -5 -2 -5 12 0 14 2 19
5 13 2 -7 2 -19 0 -25z m127 9 c15 -24 -3 -35 -20 -13 -8 11 -14 24 -14 29 0
13 22 3 34 -16z m-893 -20 c-13 -13 -26 -3 -16 12 3 6 11 8 17 5 6 -4 6 -10
-1 -17z m69 -7 c0 -5 -7 -10 -15 -10 -8 0 -15 5 -15 10 0 6 7 10 15 10 8 0 15
-4 15 -10z m759 -19 c-13 -11 -26 -18 -28 -15 -7 7 21 34 36 34 10 0 8 -6 -8
-19z m-809 -5 c0 -3 -4 -8 -10 -11 -5 -3 -10 -1 -10 4 0 6 5 11 10 11 6 0 10
-2 10 -4z m58 -15 c3 -8 -1 -12 -9 -9 -7 2 -15 10 -17 17 -3 8 1 12 9 9 7 -2
15 -10 17 -17z m782 -11 c-6 -11 -12 -20 -14 -20 -2 0 -2 9 1 20 3 11 9 20 15
20 5 0 4 -9 -2 -20z m-820 -10 c0 -5 -4 -10 -10 -10 -5 0 -10 5 -10 10 0 6 5
10 10 10 6 0 10 -4 10 -10z m764 -35 c-9 -14 -19 -24 -21 -21 -7 7 16 46 28
46 5 0 2 -11 -7 -25z m216 -31 c13 -13 2 -27 -95 -122 -153 -150 -253 -214
-351 -226 -46 -6 -45 -5 16 11 82 23 138 56 243 143 108 90 153 145 136 166
-11 13 -18 10 -53 -24 -74 -70 -182 -151 -232 -174 -70 -31 -209 -31 -318 1
-44 13 -87 27 -95 31 -21 12 -88 23 -131 22 -83 -1 -136 -5 -144 -10 -15 -9
-57 -9 -62 0 -5 8 -25 0 -59 -26 -20 -14 -19 -16 20 -58 l40 -43 -50 45 c-27
25 -52 47 -55 48 -15 10 217 178 292 212 60 27 140 26 235 -5 57 -19 109 -27
196 -32 65 -3 120 -10 123 -15 11 -17 -8 -49 -39 -66 -27 -14 -55 -17 -168
-15 -106 2 -139 0 -148 -11 -9 -11 4 -17 73 -35 171 -42 258 -25 385 75 168
133 172 136 200 129 14 -3 33 -13 41 -21z m-867 -331 c-7 -2 -19 -2 -25 0 -7
3 -2 5 12 5 14 0 19 -2 13 -5z m-43 -7 c0 -2 -7 -7 -16 -10 -8 -3 -12 -2 -9 4
6 10 25 14 25 6z m273 -3 c-7 -2 -21 -2 -30 0 -10 3 -4 5 12 5 17 0 24 -2 18
-5z"/>
<path d="M1813 888 c-5 -40 -19 -92 -31 -115 -11 -24 -16 -43 -12 -43 19 0 53
95 58 161 2 38 3 69 0 69 -2 0 -9 -33 -15 -72z"/>
</g>
</svg>
