<?xml version="1.0" standalone="no"?>
<!DOCTYPE svg PUBLIC "-//W3C//DTD SVG 20010904//EN"
 "http://www.w3.org/TR/2001/REC-SVG-20010904/DTD/svg10.dtd">
<svg version="1.0" xmlns="http://www.w3.org/2000/svg"
 width="256.000000pt" height="256.000000pt" viewBox="0 0 256.000000 256.000000"
 preserveAspectRatio="xMidYMid meet">
<metadata>
Created by potrace 1.16, written by Peter Selinger 2001-2019
</metadata>
<g transform="translate(0.000000,256.000000) scale(0.100000,-0.100000)"
fill="#000000" stroke="none">
<path d="M0 1280 l0 -1000 603 1 c499 1 592 3 542 13 -118 24 -239 78 -306
137 -25 22 -19 19 25 -11 118 -80 273 -124 431 -123 248 3 456 116 590 323 52
80 90 180 81 215 -10 38 -21 30 -39 -29 -36 -112 -163 -268 -281 -345 -207
-135 -497 -142 -711 -16 -112 65 -254 232 -295 348 -14 38 -24 45 -35 27 -4
-6 -11 -8 -16 -5 -5 4 -9 4 -9 1 0 -16 47 -128 72 -171 17 -27 23 -43 15 -35
-27 26 -85 154 -108 236 -31 110 -31 268 0 378 37 135 93 229 196 332 78 79
104 98 195 143 223 110 432 110 660 -1 91 -44 115 -62 195 -142 77 -77 98
-106 137 -186 61 -126 78 -199 78 -341 0 -216 -59 -366 -204 -518 -106 -111
-234 -183 -386 -215 -59 -13 -5 -14 533 -15 l597 -1 0 1000 0 1000 -1280 0
-1280 0 0 -1000z m701 -707 c13 -16 12 -17 -3 -4 -10 7 -18 15 -18 17 0 8 8 3
21 -13z m69 -78 c19 -19 32 -35 29 -35 -3 0 -20 16 -39 35 -19 19 -32 35 -29
35 3 0 20 -16 39 -35z"/>
<path d="M1154 1676 c-146 -33 -257 -98 -359 -208 -123 -133 -182 -297 -171
-478 9 -161 62 -290 169 -406 133 -145 287 -214 484 -214 122 0 180 13 288 65
161 77 287 220 341 388 22 67 27 102 28 192 1 200 -54 337 -193 475 -93 93
-179 144 -296 175 -86 23 -218 28 -291 11z m289 -83 c50 -15 51 -16 24 -24
-16 -4 -54 -5 -85 -3 -31 3 -69 6 -84 7 -16 1 -28 4 -28 7 0 7 -28 10 -88 11
-56 1 -48 9 20 19 68 11 174 3 241 -17z m287 -355 c0 -4 -127 -136 -282 -293
l-282 -286 -168 168 -168 168 67 67 68 68 97 -97 98 -97 216 223 217 222 69
-68 c37 -37 68 -71 68 -75z m-155 -720 c-90 -57 -177 -81 -290 -81 -103 -1
-149 8 -230 44 -64 28 -52 34 16 7 40 -16 84 -22 169 -26 130 -5 204 9 305 58
79 38 92 37 30 -2z"/>
<path d="M1329 866 c-4 -5 -148 -14 -252 -17 l-68 -2 78 -79 c42 -43 80 -78
83 -78 3 0 43 41 88 90 46 50 82 90 79 90 -2 0 -6 -2 -8 -4z"/>
</g>
</svg>
