<?xml version="1.0" standalone="no"?>
<!DOCTYPE svg PUBLIC "-//W3C//DTD SVG 20010904//EN"
 "http://www.w3.org/TR/2001/REC-SVG-20010904/DTD/svg10.dtd">
<svg version="1.0" xmlns="http://www.w3.org/2000/svg"
 width="256.000000pt" height="256.000000pt" viewBox="0 0 256.000000 256.000000"
 preserveAspectRatio="xMidYMid meet">
<metadata>
Created by potrace 1.16, written by Peter Selinger 2001-2019
</metadata>
<g transform="translate(0.000000,256.000000) scale(0.100000,-0.100000)"
fill="#000000" stroke="none">
<path d="M0 1280 l0 -1000 932 0 932 0 -64 68 c-36 37 -111 114 -167 172
l-102 105 68 75 68 75 166 -159 c91 -87 173 -168 181 -182 23 -34 20 -96 -5
-128 l-20 -26 285 0 286 0 0 1000 0 1000 -1280 0 -1280 0 0 -1000z m1193 515
c190 -40 359 -193 424 -384 27 -80 31 -225 8 -316 -65 -256 -289 -435 -544
-435 -163 0 -284 50 -396 164 -142 144 -201 337 -161 526 25 118 67 193 160
285 149 147 319 201 509 160z m838 -67 c-4 -27 -6 -29 -9 -10 -2 16 -9 21 -20
18 -41 -12 -103 -24 -97 -18 3 4 34 14 68 24 34 9 62 17 63 17 0 1 -2 -14 -5
-31z m-141 -113 c-24 -25 -46 -45 -49 -45 -3 0 15 20 39 45 24 25 46 45 49 45
3 0 -15 -20 -39 -45z m127 13 c-3 -7 -5 -2 -5 12 0 14 2 19 5 13 2 -7 2 -19 0
-25z m-107 -51 c0 -1 -48 -50 -107 -107 l-108 -105 105 108 c97 99 110 112
110 104z m69 -159 c-1 -29 -4 -43 -6 -30 -4 21 -8 23 -44 17 l-39 -7 0 36 c0
36 0 36 45 36 l45 0 -1 -52z m-411 -598 c7 -12 23 -20 39 -20 26 0 26 0 7 -21
-15 -16 -27 -20 -56 -16 -33 4 -58 -6 -58 -25 0 -4 9 -8 21 -8 13 0 18 4 13
12 -5 7 -3 8 5 4 9 -6 8 -13 -5 -27 -18 -19 -18 -19 -42 5 l-25 24 39 46 c21
25 41 45 44 46 3 0 11 -9 18 -20z"/>
<path d="M995 1700 c-154 -31 -304 -163 -354 -312 -43 -127 -22 -309 48 -419
195 -308 646 -278 805 54 93 193 63 396 -80 539 -116 116 -272 167 -419 138z
m171 -115 c10 -8 15 -15 9 -15 -5 0 -58 -3 -117 -6 -60 -3 -108 -2 -108 1 0 3
15 12 33 20 43 19 157 19 183 0z m-48 -127 c7 -7 12 -44 12 -95 l0 -83 90 0
c88 0 90 0 96 -26 4 -14 2 -36 -5 -50 -10 -23 -15 -24 -96 -24 l-85 0 0 -79
c0 -101 -24 -131 -81 -101 -16 9 -19 22 -19 95 l0 85 -32 1 c-41 0 -119 9
-136 15 -9 2 -12 17 -10 41 l3 38 88 3 87 3 0 82 c0 90 8 107 50 107 14 0 31
-5 38 -12z"/>
<path d="M598 1014 c-14 -14 41 -113 95 -171 67 -71 100 -93 189 -130 78 -31
227 -42 309 -23 127 30 257 114 318 206 59 89 33 87 -63 -4 -60 -58 -164 -129
-201 -139 -97 -25 -291 -35 -303 -16 -4 6 -24 18 -45 26 -52 22 -146 86 -179
122 -16 17 -44 54 -64 83 -34 50 -44 59 -56 46z"/>
<path d="M1576 661 l-28 -30 20 -28 c11 -15 87 -94 169 -175 136 -135 153
-148 185 -148 53 0 88 32 88 80 0 21 -5 42 -10 45 -6 4 -8 11 -5 16 6 9 -67
81 -150 148 -22 18 2 -8 54 -58 52 -50 91 -91 87 -91 -24 0 -134 69 -187 117
-35 32 -73 66 -84 76 -22 20 -101 77 -107 77 -3 0 -17 -13 -32 -29z"/>
</g>
</svg>
