<?xml version="1.0" standalone="no"?>
<!DOCTYPE svg PUBLIC "-//W3C//DTD SVG 20010904//EN"
 "http://www.w3.org/TR/2001/REC-SVG-20010904/DTD/svg10.dtd">
<svg version="1.0" xmlns="http://www.w3.org/2000/svg"
 width="256.000000pt" height="256.000000pt" viewBox="0 0 256.000000 256.000000"
 preserveAspectRatio="xMidYMid meet">
<metadata>
Created by potrace 1.16, written by Peter Selinger 2001-2019
</metadata>
<g transform="translate(0.000000,256.000000) scale(0.100000,-0.100000)"
fill="#000000" stroke="none">
<path d="M0 1280 l0 -1000 931 0 931 0 -85 93 c-47 50 -122 127 -166 170 l-81
79 66 74 c37 41 71 74 77 74 5 0 88 -78 183 -173 l174 -173 0 -46 c0 -31 -7
-54 -21 -72 l-20 -26 285 0 286 0 0 1000 0 1000 -1280 0 -1280 0 0 -1000z
m1193 515 c111 -23 192 -69 282 -160 120 -119 167 -228 168 -385 1 -107 -14
-173 -64 -278 -90 -189 -287 -312 -497 -312 -195 0 -349 82 -463 243 -71 102
-102 202 -102 337 0 88 4 117 25 178 35 96 76 158 156 233 74 70 173 122 273
143 84 19 139 19 222 1z m837 -75 c-7 -32 -8 -32 -9 -7 -1 15 -2 27 -3 27 -2
0 -28 -7 -58 -15 -30 -8 -56 -12 -58 -10 -2 2 22 11 54 20 33 9 64 18 69 19
14 5 14 4 5 -34z m-120 -83 c0 -2 -17 -19 -37 -38 l-38 -34 34 38 c33 34 41
42 41 34z m-50 -111 c0 -2 -8 -10 -17 -17 -16 -13 -17 -12 -4 4 13 16 21 21
21 13z m103 -63 c-13 -2 -35 -2 -50 0 -16 2 -5 4 22 4 28 0 40 -2 28 -4z
m-395 -643 c7 -12 23 -20 39 -20 25 0 26 0 8 -20 -10 -11 -24 -20 -32 -20 -7
0 -26 -14 -41 -31 l-27 -30 -24 25 -23 25 38 45 c22 25 41 45 44 46 3 0 11 -9
18 -20z"/>
<path d="M985 1696 c-134 -33 -258 -133 -322 -262 l-38 -78 0 -126 c1 -115 3
-131 30 -194 59 -142 199 -253 349 -278 279 -46 546 193 546 490 0 284 -291
515 -565 448z m190 -108 c14 -6 25 -14 25 -18 0 -7 -261 -21 -269 -14 -2 2 16
13 40 24 50 22 162 27 204 8z m143 -346 c6 -61 2 -62 -237 -62 -155 0 -220 3
-229 12 -13 13 -16 70 -5 82 4 3 110 5 237 4 l231 -3 3 -33z"/>
<path d="M610 988 c0 -58 122 -204 208 -251 151 -82 340 -86 498 -11 91 43
260 224 210 224 -9 0 -25 -13 -37 -29 -20 -27 -148 -131 -162 -131 -4 0 -32
-12 -64 -27 -51 -24 -71 -27 -168 -27 -91 -1 -122 3 -178 22 -72 25 -175 89
-204 126 -52 65 -103 117 -103 104z"/>
<path d="M1581 664 c-17 -14 -31 -31 -31 -37 0 -7 75 -88 168 -180 154 -154
170 -167 203 -167 22 0 47 9 64 22 25 20 27 25 22 71 -7 59 -2 52 -141 179
l-111 102 115 -118 115 -117 -68 38 c-38 21 -110 74 -160 118 -51 44 -104 88
-119 97 -26 17 -28 17 -57 -8z"/>
</g>
</svg>
