<?xml version="1.0" standalone="no"?>
<!DOCTYPE svg PUBLIC "-//W3C//DTD SVG 20010904//EN"
 "http://www.w3.org/TR/2001/REC-SVG-20010904/DTD/svg10.dtd">
<svg version="1.0" xmlns="http://www.w3.org/2000/svg"
 width="256.000000pt" height="256.000000pt" viewBox="0 0 256.000000 256.000000"
 preserveAspectRatio="xMidYMid meet">
<metadata>
Created by potrace 1.16, written by Peter Selinger 2001-2019
</metadata>
<g transform="translate(0.000000,256.000000) scale(0.100000,-0.100000)"
fill="#000000" stroke="none">
<path d="M0 1280 l0 -1000 1280 0 1280 0 0 1000 0 1000 -1280 0 -1280 0 0
-1000z m1975 498 c52 -27 68 -54 73 -116 l4 -57 -91 -2 c-73 -2 -91 0 -91 11
0 9 12 16 28 18 15 2 27 8 27 13 0 6 -12 11 -27 13 -39 5 -36 30 5 34 49 5 38
23 -15 26 l-48 3 0 -75 c0 -65 2 -76 18 -77 9 -1 1 -5 -18 -11 -19 -5 -109
-10 -198 -11 l-164 -2 -20 28 c-28 40 -34 97 -13 140 35 74 89 87 335 83 125
-2 172 -7 195 -18z m-633 -54 c43 -6 45 -8 39 -33 -7 -25 -10 -26 -108 -33
-279 -18 -492 -172 -586 -422 -28 -75 -31 -90 -31 -211 0 -115 3 -138 26 -203
38 -104 83 -176 162 -256 37 -38 55 -59 38 -48 -49 35 -130 129 -170 198 -39
68 -57 81 -46 37 15 -61 62 -136 143 -229 20 -22 9 -13 -24 21 -74 77 -127
165 -162 270 -23 70 -26 97 -27 215 0 123 2 142 27 215 90 256 318 444 577
475 93 11 93 11 142 4z m-15 -230 c15 -24 15 -29 2 -53 -28 -50 -109 -34 -109
21 0 57 76 79 107 32z m406 9 c-13 -2 -33 -2 -45 0 -13 2 -3 4 22 4 25 0 35
-2 23 -4z m142 -120 c81 -130 117 -345 82 -494 -20 -81 -52 -169 -72 -195 -14
-16 -14 -14 0 14 22 45 55 178 54 216 0 36 -5 28 -34 -64 -24 -74 -79 -179
-116 -221 -28 -32 -28 -31 4 16 52 75 76 128 98 212 45 178 7 386 -96 523
l-26 35 23 7 c42 11 46 9 83 -49z m-497 -127 c109 -57 161 -166 132 -284 -26
-109 -119 -182 -232 -182 -132 0 -223 86 -235 222 -11 118 59 220 177 259 35
12 122 4 158 -15z m-500 -182 c15 -10 22 -25 22 -48 0 -39 -15 -56 -51 -56
-55 0 -78 61 -39 100 24 24 38 25 68 4z m878 -18 c13 -21 14 -29 2 -52 -16
-34 -38 -43 -38 -15 0 19 -17 38 -26 28 -3 -3 -6 -15 -7 -27 l-1 -22 -18 22
c-21 25 -22 43 -8 71 16 29 75 26 96 -5z m104 -405 c-5 -11 -15 -23 -21 -27
-6 -3 -3 5 6 20 20 30 30 35 15 7z m-542 -23 c20 -20 14 -27 -25 -30 -27 -2
-41 -9 -49 -26 -10 -20 -12 -21 -18 -7 -9 26 -8 33 14 55 22 22 60 26 78 8z
m512 -22 c0 -2 -8 -10 -17 -17 -16 -13 -17 -12 -4 4 13 16 21 21 21 13z m-70
-9 c0 -2 -12 -14 -27 -28 l-28 -24 24 28 c23 25 31 32 31 24z m40 -30 c0 -2
-15 -16 -32 -33 l-33 -29 29 33 c28 30 36 37 36 29z m-919 -104 c13 -16 12
-17 -3 -4 -10 7 -18 15 -18 17 0 8 8 3 21 -13z m199 -45 c10 -6 7 -7 -10 -2
-14 3 -32 11 -40 16 -10 6 -7 7 10 2 14 -3 32 -11 40 -16z m97 -24 c-3 -3 -12
-4 -19 -1 -8 3 -5 6 6 6 11 1 17 -2 13 -5z m226 -1 c-7 -2 -19 -2 -25 0 -7 3
-2 5 12 5 14 0 19 -2 13 -5z m-85 -10 c-21 -2 -55 -2 -75 0 -21 2 -4 4 37 4
41 0 58 -2 38 -4z"/>
<path d="M1550 1644 l0 -75 47 3 c56 4 73 28 19 28 l-36 0 0 60 c0 47 -3 60
-15 60 -12 0 -15 -15 -15 -76z"/>
<path d="M1660 1645 c0 -60 3 -75 15 -75 12 0 15 15 15 75 0 60 -3 75 -15 75
-12 0 -15 -15 -15 -75z"/>
<path d="M1727 1644 c32 -97 49 -96 79 4 21 67 21 72 4 72 -12 0 -21 -14 -31
-47 l-13 -48 -15 48 c-10 33 -20 47 -32 47 -16 0 -15 -6 8 -76z"/>
<path d="M1067 1014 c-22 -23 8 -118 50 -156 57 -52 177 -73 247 -44 80 33
130 107 111 166 -6 18 -13 21 -40 17 -18 -3 -37 -7 -41 -10 -30 -18 -204 -6
-232 16 -16 12 -85 21 -95 11z"/>
</g>
</svg>
