<?xml version="1.0" standalone="no"?>
<!DOCTYPE svg PUBLIC "-//W3C//DTD SVG 20010904//EN"
 "http://www.w3.org/TR/2001/REC-SVG-20010904/DTD/svg10.dtd">
<svg version="1.0" xmlns="http://www.w3.org/2000/svg"
 width="256.000000pt" height="256.000000pt" viewBox="0 0 256.000000 256.000000"
 preserveAspectRatio="xMidYMid meet">
<metadata>
Created by potrace 1.16, written by Peter Selinger 2001-2019
</metadata>
<g transform="translate(0.000000,256.000000) scale(0.100000,-0.100000)"
fill="#000000" stroke="none">
<path d="M0 1280 l0 -1000 943 1 942 0 -232 77 -232 77 70 42 c38 24 80 45 94
49 14 3 25 10 25 14 0 4 -26 36 -57 71 -31 35 -111 127 -176 204 -66 77 -126
147 -134 155 -12 13 -28 -1 -131 -109 l-118 -125 -149 180 c-81 98 -158 190
-169 204 -11 14 10 -4 48 -40 37 -36 101 -105 141 -155 40 -49 86 -104 102
-122 l28 -31 120 131 c66 72 115 128 109 124 -12 -7 -50 40 -46 58 1 6 -36
-30 -83 -79 -47 -49 -86 -88 -88 -85 -2 2 -32 37 -65 78 -34 41 -62 79 -62 84
0 6 3 8 6 4 7 -7 23 9 41 39 10 18 -3 38 -117 180 -71 87 -131 167 -134 177
-7 27 2 17 174 -182 85 -99 158 -180 162 -180 4 -1 55 56 113 127 59 70 110
128 113 129 4 1 39 -40 79 -90 40 -51 102 -126 139 -167 36 -41 126 -146 200
-232 l133 -158 77 90 c42 50 79 88 82 86 2 -3 10 -43 17 -88 34 -226 76 -495
81 -516 l4 -22 255 0 255 0 0 1000 0 1000 -1280 0 -1280 0 0 -1000z m1679 445
c30 -10 63 -13 119 -8 61 4 85 2 109 -10 70 -37 111 -121 95 -195 -7 -28 -5
-46 4 -63 7 -13 13 -31 13 -39 0 -8 -9 4 -19 28 -11 23 -16 50 -13 59 6 14 -7
15 -143 9 -82 -4 -182 -10 -223 -14 l-74 -7 -15 -43 c-8 -24 -16 -41 -18 -39
-2 2 1 18 7 35 6 17 9 43 7 59 l-3 28 -83 1 c-46 1 -88 6 -93 11 -5 5 3 33 21
68 16 32 30 64 30 71 0 19 19 27 34 15 8 -7 16 -7 22 -1 16 16 116 49 150 50
17 0 50 -7 73 -15z m-619 -459 l-20 -20 1 114 c1 63 4 104 8 90 6 -22 8 -23
14 -7 4 10 8 28 9 40 1 12 4 -27 5 -87 3 -99 2 -112 -17 -130z m755 209 c6 -2
-10 -4 -35 -4 -25 0 -51 3 -59 8 -13 8 69 5 94 -4z m-168 -27 c-3 -8 -6 -5 -6
6 -1 11 2 17 5 13 3 -3 4 -12 1 -19z m60 0 c-3 -8 -6 -5 -6 6 -1 11 2 17 5 13
3 -3 4 -12 1 -19z m120 -20 c-3 -7 -5 -2 -5 12 0 14 2 19 5 13 2 -7 2 -19 0
-25z m-690 -40 c-3 -7 -5 -2 -5 12 0 14 2 19 5 13 2 -7 2 -19 0 -25z m350 -43
c0 -9 -9 -15 -21 -15 -21 1 -21 1 -2 15 24 18 23 18 23 0z m123 -288 c0 -10
-4 -15 -10 -12 -5 3 -10 18 -10 33 0 21 2 24 10 12 5 -8 10 -23 10 -33z m88
-72 c-3 -46 -4 -48 -15 -24 -6 14 -9 46 -5 74 4 43 6 46 14 25 5 -13 7 -47 6
-75z m-906 -215 l-8 -105 -13 102 c-14 112 -10 147 14 122 11 -11 13 -34 7
-119z m457 -33 c-1 -62 -4 -123 -8 -137 l-7 -25 -6 25 c-4 14 -10 71 -14 127
-5 76 -3 107 6 118 23 28 30 4 29 -108z m61 7 c0 -34 -4 -53 -10 -49 -5 3 -10
28 -10 56 0 27 5 49 10 49 6 0 10 -25 10 -56z"/>
<path d="M1310 944 c1 -5 28 -40 60 -79 33 -38 110 -130 171 -204 l111 -135
-81 -38 c-44 -22 -81 -42 -81 -47 0 -14 516 -168 528 -157 6 7 -36 259 -49
291 -4 11 -8 15 -8 9 -1 -7 -36 -10 -101 -9 l-101 1 -71 64 c-39 36 -75 64
-80 63 -4 -2 -8 2 -8 7 0 6 -8 10 -18 10 -11 0 -27 9 -37 20 -10 11 -23 20
-30 20 -7 0 -20 9 -30 20 -18 20 -21 27 -30 80 -2 14 -4 26 -6 28 -1 1 -2 8
-3 15 -1 6 -11 11 -24 9 -12 -2 -22 1 -22 5 0 14 -50 14 -50 0 -1 -6 -10 -1
-20 12 -11 13 -20 19 -20 15z"/>
</g>
</svg>
