<?xml version="1.0" standalone="no"?>
<!DOCTYPE svg PUBLIC "-//W3C//DTD SVG 20010904//EN"
 "http://www.w3.org/TR/2001/REC-SVG-20010904/DTD/svg10.dtd">
<svg version="1.0" xmlns="http://www.w3.org/2000/svg"
 width="256.000000pt" height="256.000000pt" viewBox="0 0 256.000000 256.000000"
 preserveAspectRatio="xMidYMid meet">
<metadata>
Created by potrace 1.16, written by Peter Selinger 2001-2019
</metadata>
<g transform="translate(0.000000,256.000000) scale(0.100000,-0.100000)"
fill="#000000" stroke="none">
<path d="M0 1280 l0 -1000 743 0 c727 0 741 0 712 19 -50 30 -113 109 -131
164 -41 122 -9 264 80 352 77 76 132 100 236 100 102 0 159 -24 230 -95 73
-72 95 -128 95 -235 0 -78 -4 -97 -28 -147 -17 -34 -50 -77 -83 -107 l-56 -51
381 0 381 0 0 1000 0 1000 -1280 0 -1280 0 0 -1000z m1223 536 c38 -15 64 -50
69 -92 3 -28 5 -29 65 -32 52 -2 65 -7 74 -24 12 -22 7 -126 -6 -148 -5 -9
-74 -11 -259 -7 l-251 4 -3 73 c-4 91 3 100 78 100 58 0 58 0 65 33 10 47 32
77 68 92 41 18 60 18 100 1z m-410 -166 l47 0 0 -40 0 -40 -74 0 c-66 0 -77
-3 -90 -22 -14 -19 -16 -82 -17 -468 -1 -305 -4 -413 -10 -343 -6 80 -12 106
-27 121 -19 19 -19 17 -25 -107 -4 -69 -7 -174 -7 -232 0 -120 13 -151 73
-168 27 -8 28 -9 8 -10 -14 -1 -36 12 -57 33 l-34 34 0 589 c0 528 2 591 16
612 23 32 72 52 114 46 19 -3 56 -5 83 -5z m871 -4 c66 -28 66 -26 66 -374 0
-309 0 -313 -20 -308 -66 19 -60 -12 -60 290 0 219 -3 276 -14 292 -11 15 -30
20 -88 24 l-73 5 -6 37 c-3 21 -4 40 -1 43 11 11 165 4 196 -9z m-808 -167
l16 -31 280 4 280 3 22 28 c19 24 29 27 79 27 l57 0 0 -263 0 -264 -55 -12
c-65 -15 -131 -49 -192 -98 -24 -20 -43 -30 -41 -22 2 12 -35 14 -230 17
l-233 2 3 -27 3 -28 221 0 222 0 -26 -50 c-14 -27 -31 -68 -39 -90 l-13 -40 5
37 c5 33 4 36 -16 31 -13 -4 -25 0 -30 9 -7 12 -33 14 -166 10 -87 -2 -162 -8
-168 -13 -6 -6 -5 -16 3 -29 10 -16 10 -20 -2 -20 -8 0 -21 7 -30 15 -8 8 -22
15 -30 15 -9 0 -17 6 -17 13 -2 25 -18 -69 -19 -118 -1 -27 -6 -61 -10 -75 -4
-14 -8 206 -9 488 l-1 512 60 0 c56 0 60 -2 76 -31z m267 -1076 c-73 -2 -193
-2 -265 0 -73 1 -14 3 132 3 146 0 205 -2 133 -3z m-75 -60 c-21 -2 -57 -2
-80 0 -24 2 -7 4 37 4 44 0 63 -2 43 -4z m145 0 c-7 -2 -21 -2 -30 0 -10 3 -4
5 12 5 17 0 24 -2 18 -5z"/>
<path d="M1132 1748 c-18 -18 -15 -53 6 -71 24 -22 45 -21 65 1 34 37 15 82
-33 82 -14 0 -31 -5 -38 -12z"/>
<path d="M975 1550 c3 -5 17 -10 30 -10 13 0 27 5 30 10 4 6 -8 10 -30 10 -22
0 -34 -4 -30 -10z"/>
<path d="M864 1285 c-3 -8 -3 -19 1 -25 6 -10 606 -15 617 -4 3 3 4 14 1 25
-5 18 -17 19 -309 19 -257 0 -305 -2 -310 -15z"/>
<path d="M867 1153 c-4 -3 -7 -15 -7 -25 0 -17 16 -18 316 -18 l315 0 -3 23
-3 22 -306 3 c-168 1 -308 -1 -312 -5z"/>
<path d="M860 985 l0 -25 299 0 c165 0 306 3 315 6 9 3 16 15 16 25 0 18 -13
19 -315 19 l-315 0 0 -25z"/>
<path d="M1560 791 l-95 -6 -6 -75 c-4 -41 -8 -111 -9 -155 -2 -52 -5 -65 -7
-37 -2 23 -8 42 -14 42 -5 0 -9 -5 -9 -11 0 -7 -17 -10 -45 -7 l-45 3 0 -35
c1 -52 31 -110 84 -158 68 -62 98 -72 223 -72 87 0 114 4 149 21 110 53 183
200 160 323 l-7 35 -42 -23 c-33 -19 -43 -31 -47 -57 -5 -33 -6 -33 -13 -9 -4
14 -7 47 -7 73 0 51 -5 58 -88 125 -23 18 -50 31 -64 30 -13 -1 -66 -4 -118
-7z m110 -56 c0 -24 -2 -25 -65 -25 l-65 0 -1 -137 c-1 -76 -3 -129 -6 -118
-10 45 -15 51 -23 30 -5 -12 -9 38 -9 122 l-1 142 83 4 c45 1 83 4 85 5 1 1 2
-9 2 -23z m67 -17 c-3 -8 -6 -5 -6 6 -1 11 2 17 5 13 3 -3 4 -12 1 -19z m32
-90 c0 -18 -4 -51 -8 -73 l-9 -40 -1 49 c-1 39 -4 47 -17 42 -9 -3 -36 -6 -60
-6 -44 0 -44 0 -44 -34 0 -31 -14 -55 -25 -44 -2 2 -7 34 -11 71 l-7 67 92 0
91 0 -1 -32z m-21 -205 c-26 -2 -71 -2 -100 0 -29 2 -8 3 47 3 55 0 79 -1 53
-3z"/>
</g>
</svg>
