<?xml version="1.0" standalone="no"?>
<!DOCTYPE svg PUBLIC "-//W3C//DTD SVG 20010904//EN"
 "http://www.w3.org/TR/2001/REC-SVG-20010904/DTD/svg10.dtd">
<svg version="1.0" xmlns="http://www.w3.org/2000/svg"
 width="256.000000pt" height="256.000000pt" viewBox="0 0 256.000000 256.000000"
 preserveAspectRatio="xMidYMid meet">
<metadata>
Created by potrace 1.16, written by Peter Selinger 2001-2019
</metadata>
<g transform="translate(0.000000,256.000000) scale(0.100000,-0.100000)"
fill="#000000" stroke="none">
<path d="M0 1280 l0 -1000 269 0 269 0 23 67 c12 38 34 93 50 123 33 64 89
150 89 135 0 -5 -14 -30 -31 -55 -44 -66 -69 -116 -95 -194 -13 -38 -24 -71
-24 -73 0 -2 210 -2 466 -1 464 3 467 3 475 24 11 32 -11 68 -44 72 -35 4 -54
-11 -66 -52 l-9 -31 -1 37 c-1 28 5 41 25 57 35 28 59 26 91 -5 21 -21 25 -32
20 -65 l-5 -39 529 0 529 0 0 1000 0 1000 -1280 0 -1280 0 0 -1000z m1964 445
c52 -297 21 -544 -98 -791 -49 -102 -117 -194 -143 -194 -6 0 5 16 23 36 31
32 115 189 129 241 l6 22 -51 -15 c-29 -8 -68 -25 -88 -36 -67 -39 -87 -48
-99 -48 -7 0 -13 -4 -13 -9 0 -5 -6 -9 -12 -8 -23 1 -78 -27 -78 -40 0 -12
-13 -17 -32 -14 -5 0 -8 -11 -8 -27 -1 -25 -2 -24 -14 11 -8 20 -19 44 -26 52
-18 22 -70 33 -108 23 -18 -5 -38 -6 -45 -1 -6 4 -29 10 -50 13 l-38 5 48 37
c26 20 73 49 103 65 50 26 64 28 207 34 106 4 157 9 166 18 10 11 8 12 -12 6
-28 -8 -241 4 -241 14 0 4 20 22 43 39 94 67 186 174 256 297 l23 40 -27 -30
c-15 -16 -54 -60 -87 -97 -32 -38 -63 -68 -68 -68 -5 0 -11 28 -13 63 l-3 62
-2 -71 c-2 -59 -6 -74 -24 -90 -28 -25 -126 -94 -133 -94 -3 0 -5 53 -5 118 0
79 -3 112 -10 102 -5 -8 -10 -31 -10 -52 0 -59 -28 -190 -45 -208 -8 -9 -55
-37 -104 -63 -75 -40 -90 -45 -95 -31 -12 30 -6 45 34 83 35 33 40 43 40 83 0
61 -27 93 -92 113 -28 8 -56 19 -62 24 -7 6 -10 34 -8 74 3 57 6 66 25 72 12
3 136 35 275 70 300 75 408 121 495 209 28 29 53 52 54 52 1 -1 9 -42 17 -91z
m-895 59 c12 -15 21 -37 21 -49 0 -32 -37 -75 -65 -75 -19 0 -24 -7 -29 -42
-8 -52 -18 -69 -34 -59 -9 6 -8 18 4 55 15 43 15 48 0 65 -23 25 -21 86 4 111
29 29 74 26 99 -6z m-101 -255 c17 -6 38 -21 46 -34 19 -29 21 -98 3 -113 -10
-9 -12 -4 -9 23 4 33 4 34 -44 40 -27 3 -61 8 -76 10 -67 11 -57 -92 12 -118
13 -5 13 -6 -1 -6 -22 -1 -66 49 -74 86 -9 42 17 91 58 108 39 17 46 18 85 4z
m-319 -105 c27 -34 27 -74 0 -108 -43 -55 -139 -18 -139 54 0 72 96 109 139
54z m137 -15 c10 -17 -17 -29 -61 -27 -47 3 -53 20 -10 29 47 10 63 10 71 -2z
m288 -108 c12 -13 16 -27 11 -38 -6 -15 -12 -12 -46 26 -47 52 -54 83 -11 53
15 -11 35 -29 46 -41z m-199 -27 c26 -11 52 -14 84 -9 56 8 75 -8 86 -70 7
-43 37 -82 73 -96 19 -7 22 -16 22 -57 0 -56 -6 -63 -135 -156 -81 -58 -71
-45 25 32 38 30 47 42 33 42 -10 0 -28 7 -39 15 -10 8 -31 15 -46 15 -16 0
-29 6 -30 13 -1 6 -5 -13 -8 -43 -6 -41 -7 -25 -6 63 0 64 -2 117 -5 117 -9 0
-29 -75 -39 -141 -5 -35 -8 -43 -9 -23 -1 29 -3 31 -63 42 -80 15 -104 8 -117
-32 -20 -59 -33 -181 -28 -246 4 -53 3 -59 -5 -35 -6 17 -11 77 -11 135 -2
119 21 217 73 320 29 58 85 130 100 130 4 0 25 -7 45 -16z m309 -25 c30 -23
33 -54 9 -81 -22 -25 -59 -23 -77 4 -21 30 -20 54 4 78 25 25 31 25 64 -1z
m82 -359 c23 -9 26 -14 20 -41 -7 -38 15 -83 52 -103 15 -9 22 -15 17 -16 -32
-1 -85 67 -85 109 0 17 -7 19 -73 18 -63 -2 -79 -6 -122 -34 -28 -18 -67 -49
-88 -69 -21 -20 -40 -34 -43 -32 -2 3 29 37 69 75 97 92 178 121 253 93z m152
-22 c7 -7 12 -19 11 -27 0 -11 -2 -12 -6 -4 -7 19 -44 -3 -37 -22 9 -22 -23
-19 -34 3 -22 42 32 84 66 50z m40 -88 c22 -29 29 -60 15 -60 -14 0 -64 70
-58 80 10 16 20 12 43 -20z m562 -15 c44 -46 23 -128 -34 -137 -36 -6 -76 13
-91 43 -21 39 -19 53 11 88 33 40 80 42 114 6z m-375 -29 c30 -20 49 -75 36
-107 l-10 -24 0 26 c-2 64 -74 103 -145 79 -26 -8 -38 -19 -42 -38 -10 -46
-14 -49 -9 -7 11 94 87 125 170 71z m-792 12 c-84 -107 -148 -215 -210 -358
-13 -30 -21 -42 -18 -27 11 52 106 232 167 315 32 45 62 82 65 82 3 0 1 -6 -4
-12z m544 -24 c-3 -3 -12 -4 -19 -1 -8 3 -5 6 6 6 11 1 17 -2 13 -5z m463 -27
c0 -9 -23 -18 -64 -25 -80 -15 -86 -15 -86 2 0 8 18 18 48 24 70 14 102 14
102 -1z m-872 -26 c-73 -6 -79 -8 -119 -46 -40 -38 -41 -38 -20 -8 37 54 57
63 141 61 l75 -1 -77 -6z m139 -7 c-3 -3 -12 -4 -19 -1 -8 3 -5 6 6 6 11 1 17
-2 13 -5z m372 -192 c-21 -50 -32 -61 -43 -44 -9 15 44 116 55 105 6 -6 2 -27
-12 -61z m-684 40 c-3 -3 -11 0 -18 7 -9 10 -8 11 6 5 10 -3 15 -9 12 -12z
m615 4 c-30 -37 -206 -71 -329 -63 -85 5 -237 34 -227 44 2 3 31 -1 63 -8 32
-7 124 -13 208 -13 155 -1 150 -2 294 53 2 0 -2 -6 -9 -13z m-573 -12 c-3 -3
-12 -4 -19 -1 -8 3 -5 6 6 6 11 1 17 -2 13 -5z"/>
<path d="M1738 1303 c6 -2 18 -2 25 0 6 3 1 5 -13 5 -14 0 -19 -2 -12 -5z"/>
<path d="M558 1376 c-46 -34 4 -92 57 -68 38 17 34 57 -6 71 -18 6 -32 11 -33
11 -1 0 -9 -7 -18 -14z"/>
<path d="M1938 723 c-45 -12 -19 -83 30 -83 16 0 33 5 40 12 16 16 15 68 0 68
-7 0 -22 2 -33 4 -11 2 -27 2 -37 -1z"/>
</g>
</svg>
