<?xml version="1.0" standalone="no"?>
<!DOCTYPE svg PUBLIC "-//W3C//DTD SVG 20010904//EN"
 "http://www.w3.org/TR/2001/REC-SVG-20010904/DTD/svg10.dtd">
<svg version="1.0" xmlns="http://www.w3.org/2000/svg"
 width="256.000000pt" height="256.000000pt" viewBox="0 0 256.000000 256.000000"
 preserveAspectRatio="xMidYMid meet">
<metadata>
Created by potrace 1.16, written by Peter Selinger 2001-2019
</metadata>
<g transform="translate(0.000000,256.000000) scale(0.100000,-0.100000)"
fill="#000000" stroke="none">
<path d="M0 1280 l0 -1000 498 0 497 0 -32 20 c-103 63 -223 248 -274 421 -30
105 -37 301 -14 389 33 126 110 229 211 280 72 37 193 36 287 -2 85 -35 108
-35 226 3 83 27 107 30 178 27 66 -4 93 -10 146 -36 36 -18 79 -48 96 -68 l31
-35 -42 -32 c-84 -64 -138 -194 -124 -300 15 -111 65 -195 147 -247 27 -18 49
-37 49 -43 0 -6 -19 -48 -41 -93 -51 -100 -131 -208 -188 -252 l-43 -32 476 0
476 0 0 1000 0 1000 -1280 0 -1280 0 0 -1000z m1567 475 c-15 -146 -134 -280
-267 -301 l-43 -7 6 59 c13 127 98 236 222 284 83 32 89 29 82 -35z"/>
<path d="M1650 1095 c-7 -8 -16 -13 -20 -10 -5 3 -17 -5 -27 -19 -20 -25 -83
-62 -83 -49 -1 5 -8 -4 -16 -19 -8 -16 -18 -28 -22 -28 -13 0 -6 -47 10 -72 9
-13 14 -36 13 -51 -2 -15 0 -25 3 -23 4 2 16 -2 27 -10 10 -8 16 -14 12 -14
-4 0 2 -9 13 -20 11 -11 17 -26 14 -35 -4 -8 -1 -21 5 -28 6 -8 13 -43 17 -80
6 -62 5 -69 -26 -119 -64 -105 -118 -131 -275 -135 -105 -3 -114 -1 -175 28
-132 62 -158 114 -121 245 13 46 28 66 59 83 12 7 20 16 17 21 -3 4 15 16 40
26 30 11 44 22 41 31 -3 7 1 13 9 13 8 0 22 14 32 30 9 17 21 30 26 30 5 0 4
7 -3 15 -6 8 -8 20 -4 26 5 8 2 10 -8 6 -12 -4 -14 -1 -11 14 7 24 10 24 -144
-6 -191 -39 -270 -81 -313 -171 -30 -62 -23 -116 30 -219 82 -163 188 -261
280 -259 25 0 80 12 123 27 100 35 149 34 258 -4 132 -46 163 -39 254 55 71
74 150 197 160 251 5 27 1 34 -49 72 -109 83 -160 215 -137 353 10 62 9 67 -9
45z"/>
<path d="M1195 309 c-33 -11 -62 -23 -64 -25 -2 -2 74 -4 170 -3 l174 0 -55
20 c-86 31 -155 33 -225 8z"/>
</g>
</svg>
