<?xml version="1.0" standalone="no"?>
<!DOCTYPE svg PUBLIC "-//W3C//DTD SVG 20010904//EN"
 "http://www.w3.org/TR/2001/REC-SVG-20010904/DTD/svg10.dtd">
<svg version="1.0" xmlns="http://www.w3.org/2000/svg"
 width="256.000000pt" height="256.000000pt" viewBox="0 0 256.000000 256.000000"
 preserveAspectRatio="xMidYMid meet">
<metadata>
Created by potrace 1.16, written by Peter Selinger 2001-2019
</metadata>
<g transform="translate(0.000000,256.000000) scale(0.100000,-0.100000)"
fill="#000000" stroke="none">
<path d="M0 1280 l0 -1000 1280 0 1280 0 0 1000 0 1000 -1280 0 -1280 0 0
-1000z m1358 575 c-6 -14 -13 -23 -15 -21 -5 5 15 46 22 46 3 0 -1 -11 -7 -25z
m657 1 c12 -18 13 -30 6 -50 -6 -14 -16 -26 -22 -26 -8 0 -7 5 2 18 7 9 10 14
5 10 -9 -8 -55 53 -49 65 9 15 43 6 58 -17z m-581 -56 c-13 -33 -24 -68 -24
-79 0 -11 -5 -23 -12 -27 -16 -10 -3 62 22 120 29 69 43 56 14 -14z m535 -19
c-6 -2 -18 4 -27 13 -15 15 -15 15 10 4 15 -7 23 -15 17 -17z m-379 9 c0 -5
-5 -10 -11 -10 -5 0 -7 5 -4 10 3 6 8 10 11 10 2 0 4 -4 4 -10z m-263 -22 c-3
-8 -6 -5 -6 6 -1 11 2 17 5 13 3 -3 4 -12 1 -19z m243 -18 c0 -5 -2 -10 -4
-10 -3 0 -8 5 -11 10 -3 6 -1 10 4 10 6 0 11 -4 11 -10z m-253 -47 c-3 -10 -5
-2 -5 17 0 19 2 27 5 18 2 -10 2 -26 0 -35z m300 25 c-3 -8 -6 -5 -6 6 -1 11
2 17 5 13 3 -3 4 -12 1 -19z m-785 -101 c22 -32 46 -61 54 -64 8 -3 14 -9 14
-14 0 -23 -44 17 -77 69 -20 31 -50 73 -67 92 l-31 35 34 -30 c18 -17 51 -56
73 -88z m407 68 c0 -5 -4 -3 -9 5 -5 8 -9 22 -9 30 0 16 17 -16 18 -35z m-325
3 c-3 -4 -9 -8 -15 -8 -5 0 -9 4 -9 8 0 5 7 9 15 9 8 0 12 -4 9 -9z m566 -10
c0 -6 -6 -5 -15 2 -8 7 -15 14 -15 16 0 2 7 1 15 -2 8 -4 15 -11 15 -16z m357
5 c-4 -3 1 -16 10 -27 18 -21 18 -21 -4 -2 -20 16 -23 36 -6 36 4 0 3 -3 0 -7z
m-1249 -38 c70 -48 66 -52 -8 -8 -33 19 -60 37 -60 39 0 10 20 1 68 -31z m344
1 c7 4 8 2 4 -5 -9 -13 -26 -5 -25 12 0 9 2 8 6 -1 2 -6 10 -9 15 -6z m638
-17 c0 -6 -4 -7 -10 -4 -5 3 -10 11 -10 16 0 6 5 7 10 4 6 -3 10 -11 10 -16z
m262 -21 c-7 -7 -12 -8 -12 -2 0 6 3 14 7 17 3 4 9 5 12 2 2 -3 -1 -11 -7 -17z
m-622 -3 c0 -8 -4 -15 -10 -15 -5 0 -10 7 -10 15 0 8 5 15 10 15 6 0 10 -7 10
-15z m17 -7 c-3 -8 -6 -5 -6 6 -1 11 2 17 5 13 3 -3 4 -12 1 -19z m53 7 c0 -8
-4 -15 -10 -15 -5 0 -10 7 -10 15 0 8 5 15 10 15 6 0 10 -7 10 -15z m50 0 c0
-8 -7 -15 -15 -15 -16 0 -20 12 -8 23 11 12 23 8 23 -8z m50 -11 c0 -16 -16
-19 -25 -4 -8 13 4 32 16 25 5 -4 9 -13 9 -21z m-220 2 c0 -8 -4 -17 -9 -21
-12 -7 -24 12 -16 25 9 15 25 12 25 -4z m277 -11 c0 -8 -4 -15 -9 -15 -4 0 -8
7 -8 15 0 8 4 15 8 15 5 0 9 -7 9 -15z m-332 -4 c7 -12 -12 -24 -25 -16 -11 7
-4 25 10 25 5 0 11 -4 15 -9z m395 5 c0 -15 -14 -35 -21 -30 -15 9 -10 34 6
34 8 0 15 -2 15 -4z m-443 -43 c-11 -10 -26 8 -20 23 5 15 7 14 15 -1 6 -9 7
-19 5 -22z m488 9 c0 -18 -20 -15 -23 4 -3 10 1 15 10 12 7 -3 13 -10 13 -16z
m45 -27 c0 -8 -7 -15 -15 -15 -8 0 -15 7 -15 15 0 8 7 15 15 15 8 0 15 -7 15
-15z m170 -25 c-20 -13 -30 -12 -30 1 0 5 4 8 9 4 5 -3 13 0 16 6 4 5 10 8 13
4 4 -3 0 -10 -8 -15z m-970 -47 c0 -7 -58 36 -66 49 -4 7 9 -1 29 -16 20 -16
37 -30 37 -33z m840 42 c0 -8 -4 -15 -10 -15 -5 0 -10 7 -10 15 0 8 5 15 10
15 6 0 10 -7 10 -15z m-687 -26 c-17 -17 -37 -1 -22 17 8 10 15 12 23 4 7 -7
7 -13 -1 -21z m370 24 c-18 -2 -48 -2 -65 0 -18 2 -4 4 32 4 36 0 50 -2 33 -4z
m-158 -23 c-126 -40 -243 -157 -285 -283 -12 -36 -18 -47 -15 -27 14 90 96
214 172 261 49 30 143 69 168 68 11 0 -7 -9 -40 -19z m232 14 c-3 -3 -12 -4
-19 -1 -8 3 -5 6 6 6 11 1 17 -2 13 -5z m91 -31 c57 -27 138 -99 162 -143 7
-14 -13 4 -45 38 -41 45 -78 72 -129 97 -39 19 -65 35 -58 35 7 0 39 -12 70
-27z m192 6 c0 -5 -7 -9 -15 -9 -15 0 -20 12 -9 23 8 8 24 -1 24 -14z m-762
-21 c-6 -18 -28 -21 -28 -4 0 9 7 16 16 16 9 0 14 -5 12 -12z m802 -23 c0 -8
-6 -15 -14 -15 -17 0 -28 14 -19 24 12 12 33 6 33 -9z m-850 -26 c0 -24 -23
-21 -28 4 -2 10 3 17 12 17 10 0 16 -9 16 -21z m410 -4 c0 -8 -4 -15 -10 -15
-5 0 -10 7 -10 15 0 8 5 15 10 15 6 0 10 -7 10 -15z m-50 -15 c0 -11 -7 -20
-15 -20 -8 0 -15 9 -15 20 0 11 7 20 15 20 8 0 15 -9 15 -20z m163 -5 c-7 -21
-13 -19 -13 6 0 11 4 18 10 14 5 -3 7 -12 3 -20z m-213 -11 c0 -8 -9 -14 -20
-14 -22 0 -28 26 -7 33 16 6 27 -1 27 -19z m570 16 c0 -5 -4 -10 -9 -10 -6 0
-13 5 -16 10 -3 6 1 10 9 10 9 0 16 -4 16 -10z m-307 -6 c3 -3 3 -13 0 -21 -5
-12 -7 -12 -14 -1 -15 23 -4 40 14 22z m-607 -15 c8 -14 -11 -33 -25 -25 -11
7 -4 36 9 36 5 0 12 -5 16 -11z m290 -28 c-10 -16 -36 -13 -36 3 0 17 21 27
34 16 4 -5 5 -13 2 -19z m644 14 c0 -8 -2 -15 -4 -15 -2 0 -6 7 -10 15 -3 8
-1 15 4 15 6 0 10 -7 10 -15z m-465 -25 c3 -5 1 -10 -4 -10 -6 0 -11 5 -11 10
0 6 2 10 4 10 3 0 8 -4 11 -10z m-225 -10 c0 -16 -37 -53 -49 -49 -7 3 -2 15
11 32 22 28 38 35 38 17z m718 -12 c-6 -18 -28 -21 -28 -4 0 9 7 16 16 16 9 0
14 -5 12 -12z m-598 -8 c0 -5 -5 -10 -11 -10 -5 0 -7 5 -4 10 3 6 8 10 11 10
2 0 4 -4 4 -10z m-400 -29 c0 -12 -20 -25 -27 -18 -7 7 6 27 18 27 5 0 9 -4 9
-9z m226 -33 c5 -7 3 -8 -6 -3 -10 6 -12 4 -6 -11 5 -14 4 -16 -5 -7 -6 6 -8
16 -5 22 9 14 13 14 22 -1z m162 -50 c-18 -18 -35 -32 -38 -30 -5 4 57 62 66
62 3 0 -9 -15 -28 -32z m217 2 c10 -11 16 -20 13 -20 -3 0 -13 9 -23 20 -10
11 -16 20 -13 20 3 0 13 -9 23 -20z m635 10 c-8 -5 -19 -10 -25 -10 -5 0 -3 5
5 10 8 5 20 10 25 10 6 0 3 -5 -5 -10z m-80 -20 c0 -5 -5 -10 -11 -10 -5 0 -7
5 -4 10 3 6 8 10 11 10 2 0 4 -4 4 -10z m-35 -9 c3 -6 -4 -9 -15 -8 -11 1 -20
5 -20 9 0 11 28 10 35 -1z m-595 -41 c26 -26 26 -76 1 -90 -48 -25 -101 -1
-101 46 0 29 33 64 60 64 11 0 29 -9 40 -20z"/>
<path d="M805 1350 c-3 -5 -1 -10 4 -10 6 0 11 5 11 10 0 6 -2 10 -4 10 -3 0
-8 -4 -11 -10z"/>
</g>
</svg>
