<?xml version="1.0" standalone="no"?>
<!DOCTYPE svg PUBLIC "-//W3C//DTD SVG 20010904//EN"
 "http://www.w3.org/TR/2001/REC-SVG-20010904/DTD/svg10.dtd">
<svg version="1.0" xmlns="http://www.w3.org/2000/svg"
 width="256.000000pt" height="256.000000pt" viewBox="0 0 256.000000 256.000000"
 preserveAspectRatio="xMidYMid meet">
<metadata>
Created by potrace 1.16, written by Peter Selinger 2001-2019
</metadata>
<g transform="translate(0.000000,256.000000) scale(0.100000,-0.100000)"
fill="#000000" stroke="none">
<path d="M0 1280 l0 -1000 1280 0 1280 0 0 1000 0 1000 -1280 0 -1280 0 0
-1000z m2010 495 c100 -59 97 -205 -5 -255 -39 -19 -63 -20 -390 -20 l-348 0
-42 25 c-66 38 -91 117 -61 190 16 37 50 64 99 76 17 4 185 7 372 6 322 -2
342 -3 375 -22z m-905 -117 c-2 -30 -8 -35 -70 -60 -169 -69 -294 -205 -352
-383 -33 -103 -38 -266 -9 -360 22 -75 77 -180 123 -237 34 -42 34 -42 -11 5
-56 60 -118 181 -136 267 -16 78 -30 99 -30 44 0 -62 26 -151 70 -239 22 -44
32 -71 24 -60 -28 35 -83 157 -101 225 -28 103 -23 273 10 375 66 201 223 368
408 435 73 26 77 25 74 -12z m806 -347 c82 -197 76 -419 -17 -603 -14 -27 -27
-48 -29 -48 -3 0 6 22 19 48 31 61 53 141 60 217 7 79 -9 108 -19 34 -15 -109
-101 -307 -146 -335 -7 -4 -1 8 13 27 99 132 141 334 104 501 -16 74 -62 179
-108 247 -12 19 -17 32 -11 28 6 -4 22 -3 35 2 31 13 58 -20 99 -118z m-513
-47 c92 -46 142 -132 142 -243 -1 -31 -7 -69 -14 -86 -13 -30 -13 -30 -9 15 6
66 -2 73 -93 73 -142 1 -304 -7 -304 -14 0 -4 -12 -9 -26 -11 -42 -5 -52 -30
-32 -85 13 -38 14 -44 2 -28 -18 24 -44 109 -44 145 0 89 70 198 152 239 63
31 158 29 226 -5z m-161 -490 c-3 -3 -12 -4 -19 -1 -8 3 -5 6 6 6 11 1 17 -2
13 -5z m110 0 c-3 -3 -12 -4 -19 -1 -8 3 -5 6 6 6 11 1 17 -2 13 -5z m-586
-191 c13 -16 12 -17 -3 -4 -10 7 -18 15 -18 17 0 8 8 3 21 -13z m989 3 c0 -2
-8 -10 -17 -17 -16 -13 -17 -12 -4 4 13 16 21 21 21 13z m-870 -51 c13 -14 21
-25 18 -25 -2 0 -15 11 -28 25 -13 14 -21 25 -18 25 2 0 15 -11 28 -25z m800
-9 c0 -2 -8 -10 -17 -17 -16 -13 -17 -12 -4 4 13 16 21 21 21 13z"/>
<path d="M1265 1700 c-27 -30 -24 -98 6 -123 20 -17 20 -19 4 -12 -28 12 -74
12 -76 0 -3 -25 51 -48 125 -53 66 -4 76 -2 76 12 0 17 -5 20 -52 30 l-27 6
25 25 c46 46 23 135 -35 135 -15 0 -36 -9 -46 -20z m66 -34 c14 -29 -4 -69
-29 -64 -17 3 -28 47 -18 74 8 22 35 16 47 -10z"/>
<path d="M1380 1645 c0 -70 2 -75 21 -75 18 0 21 5 17 30 -4 27 -2 30 24 30
18 0 28 5 28 15 0 10 -10 15 -30 15 -20 0 -30 5 -30 15 0 10 11 15 35 15 24 0
35 5 35 15 0 11 -12 15 -50 15 l-50 0 0 -75z"/>
<path d="M1490 1645 c0 -68 2 -75 20 -75 16 0 19 5 14 29 -6 26 -3 30 20 33
34 4 35 22 1 26 -36 5 -32 32 5 32 20 0 30 5 30 15 0 11 -12 15 -45 15 l-45 0
0 -75z"/>
<path d="M1600 1645 c0 -71 1 -75 23 -76 17 -1 -50 -14 -110 -21 -6 -1 -11
-10 -10 -20 1 -19 11 -19 243 -16 227 3 244 4 270 24 15 11 29 25 31 31 5 15
-40 25 -49 10 -5 -8 -8 -7 -8 5 0 11 -10 18 -32 20 -42 4 -50 28 -9 28 21 0
31 5 31 15 0 10 -10 15 -30 15 -20 0 -30 5 -30 15 0 10 10 15 30 15 20 0 30 5
30 15 0 11 -12 15 -45 15 l-45 0 0 -74 0 -75 48 -4 c26 -2 -9 -4 -78 -5 l-125
-1 3 80 c3 74 2 79 -17 79 -20 0 -21 -6 -21 -80 0 -70 -2 -80 -17 -79 -11 0
-13 3 -5 6 25 10 12 33 -18 33 l-30 0 0 60 c0 47 -3 60 -15 60 -12 0 -15 -15
-15 -75z"/>
<path d="M1760 1645 c0 -59 3 -75 14 -75 10 0 16 13 18 38 l3 37 23 -37 c38
-61 52 -51 52 37 0 60 -3 75 -15 75 -11 0 -15 -12 -15 -42 l-1 -43 -25 43
c-40 65 -54 56 -54 -33z"/>
</g>
</svg>
