<?xml version="1.0" standalone="no"?>
<!DOCTYPE svg PUBLIC "-//W3C//DTD SVG 20010904//EN"
 "http://www.w3.org/TR/2001/REC-SVG-20010904/DTD/svg10.dtd">
<svg version="1.0" xmlns="http://www.w3.org/2000/svg"
 width="256.000000pt" height="256.000000pt" viewBox="0 0 256.000000 256.000000"
 preserveAspectRatio="xMidYMid meet">
<metadata>
Created by potrace 1.16, written by Peter Selinger 2001-2019
</metadata>
<g transform="translate(0.000000,256.000000) scale(0.100000,-0.100000)"
fill="#000000" stroke="none">
<path d="M0 1280 l0 -1000 1280 0 1280 0 0 1000 0 1000 -1280 0 -1280 0 0
-1000z m1475 526 c261 -69 476 -286 551 -557 28 -98 25 -332 -4 -414 -12 -33
-20 -49 -17 -35 3 14 7 57 10 95 l6 70 -21 -75 c-19 -71 -73 -200 -84 -200 -3
0 4 20 15 45 77 174 80 404 9 585 -71 181 -259 357 -444 416 -277 88 -586 -4
-768 -230 -52 -65 -110 -169 -129 -234 -7 -23 -14 -40 -16 -38 -8 8 30 132 58
188 16 32 27 58 25 58 -11 0 -71 -108 -97 -173 -15 -39 -28 -63 -28 -52 0 36
55 162 103 233 112 169 305 296 504 332 68 13 257 4 327 -14z m-35 -271 c40
-83 54 -141 65 -260 4 -44 25 -125 57 -218 28 -81 48 -150 46 -153 -3 -2 -11
15 -18 38 -22 75 -84 184 -65 116 10 -39 -10 0 -53 102 -32 74 -46 129 -66
246 -13 83 -33 173 -44 200 -35 88 -35 90 3 49 19 -22 53 -76 75 -120z m-394
37 c14 -9 34 -47 34 -63 0 -6 -16 -26 -35 -45 -47 -44 -71 -129 -49 -174 9
-16 13 -34 10 -38 -3 -5 10 -23 28 -41 21 -21 36 -29 40 -22 10 16 58 13 84
-5 49 -34 12 -119 -50 -112 -44 4 -93 -56 -93 -115 0 -36 -3 -43 -28 -51 -37
-14 -62 3 -62 40 0 24 7 32 38 48 49 23 93 88 88 130 -4 45 -56 96 -97 96 -65
0 -75 58 -20 113 13 13 30 43 37 66 11 37 10 46 -4 71 -21 36 -22 68 0 92 16
18 59 24 79 10z m608 -123 c-21 -96 -13 -239 21 -374 29 -115 32 -155 6 -75
-19 59 -74 133 -65 88 2 -13 -5 -3 -17 21 -32 66 -37 188 -11 268 19 61 70
159 78 151 2 -3 -3 -38 -12 -79z m-852 -99 c35 -27 40 -55 16 -85 -16 -21 -18
-34 -13 -80 5 -38 13 -59 25 -65 50 -27 65 -71 33 -96 -22 -16 -65 -18 -80 -3
-9 9 -21 6 -46 -10 -22 -14 -38 -18 -42 -11 -3 5 10 17 29 27 20 9 36 24 36
33 0 8 7 26 16 38 19 28 12 124 -11 145 -8 6 -21 18 -30 25 -23 19 -19 68 7
86 28 20 30 20 60 -4z m573 -152 c25 -47 44 -106 61 -186 14 -64 27 -126 30
-137 4 -16 3 -17 -4 -5 -6 8 -20 53 -33 100 -12 46 -24 79 -27 72 -5 -16 -29
-16 -35 1 -3 6 -6 -8 -7 -33 -2 -37 -5 -27 -20 55 -20 118 -33 162 -69 230
-38 74 -38 74 18 21 28 -28 67 -81 86 -118z m453 85 c-17 -49 -20 -87 -20
-258 -1 -110 -3 -182 -5 -160 -6 77 -14 105 -28 105 -7 0 -15 -10 -17 -22 -2
-13 -8 8 -12 46 -16 127 8 232 70 313 14 18 26 33 28 33 2 0 -6 -26 -16 -57z
m-1291 -75 c-3 -8 -6 -5 -6 6 -1 11 2 17 5 13 3 -3 4 -12 1 -19z m1080 -340
c-3 -8 -6 -5 -6 6 -1 11 2 17 5 13 3 -3 4 -12 1 -19z m244 -101 c-10 -9 -11
-8 -5 6 3 10 9 15 12 12 3 -3 0 -11 -7 -18z m22 -138 c-10 -17 -26 -38 -37
-47 -10 -9 -4 4 15 31 37 53 49 62 22 16z m-53 -72 c0 -2 -10 -12 -22 -23
l-23 -19 19 23 c18 21 26 27 26 19z"/>
<path d="M779 1073 c-8 -22 -7 -30 7 -40 25 -18 48 -16 68 6 14 15 15 24 6 40
-13 26 -44 29 -36 4 3 -10 2 -24 -3 -32 -7 -11 -10 -9 -16 8 -3 11 -3 25 0 31
3 5 1 10 -5 10 -6 0 -15 -12 -21 -27z"/>
</g>
</svg>
