<?xml version="1.0" standalone="no"?>
<!DOCTYPE svg PUBLIC "-//W3C//DTD SVG 20010904//EN"
 "http://www.w3.org/TR/2001/REC-SVG-20010904/DTD/svg10.dtd">
<svg version="1.0" xmlns="http://www.w3.org/2000/svg"
 width="256.000000pt" height="256.000000pt" viewBox="0 0 256.000000 256.000000"
 preserveAspectRatio="xMidYMid meet">
<metadata>
Created by potrace 1.16, written by Peter Selinger 2001-2019
</metadata>
<g transform="translate(0.000000,256.000000) scale(0.100000,-0.100000)"
fill="#000000" stroke="none">
<path d="M0 1280 l0 -1000 1280 0 1280 0 0 1000 0 1000 -1280 0 -1280 0 0
-1000z m1410 363 l150 -193 -90 0 -90 0 0 -74 c0 -90 -10 -166 -21 -166 -5 0
-9 15 -9 34 0 42 -6 46 -65 48 -25 0 -45 4 -45 8 0 8 -52 23 -66 20 -4 -1 -11
4 -15 12 -6 9 -9 5 -9 -13 0 -15 -3 -41 -6 -58 -5 -24 -3 -31 10 -31 9 0 16
-4 16 -10 0 -5 -11 -10 -25 -10 l-24 0 -3 118 -3 117 -86 5 -86 5 151 193 c83
106 154 191 158 190 4 -2 75 -90 158 -195z m-360 -324 l0 -31 -82 6 c-46 3
-122 7 -170 8 -80 2 -90 0 -113 -22 -40 -37 -32 -90 16 -115 23 -13 112 -15
554 -15 580 0 579 0 610 -61 21 -39 21 -189 1 -189 -10 0 -16 19 -21 68 -7 77
-19 106 -48 119 -16 7 -26 2 -53 -26 -19 -19 -34 -38 -34 -43 0 -4 -6 -8 -12
-8 -7 0 -33 -18 -58 -40 l-45 -40 -83 4 c-45 2 -85 -1 -88 -5 -3 -5 -17 -6
-32 -3 -26 7 -33 11 -79 53 -12 10 -24 17 -26 14 -3 -2 -8 4 -11 15 -8 25 -32
30 -119 27 -55 -1 -71 -6 -88 -24 -16 -17 -28 -21 -48 -16 -82 19 -130 37
-160 60 -19 14 -41 25 -48 25 -7 0 -13 5 -13 10 0 6 -21 10 -47 10 -27 0 -60
6 -74 14 l-26 13 -7 -66 c-3 -36 -6 -106 -7 -156 -1 -49 -4 -117 -8 -150 l-7
-60 -8 65 c-4 36 -6 165 -4 287 l3 222 29 30 c39 40 81 49 259 50 l147 1 0
-31z m663 20 c42 -11 65 -40 74 -93 6 -38 -12 -52 -24 -18 -3 9 -15 27 -26 40
-19 21 -28 22 -159 22 l-138 0 0 30 0 30 118 0 c64 0 134 -5 155 -11z m-426
-125 c-3 -3 -12 -4 -19 -1 -8 3 -5 6 6 6 11 1 17 -2 13 -5z m-137 -244 c0 -33
3 -40 20 -40 17 0 20 7 20 40 0 38 2 40 30 40 28 0 30 -2 30 -40 0 -34 3 -40
21 -40 50 0 109 -61 109 -113 0 -14 -10 -38 -23 -53 l-23 -26 33 -33 c28 -28
33 -40 33 -79 0 -38 -6 -52 -32 -81 -22 -23 -45 -37 -68 -40 -32 -5 -33 -5
-10 5 53 23 48 52 -7 39 -21 -5 -76 -9 -123 -9 -47 1 -102 -3 -122 -9 -20 -5
-39 -6 -42 -3 -11 10 6 22 30 22 24 0 24 1 24 94 0 51 -3 120 -6 154 -6 56 -9
61 -33 64 -22 2 -26 8 -26 33 0 29 2 30 53 33 52 3 52 3 52 36 0 39 6 46 37
46 20 0 23 -5 23 -40z m781 -120 c17 -10 19 -22 19 -123 0 -75 -4 -117 -12
-125 -8 -8 -60 -12 -166 -12 l-154 0 -29 29 c-26 26 -29 37 -29 89 0 66 26
117 70 139 31 16 273 18 301 3z m-863 -347 c-16 -2 -40 -2 -55 0 -16 2 -3 4
27 4 30 0 43 -2 28 -4z m164 -33 c4 19 6 17 7 -12 1 -28 -3 -38 -14 -38 -11 0
-15 10 -14 38 1 32 2 34 8 12 l8 -25 5 25z"/>
<path d="M1140 805 l0 -55 46 0 c63 0 84 13 84 53 0 46 -16 57 -77 57 l-53 0
0 -55z"/>
<path d="M1138 629 c-3 -35 -3 -68 0 -73 8 -14 124 2 144 21 24 21 23 65 -1
87 -12 11 -43 20 -79 23 l-59 6 -5 -64z"/>
<path d="M1636 761 c-26 -29 -18 -81 16 -100 59 -33 120 28 87 87 -19 35 -76
43 -103 13z"/>
<path d="M1805 680 c-22 -4 -58 -17 -80 -29 -22 -12 -45 -19 -52 -16 -7 2 -13
-2 -13 -9 0 -8 10 -16 23 -20 38 -10 222 -7 234 5 12 12 5 56 -10 66 -16 10
-57 11 -102 3z"/>
</g>
</svg>
