<?xml version="1.0" standalone="no"?>
<!DOCTYPE svg PUBLIC "-//W3C//DTD SVG 20010904//EN"
 "http://www.w3.org/TR/2001/REC-SVG-20010904/DTD/svg10.dtd">
<svg version="1.0" xmlns="http://www.w3.org/2000/svg"
 width="256.000000pt" height="256.000000pt" viewBox="0 0 256.000000 256.000000"
 preserveAspectRatio="xMidYMid meet">
<metadata>
Created by potrace 1.16, written by Peter Selinger 2001-2019
</metadata>
<g transform="translate(0.000000,256.000000) scale(0.100000,-0.100000)"
fill="#000000" stroke="none">
<path d="M0 1280 l0 -1000 1280 0 1280 0 0 1000 0 1000 -1280 0 -1280 0 0
-1000z m1511 540 c23 -13 26 -62 4 -80 -12 -10 -15 -39 -15 -141 0 -79 -4
-129 -10 -129 -6 0 -10 48 -10 123 0 111 -2 126 -20 142 -26 24 -25 60 2 79
27 19 24 19 49 6z m-413 -12 c19 -19 14 -56 -8 -70 -18 -12 -20 -24 -21 -143
-1 -99 -3 -119 -10 -85 -4 25 -8 84 -8 131 -1 64 -5 90 -16 99 -32 26 -12 80
30 80 12 0 26 -5 33 -12z m429 -548 c41 -74 88 -153 104 -177 16 -23 29 -44
29 -47 0 -2 -84 36 -186 86 -115 55 -190 86 -196 80 -5 -5 -8 -91 -6 -200 2
-106 2 -192 0 -192 -2 0 -22 13 -45 29 -23 16 -103 63 -177 106 -74 42 -139
80 -143 85 -5 4 25 66 66 136 41 71 120 210 177 309 56 99 109 188 117 197 15
16 22 6 101 -130 46 -81 118 -208 159 -282z m-693 404 c18 -18 21 -55 5 -71
-7 -7 -10 -55 -7 -137 1 -69 0 -126 -3 -126 -9 0 -19 94 -19 180 0 68 -2 76
-22 85 -42 18 -31 85 13 85 9 0 25 -7 33 -16z m951 -4 c15 -17 16 -24 7 -45
-7 -14 -20 -25 -31 -25 -19 0 -21 -8 -23 -127 -2 -73 -7 -128 -13 -130 -6 -2
-9 41 -7 118 2 78 -1 132 -9 150 -9 24 -9 33 5 54 20 30 47 32 71 5z m-840
-138 c0 -85 -19 -84 -23 1 -2 53 0 68 10 65 9 -3 13 -25 13 -66z m685 -2 c0
-40 -4 -70 -10 -70 -11 0 -14 123 -3 133 12 13 13 7 13 -63z m-651 -123 c0
-12 -3 -16 -6 -9 -2 6 -16 12 -29 12 -26 0 -31 9 -12 28 16 16 48 -4 47 -31z
m636 25 c4 10 11 15 16 12 13 -7 -19 -64 -36 -64 -20 0 -29 38 -14 56 12 14
14 14 20 -3 6 -17 7 -17 14 -1z m-983 -128 c7 -9 35 -40 62 -70 l49 -54 64 0
c47 0 64 -3 61 -12 -3 -8 -28 -14 -68 -16 l-63 -3 -47 46 c-43 42 -50 46 -70
35 -44 -24 -94 42 -58 78 17 17 55 15 70 -4z m1362 -3 c36 -39 -9 -92 -58 -69
-24 10 -29 8 -67 -36 l-41 -47 -66 3 c-41 2 -67 8 -70 16 -3 9 14 12 60 12 62
0 65 1 104 43 22 23 48 54 57 70 21 32 56 36 81 8z m-224 -31 l105 -7 -119 1
c-93 1 -120 4 -124 15 -4 11 0 12 14 5 11 -4 66 -11 124 -14z m-860 1 c0 -13
-54 -21 -134 -20 l-71 2 89 8 c49 5 91 11 94 14 8 8 22 6 22 -4z m1160 -189
c18 -14 21 -25 16 -45 -8 -34 -49 -46 -75 -23 -12 11 -36 16 -79 16 -35 0 -62
4 -62 10 0 6 -32 10 -75 10 -43 0 -75 4 -75 10 0 6 33 10 79 10 44 0 83 -4 86
-10 13 -20 86 -11 117 15 35 30 39 30 68 7z m-1511 -13 c17 -19 27 -21 73 -15
126 16 208 19 208 7 0 -7 -26 -11 -74 -11 -41 0 -78 -4 -81 -10 -3 -5 -32 -10
-64 -10 -40 0 -63 -5 -71 -15 -33 -40 -105 9 -80 54 14 28 63 28 89 0z m276
-119 c4 -6 -18 -10 -57 -10 -37 0 -69 -5 -76 -12 -7 -7 -12 -9 -12 -6 0 4 7
14 16 22 18 18 119 23 129 6z m1017 -2 c16 -13 58 -77 58 -90 0 -4 -51 -8
-114 -10 -63 -2 -112 0 -109 5 2 4 51 7 109 7 116 0 117 1 61 62 -23 24 -29
26 -88 22 -45 -3 -58 -1 -44 5 29 14 109 13 127 -1z m-760 -108 c95 -60 179
-110 186 -110 8 0 26 9 40 19 50 35 315 191 319 187 3 -2 -16 -30 -40 -63 -24
-32 -68 -96 -97 -143 -54 -87 -135 -207 -153 -225 -19 -20 17 41 92 154 66 98
131 206 131 216 0 4 -229 -133 -262 -157 l-28 -19 0 -130 c0 -71 3 -129 7
-129 4 0 18 12 31 28 14 16 11 8 -8 -21 -27 -41 -35 -47 -45 -35 -7 7 -77 110
-155 228 -78 118 -155 234 -171 257 -28 39 -34 53 -25 53 2 0 82 -49 178 -110z
m-212 10 c0 -12 -59 -12 -115 -1 -35 8 -31 9 38 10 45 1 77 -3 77 -9z m-256
-15 c17 -13 18 -17 6 -28 -7 -6 -10 -7 -7 -1 4 6 -5 17 -18 24 -31 17 -59 -2
-52 -37 2 -12 0 -20 -4 -17 -13 8 -11 48 3 62 16 16 49 15 72 -3z m1323 -9
c-8 -16 -14 -21 -19 -13 -4 7 0 17 9 25 22 16 23 16 10 -12z m-209 -153 l-2
-98 -3 90 c-3 55 -8 92 -16 97 -8 5 -6 8 6 8 15 0 17 -10 15 -97z m-863 78
l-40 -6 -5 -120 -6 -120 -2 128 -2 127 48 -1 47 -2 -40 -6z m93 -95 c-14 -10
-18 -28 -18 -79 0 -36 -4 -69 -10 -72 -6 -4 -10 25 -10 79 l0 86 28 0 c24 -1
25 -2 10 -14z m655 7 c-7 -2 -19 -2 -25 0 -7 3 -2 5 12 5 14 0 19 -2 13 -5z
m-6 -75 c-2 -13 -4 -3 -4 22 0 25 2 35 4 23 2 -13 2 -33 0 -45z m-546 -133
l-8 -100 -2 110 c0 70 2 106 9 99 6 -6 6 -47 1 -109z"/>
<path d="M1464 1789 c-3 -6 0 -17 8 -25 13 -13 16 -13 27 0 7 8 10 20 6 26 -8
13 -32 13 -41 -1z"/>
<path d="M1045 1790 c-4 -7 -3 -16 3 -22 14 -14 45 -2 40 15 -6 16 -34 21 -43
7z"/>
<path d="M1510 1145 c-11 -13 -10 -18 6 -30 30 -22 54 -26 47 -7 -5 11 -3 13
6 7 10 -6 11 -3 2 13 -8 14 -17 19 -32 15 -15 -4 -20 -3 -15 5 10 17 1 15 -14
-3z"/>
<path d="M1007 1083 l-77 -37 62 -37 c35 -21 90 -53 123 -70 33 -17 71 -40 84
-50 16 -13 28 -16 36 -9 6 5 15 7 18 3 4 -3 7 -1 7 5 0 7 -4 12 -10 12 -5 0
-10 9 -10 19 0 18 -15 35 -31 36 -9 0 -41 35 -32 35 4 0 1 6 -8 13 -9 7 -19
22 -23 34 -4 13 -13 20 -20 17 -8 -3 -16 4 -19 16 -3 11 -9 20 -14 19 -20 -3
-25 2 -13 16 17 20 16 20 -73 -22z"/>
<path d="M792 1647 c-10 -11 -9 -17 3 -27 24 -20 45 4 24 26 -14 13 -17 13
-27 1z"/>
<path d="M1732 1633 c2 -10 10 -18 18 -18 8 0 16 8 18 18 2 12 -3 17 -18 17
-15 0 -20 -5 -18 -17z"/>
<path d="M574 1276 c-8 -21 3 -36 27 -36 15 0 20 6 17 22 -4 27 -35 37 -44 14z"/>
<path d="M1942 1277 c-15 -17 1 -42 23 -33 18 6 17 37 -1 43 -6 2 -16 -2 -22
-10z"/>
<path d="M2020 1041 c0 -24 13 -33 35 -25 23 9 14 38 -13 42 -16 3 -22 -2 -22
-17z"/>
<path d="M487 1047 c-8 -21 8 -39 29 -35 27 5 25 42 -2 46 -12 2 -24 -3 -27
-11z"/>
</g>
</svg>
