<?xml version="1.0" standalone="no"?>
<!DOCTYPE svg PUBLIC "-//W3C//DTD SVG 20010904//EN"
 "http://www.w3.org/TR/2001/REC-SVG-20010904/DTD/svg10.dtd">
<svg version="1.0" xmlns="http://www.w3.org/2000/svg"
 width="256.000000pt" height="256.000000pt" viewBox="0 0 256.000000 256.000000"
 preserveAspectRatio="xMidYMid meet">
<metadata>
Created by potrace 1.16, written by Peter Selinger 2001-2019
</metadata>
<g transform="translate(0.000000,256.000000) scale(0.100000,-0.100000)"
fill="#000000" stroke="none">
<path d="M0 1280 l0 -1000 833 0 832 0 -40 23 c-47 27 -100 94 -115 145 -47
170 54 324 221 339 88 8 144 -11 205 -71 52 -51 84 -121 84 -183 0 -41 -20
-107 -41 -133 l-20 -25 17 35 c18 35 26 142 12 156 -4 3 -25 10 -46 14 -34 6
-43 3 -77 -25 -29 -25 -36 -37 -31 -51 7 -18 6 -18 -11 -2 -16 17 -15 20 27
64 l45 45 -24 20 c-13 10 -27 19 -31 19 -5 0 -25 -19 -44 -42 l-36 -42 -44 43
c-38 38 -46 42 -65 32 -30 -17 -26 -40 16 -83 36 -37 36 -38 17 -59 -10 -11
-28 -26 -39 -31 -14 -8 -12 -2 9 21 l30 31 -39 40 c-43 45 -59 48 -94 21 -22
-17 -23 -23 -19 -99 5 -95 30 -137 101 -171 53 -26 178 -29 232 -7 42 18 46
13 8 -8 -25 -14 7 -15 330 -16 l357 0 0 1000 0 1000 -1280 0 -1280 0 0 -1000z
m1826 451 c111 -49 184 -163 184 -287 0 -113 -29 -159 -214 -343 l-155 -153
-73 3 c-63 4 -83 9 -131 39 l-57 34 53 54 54 54 31 -16 c59 -31 70 -25 209
117 105 107 133 141 142 175 39 142 -115 257 -249 187 -14 -7 -76 -65 -139
-129 -113 -115 -114 -116 -107 -155 3 -22 8 -45 11 -53 3 -7 -16 -35 -44 -62
-56 -55 -66 -54 -95 8 -20 43 -21 155 -2 201 16 38 226 258 287 300 82 58 200
68 295 26z m-735 -147 c4 -16 7 -57 8 -91 1 -57 -1 -63 -19 -63 -11 0 -20 2
-20 4 0 3 -5 39 -11 81 -8 58 -7 80 2 91 17 21 33 12 40 -22z m-183 -137 c66
-66 89 -107 61 -107 -19 0 -159 132 -159 150 0 17 8 30 19 30 4 0 39 -33 79
-73z m-27 -188 c12 -6 16 -15 12 -26 -4 -11 -8 -13 -11 -5 -3 9 -21 12 -60 9
-32 -3 -43 -2 -27 1 28 5 27 6 -14 11 -25 4 -46 12 -49 20 -4 12 7 13 63 7 37
-4 76 -11 86 -17z m-14 -35 c-3 -3 -12 -4 -19 -1 -8 3 -5 6 6 6 11 1 17 -2 13
-5z m230 -159 c79 -40 80 -44 19 -104 l-53 -52 -35 17 c-21 10 -46 14 -60 11
-13 -4 -81 -64 -150 -135 -116 -118 -127 -132 -133 -175 -12 -77 20 -144 85
-177 95 -48 159 -20 303 135 88 94 107 121 107 146 0 17 -4 38 -9 48 -8 14 1
28 44 71 30 30 56 52 59 49 2 -2 13 -22 24 -44 28 -57 36 -125 22 -184 -11
-46 -25 -63 -151 -188 -156 -154 -202 -183 -295 -191 -124 -10 -243 58 -302
172 -35 68 -38 187 -6 257 27 58 269 315 326 347 58 31 138 30 205 -3z m381
-291 c12 -19 18 -34 13 -34 -11 0 -71 70 -71 82 0 16 36 -15 58 -48z m365
-393 c-1 -2 -21 13 -43 33 -22 20 -43 36 -47 36 -4 0 -24 -17 -45 -37 -34 -33
-40 -35 -63 -25 -14 6 -25 16 -25 22 0 7 7 4 16 -4 23 -24 36 -20 79 24 l39
39 46 -42 c25 -23 45 -44 43 -46z m117 -14 c0 -2 -12 -14 -27 -28 l-28 -24 24
28 c23 25 31 32 31 24z"/>
<path d="M1900 1473 c0 -35 -8 -75 -19 -100 -27 -58 -240 -283 -293 -308 -51
-24 -82 -70 -58 -85 8 -5 35 -10 59 -10 44 0 46 1 202 158 106 106 165 173
179 203 22 49 26 119 9 168 -9 27 -16 31 -45 31 l-34 0 0 -57z"/>
<path d="M690 843 c-53 -50 -88 -92 -106 -128 -24 -50 -26 -64 -22 -138 6
-119 53 -193 152 -245 42 -21 65 -26 131 -26 120 -1 171 32 338 218 l71 78
-27 24 c-16 13 -35 24 -44 24 -8 0 -64 -47 -123 -105 -141 -137 -193 -159
-285 -116 -74 34 -105 86 -105 174 1 66 18 97 110 198 43 48 69 84 62 87 -7 2
-10 7 -7 12 3 4 -11 10 -31 12 -32 4 -42 -2 -114 -69z"/>
</g>
</svg>
