<?xml version="1.0" standalone="no"?>
<!DOCTYPE svg PUBLIC "-//W3C//DTD SVG 20010904//EN"
 "http://www.w3.org/TR/2001/REC-SVG-20010904/DTD/svg10.dtd">
<svg version="1.0" xmlns="http://www.w3.org/2000/svg"
 width="256.000000pt" height="256.000000pt" viewBox="0 0 256.000000 256.000000"
 preserveAspectRatio="xMidYMid meet">
<metadata>
Created by potrace 1.16, written by Peter Selinger 2001-2019
</metadata>
<g transform="translate(0.000000,256.000000) scale(0.100000,-0.100000)"
fill="#000000" stroke="none">
<path d="M0 1280 l0 -1000 755 0 756 0 -11 21 c-37 68 -160 226 -211 270 -32
29 -59 57 -59 63 0 6 24 -14 54 -43 31 -31 56 -48 59 -42 4 8 5 8 3 0 -1 -6
11 -25 27 -43 16 -17 58 -74 93 -127 59 -90 66 -96 99 -97 39 -2 41 2 20 38
-17 29 -20 70 -5 70 6 0 10 -7 10 -16 0 -9 5 -34 12 -55 l11 -39 474 0 473 0
0 1000 0 1000 -1280 0 -1280 0 0 -1000z m1372 494 c159 -18 339 -73 387 -117
14 -14 40 -33 56 -43 60 -37 106 -79 135 -122 16 -25 40 -50 52 -56 17 -9 23
-20 23 -47 1 -25 14 -56 43 -102 34 -51 45 -80 53 -134 6 -37 16 -78 21 -90
11 -21 9 -45 -11 -171 -17 -113 -74 -172 -165 -172 -27 0 -88 7 -135 16 -172
33 -385 4 -604 -82 -129 -51 -216 -57 -291 -20 -70 34 -136 105 -136 146 0 22
5 30 18 29 10 0 12 -3 5 -6 -7 -2 -13 -11 -13 -19 0 -10 6 -11 28 -4 27 10 27
10 5 -6 -30 -21 -30 -38 0 -24 21 11 22 11 2 -5 -17 -13 -18 -17 -5 -25 9 -6
18 -5 23 3 6 8 7 7 4 -5 -7 -19 22 -47 42 -40 8 2 11 0 7 -6 -3 -6 -1 -14 5
-18 8 -5 9 -3 4 6 -5 8 -3 11 6 8 8 -3 13 -10 12 -16 -2 -7 4 -9 14 -5 12 5
14 3 8 -7 -6 -10 -3 -12 13 -8 12 4 24 3 26 -1 7 -11 86 -13 86 -2 0 5 9 7 19
4 20 -5 191 63 203 81 5 8 8 8 8 0 0 -11 117 15 160 35 33 15 285 13 371 -3
104 -19 169 -19 169 2 0 8 6 12 14 9 17 -7 49 26 39 38 -5 4 -2 5 5 1 8 -5 14
2 18 24 4 17 11 33 15 36 5 3 9 15 9 26 0 20 -1 20 -25 -4 -13 -13 -29 -37
-35 -53 -15 -38 -23 -26 -9 14 11 31 5 101 -18 216 -5 27 -7 28 -14 10 -6 -16
-8 -14 -8 12 -1 38 -17 52 -26 23 -8 -26 -36 -26 -59 1 -10 12 -21 17 -25 13
-67 -75 -152 -176 -150 -178 105 -68 115 -68 187 -9 24 19 44 34 46 32 2 -2
11 -29 21 -59 10 -30 20 -62 23 -70 4 -12 2 -12 -8 -3 -7 6 -20 35 -29 64
l-18 53 -47 -44 c-43 -40 -47 -47 -44 -84 2 -31 -1 -41 -12 -41 -11 0 -14 8
-12 29 6 51 -59 100 -168 127 -33 8 -112 14 -198 14 l-143 0 -65 -73 c-37 -40
-80 -80 -98 -88 -35 -18 -28 -10 26 29 41 30 114 115 106 123 -3 3 -26 0 -52
-7 -32 -8 -53 -21 -67 -40 -12 -17 -30 -29 -43 -29 -12 0 -28 -6 -35 -12 -10
-11 -11 -10 -6 5 11 27 -19 21 -54 -12 -18 -16 -45 -60 -62 -96 -17 -37 -33
-65 -36 -62 -10 11 56 137 88 166 l31 29 -35 11 c-42 14 -87 48 -87 64 0 7 5
4 11 -6 13 -23 62 -47 94 -47 14 0 34 11 47 25 12 14 31 25 44 25 12 0 29 10
38 23 16 22 16 22 6 -5 -9 -27 -8 -28 20 -28 17 0 79 15 138 34 59 19 136 36
172 39 58 4 61 3 28 -6 -64 -18 -52 -27 61 -47 81 -14 101 -9 142 38 37 42 46
52 101 107 20 21 39 47 41 59 4 21 4 21 13 -1 13 -31 39 -14 31 19 -17 66
-138 147 -150 100 -3 -9 -3 -2 -1 16 3 38 1 38 -85 9 -59 -20 -66 -26 -74 -57
-27 -108 -27 -110 -50 -110 -12 0 -56 7 -99 17 -72 15 -78 15 -102 -1 -14 -9
-26 -24 -26 -32 0 -10 -6 -14 -15 -10 -8 3 -20 -3 -28 -14 -8 -11 -16 -18 -19
-15 -3 3 -25 -3 -49 -13 -40 -17 -74 -19 -164 -12 -52 4 -65 1 -65 -16 0 -14
-3 -14 -15 -4 -11 9 -15 9 -15 1 0 -7 -5 -9 -10 -6 -13 8 -127 -100 -148 -140
-8 -16 -18 -41 -23 -55 l-7 -25 -1 26 c-2 54 108 187 189 229 14 8 61 16 105
20 56 5 97 15 136 33 31 15 65 27 75 27 11 0 36 11 55 25 32 21 41 23 74 14
25 -7 41 -7 47 -1 7 7 17 7 29 -1 30 -19 86 17 100 64 13 42 6 94 -17 124 -12
16 -17 17 -23 6 -7 -10 -13 -10 -29 -2 -33 17 -37 14 -66 -49 -19 -40 -38 -66
-57 -75 -40 -21 -50 -18 -13 4 36 22 60 68 76 146 15 77 43 99 118 92 30 -3
65 -8 77 -11 48 -11 34 61 -21 106 -27 22 -69 23 -87 2 -10 -12 -23 -14 -52
-10 -48 8 -78 -9 -97 -53 -7 -17 -16 -31 -21 -31 -5 0 -9 -9 -9 -19 0 -15 -6
-19 -27 -18 -23 2 -29 -4 -44 -43 -20 -50 -25 -120 -8 -120 6 0 3 -7 -5 -16
-9 -8 -16 -22 -16 -29 0 -8 -6 -18 -14 -22 -7 -4 -18 -26 -24 -48 l-10 -40 -1
35 c-1 19 -8 44 -16 54 -8 11 -15 26 -15 34 0 7 -11 28 -24 45 -13 18 -36 55
-50 84 -34 65 -92 105 -144 101 -20 -2 -37 -7 -37 -13 0 -5 -3 -15 -7 -21 -4
-6 4 -22 17 -34 23 -22 25 -31 25 -114 0 -72 5 -103 24 -148 13 -32 22 -58 20
-58 -2 0 -15 22 -29 50 -20 40 -25 64 -25 124 0 128 -28 162 -102 126 -49 -24
-52 -24 -42 -7 5 8 2 8 -9 -2 -32 -26 -20 -60 43 -124 l60 -62 1 40 c0 22 4
49 9 60 6 13 7 2 3 -32 -3 -29 0 -66 6 -84 8 -22 8 -36 1 -43 -5 -5 -58 -11
-117 -13 -59 -2 -112 -8 -118 -14 -7 -7 -1 -18 20 -36 l30 -25 -35 18 c-19 10
-52 19 -73 20 -21 1 -41 5 -44 8 -3 3 -6 25 -6 48 0 33 -7 52 -31 81 -28 35
-34 38 -66 34 l-35 -6 24 17 c57 41 171 168 171 192 0 10 -7 21 -16 24 -21 8
-94 -33 -95 -53 -1 -9 -2 -21 -3 -27 0 -6 -20 -31 -43 -55 -46 -47 -77 -117
-62 -140 14 -23 10 -36 -6 -15 -15 20 -35 14 -35 -13 0 -14 7 -16 36 -13 44 5
39 -12 -6 -21 -27 -6 -30 -10 -30 -47 0 -22 4 -40 9 -40 5 0 7 -9 4 -19 -5
-19 22 -54 48 -63 8 -3 10 -9 6 -14 -4 -5 -12 -2 -17 6 -6 9 -10 10 -10 3 0
-11 18 -28 32 -28 13 0 21 -15 8 -15 -9 0 -5 -9 10 -25 13 -14 30 -23 38 -20
8 3 10 0 6 -6 -4 -6 0 -15 7 -20 22 -14 32 -10 25 8 -4 10 -3 14 1 9 4 -4 13
25 19 66 11 73 11 73 13 21 0 -28 -4 -64 -9 -78 -9 -23 -8 -26 5 -21 9 3 14 2
10 -3 -3 -5 1 -12 7 -15 7 -3 0 -3 -17 0 -23 4 -27 3 -15 -5 13 -9 13 -11 -1
-11 -46 0 -145 108 -174 191 -16 44 -19 176 -5 219 l8 25 2 -25 1 -25 12 23
c8 18 8 25 -3 32 -11 7 5 37 71 136 80 121 140 184 177 184 8 0 30 14 50 31
41 36 120 74 189 90 27 6 69 18 96 26 113 35 172 38 359 17z m274 -246 l29
-31 -32 22 c-35 23 -50 41 -35 41 4 0 21 -14 38 -32z m-1056 -68 c0 -5 -5 -10
-11 -10 -5 0 -7 5 -4 10 3 6 8 10 11 10 2 0 4 -4 4 -10z m770 -80 c0 -5 -2
-10 -4 -10 -3 0 -8 5 -11 10 -3 6 -1 10 4 10 6 0 11 -4 11 -10z m-259 -94 c5
-6 9 -18 9 -29 0 -14 -5 -17 -22 -11 -20 6 -21 5 -9 -10 12 -14 12 -16 -3 -10
-19 7 -19 11 -3 71 9 37 13 42 15 23 2 -14 8 -29 13 -34z m679 -91 c-7 -25
-15 -44 -17 -42 -2 3 2 25 9 50 6 26 14 44 16 42 3 -2 -1 -25 -8 -50z m-1250
-9 c-4 -19 -5 -37 -2 -40 3 -4 0 -6 -6 -6 -6 0 -16 -16 -22 -36 -7 -19 -14
-33 -17 -30 -3 2 3 29 12 58 28 86 50 119 35 54z m-95 -46 c3 -5 1 -10 -4 -10
-6 0 -11 5 -11 10 0 6 2 10 4 10 3 0 8 -4 11 -10z m5 -24 c0 -3 -4 -8 -10 -11
-5 -3 -10 -1 -10 4 0 6 5 11 10 11 6 0 10 -2 10 -4z m1310 0 c0 -2 -8 -10 -17
-17 -16 -13 -17 -12 -4 4 13 16 21 21 21 13z m-1207 -87 c30 0 30 -1 9 -10
-29 -11 -62 4 -62 29 1 16 1 16 11 0 6 -11 23 -18 42 -19z m-73 1 c0 -5 -4
-10 -9 -10 -6 0 -13 5 -16 10 -3 6 1 10 9 10 9 0 16 -4 16 -10z m752 -22 c-7
-7 -12 -8 -12 -2 0 14 12 26 19 19 2 -3 -1 -11 -7 -17z m-484 -58 c20 -7 42
-17 47 -23 7 -7 4 -8 -10 -2 -11 4 -33 12 -50 17 -31 11 -65 42 -65 60 0 6 9
-1 20 -15 11 -14 37 -31 58 -37z m572 29 c-6 -10 -16 -19 -22 -19 -6 0 -4 8 5
18 10 10 14 22 10 27 -5 4 -2 5 5 1 9 -5 9 -12 2 -27z m75 -104 c20 -32 42
-55 52 -55 24 -1 -44 -30 -68 -30 -27 0 -23 17 6 24 28 7 26 23 -11 73 -13 17
-24 34 -24 37 0 15 12 2 45 -49z m-608 -29 c3 -3 -34 -5 -83 -5 -56 1 -78 4
-59 8 36 8 133 6 142 -3z m913 -9 c25 -3 19 -4 -21 -5 -31 -1 -72 -4 -90 -7
l-34 -5 37 13 c20 6 40 15 44 19 4 4 12 4 18 -1 6 -5 27 -11 46 -14z m-776
-51 c-3 -9 -10 -16 -15 -16 -6 0 -5 9 1 21 13 24 24 20 14 -5z m208 -41 c6
-28 -6 -34 -16 -9 -5 14 0 34 8 34 2 0 6 -11 8 -25z m544 -77 l15 -33 -6 35
c-6 33 -5 34 10 16 17 -23 19 -42 5 -51 -6 -3 -8 -18 -5 -33 3 -15 2 -21 -1
-14 -8 17 -27 15 -20 -3 3 -8 1 -15 -3 -15 -5 0 -12 8 -16 18 -6 14 -8 13 -18
-11 l-12 -28 -12 30 c-6 17 -7 31 -2 31 5 0 9 -8 10 -17 0 -14 2 -15 6 -3 3 8
11 19 17 23 7 5 3 7 -9 5 -15 -2 -20 5 -26 35 -7 46 -3 47 15 5 l15 -33 -5 35
c-5 34 -5 34 11 15 17 -20 17 -20 10 3 -10 33 4 27 21 -10z m58 5 c2 -10 1
-36 -3 -58 -7 -40 -7 -40 -15 -11 -4 19 -3 32 4 36 9 6 9 13 1 29 -7 12 -8 21
-2 21 5 0 12 -8 15 -17z m35 -15 c10 -30 9 -31 -4 -14 -8 11 -15 26 -15 33 0
22 8 14 19 -19z m-175 -27 c-6 -6 -11 1 -18 29 l-7 25 15 -25 c8 -14 12 -27
10 -29z m371 -9 c-9 -43 -70 -109 -129 -140 -44 -23 -63 -27 -141 -27 -75 0
-97 4 -135 24 -52 27 -116 84 -136 123 -23 45 -16 42 22 -9 47 -61 43 -57 50
-51 3 4 1 16 -6 27 -6 12 -7 21 -3 21 4 0 16 -18 26 -40 22 -47 54 -70 69 -49
7 10 8 9 4 -5 -5 -15 -2 -17 14 -13 11 3 18 1 14 -4 -3 -5 3 -9 13 -10 10 0
37 -2 61 -5 72 -8 149 20 206 77 29 29 46 54 43 63 -3 8 1 17 9 20 8 3 14 13
14 22 0 10 3 15 6 11 3 -3 3 -19 -1 -35z m-210 -1 c3 -5 1 -12 -5 -16 -5 -3
-10 1 -10 9 0 18 6 21 15 7z m-218 -58 c13 -31 19 -52 14 -47 -14 15 -51 104
-43 104 4 0 17 -26 29 -57z m31 7 c6 -16 7 -30 2 -30 -6 0 -30 52 -30 67 0 14
20 -12 28 -37z m35 -12 c6 -22 5 -22 -8 -4 -17 22 -20 40 -6 32 5 -3 11 -16
14 -28z m-53 -243 c7 -9 8 -15 2 -15 -5 0 -12 7 -16 15 -3 8 -4 15 -2 15 2 0
9 -7 16 -15z"/>
<path d="M1066 1732 c-3 -5 -23 -14 -45 -22 -47 -15 -51 -27 -15 -40 19 -8 29
-6 40 5 9 8 23 15 33 15 26 0 111 -31 111 -40 0 -5 -13 -3 -30 3 -47 18 -54 2
-32 -79 15 -53 21 -64 26 -48 3 12 22 43 41 69 37 53 36 65 -13 118 -20 21
-35 27 -68 27 -24 0 -45 -4 -48 -8z"/>
<path d="M1220 1725 c0 -19 21 -65 30 -65 8 0 40 45 40 55 0 3 -7 5 -15 5 -8
0 -15 5 -15 10 0 6 -9 10 -20 10 -11 0 -20 -7 -20 -15z"/>
<path d="M1326 1687 c-28 -28 -64 -75 -79 -102 -53 -95 -62 -110 -76 -121 -12
-10 -13 -20 -3 -66 7 -30 19 -64 28 -76 14 -20 17 -21 39 -6 31 20 44 62 51
154 7 105 11 118 37 126 31 9 57 34 57 54 0 23 32 50 58 50 30 0 28 18 -4 30
-43 17 -55 12 -108 -43z"/>
<path d="M1470 1696 c0 -14 -8 -31 -19 -38 -24 -17 -47 -64 -55 -113 l-6 -40
14 31 c7 17 27 42 44 55 16 13 37 39 46 57 13 25 22 32 36 27 10 -3 21 -1 25
5 12 19 -16 40 -51 40 -29 0 -34 -3 -34 -24z"/>
<path d="M852 1655 c-34 -19 -65 -35 -68 -34 -3 0 -8 -2 -11 -5 -4 -3 1 -6 10
-6 10 0 17 -4 17 -10 0 -15 23 -12 66 8 70 32 96 53 83 68 -16 20 -27 18 -97
-21z"/>
<path d="M1635 1670 c-22 -11 -47 -20 -56 -20 -9 0 -23 -7 -30 -16 -12 -15
-11 -16 11 -8 50 17 85 9 117 -26 27 -30 33 -33 47 -21 24 20 20 35 -15 55
-22 13 -29 24 -26 37 6 24 1 24 -48 -1z"/>
<path d="M1020 1629 c0 -6 -6 -9 -13 -6 -20 7 -32 -4 -44 -38 -6 -16 -14 -38
-18 -48 -7 -16 -2 -18 37 -16 45 3 85 -17 118 -56 11 -13 15 -13 21 -3 5 7 9
22 9 32 0 29 -40 106 -55 106 -7 0 -15 6 -18 13 -3 9 -8 8 -22 -3 -16 -14 -17
-13 -11 8 4 12 5 22 2 22 -3 0 -6 -5 -6 -11z m-43 -71 c-3 -8 -6 -5 -6 6 -1
11 2 17 5 13 3 -3 4 -12 1 -19z"/>
<path d="M898 1604 c-16 -8 -28 -19 -28 -25 0 -5 -6 -9 -12 -8 -31 4 -45 -3
-61 -31 -10 -17 -36 -39 -57 -50 -63 -32 -113 -123 -73 -133 14 -4 13 -5 -5
-6 -13 0 -32 4 -42 9 -15 8 -22 5 -34 -12 -21 -30 -20 -53 5 -98 21 -36 23
-37 67 -32 32 3 43 2 38 -7 -4 -6 -3 -11 3 -11 5 0 11 -10 13 -22 2 -19 10
-24 48 -26 60 -5 114 13 133 42 15 22 14 25 -27 67 -23 24 -54 60 -69 80 -25
34 -26 36 -10 60 9 13 25 30 34 36 9 7 20 28 23 47 7 36 48 72 67 60 15 -9 29
15 29 49 0 31 -4 32 -42 11z m-175 -241 c-7 -2 -19 -2 -25 0 -7 3 -2 5 12 5
14 0 19 -2 13 -5z m36 -56 c-5 -20 -12 -37 -15 -37 -6 0 5 59 13 73 11 18 12
-1 2 -36z"/>
<path d="M750 1580 c0 -11 -5 -20 -11 -20 -5 0 -7 5 -3 11 4 8 -1 9 -17 4 -32
-10 -79 -34 -79 -41 0 -6 65 -34 79 -34 6 0 26 14 46 31 34 30 35 33 19 50
-22 24 -34 24 -34 -1z m-32 -48 c6 -18 -15 -14 -22 4 -4 10 -1 14 6 12 6 -2
14 -10 16 -16z m37 9 c3 -5 1 -12 -5 -16 -5 -3 -10 1 -10 9 0 18 6 21 15 7z"/>
<path d="M1750 1580 c0 -11 5 -20 10 -20 6 0 10 -4 10 -10 0 -5 -7 -7 -16 -3
-12 4 -15 2 -12 -8 6 -19 45 -24 65 -7 14 11 15 10 9 -9 -6 -18 1 -27 38 -52
64 -44 83 -41 48 9 -27 40 -64 76 -102 99 -43 26 -50 26 -50 1z"/>
<path d="M1725 1482 c-7 -18 76 -107 103 -109 9 -1 32 -5 50 -9 47 -9 42 12
-17 70 -36 35 -60 50 -90 56 -31 6 -41 4 -46 -8z"/>
<path d="M1595 1450 c-6 -11 4 -32 40 -86 13 -19 25 -40 28 -47 3 -9 19 -7 63
7 65 20 87 33 78 48 -3 5 -28 27 -56 48 -42 34 -57 40 -98 40 -27 0 -52 -4
-55 -10z"/>
<path d="M506 1404 c-5 -14 -4 -15 9 -4 17 14 19 20 6 20 -5 0 -12 -7 -15 -16z"/>
<path d="M1947 1413 c-4 -3 -7 -17 -7 -30 0 -26 34 -33 44 -8 11 30 -17 59
-37 38z"/>
<path d="M1972 1344 c-5 -9 -7 -26 -5 -38 5 -20 5 -20 -11 2 -19 24 -76 32
-76 10 0 -11 71 -108 130 -177 24 -29 35 -68 50 -183 7 -54 16 -85 22 -82 34
21 53 168 27 200 -6 7 -8 18 -4 24 3 5 1 10 -6 10 -7 0 -10 3 -7 6 6 6 -6 61
-24 107 -8 22 -13 25 -24 16 -8 -6 -14 -10 -15 -8 0 2 -2 13 -3 24 -5 37 -29
105 -37 105 -4 0 -12 -7 -17 -16z"/>
</g>
</svg>
